<svg width="83" height="63" viewBox="0 0 83 63" fill="none" xmlns="http://www.w3.org/2000/svg">
<path d="M47.1694 0.945923V13.9503C47.1694 14.4791 46.741 14.9075 46.2122 14.9075C45.9636 14.9075 45.7415 14.8176 45.5723 14.6642C45.5564 14.6536 45.5458 14.6378 45.5299 14.6272C45.5247 14.6219 45.5194 14.6166 45.5141 14.6113L42.2828 11.4488L42.2511 11.4171C42.0078 11.1844 41.6958 11.0627 41.3838 11.0627C41.0718 11.0627 40.7545 11.1844 40.5112 11.4171L40.4795 11.4488L37.2694 14.5954C37.2694 14.5954 37.2641 14.6007 37.2588 14.6007L37.2218 14.6378L37.1636 14.6959C36.9944 14.8334 36.7828 14.9128 36.5554 14.9128C36.0319 14.9128 35.6035 14.495 35.5982 13.9714V0.945923H29.7333C26.4968 0.945923 23.8684 3.57429 23.8684 6.81083V40.0541H23.99C29.2203 40.0541 33.6415 36.5954 35.0905 31.8464C35.4184 30.7728 35.5982 29.6305 35.5982 28.4459V27.9012H34.3819C33.8583 27.9012 33.4352 27.4781 33.4352 26.9546C33.4352 26.7536 33.4987 26.5685 33.6045 26.4152C33.6362 26.3676 33.6679 26.3253 33.7102 26.2882C33.7102 26.2882 33.7102 26.2829 33.7208 26.2777L35.0641 24.9608L35.5929 24.4426L40.49 19.6512L40.5112 19.6301C40.7545 19.3921 41.0665 19.2757 41.3838 19.2757C41.7011 19.2757 42.0131 19.3921 42.2511 19.6301L42.267 19.6512L47.1641 24.4426L47.6982 24.9608L49.0521 26.2882C49.0521 26.2882 49.0626 26.2935 49.0626 26.2988C49.0997 26.3358 49.1261 26.3728 49.1578 26.4099C49.2689 26.5632 49.3271 26.7483 49.3271 26.9493C49.3271 27.4728 48.904 27.8959 48.3804 27.8959H47.1641V28.4406C47.1641 29.6147 47.3386 30.7464 47.6612 31.8147C47.6612 31.8253 47.6665 31.8305 47.6665 31.8411C48.7929 35.5272 51.7069 38.4358 55.3929 39.5517C56.4559 39.8743 57.5929 40.0488 58.7617 40.0488H58.8886V6.81083C58.8886 3.57429 56.2602 0.945923 53.0237 0.945923H47.1588H47.1694Z" fill="#EB5B27"/>
<path d="M3.95596 58.4102H1.5V46.3588H3.95596V51.1946H9.13442V46.3588H11.6285V58.4102H9.13442V53.1936H3.95596V58.4102Z" fill="#231F20"/>
<path d="M16.7761 49.7667V58.4102H14.3582V49.7667H16.7761ZM14.0727 47.5582C14.0727 47.1521 14.2123 46.803 14.4915 46.5111C14.7834 46.2065 15.1261 46.0542 15.5196 46.0542C15.9384 46.0542 16.2938 46.2002 16.5857 46.4921C16.8904 46.784 17.0427 47.1394 17.0427 47.5582C17.0427 48.0025 16.8967 48.3642 16.6048 48.6434C16.3256 48.9227 15.9638 49.0623 15.5196 49.0623C15.1007 49.0623 14.7517 48.9227 14.4725 48.6434C14.2059 48.3515 14.0727 47.9898 14.0727 47.5582Z" fill="#231F20"/>
<path d="M24.7333 57.363C24.1622 58.2134 23.3562 58.6386 22.3154 58.6386C21.0462 58.6386 20.0625 58.188 19.3645 57.2869C18.7679 56.5254 18.4697 55.5607 18.4697 54.393C18.4697 52.7304 18.952 51.4484 19.9166 50.5473C20.6527 49.8746 21.5222 49.5382 22.5249 49.5382C23.3245 49.5382 24.0035 49.735 24.562 50.1284C24.93 50.3823 25.1141 50.5727 25.1141 50.6996L25.3045 49.7667H27.1512V57.5154C27.1512 58.975 26.7895 60.0982 26.066 60.8852C25.3552 61.6594 24.3399 62.0465 23.0199 62.0465C21.6491 62.0465 20.4624 61.5896 19.4597 60.6757L20.0689 59.4573C20.8431 59.965 21.7125 60.2188 22.6772 60.2188C24.0479 60.2188 24.7333 59.2669 24.7333 57.363ZM24.7333 52.6986C24.6826 52.3052 24.4858 51.9688 24.1431 51.6896C23.8131 51.3977 23.4451 51.2517 23.0389 51.2517C22.4043 51.2517 21.8966 51.5055 21.5158 52.0132C21.135 52.5209 20.9447 53.2063 20.9447 54.0694C20.9447 55.9605 21.5666 56.9061 22.8104 56.9061C23.3308 56.9061 23.7814 56.7094 24.1622 56.3159C24.5429 55.9098 24.7333 55.4338 24.7333 54.888V52.6986Z" fill="#231F20"/>
<path d="M29.7363 47.444L32.1351 46.1304V50.7948C32.3382 50.4013 32.757 50.065 33.3917 49.7857C33.8105 49.608 34.204 49.5192 34.572 49.5192C35.6763 49.5192 36.4759 49.8238 36.9709 50.433C37.4786 51.0296 37.7324 51.9942 37.7324 53.3269V58.4102H35.3336V53.4221C35.3336 52.1782 34.8005 51.5563 33.7343 51.5563C32.9601 51.5563 32.427 51.7721 32.1351 52.2036V58.4102H29.7363V47.444Z" fill="#231F20"/>
<path d="M47.4804 58.4102H45.0245V46.3588H47.4804V51.1946H52.6589V46.3588H55.1529V58.4102H52.6589V53.1936H47.4804V58.4102Z" fill="#231F20"/>
<path d="M60.3006 49.7667V58.4102H57.8827V49.7667H60.3006ZM57.5971 47.5582C57.5971 47.1521 57.7367 46.803 58.016 46.5111C58.3079 46.2065 58.6506 46.0542 59.044 46.0542C59.4629 46.0542 59.8183 46.2002 60.1102 46.4921C60.4148 46.784 60.5671 47.1394 60.5671 47.5582C60.5671 48.0025 60.4212 48.3642 60.1292 48.6434C59.85 48.9227 59.4883 49.0623 59.044 49.0623C58.6252 49.0623 58.2762 48.9227 57.9969 48.6434C57.7304 48.3515 57.5971 47.9898 57.5971 47.5582Z" fill="#231F20"/>
<path d="M68.2578 57.363C67.6866 58.2134 66.8807 58.6386 65.8399 58.6386C64.5707 58.6386 63.587 58.188 62.8889 57.2869C62.2924 56.5254 61.9941 55.5607 61.9941 54.393C61.9941 52.7304 62.4764 51.4484 63.441 50.5473C64.1772 49.8746 65.0466 49.5382 66.0493 49.5382C66.8489 49.5382 67.528 49.735 68.0864 50.1284C68.4545 50.3823 68.6385 50.5727 68.6385 50.6996L68.8289 49.7667H70.6757V57.5154C70.6757 58.975 70.3139 60.0982 69.5905 60.8852C68.8797 61.6594 67.8643 62.0465 66.5443 62.0465C65.1735 62.0465 63.9868 61.5896 62.9841 60.6757L63.5933 59.4573C64.3676 59.965 65.237 60.2188 66.2016 60.2188C67.5724 60.2188 68.2578 59.2669 68.2578 57.363ZM68.2578 52.6986C68.207 52.3052 68.0103 51.9688 67.6676 51.6896C67.3376 51.3977 66.9695 51.2517 66.5633 51.2517C65.9287 51.2517 65.421 51.5055 65.0403 52.0132C64.6595 52.5209 64.4691 53.2063 64.4691 54.0694C64.4691 55.9605 65.091 56.9061 66.3349 56.9061C66.8553 56.9061 67.3058 56.7094 67.6866 56.3159C68.0674 55.9098 68.2578 55.4338 68.2578 54.888V52.6986Z" fill="#231F20"/>
<path d="M73.2607 47.444L75.6596 46.1304V50.7948C75.8626 50.4013 76.2815 50.065 76.9161 49.7857C77.3349 49.608 77.7284 49.5192 78.0965 49.5192C79.2007 49.5192 80.0003 49.8238 80.4953 50.433C81.003 51.0296 81.2569 51.9942 81.2569 53.3269V58.4102H78.858V53.4221C78.858 52.1782 78.325 51.5563 77.2588 51.5563C76.4846 51.5563 75.9515 51.7721 75.6596 52.2036V58.4102H73.2607V47.444Z" fill="#231F20"/>
</svg>
