<svg width="33" height="35" viewBox="0 0 33 35" fill="none" xmlns="http://www.w3.org/2000/svg">
<path d="M21.675 0V11.6213C21.675 12.0939 21.2922 12.4767 20.8196 12.4767C20.5974 12.4767 20.3989 12.3964 20.2477 12.2593C20.2335 12.2498 20.2241 12.2357 20.2099 12.2262C20.2052 12.2215 20.2004 12.2168 20.1957 12.212L17.3081 9.38588L17.2798 9.35752C17.0624 9.14958 16.7835 9.04088 16.5047 9.04088C16.2259 9.04088 15.9423 9.14958 15.7249 9.35752L15.6965 9.38588L12.8279 12.1979C12.8279 12.1979 12.8231 12.2026 12.8184 12.2026L12.7853 12.2357L12.7333 12.2877C12.5821 12.4105 12.3931 12.4814 12.1898 12.4814C11.722 12.4814 11.3392 12.1081 11.3344 11.6402V0H6.09327C3.20095 0 0.852112 2.34883 0.852112 5.24116V34.9489H0.96081C5.63485 34.9489 9.5858 31.8581 10.8807 27.6141C11.1737 26.6548 11.3344 25.6339 11.3344 24.5753V24.0885H10.2474C9.77957 24.0885 9.40149 23.7105 9.40149 23.2426C9.40149 23.063 9.4582 22.8976 9.55272 22.7605C9.58108 22.718 9.60943 22.6802 9.64724 22.6471C9.64724 22.6471 9.64724 22.6424 9.65669 22.6376L10.8571 21.4609L11.3297 20.9977L15.706 16.7159L15.7249 16.697C15.9423 16.4844 16.2211 16.3804 16.5047 16.3804C16.7883 16.3804 17.0671 16.4844 17.2798 16.697L17.2939 16.7159L21.6702 20.9977L22.1476 21.4609L23.3574 22.6471C23.3574 22.6471 23.3669 22.6518 23.3669 22.6565C23.4 22.6896 23.4236 22.7227 23.452 22.7558C23.5512 22.8929 23.6032 23.0583 23.6032 23.2379C23.6032 23.7057 23.2251 24.0838 22.7572 24.0838H21.6702V24.5706C21.6702 25.6198 21.8262 26.6311 22.1145 27.5858C22.1145 27.5952 22.1192 27.6 22.1192 27.6094C23.1259 30.9035 25.7299 33.5028 29.0239 34.5C29.9739 34.7882 30.99 34.9442 32.0344 34.9442H32.1478V5.24116C32.1478 2.34883 29.799 0 26.9067 0H21.6655H21.675Z" fill="#EB5B27"/>
</svg>
