<svg width="75" height="41" viewBox="0 0 75 41" fill="none" xmlns="http://www.w3.org/2000/svg">
<path d="M2.49038 16.0492H0.255249V5.08143H2.49038V9.48238H7.20321V5.08143H9.473V16.0492H7.20321V11.3017H2.49038V16.0492Z" fill="#231F20"/>
<path d="M14.1578 8.18289V16.0492H11.9573V8.18289H14.1578ZM11.6974 6.173C11.6974 5.80337 11.8245 5.48571 12.0786 5.22004C12.3443 4.94281 12.6562 4.8042 13.0143 4.8042C13.3954 4.8042 13.7189 4.93704 13.9845 5.20271C14.2618 5.46839 14.4004 5.79182 14.4004 6.173C14.4004 6.57729 14.2675 6.90649 14.0019 7.16062C13.7477 7.41474 13.4185 7.5418 13.0143 7.5418C12.6331 7.5418 12.3154 7.41474 12.0613 7.16062C11.8187 6.89494 11.6974 6.56574 11.6974 6.173Z" fill="#231F20"/>
<path d="M21.3995 15.0962C20.8797 15.8701 20.1462 16.2571 19.199 16.2571C18.0439 16.2571 17.1487 15.847 16.5134 15.0269C15.9705 14.3338 15.6991 13.4559 15.6991 12.3932C15.6991 10.8801 16.138 9.7134 17.0159 8.89328C17.6859 8.28107 18.4771 7.97497 19.3896 7.97497C20.1173 7.97497 20.7353 8.15401 21.2436 8.51209C21.5786 8.74311 21.746 8.91638 21.746 9.03189L21.9193 8.18289H23.6V15.2348C23.6 16.5632 23.2708 17.5855 22.6124 18.3016C21.9655 19.0062 21.0414 19.3585 19.8401 19.3585C18.5926 19.3585 17.5126 18.9427 16.6 18.111L17.1545 17.0021C17.8591 17.4642 18.6504 17.6952 19.5282 17.6952C20.7758 17.6952 21.3995 16.8289 21.3995 15.0962ZM21.3995 10.8512C21.3533 10.4931 21.1743 10.187 20.8624 9.93287C20.5621 9.6672 20.2271 9.53436 19.8575 9.53436C19.2799 9.53436 18.8179 9.76538 18.4713 10.2274C18.1248 10.6895 17.9515 11.3132 17.9515 12.0987C17.9515 13.8198 18.5175 14.6804 19.6495 14.6804C20.1231 14.6804 20.5332 14.5013 20.8797 14.1432C21.2262 13.7736 21.3995 13.3404 21.3995 12.8437V10.8512Z" fill="#231F20"/>
<path d="M25.9526 6.06904L28.1358 4.87351V9.11852C28.3206 8.76044 28.7018 8.45434 29.2793 8.20021C29.6605 8.0385 30.0186 7.95764 30.3536 7.95764C31.3585 7.95764 32.0862 8.23487 32.5367 8.78932C32.9988 9.33222 33.2298 10.2101 33.2298 11.423V16.0492H31.0466V11.5096C31.0466 10.3776 30.5615 9.81159 29.5912 9.81159C28.8866 9.81159 28.4014 10.008 28.1358 10.4007V16.0492H25.9526V6.06904Z" fill="#231F20"/>
<path d="M2.49038 36.7448H0.255249V25.7771H2.49038V30.178H7.20321V25.7771H9.473V36.7448H7.20321V31.9973H2.49038V36.7448Z" fill="#231F20"/>
<path d="M14.1578 28.8785V36.7448H11.9573V28.8785H14.1578ZM11.6974 26.8687C11.6974 26.499 11.8245 26.1814 12.0786 25.9157C12.3443 25.6385 12.6562 25.4999 13.0143 25.4999C13.3954 25.4999 13.7189 25.6327 13.9845 25.8984C14.2618 26.164 14.4004 26.4875 14.4004 26.8687C14.4004 27.2729 14.2675 27.6021 14.0019 27.8563C13.7477 28.1104 13.4185 28.2375 13.0143 28.2375C12.6331 28.2375 12.3154 28.1104 12.0613 27.8563C11.8187 27.5906 11.6974 27.2614 11.6974 26.8687Z" fill="#231F20"/>
<path d="M21.3995 35.7919C20.8797 36.5658 20.1462 36.9527 19.199 36.9527C18.0439 36.9527 17.1487 36.5427 16.5134 35.7225C15.9705 35.0295 15.6991 34.1516 15.6991 33.0889C15.6991 31.5757 16.138 30.4091 17.0159 29.5889C17.6859 28.9767 18.4771 28.6706 19.3896 28.6706C20.1173 28.6706 20.7353 28.8497 21.2436 29.2077C21.5786 29.4388 21.746 29.612 21.746 29.7275L21.9193 28.8785H23.6V35.9305C23.6 37.2588 23.2708 38.2811 22.6124 38.9973C21.9655 39.7019 21.0414 40.0542 19.8401 40.0542C18.5926 40.0542 17.5126 39.6384 16.6 38.8067L17.1545 37.6978C17.8591 38.1598 18.6504 38.3908 19.5282 38.3908C20.7758 38.3908 21.3995 37.5245 21.3995 35.7919ZM21.3995 31.5468C21.3533 31.1888 21.1743 30.8827 20.8624 30.6285C20.5621 30.3629 20.2271 30.23 19.8575 30.23C19.2799 30.23 18.8179 30.461 18.4713 30.9231C18.1248 31.3851 17.9515 32.0089 17.9515 32.7944C17.9515 34.5155 18.5175 35.376 19.6495 35.376C20.1231 35.376 20.5332 35.197 20.8797 34.8389C21.2262 34.4693 21.3995 34.0361 21.3995 33.5394V31.5468Z" fill="#231F20"/>
<path d="M25.9526 26.7647L28.1358 25.5692V29.8142C28.3206 29.4561 28.7018 29.15 29.2793 28.8959C29.6605 28.7342 30.0186 28.6533 30.3536 28.6533C31.3585 28.6533 32.0862 28.9305 32.5367 29.485C32.9988 30.0279 33.2298 30.9058 33.2298 32.1186V36.7448H31.0466V32.2052C31.0466 31.0732 30.5615 30.5072 29.5912 30.5072C28.8866 30.5072 28.4014 30.7036 28.1358 31.0963V36.7448H25.9526V26.7647Z" fill="#231F20"/>
<path d="M63.2808 0.945923V13.9503C63.2808 14.4791 62.8524 14.9075 62.3235 14.9075C62.075 14.9075 61.8529 14.8176 61.6836 14.6642C61.6678 14.6536 61.6572 14.6378 61.6413 14.6272C61.636 14.6219 61.6308 14.6166 61.6255 14.6113L58.3942 11.4488L58.3625 11.4171C58.1192 11.1844 57.8072 11.0627 57.4952 11.0627C57.1832 11.0627 56.8659 11.1844 56.6226 11.4171L56.5909 11.4488L53.3808 14.5954C53.3808 14.5954 53.3755 14.6007 53.3702 14.6007L53.3332 14.6378L53.275 14.6959C53.1058 14.8334 52.8942 14.9128 52.6668 14.9128C52.1433 14.9128 51.7149 14.495 51.7096 13.9714V0.945923H45.8447C42.6082 0.945923 39.9798 3.57429 39.9798 6.81083V40.0541H40.1014C45.3317 40.0541 49.7529 36.5954 51.2019 31.8464C51.5298 30.7728 51.7096 29.6305 51.7096 28.4459V27.9012H50.4933C49.9697 27.9012 49.5466 27.4781 49.5466 26.9546C49.5466 26.7536 49.6101 26.5685 49.7159 26.4152C49.7476 26.3676 49.7793 26.3253 49.8216 26.2882C49.8216 26.2882 49.8216 26.2829 49.8322 26.2777L51.1755 24.9608L51.7043 24.4426L56.6014 19.6512L56.6226 19.6301C56.8659 19.3921 57.1779 19.2757 57.4952 19.2757C57.8125 19.2757 58.1245 19.3921 58.3625 19.6301L58.3784 19.6512L63.2755 24.4426L63.8096 24.9608L65.1635 26.2882C65.1635 26.2882 65.174 26.2935 65.174 26.2988C65.211 26.3358 65.2375 26.3728 65.2692 26.4099C65.3803 26.5632 65.4385 26.7483 65.4385 26.9493C65.4385 27.4728 65.0154 27.8959 64.4918 27.8959H63.2755V28.4406C63.2755 29.6147 63.45 30.7464 63.7726 31.8147C63.7726 31.8253 63.7779 31.8305 63.7779 31.8411C64.9043 35.5272 67.8183 38.4358 71.5043 39.5517C72.5673 39.8743 73.7043 40.0488 74.8731 40.0488H75V6.81083C75 3.57429 72.3716 0.945923 69.1351 0.945923H63.2702H63.2808Z" fill="#EB5B27"/>
</svg>
