<svg width="75" height="40" viewBox="0 0 75 40" fill="none" xmlns="http://www.w3.org/2000/svg">
<path d="M23.5562 0V13.0043C23.5562 13.5332 23.1278 13.9615 22.599 13.9615C22.3504 13.9615 22.1283 13.8716 21.9591 13.7183C21.9432 13.7077 21.9327 13.6918 21.9168 13.6813C21.9115 13.676 21.9062 13.6707 21.9009 13.6654L18.6697 10.5029L18.6379 10.4712C18.3947 10.2385 18.0827 10.1168 17.7706 10.1168C17.4586 10.1168 17.1413 10.2385 16.898 10.4712L16.8663 10.5029L13.6562 13.6495C13.6562 13.6495 13.6509 13.6548 13.6456 13.6548L13.6086 13.6918L13.5504 13.75C13.3812 13.8875 13.1697 13.9668 12.9423 13.9668C12.4187 13.9668 11.9903 13.549 11.9851 13.0255V0H6.12015C2.88361 0 0.255249 2.62837 0.255249 5.8649V39.1082H0.376883C5.60717 39.1082 10.0283 35.6495 11.4774 30.9005C11.8052 29.8269 11.9851 28.6846 11.9851 27.5V26.9553H10.7687C10.2452 26.9553 9.82208 26.5322 9.82208 26.0087C9.82208 25.8077 9.88554 25.6226 9.99131 25.4692C10.023 25.4216 10.0548 25.3793 10.0971 25.3423C10.0971 25.3423 10.0971 25.337 10.1077 25.3317L11.4509 24.0149L11.9798 23.4966L16.8769 18.7053L16.898 18.6841C17.1413 18.4462 17.4533 18.3298 17.7706 18.3298C18.0879 18.3298 18.4 18.4462 18.6379 18.6841L18.6538 18.7053L23.5509 23.4966L24.0851 24.0149L25.4389 25.3423C25.4389 25.3423 25.4495 25.3476 25.4495 25.3529C25.4865 25.3899 25.5129 25.4269 25.5447 25.4639C25.6557 25.6173 25.7139 25.8024 25.7139 26.0034C25.7139 26.5269 25.2908 26.95 24.7673 26.95H23.5509V27.4947C23.5509 28.6688 23.7254 29.8005 24.048 30.8688C24.048 30.8793 24.0533 30.8846 24.0533 30.8952C25.1798 34.5813 28.0937 37.4899 31.7798 38.6058C32.8428 38.9284 33.9798 39.1029 35.1485 39.1029H35.2754V5.8649C35.2754 2.62837 32.6471 0 29.4105 0H23.5456H23.5562Z" fill="#EB5B27"/>
<path d="M44.2606 15.1031H42.0254V4.13538H44.2606V8.53634H48.9734V4.13538H51.2432V15.1031H48.9734V10.3556H44.2606V15.1031Z" fill="#231F20"/>
<path d="M55.928 7.23684V15.1031H53.7275V7.23684H55.928ZM53.4676 5.22696C53.4676 4.85732 53.5947 4.53967 53.8488 4.27399C54.1145 3.99677 54.4264 3.85815 54.7845 3.85815C55.1656 3.85815 55.4891 3.99099 55.7547 4.25667C56.032 4.52234 56.1706 4.84577 56.1706 5.22696C56.1706 5.63124 56.0377 5.96045 55.7721 6.21457C55.5179 6.4687 55.1887 6.59576 54.7845 6.59576C54.4033 6.59576 54.0856 6.4687 53.8315 6.21457C53.5889 5.9489 53.4676 5.61969 53.4676 5.22696Z" fill="#231F20"/>
<path d="M63.1697 14.1502C62.6499 14.9241 61.9164 15.311 60.9692 15.311C59.8141 15.311 58.9189 14.901 58.2836 14.0808C57.7407 13.3878 57.4693 12.5099 57.4693 11.4472C57.4693 9.93401 57.9082 8.76736 58.7861 7.94723C59.456 7.33503 60.2473 7.02892 61.1598 7.02892C61.8875 7.02892 62.5055 7.20796 63.0138 7.56605C63.3488 7.79707 63.5162 7.97033 63.5162 8.08584L63.6895 7.23684H65.3702V14.2888C65.3702 15.6171 65.041 16.6394 64.3826 17.3556C63.7357 18.0602 62.8116 18.4125 61.6103 18.4125C60.3628 18.4125 59.2828 17.9967 58.3702 17.165L58.9247 16.0561C59.6293 16.5181 60.4206 16.7491 61.2984 16.7491C62.546 16.7491 63.1697 15.8828 63.1697 14.1502ZM63.1697 9.90514C63.1235 9.54705 62.9445 9.24095 62.6326 8.98683C62.3323 8.72115 61.9973 8.58832 61.6276 8.58832C61.0501 8.58832 60.588 8.81934 60.2415 9.28138C59.895 9.74342 59.7217 10.3672 59.7217 11.1527C59.7217 12.8738 60.2877 13.7343 61.4197 13.7343C61.8933 13.7343 62.3034 13.5553 62.6499 13.1972C62.9964 12.8276 63.1697 12.3944 63.1697 11.8977V9.90514Z" fill="#231F20"/>
<path d="M67.7228 5.123L69.906 3.92746V8.17248C70.0908 7.81439 70.472 7.50829 71.0495 7.25417C71.4307 7.09245 71.7888 7.0116 72.1238 7.0116C73.1287 7.0116 73.8564 7.28882 74.3069 7.84327C74.769 8.38617 75 9.26405 75 10.4769V15.1031H72.8168V10.5635C72.8168 9.43154 72.3317 8.86554 71.3614 8.86554C70.6568 8.86554 70.1716 9.06191 69.906 9.45465V15.1031H67.7228V5.123Z" fill="#231F20"/>
<path d="M44.2606 35.7988H42.0254V24.831H44.2606V29.232H48.9734V24.831H51.2432V35.7988H48.9734V31.0513H44.2606V35.7988Z" fill="#231F20"/>
<path d="M55.928 27.9325V35.7988H53.7275V27.9325H55.928ZM53.4676 25.9226C53.4676 25.553 53.5947 25.2353 53.8488 24.9697C54.1145 24.6924 54.4264 24.5538 54.7845 24.5538C55.1656 24.5538 55.4891 24.6866 55.7547 24.9523C56.032 25.218 56.1706 25.5414 56.1706 25.9226C56.1706 26.3269 56.0377 26.6561 55.7721 26.9102C55.5179 27.1644 55.1887 27.2914 54.7845 27.2914C54.4033 27.2914 54.0856 27.1644 53.8315 26.9102C53.5889 26.6446 53.4676 26.3153 53.4676 25.9226Z" fill="#231F20"/>
<path d="M63.1697 34.8458C62.6499 35.6197 61.9164 36.0067 60.9692 36.0067C59.8141 36.0067 58.9189 35.5966 58.2836 34.7765C57.7407 34.0834 57.4693 33.2056 57.4693 32.1429C57.4693 30.6297 57.9082 29.463 58.7861 28.6429C59.456 28.0307 60.2473 27.7246 61.1598 27.7246C61.8875 27.7246 62.5055 27.9036 63.0138 28.2617C63.3488 28.4927 63.5162 28.666 63.5162 28.7815L63.6895 27.9325H65.3702V34.9844C65.3702 36.3128 65.041 37.3351 64.3826 38.0512C63.7357 38.7558 62.8116 39.1082 61.6103 39.1082C60.3628 39.1082 59.2828 38.6923 58.3702 37.8606L58.9247 36.7517C59.6293 37.2138 60.4206 37.4448 61.2984 37.4448C62.546 37.4448 63.1697 36.5785 63.1697 34.8458ZM63.1697 30.6008C63.1235 30.2427 62.9445 29.9366 62.6326 29.6825C62.3323 29.4168 61.9973 29.284 61.6276 29.284C61.0501 29.284 60.588 29.515 60.2415 29.977C59.895 30.4391 59.7217 31.0628 59.7217 31.8483C59.7217 33.5694 60.2877 34.43 61.4197 34.43C61.8933 34.43 62.3034 34.2509 62.6499 33.8928C62.9964 33.5232 63.1697 33.09 63.1697 32.5934V30.6008Z" fill="#231F20"/>
<path d="M67.7228 25.8187L69.906 24.6231V28.8681C70.0908 28.5101 70.472 28.2039 71.0495 27.9498C71.4307 27.7881 71.7888 27.7073 72.1238 27.7073C73.1287 27.7073 73.8564 27.9845 74.3069 28.5389C74.769 29.0818 75 29.9597 75 31.1726V35.7988H72.8168V31.2592C72.8168 30.1272 72.3317 29.5612 71.3614 29.5612C70.6568 29.5612 70.1716 29.7576 69.906 30.1503V35.7988H67.7228V25.8187Z" fill="#231F20"/>
</svg>
