<svg width="67" height="35" viewBox="0 0 67 35" fill="none" xmlns="http://www.w3.org/2000/svg">
<path d="M2.20201 13.4963H0.20459V3.69501H2.20201V7.62791H6.41362V3.69501H8.44201V13.4963H6.41362V9.25372H2.20201V13.4963Z" fill="#231F20"/>
<path d="M12.6286 6.46662V13.4963H10.6621V6.46662H12.6286ZM10.4299 4.67049C10.4299 4.34017 10.5434 4.0563 10.7705 3.81888C11.0079 3.57114 11.2866 3.44727 11.6066 3.44727C11.9473 3.44727 12.2363 3.56598 12.4737 3.80339C12.7215 4.04081 12.8454 4.32985 12.8454 4.67049C12.8454 5.03178 12.7267 5.32598 12.4892 5.55307C12.2621 5.78017 11.9679 5.89372 11.6066 5.89372C11.266 5.89372 10.9821 5.78017 10.755 5.55307C10.5383 5.31565 10.4299 5.02146 10.4299 4.67049Z" fill="#231F20"/>
<path d="M19.1001 12.6447C18.6356 13.3363 17.9801 13.6821 17.1337 13.6821C16.1014 13.6821 15.3014 13.3157 14.7337 12.5828C14.2485 11.9634 14.0059 11.1789 14.0059 10.2292C14.0059 8.87695 14.3982 7.83436 15.1827 7.10146C15.7814 6.55436 16.4885 6.28082 17.304 6.28082C17.9543 6.28082 18.5066 6.44081 18.9608 6.76081C19.2601 6.96727 19.4098 7.12211 19.4098 7.22533L19.5646 6.46662H21.0666V12.7686C21.0666 13.9557 20.7724 14.8692 20.184 15.5092C19.6059 16.1389 18.7801 16.4537 17.7066 16.4537C16.5917 16.4537 15.6266 16.0821 14.8111 15.3389L15.3066 14.3479C15.9362 14.7608 16.6433 14.9673 17.4279 14.9673C18.5427 14.9673 19.1001 14.1931 19.1001 12.6447ZM19.1001 8.85114C19.0588 8.53114 18.8988 8.25759 18.6201 8.03049C18.3517 7.79307 18.0524 7.67436 17.7221 7.67436C17.2059 7.67436 16.793 7.88082 16.4833 8.29372C16.1737 8.70662 16.0188 9.26404 16.0188 9.96598C16.0188 11.504 16.5246 12.2731 17.5362 12.2731C17.9595 12.2731 18.3259 12.1131 18.6356 11.7931C18.9453 11.4628 19.1001 11.0757 19.1001 10.6318V8.85114Z" fill="#231F20"/>
<path d="M23.169 4.57759L25.12 3.5092V7.30275C25.2851 6.98275 25.6258 6.7092 26.1419 6.48211C26.4825 6.33759 26.8025 6.26533 27.1019 6.26533C28 6.26533 28.6503 6.51307 29.0529 7.00856C29.4658 7.49372 29.6722 8.27823 29.6722 9.36211V13.4963H27.7213V9.43953C27.7213 8.42791 27.2877 7.92211 26.4206 7.92211C25.7909 7.92211 25.3574 8.09759 25.12 8.44856V13.4963H23.169V4.57759Z" fill="#231F20"/>
<path d="M2.20201 31.9909H0.20459V22.1896H2.20201V26.1225H6.41362V22.1896H8.44201V31.9909H6.41362V27.7483H2.20201V31.9909Z" fill="#231F20"/>
<path d="M12.6286 24.9612V31.9909H10.6621V24.9612H12.6286ZM10.4299 23.1651C10.4299 22.8348 10.5434 22.5509 10.7705 22.3135C11.0079 22.0658 11.2866 21.9419 11.6066 21.9419C11.9473 21.9419 12.2363 22.0606 12.4737 22.298C12.7215 22.5354 12.8454 22.8245 12.8454 23.1651C12.8454 23.5264 12.7267 23.8206 12.4892 24.0477C12.2621 24.2748 11.9679 24.3883 11.6066 24.3883C11.266 24.3883 10.9821 24.2748 10.755 24.0477C10.5383 23.8103 10.4299 23.5161 10.4299 23.1651Z" fill="#231F20"/>
<path d="M19.1001 31.1393C18.6356 31.8309 17.9801 32.1767 17.1337 32.1767C16.1014 32.1767 15.3014 31.8103 14.7337 31.0774C14.2485 30.458 14.0059 29.6735 14.0059 28.7238C14.0059 27.3716 14.3982 26.329 15.1827 25.5961C15.7814 25.049 16.4885 24.7754 17.304 24.7754C17.9543 24.7754 18.5066 24.9354 18.9608 25.2554C19.2601 25.4619 19.4098 25.6167 19.4098 25.72L19.5646 24.9612H21.0666V31.2632C21.0666 32.4503 20.7724 33.3638 20.184 34.0038C19.6059 34.6335 18.7801 34.9484 17.7066 34.9484C16.5917 34.9484 15.6266 34.5767 14.8111 33.8335L15.3066 32.8425C15.9362 33.2554 16.6433 33.4619 17.4279 33.4619C18.5427 33.4619 19.1001 32.6877 19.1001 31.1393ZM19.1001 27.3458C19.0588 27.0258 18.8988 26.7522 18.6201 26.5251C18.3517 26.2877 18.0524 26.169 17.7221 26.169C17.2059 26.169 16.793 26.3754 16.4833 26.7883C16.1737 27.2013 16.0188 27.7587 16.0188 28.4606C16.0188 29.9987 16.5246 30.7677 17.5362 30.7677C17.9595 30.7677 18.3259 30.6077 18.6356 30.2877C18.9453 29.9574 19.1001 29.5703 19.1001 29.1264V27.3458Z" fill="#231F20"/>
<path d="M23.169 23.0722L25.12 22.0038V25.7974C25.2851 25.4774 25.6258 25.2038 26.1419 24.9767C26.4825 24.8322 26.8025 24.76 27.1019 24.76C28 24.76 28.6503 25.0077 29.0529 25.5032C29.4658 25.9883 29.6722 26.7729 29.6722 27.8567V31.9909H27.7213V27.9342C27.7213 26.9225 27.2877 26.4167 26.4206 26.4167C25.7909 26.4167 25.3574 26.5922 25.12 26.9432V31.9909H23.169V23.0722Z" fill="#231F20"/>
<path d="M56.5272 0V11.6213C56.5272 12.0939 56.1444 12.4767 55.6718 12.4767C55.4497 12.4767 55.2512 12.3964 55.0999 12.2593C55.0858 12.2498 55.0763 12.2357 55.0621 12.2262C55.0574 12.2215 55.0527 12.2168 55.048 12.212L52.1604 9.38588L52.132 9.35752C51.9146 9.14958 51.6358 9.04088 51.3569 9.04088C51.0781 9.04088 50.7945 9.14958 50.5771 9.35752L50.5488 9.38588L47.6801 12.1979C47.6801 12.1979 47.6754 12.2026 47.6706 12.2026L47.6376 12.2357L47.5856 12.2877C47.4343 12.4105 47.2453 12.4814 47.0421 12.4814C46.5742 12.4814 46.1914 12.1081 46.1867 11.6402V0H40.9455C38.0532 0 35.7043 2.34883 35.7043 5.24116V34.9489H35.813C40.4871 34.9489 44.438 31.8581 45.733 27.6141C46.026 26.6548 46.1867 25.6339 46.1867 24.5753V24.0885H45.0997C44.6318 24.0885 44.2537 23.7105 44.2537 23.2426C44.2537 23.063 44.3104 22.8976 44.405 22.7605C44.4333 22.718 44.4617 22.6802 44.4995 22.6471C44.4995 22.6471 44.4995 22.6424 44.5089 22.6376L45.7093 21.4609L46.1819 20.9977L50.5582 16.7159L50.5771 16.697C50.7945 16.4844 51.0734 16.3804 51.3569 16.3804C51.6405 16.3804 51.9193 16.4844 52.132 16.697L52.1462 16.7159L56.5225 20.9977L56.9998 21.4609L58.2097 22.6471C58.2097 22.6471 58.2191 22.6518 58.2191 22.6565C58.2522 22.6896 58.2758 22.7227 58.3042 22.7558C58.4034 22.8929 58.4554 23.0583 58.4554 23.2379C58.4554 23.7057 58.0773 24.0838 57.6095 24.0838H56.5225V24.5706C56.5225 25.6198 56.6784 26.6311 56.9667 27.5858C56.9667 27.5952 56.9714 27.6 56.9714 27.6094C57.9781 30.9035 60.5821 33.5028 63.8762 34.5C64.8261 34.7882 65.8422 34.9442 66.8866 34.9442H67.0001V5.24116C67.0001 2.34883 64.6512 0 61.7589 0H56.5177H56.5272Z" fill="#EB5B27"/>
</svg>
