<svg width="17" height="17" viewBox="0 0 17 17" fill="none" xmlns="http://www.w3.org/2000/svg">
<path d="M6.75 11.3656C6.75 11.3656 11.4167 12.0322 13.4167 14.0322H14.0833C14.4515 14.0322 14.75 13.7338 14.75 13.3656V9.32356C15.3251 9.17556 15.75 8.65349 15.75 8.03223C15.75 7.41096 15.3251 6.88889 14.75 6.74089V2.69889C14.75 2.33071 14.4515 2.03223 14.0833 2.03223H13.4167C11.4167 4.03223 6.75 4.69889 6.75 4.69889H4.08333C3.34695 4.69889 2.75 5.29585 2.75 6.03223V10.0322C2.75 10.7686 3.34695 11.3656 4.08333 11.3656H4.75L5.41667 14.6989H6.75V11.3656ZM8.08333 5.80636C8.53887 5.70863 9.10167 5.57351 9.70953 5.39471C10.8283 5.06565 12.25 4.54731 13.4167 3.74861V12.3158C12.25 11.5172 10.8283 10.9988 9.70953 10.6698C9.10167 10.491 8.53887 10.3558 8.08333 10.2581V5.80636ZM4.08333 6.03223H6.75V10.0322H4.08333V6.03223Z" fill="#3F3F46"/>
</svg>
