<svg width="17" height="17" viewBox="0 0 17 17" fill="none" xmlns="http://www.w3.org/2000/svg">
<path d="M8.64865 10.6989L6.51593 5.36556H5.1826L3.84927 8.69889L3.84861 8.70023L3.04929 10.6989H4.48533L4.75193 10.0322H6.94531L7.21198 10.6989H8.64865ZM5.28465 8.69889L5.84927 7.28896L6.41266 8.69889H5.28465ZM11.5833 5.36556H12.9166V10.6989H10.9166C9.81205 10.6989 8.91665 9.80349 8.91665 8.69889C8.91665 7.59429 9.81205 6.69889 10.9166 6.69889H11.5833V5.36556ZM10.9166 8.03223C10.5485 8.03223 10.25 8.33076 10.25 8.69889C10.25 9.06703 10.5485 9.36556 10.9166 9.36556H11.5833V8.03223H10.9166ZM14.25 2.03223H2.24998C1.88181 2.03223 1.58331 2.33073 1.58331 2.69889V13.3656C1.58331 13.7337 1.88181 14.0322 2.24998 14.0322H14.25C14.6181 14.0322 14.9166 13.7337 14.9166 13.3656V2.69889C14.9166 2.33073 14.6181 2.03223 14.25 2.03223ZM2.91665 12.6989V3.36556H13.5833V12.6989H2.91665Z" fill="#3F3F46"/>
</svg>
