<svg width="16" height="17" viewBox="0 0 16 17" fill="none" xmlns="http://www.w3.org/2000/svg">
<path d="M8.72855 3.16066L8.16668 3.0906V3.65682V8.28223V8.78223H8.66668H13.2921H13.8583L13.7882 8.22036C13.4591 5.58078 11.3681 3.48981 8.72855 3.16066ZM13.2719 11.4489H13.639C12.6797 13.6094 10.5152 15.1156 8.00001 15.1156C4.59425 15.1156 1.83334 12.3546 1.83334 8.94889C1.83334 6.43367 3.33948 4.26914 5.50001 3.30987V3.67706C3.52995 4.61291 2.16668 6.62115 2.16668 8.94889C2.16668 12.1706 4.77835 14.7822 8.00001 14.7822C10.3278 14.7822 12.336 13.4189 13.2719 11.4489ZM8.00001 2.78223C11.4057 2.78223 14.1667 5.54314 14.1667 8.94889C14.1667 9.00464 14.1659 9.0602 14.1645 9.11556H7.83334V2.78443C7.88871 2.78296 7.94427 2.78223 8.00001 2.78223Z" fill="#3F3F46" stroke="#334155"/>
</svg>
