<svg width="24" height="25" viewBox="0 0 24 25" fill="none" xmlns="http://www.w3.org/2000/svg">
<path d="M2 20.2324H22V22.2324H2V20.2324ZM4 12.2324H6V19.2324H4V12.2324ZM9 12.2324H11V19.2324H9V12.2324ZM13 12.2324H15V19.2324H13V12.2324ZM18 12.2324H20V19.2324H18V12.2324ZM2 7.23242L12 2.23242L22 7.23242V11.2324H2V7.23242ZM4 8.46849V9.23242H20V8.46849L12 4.46849L4 8.46849ZM12 8.23242C11.4477 8.23242 11 7.7847 11 7.23242C11 6.68014 11.4477 6.23242 12 6.23242C12.5523 6.23242 13 6.68014 13 7.23242C13 7.7847 12.5523 8.23242 12 8.23242Z" fill="#71717A"/>
</svg>
