<svg width="16" height="16" viewBox="0 0 16 16" fill="none" xmlns="http://www.w3.org/2000/svg">
<path fill-rule="evenodd" clip-rule="evenodd" d="M3.14258 1.71658C3.14258 1.39924 3.39991 1.14258 3.71724 1.14258H12.8532C13.1706 1.14258 13.4279 1.39991 13.4279 1.71658V14.2826C13.4279 14.358 13.413 14.4327 13.3842 14.5024C13.3553 14.5721 13.3129 14.6354 13.2596 14.6887C13.2062 14.742 13.1428 14.7843 13.0731 14.8131C13.0034 14.8419 12.9287 14.8567 12.8532 14.8566H3.71724C3.64181 14.8567 3.5671 14.8419 3.49738 14.8131C3.42766 14.7843 3.36431 14.742 3.31093 14.6887C3.25756 14.6354 3.21522 14.5721 3.18633 14.5024C3.15745 14.4327 3.14258 14.358 3.14258 14.2826V1.71658ZM4.28591 2.28524V13.7139H12.2859V2.28524H4.28591ZM5.71324 4.85658H10.8566V3.71391H5.71324V4.85658ZM10.8566 7.14258H5.71324V5.99991H10.8566V7.14258ZM10.8566 9.42858H5.71324V8.28524H10.8566V9.42858ZM9.14191 11.7139H10.8566V10.5712H9.14191V11.7139Z" fill="#0E0F0C"/>
</svg>
