<svg width="21" height="21" viewBox="0 0 21 21" fill="none" xmlns="http://www.w3.org/2000/svg">
<g clip-path="url(#clip0_3069_10943)">
<path d="M10.8086 0.481445C10.6172 0.37207 10.3828 0.37207 10.1914 0.481445L1.11719 5.62207C0.734375 5.84082 0.5 6.24316 0.5 6.68066C0.5 7.35254 1.04688 7.89941 1.71875 7.89941H10.5H19.2812C19.9531 7.89941 20.5 7.35254 20.5 6.68066C20.5 6.24316 20.2656 5.83691 19.8828 5.62207L10.8086 0.481445ZM12.4766 6.64941C12.6133 6.36426 12.6875 6.04785 12.6875 5.71191C12.6875 4.50488 11.707 3.52441 10.5 3.52441C9.29297 3.52441 8.3125 4.50488 8.3125 5.71191C8.3125 6.04785 8.38672 6.36426 8.52344 6.64941H1.83984L10.5 1.74316L19.1602 6.64941H12.4766ZM10.5 4.77441C10.7486 4.77441 10.9871 4.87319 11.1629 5.049C11.3387 5.22482 11.4375 5.46327 11.4375 5.71191C11.4375 5.96055 11.3387 6.19901 11.1629 6.37483C10.9871 6.55064 10.7486 6.64941 10.5 6.64941C10.2514 6.64941 10.0129 6.55064 9.83709 6.37483C9.66127 6.19901 9.5625 5.96055 9.5625 5.71191C9.5625 5.46327 9.66127 5.22482 9.83709 5.049C10.0129 4.87319 10.2514 4.77441 10.5 4.77441ZM3 14.1494C2.65625 14.1494 2.375 14.4307 2.375 14.7744C2.375 15.1182 2.65625 15.3994 3 15.3994H18C18.3438 15.3994 18.625 15.1182 18.625 14.7744C18.625 14.4307 18.3438 14.1494 18 14.1494V9.14941H16.75V14.1494H13.625V9.14941H12.375V14.1494H8.625V9.14941H7.375V14.1494H4.25V9.14941H3V14.1494ZM2.0625 16.6494C1.71875 16.6494 1.4375 16.9307 1.4375 17.2744C1.4375 17.6182 1.71875 17.8994 2.0625 17.8994H18.9375C19.2812 17.8994 19.5625 17.6182 19.5625 17.2744C19.5625 16.9307 19.2812 16.6494 18.9375 16.6494H2.0625ZM1.125 19.1494C0.78125 19.1494 0.5 19.4307 0.5 19.7744C0.5 20.1182 0.78125 20.3994 1.125 20.3994H19.875C20.2188 20.3994 20.5 20.1182 20.5 19.7744C20.5 19.4307 20.2188 19.1494 19.875 19.1494H1.125Z" fill="#253746"/>
</g>
<defs>
<clipPath id="clip0_3069_10943">
<rect width="20" height="20" fill="white" transform="translate(0.5 0.399414)"/>
</clipPath>
</defs>
</svg>
