<svg width="17" height="16" viewBox="0 0 17 16" fill="none" xmlns="http://www.w3.org/2000/svg">
<path d="M6.24998 0.666992V2.00033H10.25V0.666992H11.5833V2.00033H14.25C14.6182 2.00033 14.9166 2.29881 14.9166 2.66699V13.3337C14.9166 13.7019 14.6182 14.0003 14.25 14.0003H2.24998C1.88179 14.0003 1.58331 13.7019 1.58331 13.3337V2.66699C1.58331 2.29881 1.88179 2.00033 2.24998 2.00033H4.91665V0.666992H6.24998ZM13.5833 7.33366H2.91665V12.667H13.5833V7.33366ZM4.91665 3.33366H2.91665V6.00033H13.5833V3.33366H11.5833V4.66699H10.25V3.33366H6.24998V4.66699H4.91665V3.33366Z" fill="#3F3F46"/>
</svg>
