<svg width="48" height="48" viewBox="0 0 48 48" fill="none" xmlns="http://www.w3.org/2000/svg">
<rect width="48" height="48" rx="8" fill="#16A34A"/>
<path d="M24.0004 28C26.2095 28 28.0004 26.2091 28.0004 24C28.0004 21.7909 26.2095 20 24.0004 20C21.7912 20 20.0004 21.7909 20.0004 24C20.0004 26.2091 21.7912 28 24.0004 28ZM33.0049 16.0029H15.0049C14.4526 16.0029 14.0049 16.4506 14.0049 17.0029V31.0029C14.0049 31.5552 14.4526 32.0029 15.0049 32.0029H33.0049C33.5572 32.0029 34.0049 31.5552 34.0049 31.0029V17.0029C34.0049 16.4506 33.5572 16.0029 33.0049 16.0029ZM16.0049 27.6463V20.3537C17.1307 20.017 18.0184 19.1289 18.3546 18.0029H29.6462C29.9833 19.1319 30.8748 20.0217 32.0049 20.3564V27.6436C30.8729 27.9788 29.9802 28.8711 29.6444 30.0029H18.3563C18.0214 28.8742 17.1326 27.9836 16.0049 27.6463Z" fill="#FAFAFA"/>
</svg>
