<svg width="49" height="48" viewBox="0 0 49 48" fill="none" xmlns="http://www.w3.org/2000/svg">
<path d="M13.1108 18.1602H29.3602V20.793H13.1108V18.1602Z" fill="#404040"/>
<path d="M13.1108 24.5391H29.3602V27.1717H13.1108V24.5391Z" fill="#404040"/>
<path d="M46.9775 12.3792C46.9775 7.6965 43.168 3.88672 38.4854 3.88672C35.0464 3.88672 32.0779 5.94144 30.7441 8.8877H7.22488C4.33163 8.8877 1.97754 11.2421 1.97754 14.135V30.9839C1.97754 33.8775 4.33163 36.2318 7.22488 36.2318H8.64487V43.7685L19.902 36.2318H34.558C37.4518 36.2318 39.8059 33.8775 39.8059 30.9839V20.7686C43.8632 20.1322 46.9775 16.6125 46.9775 12.3792ZM34.558 33.5987H19.1022L11.2775 38.8372V33.5987H7.22488C5.7832 33.5987 4.61014 32.4259 4.61014 30.9839V14.135C4.61014 12.6936 5.7832 11.5208 7.22488 11.5208H30.0363C30.0078 11.8029 29.993 12.0894 29.993 12.3792C29.993 16.6152 33.1111 20.1371 37.1728 20.77V30.9839C37.1728 32.4259 35.9997 33.5987 34.558 33.5987ZM38.4854 18.2384C35.2546 18.2384 32.6261 15.61 32.6261 12.3792C32.6261 9.14807 35.2546 6.51932 38.4854 6.51932C41.7162 6.51932 44.3449 9.14807 44.3449 12.3792C44.3449 15.61 41.7162 18.2384 38.4854 18.2384Z" fill="#404040"/>
<path d="M37.1689 9.26172H39.8018V15.4926H37.1689V9.26172Z" fill="#404040"/>
</svg>
