<svg width="16" height="17" viewBox="0 0 16 17" fill="none" xmlns="http://www.w3.org/2000/svg">
<path d="M8 15.4661C4.3181 15.4661 1.33333 12.4813 1.33333 8.79948C1.33333 5.11758 4.3181 2.13281 8 2.13281C11.6819 2.13281 14.6667 5.11758 14.6667 8.79948C14.6667 12.4813 11.6819 15.4661 8 15.4661ZM8 14.1328C10.9455 14.1328 13.3333 11.745 13.3333 8.79948C13.3333 5.85396 10.9455 3.46615 8 3.46615C5.05448 3.46615 2.66667 5.85396 2.66667 8.79948C2.66667 11.745 5.05448 14.1328 8 14.1328ZM7.33507 11.4661L4.50666 8.63775L5.44947 7.69488L7.33507 9.58055L11.1063 5.80929L12.0491 6.7521L7.33507 11.4661Z" fill="#16A34A"/>
</svg>
