<svg width="54" height="53" viewBox="0 0 54 53" fill="none" xmlns="http://www.w3.org/2000/svg">
<circle cx="27" cy="26.3125" r="26.3125" fill="#DB6F2C" fill-opacity="0.05"/>
<circle cx="27.0005" cy="26.3123" r="19.0035" fill="#DB6F2C" fill-opacity="0.1"/>
<path d="M32.25 31.5624V24.6615L27 20.52L21.75 24.6615V31.5624H32.25ZM33.75 32.3124C33.75 32.7266 33.4142 33.0624 33 33.0624H21C20.5858 33.0624 20.25 32.7266 20.25 32.3124V24.2978C20.25 24.0682 20.3552 23.8512 20.5355 23.709L26.5355 18.9759C26.8078 18.761 27.1922 18.761 27.4645 18.9759L33.4645 23.709C33.6448 23.8512 33.75 24.0682 33.75 24.2978V32.3124ZM23.25 26.3124H24.75C24.75 27.5551 25.7573 28.5624 27 28.5624C28.2427 28.5624 29.25 27.5551 29.25 26.3124H30.75C30.75 28.3835 29.071 30.0624 27 30.0624C24.9289 30.0624 23.25 28.3835 23.25 26.3124Z" fill="#DD6438"/>
</svg>
