<svg width="16" height="17" viewBox="0 0 16 17" fill="none" xmlns="http://www.w3.org/2000/svg">
<path d="M4.66645 5.16634V2.49967C4.66645 2.13149 4.96492 1.83301 5.33311 1.83301H13.9998C14.368 1.83301 14.6665 2.13149 14.6665 2.49967V11.1663C14.6665 11.5345 14.368 11.833 13.9998 11.833H11.3333V14.4947C11.3333 14.8656 11.0339 15.1663 10.6616 15.1663H2.00477C1.63383 15.1663 1.33325 14.8671 1.33325 14.4947L1.33509 5.83799C1.33517 5.46705 1.63445 5.16634 2.00675 5.16634H4.66645ZM5.99978 5.16634H10.6617C11.0326 5.16634 11.3333 5.46562 11.3333 5.83799V10.4997H13.3331V3.16634H5.99978V5.16634ZM9.99992 6.49967H2.66829L2.66673 13.833H9.99992V6.49967ZM5.6682 12.4997L3.31118 10.1427L4.25399 9.19987L5.6682 10.6141L8.49665 7.78561L9.43945 8.72841L5.6682 12.4997Z" fill="#3B82F6"/>
</svg>
