<svg width="19" height="19" viewBox="0 0 19 19" fill="none" xmlns="http://www.w3.org/2000/svg">
<path d="M6.11142 15.0823H4.67841C2.48416 14.9256 1.49902 13.2389 1.49902 11.7387C1.49902 10.2386 2.48417 8.54437 4.6411 8.3951C4.9471 8.36525 5.21578 8.60407 5.23817 8.91754C5.26056 9.22354 5.02923 9.49223 4.71576 9.51462C3.26786 9.6191 2.61854 10.7088 2.61854 11.7462C2.61854 12.7836 3.26786 13.8733 4.71576 13.9777H6.11142C6.41742 13.9777 6.67118 14.2315 6.67118 14.5375C6.67118 14.8435 6.41742 15.0823 6.11142 15.0823Z" fill="#292D32"/>
<path d="M12.985 15.0815C12.9701 15.0815 12.9626 15.0815 12.9477 15.0815C12.6417 15.0815 12.3581 14.8278 12.3581 14.5218C12.3581 14.2008 12.5969 13.962 12.9104 13.962C13.8284 13.962 14.6493 13.6411 15.2912 13.0664C16.4555 12.0514 16.5301 10.5885 16.2167 9.55858C15.9032 8.53608 15.03 7.36432 13.5074 7.17774C13.2611 7.14788 13.0671 6.9613 13.0223 6.71501C12.7238 4.92378 11.761 3.68485 10.2982 3.23704C8.79055 2.76685 7.02915 3.22958 5.93202 4.37895C4.86475 5.491 4.61847 7.05086 5.23793 8.76745C5.34242 9.05853 5.19319 9.37945 4.90211 9.48394C4.61104 9.58842 4.29009 9.43916 4.18561 9.14808C3.4318 7.04339 3.77512 5.02827 5.12601 3.61022C6.50674 2.16231 8.72338 1.58762 10.6266 2.16977C12.373 2.70713 13.6044 4.14758 14.0522 6.14778C15.5748 6.4911 16.7988 7.64794 17.2839 9.24511C17.8138 10.9841 17.3362 12.7753 16.0301 13.9098C15.2016 14.6561 14.1194 15.0815 12.985 15.0815Z" fill="#292D32"/>
<path d="M9.49948 17.2763C7.99933 17.2763 6.59622 16.4777 5.82749 15.1865C5.74539 15.0597 5.66329 14.9104 5.59612 14.7462C5.34236 14.2163 5.20801 13.6118 5.20801 12.9848C5.20801 10.6189 7.13357 8.69336 9.49948 8.69336C11.8654 8.69336 13.791 10.6189 13.791 12.9848C13.791 13.6192 13.6566 14.2163 13.388 14.7686C13.3282 14.9104 13.2461 15.0597 13.1566 15.2015C12.4028 16.4777 10.9996 17.2763 9.49948 17.2763ZM9.49948 9.81287C7.75304 9.81287 6.32752 11.2384 6.32752 12.9848C6.32752 13.4476 6.42455 13.8804 6.61114 14.276C6.67085 14.4029 6.72307 14.5074 6.78278 14.6044C7.35 15.5672 8.38742 16.1568 9.49201 16.1568C10.5966 16.1568 11.634 15.5672 12.1938 14.6193C12.2609 14.5074 12.3207 14.4029 12.3655 14.2984C12.567 13.8879 12.664 13.455 12.664 12.9923C12.6714 11.2384 11.2459 9.81287 9.49948 9.81287Z" fill="#292D32"/>
<path d="M9.07413 14.2837C8.93233 14.2837 8.79054 14.2315 8.67859 14.1195L7.93967 13.3806C7.72323 13.1642 7.72323 12.8059 7.93967 12.5895C8.15611 12.3731 8.51436 12.3731 8.7308 12.5895L9.08907 12.9477L10.2832 11.8432C10.5146 11.6342 10.8654 11.6491 11.0743 11.873C11.2833 12.0969 11.2684 12.4552 11.0445 12.6641L9.45477 14.1344C9.34282 14.2315 9.20847 14.2837 9.07413 14.2837Z" fill="#292D32"/>
</svg>
