<svg width="17" height="17" viewBox="0 0 17 17" fill="none" xmlns="http://www.w3.org/2000/svg">
<g clip-path="url(#clip0_2_3975)">
<path d="M6.7 9.79225V5.97225H7.53V9.79225H6.7Z" fill="#212121"/>
<path d="M8.355 9.79225V5.97225H9.2V9.79225H8.355Z" fill="#212121"/>
<path d="M10.03 9.79225V5.97225H10.84V9.79225H10.03Z" fill="#212121"/>
<path d="M8.75 13.5322C11.7876 13.5322 14.25 11.0698 14.25 8.03223C14.25 4.99466 11.7876 2.53223 8.75 2.53223C5.71243 2.53223 3.25 4.99466 3.25 8.03223C3.25 11.0698 5.71243 13.5322 8.75 13.5322ZM12.115 10.6022C12.17 10.7772 12.04 10.9522 11.865 10.9572H5.64C5.465 10.9572 5.335 10.7872 5.385 10.6172L5.56 9.99225C5.59 9.87725 5.695 9.79725 5.815 9.79725H5.87V5.91225C5.66 5.77225 5.62 5.42725 5.88 5.27225L8.58 3.64225C8.7 3.56725 8.85 3.56725 8.97 3.64225L11.665 5.27225C11.925 5.42725 11.885 5.77225 11.67 5.91225V9.79225H11.655C11.77 9.79225 11.875 9.86725 11.91 9.97725L12.115 10.6022Z" fill="#212121"/>
<path d="M8.75 0.532227C4.60786 0.532227 1.25 3.89009 1.25 8.03223C1.25 12.1744 4.60786 15.5322 8.75 15.5322C12.8921 15.5322 16.25 12.1744 16.25 8.03223C16.25 3.89009 12.8921 0.532227 8.75 0.532227ZM2.25 8.03223C2.25 4.44238 5.16015 1.53223 8.75 1.53223C12.3399 1.53223 15.25 4.44238 15.25 8.03223C15.25 11.6221 12.3399 14.5322 8.75 14.5322C5.16015 14.5322 2.25 11.6221 2.25 8.03223Z" fill="#212121"/>
</g>
<defs>
<clipPath id="clip0_2_3975">
<rect width="16" height="16" fill="white" transform="translate(0.75 0.0322266)"/>
</clipPath>
</defs>
</svg>
