<svg width="30" height="23" viewBox="0 0 30 23" fill="none" xmlns="http://www.w3.org/2000/svg">
<rect x="2" y="6.5" width="22" height="15" rx="1" fill="#F2F2F2"/>
<path d="M2 7.5C2 6.94772 2.44772 6.5 3 6.5H23C23.5523 6.5 24 6.94772 24 7.5V10.5H2V7.5Z" fill="#E0E0E0"/>
<rect x="4" y="13.5" width="18" height="2" rx="1" fill="#FCFCFC"/>
<g clip-path="url(#clip0_3069_13161)">
<path d="M21 15.5C24.3137 15.5 27 12.8137 27 9.5C27 6.18629 24.3137 3.5 21 3.5C17.6863 3.5 15 6.18629 15 9.5C15 12.8137 17.6863 15.5 21 15.5Z" fill="#253746"/>
<path d="M18.1047 7.14941V11.4268H17.3284V8.05469L16.3 8.39453V7.76758L18.0168 7.14941H18.1047Z" fill="#FCFCFC"/>
<path d="M22.429 10.8174V11.4268H19.5403V10.9053L20.926 9.4082C21.0706 9.24414 21.1848 9.10156 21.2688 8.98047C21.3528 8.85938 21.4124 8.75 21.4475 8.65234C21.4846 8.55273 21.5032 8.45801 21.5032 8.36816C21.5032 8.2373 21.4797 8.12305 21.4329 8.02539C21.386 7.92578 21.3176 7.84863 21.2278 7.79395C21.1399 7.73926 21.0315 7.71191 20.9026 7.71191C20.76 7.71191 20.6379 7.74512 20.5364 7.81152C20.4368 7.87598 20.3606 7.96582 20.3079 8.08105C20.2571 8.19629 20.2317 8.32812 20.2317 8.47656H19.4553C19.4553 8.22461 19.5139 7.99512 19.6311 7.78809C19.7483 7.5791 19.9163 7.41211 20.135 7.28711C20.3538 7.16211 20.6135 7.09961 20.9143 7.09961C21.2073 7.09961 21.4553 7.14844 21.6584 7.24609C21.8616 7.3418 22.0159 7.47852 22.1213 7.65625C22.2268 7.83398 22.2795 8.0459 22.2795 8.29199C22.2795 8.42871 22.2571 8.56348 22.2122 8.69629C22.1672 8.8291 22.1038 8.96094 22.0217 9.0918C21.9417 9.2207 21.8459 9.35156 21.7346 9.48438C21.6233 9.61719 21.4993 9.75293 21.3625 9.8916L20.5305 10.8174H22.429Z" fill="#FCFCFC"/>
<path d="M23.8147 8.95117H24.2512C24.4055 8.95117 24.5325 8.9248 24.6321 8.87207C24.7336 8.81738 24.8088 8.74316 24.8577 8.64941C24.9084 8.55371 24.9338 8.44336 24.9338 8.31836C24.9338 8.19531 24.9114 8.08887 24.8665 7.99902C24.8215 7.90723 24.7532 7.83691 24.6614 7.78809C24.5715 7.7373 24.4563 7.71191 24.3157 7.71191C24.2024 7.71191 24.0979 7.73438 24.0022 7.7793C23.9084 7.82422 23.8333 7.88867 23.7766 7.97266C23.7219 8.05469 23.6946 8.15332 23.6946 8.26855H22.9182C22.9182 8.03809 22.9788 7.83594 23.0999 7.66211C23.2229 7.48633 23.3889 7.34863 23.5979 7.24902C23.8069 7.14941 24.0403 7.09961 24.2981 7.09961C24.5793 7.09961 24.8254 7.14648 25.0364 7.24023C25.2493 7.33203 25.4143 7.46777 25.5315 7.64746C25.6506 7.82715 25.7102 8.0498 25.7102 8.31543C25.7102 8.44238 25.6799 8.56934 25.6194 8.69629C25.5608 8.82129 25.4739 8.93457 25.3586 9.03613C25.2454 9.13574 25.1057 9.2168 24.9397 9.2793C24.7756 9.33984 24.5872 9.37012 24.3743 9.37012H23.8147V8.95117ZM23.8147 9.54883V9.13574H24.3743C24.6145 9.13574 24.8225 9.16406 24.9983 9.2207C25.176 9.27539 25.3225 9.35352 25.4377 9.45508C25.553 9.55469 25.6379 9.6709 25.6926 9.80371C25.7493 9.93652 25.7776 10.0791 25.7776 10.2314C25.7776 10.4307 25.7405 10.6084 25.6663 10.7646C25.592 10.9189 25.4875 11.0498 25.3528 11.1572C25.22 11.2646 25.0637 11.3467 24.884 11.4033C24.7043 11.458 24.51 11.4854 24.301 11.4854C24.1194 11.4854 23.9426 11.4609 23.7708 11.4121C23.6008 11.3613 23.4475 11.2861 23.3108 11.1865C23.1741 11.085 23.0657 10.958 22.9856 10.8057C22.9055 10.6514 22.8655 10.4727 22.8655 10.2695H23.6418C23.6418 10.3867 23.6702 10.4912 23.7268 10.583C23.7854 10.6748 23.8655 10.7471 23.967 10.7998C24.0706 10.8506 24.1868 10.876 24.3157 10.876C24.4583 10.876 24.5803 10.8506 24.6819 10.7998C24.7854 10.7471 24.8645 10.6729 24.9192 10.5771C24.9739 10.4795 25.0012 10.3633 25.0012 10.2285C25.0012 10.0684 24.9709 9.93848 24.9104 9.83887C24.8499 9.73926 24.7629 9.66602 24.6497 9.61914C24.5383 9.57227 24.4055 9.54883 24.2512 9.54883H23.8147Z" fill="#FCFCFC"/>
</g>
<defs>
<clipPath id="clip0_3069_13161">
<rect width="12" height="12" fill="white" transform="translate(15 3.5)"/>
</clipPath>
</defs>
</svg>
