<svg width="6" height="20" viewBox="0 0 6 20" fill="none" xmlns="http://www.w3.org/2000/svg">
<path d="M2.74038 12.6442C2.31196 12.6442 1.90108 12.8144 1.59814 13.1174C1.29519 13.4203 1.125 13.8312 1.125 14.2596C1.125 14.688 1.29519 15.0989 1.59814 15.4019C1.90108 15.7048 2.31196 15.875 2.74038 15.875C3.16881 15.875 3.57969 15.7048 3.88263 15.4019C4.18558 15.0989 4.35577 14.688 4.35577 14.2596C4.35577 13.8312 4.18558 13.4203 3.88263 13.1174C3.57969 12.8144 3.16881 12.6442 2.74038 12.6442ZM2.74038 7.25962C2.31196 7.25962 1.90108 7.42981 1.59814 7.73275C1.29519 8.03569 1.125 8.44657 1.125 8.875C1.125 9.30343 1.29519 9.71431 1.59814 10.0173C1.90108 10.3202 2.31196 10.4904 2.74038 10.4904C3.16881 10.4904 3.57969 10.3202 3.88263 10.0173C4.18558 9.71431 4.35577 9.30343 4.35577 8.875C4.35577 8.44657 4.18558 8.03569 3.88263 7.73275C3.57969 7.42981 3.16881 7.25962 2.74038 7.25962ZM4.35577 3.49038C4.35577 3.27825 4.31399 3.06819 4.23281 2.8722C4.15162 2.67622 4.03264 2.49814 3.88263 2.34814C3.73263 2.19813 3.55455 2.07914 3.35857 1.99796C3.16258 1.91678 2.95252 1.875 2.74038 1.875C2.52825 1.875 2.31819 1.91678 2.1222 1.99796C1.92622 2.07914 1.74814 2.19813 1.59814 2.34814C1.44813 2.49814 1.32914 2.67622 1.24796 2.8722C1.16678 3.06819 1.125 3.27825 1.125 3.49038C1.125 3.70252 1.16678 3.91258 1.24796 4.10857C1.32914 4.30455 1.44813 4.48263 1.59814 4.63263C1.74814 4.78264 1.92622 4.90162 2.1222 4.98281C2.31819 5.06399 2.52825 5.10577 2.74038 5.10577C2.95252 5.10577 3.16258 5.06399 3.35857 4.98281C3.55455 4.90162 3.73263 4.78264 3.88263 4.63263C4.03264 4.48263 4.15162 4.30455 4.23281 4.10857C4.31399 3.91258 4.35577 3.70252 4.35577 3.49038Z" fill="black"/>
</svg>
