<svg width="16" height="16" viewBox="0 0 16 16" fill="none" xmlns="http://www.w3.org/2000/svg">
<path fill-rule="evenodd" clip-rule="evenodd" d="M1.99991 3.42773C1.52658 3.42773 1.14258 3.81107 1.14258 4.2844V5.7124C1.14258 6.0284 1.41458 6.27373 1.68924 6.42973C2.11458 6.67173 2.42858 7.2104 2.42858 7.9984C2.42858 8.78573 2.11458 9.32507 1.68858 9.56707C1.41458 9.72307 1.14258 9.9684 1.14258 10.2837V11.7131C1.14258 12.1864 1.52658 12.5704 1.99991 12.5704H13.9999C14.4726 12.5704 14.8572 12.1877 14.8572 11.7137V10.2844C14.8572 9.9684 14.5852 9.72307 14.3106 9.56707C13.8852 9.3244 13.5712 8.78573 13.5712 7.9984C13.5712 7.2104 13.8852 6.67173 14.3112 6.42973C14.5852 6.27373 14.8572 6.0284 14.8572 5.7124V4.2844C14.8572 3.81107 14.4732 3.42773 13.9999 3.42773H1.99991ZM12.4286 7.9984C12.4286 9.05373 12.8879 10.0651 13.7139 10.5524V11.4277H2.28658V10.5524C3.11324 10.0657 3.57191 9.05373 3.57191 7.9984C3.57191 6.94307 3.11258 5.93173 2.28658 5.4444V4.5704H13.7132V5.44373C12.8866 5.93173 12.4286 6.94307 12.4286 7.9984ZM8.57125 6.2844H7.42858V9.7124H8.57125V6.2844Z" fill="#0E0F0C"/>
</svg>
