<svg width="17" height="16" viewBox="0 0 17 16" fill="none" xmlns="http://www.w3.org/2000/svg">
<g clip-path="url(#clip0_3030_15572)">
<path d="M2.5 3C1.94687 3 1.5 3.44687 1.5 4V5.24687L7.6125 9.72812C8.14062 10.1156 8.85938 10.1156 9.3875 9.72812L15.5 5.24687V4C15.5 3.44687 15.0531 3 14.5 3H2.5ZM1.5 6.4875V12C1.5 12.5531 1.94687 13 2.5 13H14.5C15.0531 13 15.5 12.5531 15.5 12V6.4875L9.97812 10.5344C9.09687 11.1781 7.9 11.1781 7.02187 10.5344L1.5 6.4875ZM0.5 4C0.5 2.89688 1.39688 2 2.5 2H14.5C15.6031 2 16.5 2.89688 16.5 4V12C16.5 13.1031 15.6031 14 14.5 14H2.5C1.39688 14 0.5 13.1031 0.5 12V4Z" fill="#3F3F46"/>
</g>
<defs>
<clipPath id="clip0_3030_15572">
<rect width="16" height="16" fill="white" transform="translate(0.5)"/>
</clipPath>
</defs>
</svg>
