<svg width="48" height="48" viewBox="0 0 48 48" fill="none" xmlns="http://www.w3.org/2000/svg">
<rect width="48" height="48" rx="8" fill="#3B82F6"/>
<path d="M24.0003 15C29.3924 15 33.8784 18.8798 34.8189 24C33.8784 29.1202 29.3924 33 24.0003 33C18.6081 33 14.1222 29.1202 13.1816 24C14.1222 18.8798 18.6081 15 24.0003 15ZM24.0003 31C28.2359 31 31.8603 28.052 32.7777 24C31.8603 19.948 28.2359 17 24.0003 17C19.7646 17 16.1402 19.948 15.2228 24C16.1402 28.052 19.7646 31 24.0003 31ZM24.0003 28.5C21.515 28.5 19.5003 26.4853 19.5003 24C19.5003 21.5147 21.515 19.5 24.0003 19.5C26.4855 19.5 28.5003 21.5147 28.5003 24C28.5003 26.4853 26.4855 28.5 24.0003 28.5ZM24.0003 26.5C25.381 26.5 26.5003 25.3807 26.5003 24C26.5003 22.6193 25.381 21.5 24.0003 21.5C22.6196 21.5 21.5003 22.6193 21.5003 24C21.5003 25.3807 22.6196 26.5 24.0003 26.5Z" fill="#FAFAFA"/>
</svg>
