<svg width="17" height="17" viewBox="0 0 17 17" fill="none" xmlns="http://www.w3.org/2000/svg">
<path d="M8.75022 2.03223C12.345 2.03223 15.3356 4.61873 15.9626 8.03223C15.3356 11.4457 12.345 14.0322 8.75022 14.0322C5.15543 14.0322 2.16479 11.4457 1.53778 8.03223C2.16479 4.61873 5.15543 2.03223 8.75022 2.03223ZM8.75022 12.6989C11.574 12.6989 13.9902 10.7336 14.6018 8.03223C13.9902 5.33091 11.574 3.36556 8.75022 3.36556C5.92642 3.36556 3.51017 5.33091 2.89854 8.03223C3.51017 10.7336 5.92642 12.6989 8.75022 12.6989ZM8.75022 11.0322C7.09334 11.0322 5.75019 9.68909 5.75019 8.03223C5.75019 6.37537 7.09334 5.03223 8.75022 5.03223C10.407 5.03223 11.7502 6.37537 11.7502 8.03223C11.7502 9.68909 10.407 11.0322 8.75022 11.0322ZM8.75022 9.69889C9.67069 9.69889 10.4169 8.95269 10.4169 8.03223C10.4169 7.11176 9.67069 6.36556 8.75022 6.36556C7.82975 6.36556 7.08353 7.11176 7.08353 8.03223C7.08353 8.95269 7.82975 9.69889 8.75022 9.69889Z" fill="#3F3F46"/>
</svg>
