<svg width="48" height="48" viewBox="0 0 48 48" fill="none" xmlns="http://www.w3.org/2000/svg">
<rect width="48" height="48" rx="8" fill="#E97950"/>
<path d="M21 29C21 29 28 30 31 33H32C32.5523 33 33 32.5523 33 32V25.937C33.8626 25.715 34.5 24.9319 34.5 24C34.5 23.0681 33.8626 22.285 33 22.063V16C33 15.4477 32.5523 15 32 15H31C28 18 21 19 21 19H17C15.8954 19 15 19.8954 15 21V27C15 28.1046 15.8954 29 17 29H18L19 34H21V29ZM23 20.6612C23.6833 20.5146 24.5275 20.3119 25.4393 20.0437C27.1175 19.5501 29.25 18.7726 31 17.5746V30.4254C29.25 29.2274 27.1175 28.4499 25.4393 27.9563C24.5275 27.6881 23.6833 27.4854 23 27.3388V20.6612ZM17 21H21V27H17V21Z" fill="#FAFAFA"/>
</svg>
