<svg width="16" height="17" viewBox="0 0 16 17" fill="none" xmlns="http://www.w3.org/2000/svg">
<path d="M2.16988 11.3804V11.7527L2.5266 11.8594C3.11676 12.036 3.58291 12.503 3.75815 13.0937L3.86429 13.4515H4.23749H11.7629H12.1361L12.2422 13.0937C12.418 12.5014 12.8862 12.0334 13.4785 11.858L13.8366 11.752V11.3786V6.52048V6.14708L13.4785 6.04106C12.8872 5.86594 12.4196 5.39928 12.2432 4.80845L12.1366 4.4515H11.7641H4.23633H3.8638L3.75723 4.80845C3.5813 5.39769 3.11573 5.86345 2.52661 6.03965L2.16988 6.14635V6.51868V11.3804ZM10.1669 8.94954C10.1669 10.1461 9.19682 11.1162 8.00023 11.1162C6.80359 11.1162 5.83354 10.1461 5.83354 8.94954C5.83354 7.75293 6.80359 6.78288 8.00023 6.78288C9.19682 6.78288 10.1669 7.75293 10.1669 8.94954ZM2.00321 4.11816H14.0032C14.0953 4.11816 14.1699 4.19278 14.1699 4.28483V13.6181C14.1699 13.7102 14.0953 13.7848 14.0032 13.7848H2.00321C1.91116 13.7848 1.83655 13.7102 1.83655 13.6181V4.28483C1.83655 4.19278 1.91117 4.11816 2.00321 4.11816Z" fill="#3F3F46" stroke="#334155"/>
</svg>
