<svg width="90" height="90" viewBox="0 0 90 90" fill="none" xmlns="http://www.w3.org/2000/svg">
<circle cx="44.9999" cy="44.7797" r="36.5625" transform="rotate(75 44.9999 44.7797)" fill="url(#paint0_linear_1619_12226)"/>
<path d="M45.1414 52.0446C49.0764 52.0446 52.2664 48.8545 52.2664 44.9196C52.2664 40.9846 49.0764 37.7946 45.1414 37.7946C41.2063 37.7946 38.0164 40.9846 38.0164 44.9196C38.0164 48.8545 41.2063 52.0446 45.1414 52.0446ZM61.1807 30.6748H29.1182C28.1344 30.6748 27.3369 31.4723 27.3369 32.4561V57.3935C27.3369 58.3773 28.1344 59.1747 29.1182 59.1747H61.1807C62.1645 59.1747 62.9619 58.3773 62.9619 57.3935V32.4561C62.9619 31.4723 62.1645 30.6748 61.1807 30.6748ZM30.8994 51.4146V38.4246C32.9047 37.8249 34.4859 36.243 35.0848 34.2373H55.198C55.7985 36.2483 57.3865 37.8333 59.3994 38.4294V51.4097C57.3831 52.0068 55.793 53.5962 55.1948 55.6122H35.0879C34.4914 53.6018 32.9082 52.0154 30.8994 51.4146Z" fill="#FAFAFA"/>
<defs>
<linearGradient id="paint0_linear_1619_12226" x1="44.9999" y1="8.21724" x2="44.9999" y2="81.3422" gradientUnits="userSpaceOnUse">
<stop stop-color="#F97316"/>
<stop offset="1" stop-color="#FB923C"/>
</linearGradient>
</defs>
</svg>
