<svg width="24" height="25" viewBox="0 0 24 25" fill="none" xmlns="http://www.w3.org/2000/svg">
<path d="M8.49626 20.8991H10.0474L10.5852 17.5236C10.8012 16.1624 11.9747 15.1577 13.3545 15.1577H13.8545C16.5322 15.1577 17.915 14.1745 18.4055 11.6548C18.6134 10.5888 18.5222 9.92425 18.2339 9.55289C17.0272 12.6068 14.4449 13.7117 11.2725 13.7117H10.3878C10.004 13.7117 9.59454 13.9213 9.53611 14.2926L8.49626 20.8991ZM3.55247 20.6057C3.21381 20.6057 2.95514 20.3037 3.00781 19.9684L5.68247 3.00842C5.75314 2.56175 6.13847 2.23242 6.59047 2.23242H13.0138C15.2265 2.23242 16.9558 2.69975 17.9131 3.79042C18.783 4.78095 19.0364 5.87479 18.7846 7.48243C19.1438 7.67375 19.4518 7.90709 19.6998 8.18842C20.5185 9.12109 20.6785 10.4484 20.3685 12.0377C19.6278 15.8431 17.0925 17.1577 13.8545 17.1577H13.3545C12.9591 17.1577 12.6225 17.4464 12.5605 17.8371L11.8578 22.2204C11.7958 22.6111 11.4591 22.8991 11.0638 22.8991H6.72114C6.42447 22.8991 6.19781 22.6344 6.24381 22.3417L6.51781 20.6057H3.55247ZM10.3878 11.7117H11.2725C14.462 11.7117 16.1671 10.4991 16.7549 7.48252C16.7744 7.38098 16.7919 7.27969 16.8086 7.17343C16.9746 6.11429 16.8586 5.6205 16.4104 5.11015C15.9451 4.58005 14.8073 4.23242 13.0138 4.23242H7.51416L5.24742 18.6057H6.80845L7.53821 13.9776L7.54562 13.9787C7.84632 12.662 9.0169 11.7117 10.3878 11.7117Z" fill="#71717A"/>
</svg>
