<svg width="16" height="17" viewBox="0 0 16 17" fill="none" xmlns="http://www.w3.org/2000/svg">
<g clip-path="url(#clip0_2_9897)">
<path d="M7.76587 4.87578L7.37662 3.83778C7.31533 3.67434 7.43615 3.5 7.6107 3.5H8.3892C8.56375 3.5 8.68457 3.67434 8.62328 3.83778L8.23403 4.87578C8.15292 5.09207 7.84698 5.09207 7.76587 4.87578Z" fill="#212121"/>
<path d="M9.54591 5.14742L9.88847 4.09309C9.94241 3.92709 10.1456 3.86605 10.2821 3.97485L10.8908 4.46006C11.0273 4.56886 11.0132 4.7805 10.8634 4.87011L9.91202 5.43922C9.71378 5.55781 9.47453 5.36712 9.54591 5.14742Z" fill="#212121"/>
<path d="M6.11142 4.09309L6.45399 5.14742C6.52537 5.36712 6.28612 5.55781 6.08788 5.43922L5.13653 4.87011C4.98673 4.7805 4.97255 4.56886 5.10905 4.46006L5.71784 3.97485C5.85434 3.86605 6.05749 3.92709 6.11142 4.09309Z" fill="#212121"/>
<path d="M3.75644 16C2.00994 16 0.806438 14.54 0.515938 13.1L0.0104376 9.31601C-0.0132861 9.13826 -0.000719942 8.95753 0.0473766 8.78477C0.0954732 8.61201 0.178101 8.45079 0.290267 8.31086C0.402432 8.17094 0.541806 8.05521 0.699963 7.97067C0.858121 7.88613 1.03178 7.83454 1.21044 7.81901L1.25644 7.81451V7.75001C1.25722 7.58857 1.2899 7.42887 1.35258 7.28009C1.41527 7.13131 1.50674 6.99639 1.62174 6.88307C1.73673 6.76975 1.87298 6.68027 2.02266 6.61976C2.17234 6.55926 2.3325 6.52893 2.49394 6.53051C2.57377 6.52637 2.65382 6.53005 2.73294 6.54151C2.81734 6.26775 2.98981 6.02954 3.22354 5.8639C3.45727 5.69825 3.73918 5.61445 4.02544 5.62551C4.22721 5.63072 4.42462 5.68543 4.6003 5.78482C4.77598 5.88421 4.92455 6.02524 5.03294 6.19551C5.19917 6.1342 5.377 6.1108 5.55344 6.12701C5.87684 6.16316 6.17686 6.31309 6.39994 6.55001C6.52791 6.68036 6.62592 6.83704 6.68715 7.00914C6.74837 7.18125 6.77133 7.36463 6.75444 7.54651L6.64594 8.52751C6.76496 8.50694 6.88567 8.49774 7.00644 8.50001C7.2309 8.50962 7.44871 8.57902 7.63736 8.70103C7.78064 8.7937 7.90314 8.91417 7.99795 9.05473C8.09278 8.91417 8.21532 8.7937 8.35866 8.70103C8.54737 8.57902 8.76526 8.50962 8.9898 8.50001C9.11061 8.49774 9.23136 8.50694 9.35043 8.52751L9.24189 7.54651C9.22499 7.36463 9.24796 7.18125 9.30921 7.00914C9.37045 6.83704 9.4685 6.68036 9.59652 6.55001C9.81967 6.31309 10.1198 6.16316 10.4433 6.12701C10.6198 6.1108 10.7977 6.1342 10.964 6.19551C11.0724 6.02524 11.221 5.88421 11.3968 5.78482C11.5725 5.68543 11.77 5.63072 11.9719 5.62551C12.2582 5.61445 12.5402 5.69825 12.774 5.8639C13.0078 6.02954 13.1804 6.26775 13.2648 6.54151C13.344 6.53005 13.424 6.52637 13.5039 6.53051C13.6654 6.52893 13.8256 6.55926 13.9753 6.61976C14.1251 6.68027 14.2614 6.76975 14.3764 6.88307C14.4914 6.99639 14.5829 7.13131 14.6457 7.28009C14.7084 7.42887 14.7411 7.58857 14.7418 7.75001V7.81451L14.7879 7.81901C14.9666 7.83454 15.1403 7.88613 15.2985 7.97067C15.4567 8.05521 15.5961 8.17094 15.7083 8.31086C15.8206 8.45079 15.9032 8.61201 15.9513 8.78477C15.9994 8.95753 16.012 9.13826 15.9883 9.31601L15.4826 13.1C15.192 14.54 13.9881 16 12.241 16C11.6174 15.9832 11.0156 15.7675 10.5233 15.3845C10.0311 15.0015 9.67428 14.4712 9.50498 13.871C9.17992 12.7612 8.68234 11.7093 8.03046 10.754C8.01931 10.7384 8.00847 10.7227 7.99794 10.7067C7.98742 10.7227 7.97659 10.7384 7.96544 10.754C7.31379 11.7093 6.81639 12.7612 6.49144 13.871C6.3222 14.4712 5.96551 15.0015 5.47346 15.3845C4.9814 15.7675 4.37977 15.9832 3.75644 16ZM1.33494 8.80801C0.998438 8.85151 0.990438 9.09001 1.00294 9.19101L1.50294 12.934C1.70494 13.9445 2.54994 15 3.75644 15C4.15611 14.9816 4.5403 14.84 4.85624 14.5945C5.17218 14.349 5.40438 14.0118 5.52094 13.629C5.87273 12.4027 6.41956 11.2411 7.14044 10.1885C7.16722 10.1555 7.18941 10.1192 7.20659 10.0807C7.37633 9.84671 7.6044 9.13947 6.98882 9.13947C6.4172 9.13946 6.16309 9.71466 5.93599 10.2287L5.92988 10.2426C5.9197 10.241 5.90955 10.2391 5.89944 10.2369C5.77909 10.2105 5.67273 10.1406 5.60075 10.0406C5.52878 9.94057 5.49626 9.81751 5.50944 9.69501L5.75944 7.44501L5.75948 7.44411C5.76062 7.43594 5.76157 7.42726 5.7623 7.41802C5.77875 7.21073 5.54277 6.89645 5.19449 6.89777C5.12512 6.89803 5.0513 6.91081 4.97414 6.93945L4.98502 7.58601H4.9872C4.98634 7.76321 4.98948 7.99351 4.99366 8.24784L4.99538 8.35127C5.00226 8.76318 5.00965 9.20552 4.99981 9.50811C4.99533 9.64611 4.87982 9.75434 4.74182 9.74985C4.60382 9.74536 4.49559 9.62985 4.50008 9.49186C4.50949 9.20237 4.50233 8.77234 4.49538 8.35531L4.49373 8.25606C4.48851 7.93881 4.48374 7.62427 4.49007 7.40922C4.48996 7.11382 4.48179 6.56262 3.94323 6.61592C3.53419 6.6564 3.51552 7.19079 3.50233 7.56812C3.50155 7.59057 3.50077 7.61286 3.49994 7.63405V7.6627L3.50855 7.66667C3.50571 7.66962 3.50284 7.67254 3.49994 7.67542V9.75C3.49994 9.88807 3.38801 10 3.24994 10C3.11187 10 2.99994 9.88807 2.99994 9.75V7.63138L2.99827 7.62847C2.72904 7.20259 1.77491 7.44208 1.96898 8.35768C2.01298 8.40431 2.05267 8.45305 2.08749 8.50044C2.21492 8.67383 2.32088 8.8886 2.36347 9.08734C2.41255 9.31642 2.44617 9.67268 2.46754 9.9588C2.47843 10.1046 2.48646 10.2369 2.49176 10.3327C2.49441 10.3807 2.49639 10.4196 2.49771 10.4466L2.49919 10.4779L2.49957 10.4861L2.49969 10.4889C2.50569 10.6268 2.39874 10.7438 2.2608 10.7498C2.12287 10.7558 2.00618 10.6488 2.00018 10.5109L1.99972 10.5008L1.9983 10.471C1.99703 10.4449 1.99511 10.4071 1.99252 10.3604C1.98735 10.2668 1.97952 10.1378 1.96893 9.99604C1.94735 9.70705 1.91551 9.38317 1.87457 9.1921C1.86183 9.13267 1.83707 9.06394 1.80312 8.99362C1.6816 8.80487 1.50469 8.77812 1.33956 8.81097L1.33494 8.80801ZM14.6633 8.80801L14.6587 8.81097C14.4935 8.77812 14.3165 8.80487 14.195 8.99362C14.161 9.06394 14.1362 9.13267 14.1235 9.1921C14.0825 9.38317 14.0507 9.70705 14.0291 9.99604C14.0185 10.1378 14.0107 10.2668 14.0055 10.3604C14.0029 10.4071 14.001 10.4449 13.9997 10.471L13.9983 10.5008L13.9978 10.5109C13.9918 10.6488 13.8751 10.7558 13.7371 10.7498C13.5991 10.7438 13.4921 10.6268 13.4981 10.4889L13.4986 10.4779L13.5001 10.4466C13.5014 10.4196 13.5034 10.3807 13.5061 10.3327C13.5114 10.2369 13.5194 10.1046 13.5303 9.9588C13.5517 9.67268 13.5853 9.31642 13.6344 9.08734C13.677 8.8886 13.783 8.67383 13.9105 8.50044C13.9453 8.45305 13.985 8.40431 14.029 8.35768C14.2232 7.44208 13.2687 7.20259 12.9994 7.62847L12.9977 7.63138V9.75C12.9977 9.88807 12.8857 10 12.7476 10C12.6095 10 12.4975 9.88807 12.4975 9.75V7.67542C12.4946 7.67254 12.4918 7.66962 12.4889 7.66667L12.4975 7.6627V7.63405C12.4967 7.6128 12.4959 7.59063 12.4951 7.56812C12.482 7.19079 12.4633 6.6564 12.0541 6.61592C11.5153 6.56262 11.5072 7.11382 11.5071 7.40922C11.5134 7.62427 11.5086 7.93881 11.5034 8.25606L11.5018 8.35531C11.4948 8.77234 11.4876 9.20237 11.497 9.49186C11.5015 9.62985 11.3933 9.74536 11.2552 9.74985C11.1172 9.75434 11.0016 9.64611 10.9971 9.50811C10.9873 9.20554 10.9947 8.76316 11.0016 8.35127L11.0033 8.24784C11.0075 7.99351 11.0106 7.76321 11.0098 7.58601H11.0119L11.0228 6.93945C10.9456 6.91081 10.8718 6.89803 10.8024 6.89777C10.454 6.89645 10.2179 7.21073 10.2344 7.41802C10.2351 7.42726 10.2361 7.43594 10.2372 7.44411L10.2372 7.44501L10.4873 9.69501C10.5005 9.81751 10.468 9.94057 10.396 10.0406C10.324 10.1406 10.2176 10.2105 10.0972 10.2369C10.0871 10.2391 10.0769 10.241 10.0667 10.2426L10.0606 10.2287C9.83344 9.71466 9.57925 9.13946 9.00743 9.13947C8.39162 9.13947 8.61977 9.84671 8.78958 10.0807C8.80677 10.1192 8.82896 10.1555 8.85575 10.1885C9.57689 11.2411 10.1239 12.4027 10.4758 13.629C10.5924 14.0118 10.8247 14.349 11.1408 14.5945C11.4568 14.84 11.8411 14.9816 12.241 15C13.4479 15 14.2932 13.9445 14.4952 12.934L14.9954 9.19101C15.0079 9.09001 14.9999 8.85151 14.6633 8.80801Z" fill="#212121"/>
</g>
<defs>
<clipPath id="clip0_2_9897">
<rect width="16" height="16" fill="white" transform="translate(0 0.5)"/>
</clipPath>
</defs>
</svg>
