<svg width="17" height="17" viewBox="0 0 17 17" fill="none" xmlns="http://www.w3.org/2000/svg">
<g clip-path="url(#clip0_2_4013)">
<path d="M10.75 3.5319C11.9466 3.5319 12.9167 2.56185 12.9167 1.36523H13.9167C13.9167 2.56185 14.8867 3.5319 16.0833 3.5319V4.5319C14.8867 4.5319 13.9167 5.50195 13.9167 6.69857H12.9167C12.9167 5.50195 11.9466 4.5319 10.75 4.5319V3.5319ZM3.41666 4.69857C3.41666 3.96219 4.01361 3.36523 4.74999 3.36523H9.41666V2.0319H4.74999C3.27723 2.0319 2.08333 3.22581 2.08333 4.69857V11.3652C2.08333 12.838 3.27723 14.0319 4.74999 14.0319H12.75C14.2227 14.0319 15.4167 12.838 15.4167 11.3652V8.0319H14.0833V11.3652C14.0833 12.1016 13.4864 12.6986 12.75 12.6986H4.74999C4.01361 12.6986 3.41666 12.1016 3.41666 11.3652V4.69857Z" fill="#3F3F46"/>
</g>
<defs>
<clipPath id="clip0_2_4013">
<rect width="16" height="16" fill="white" transform="translate(0.75 0.0322266)"/>
</clipPath>
</defs>
</svg>
