<svg width="17" height="17" viewBox="0 0 17 17" fill="none" xmlns="http://www.w3.org/2000/svg">
<path d="M6.608 8.69889L5.13665 8.69949C4.86192 9.47596 4.12126 10.0322 3.25067 10.0322C2.1461 10.0322 1.25067 9.13683 1.25067 8.03223C1.25067 6.92763 2.1461 6.03223 3.25067 6.03223C4.1215 6.03223 4.86234 6.58879 5.13688 7.36563L6.608 7.36556L8.91735 3.36556L11.0311 3.36562C11.3057 2.58879 12.0465 2.03223 12.9174 2.03223C14.0219 2.03223 14.9174 2.92766 14.9174 4.03223C14.9174 5.13679 14.0219 6.03223 12.9174 6.03223C12.0468 6.03223 11.3061 5.47597 11.0314 4.69949L9.68668 4.69889L7.76268 8.03156L9.68735 11.3656L11.0311 11.3656C11.3057 10.5888 12.0465 10.0322 12.9174 10.0322C14.0219 10.0322 14.9174 10.9276 14.9174 12.0322C14.9174 13.1368 14.0219 14.0322 12.9174 14.0322C12.0468 14.0322 11.3061 13.476 11.0314 12.6995L8.91735 12.6989L6.608 8.69889ZM12.9174 11.3656C12.5492 11.3656 12.2507 11.664 12.2507 12.0322C12.2507 12.4004 12.5492 12.6989 12.9174 12.6989C13.2856 12.6989 13.584 12.4004 13.584 12.0322C13.584 11.664 13.2856 11.3656 12.9174 11.3656ZM3.25067 7.36556C2.88248 7.36556 2.584 7.66403 2.584 8.03223C2.584 8.40043 2.88248 8.69889 3.25067 8.69889C3.61886 8.69889 3.91734 8.40043 3.91734 8.03223C3.91734 7.66403 3.61886 7.36556 3.25067 7.36556ZM12.9174 3.36556C12.5492 3.36556 12.2507 3.66404 12.2507 4.03223C12.2507 4.40041 12.5492 4.69889 12.9174 4.69889C13.2856 4.69889 13.584 4.40041 13.584 4.03223C13.584 3.66404 13.2856 3.36556 12.9174 3.36556Z" fill="#3F3F46"/>
</svg>
