<svg width="17" height="16" viewBox="0 0 17 16" fill="none" xmlns="http://www.w3.org/2000/svg">
<path d="M8.66703 2C12.2618 2 15.2524 4.58651 15.8794 8C15.2524 11.4135 12.2618 14 8.66703 14C5.07224 14 2.0816 11.4135 1.45459 8C2.0816 4.58651 5.07224 2 8.66703 2ZM8.66703 12.6667C11.4908 12.6667 13.907 10.7013 14.5186 8C13.907 5.29869 11.4908 3.33333 8.66703 3.33333C5.84323 3.33333 3.42698 5.29869 2.81535 8C3.42698 10.7013 5.84323 12.6667 8.66703 12.6667ZM8.66703 11C7.01015 11 5.667 9.65687 5.667 8C5.667 6.34315 7.01015 5 8.66703 5C10.3238 5 11.667 6.34315 11.667 8C11.667 9.65687 10.3238 11 8.66703 11ZM8.66703 9.66667C9.5875 9.66667 10.3337 8.92047 10.3337 8C10.3337 7.07953 9.5875 6.33333 8.66703 6.33333C7.74656 6.33333 7.00034 7.07953 7.00034 8C7.00034 8.92047 7.74656 9.66667 8.66703 9.66667Z" fill="#DD6438"/>
</svg>
