<svg width="25" height="24" viewBox="0 0 25 24" fill="none" xmlns="http://www.w3.org/2000/svg">
<path d="M6.5 3.25C4.432 3.25 2.75 4.932 2.75 7C2.75 9.068 4.432 10.75 6.5 10.75C8.568 10.75 10.25 9.068 10.25 7C10.25 4.932 8.568 3.25 6.5 3.25ZM6.5 9.25C5.259 9.25 4.25 8.241 4.25 7C4.25 5.759 5.259 4.75 6.5 4.75C7.741 4.75 8.75 5.759 8.75 7C8.75 8.241 7.741 9.25 6.5 9.25ZM18.5 13.25C16.432 13.25 14.75 14.932 14.75 17C14.75 19.068 16.432 20.75 18.5 20.75C20.568 20.75 22.25 19.068 22.25 17C22.25 14.932 20.568 13.25 18.5 13.25ZM18.5 19.25C17.259 19.25 16.25 18.241 16.25 17C16.25 15.759 17.259 14.75 18.5 14.75C19.741 14.75 20.75 15.759 20.75 17C20.75 18.241 19.741 19.25 18.5 19.25ZM15.5 7.75H21.5C21.914 7.75 22.25 7.414 22.25 7C22.25 6.586 21.914 6.25 21.5 6.25H15.5C15.086 6.25 14.75 6.586 14.75 7C14.75 7.414 15.086 7.75 15.5 7.75ZM9.5 16.25H3.5C3.086 16.25 2.75 16.586 2.75 17C2.75 17.414 3.086 17.75 3.5 17.75H9.5C9.914 17.75 10.25 17.414 10.25 17C10.25 16.586 9.914 16.25 9.5 16.25Z" fill="#253746"/>
</svg>
