<svg width="0" height="0" class="hidden">
  <symbol fill="none" xmlns="http://www.w3.org/2000/svg" viewBox="0 0 33 35" id="HIghHigh">
    <path d="M21.675 0V11.6213C21.675 12.0939 21.2922 12.4767 20.8196 12.4767C20.5974 12.4767 20.3989 12.3964 20.2477 12.2593C20.2335 12.2498 20.2241 12.2357 20.2099 12.2262C20.2052 12.2215 20.2004 12.2168 20.1957 12.212L17.3081 9.38588L17.2798 9.35752C17.0624 9.14958 16.7835 9.04088 16.5047 9.04088C16.2259 9.04088 15.9423 9.14958 15.7249 9.35752L15.6965 9.38588L12.8279 12.1979C12.8279 12.1979 12.8231 12.2026 12.8184 12.2026L12.7853 12.2357L12.7333 12.2877C12.5821 12.4105 12.3931 12.4814 12.1898 12.4814C11.722 12.4814 11.3392 12.1081 11.3344 11.6402V0H6.09327C3.20095 0 0.852112 2.34883 0.852112 5.24116V34.9489H0.96081C5.63485 34.9489 9.5858 31.8581 10.8807 27.6141C11.1737 26.6548 11.3344 25.6339 11.3344 24.5753V24.0885H10.2474C9.77957 24.0885 9.40149 23.7105 9.40149 23.2426C9.40149 23.063 9.4582 22.8976 9.55272 22.7605C9.58108 22.718 9.60943 22.6802 9.64724 22.6471C9.64724 22.6471 9.64724 22.6424 9.65669 22.6376L10.8571 21.4609L11.3297 20.9977L15.706 16.7159L15.7249 16.697C15.9423 16.4844 16.2211 16.3804 16.5047 16.3804C16.7883 16.3804 17.0671 16.4844 17.2798 16.697L17.2939 16.7159L21.6702 20.9977L22.1476 21.4609L23.3574 22.6471C23.3574 22.6471 23.3669 22.6518 23.3669 22.6565C23.4 22.6896 23.4236 22.7227 23.452 22.7558C23.5512 22.8929 23.6032 23.0583 23.6032 23.2379C23.6032 23.7057 23.2251 24.0838 22.7572 24.0838H21.6702V24.5706C21.6702 25.6198 21.8262 26.6311 22.1145 27.5858C22.1145 27.5952 22.1192 27.6 22.1192 27.6094C23.1259 30.9035 25.7299 33.5028 29.0239 34.5C29.9739 34.7882 30.99 34.9442 32.0344 34.9442H32.1478V5.24116C32.1478 2.34883 29.799 0 26.9067 0H21.6655H21.675Z" fill="#EB5B27"></path>
  </symbol>
  <symbol fill="none" xmlns="http://www.w3.org/2000/svg" viewBox="0 0 24 24" id="arrow-down-line">
    <path d="M13.0001 16.1716L18.3641 10.8076L19.7783 12.2218L12.0001 20L4.22192 12.2218L5.63614 10.8076L11.0001 16.1716V4H13.0001V16.1716Z" fill="currentColor"></path>
  </symbol>
  <symbol fill="none" xmlns="http://www.w3.org/2000/svg" viewBox="0 0 24 24" id="arrow-left-line">
    <path d="M7.82843 10.9999H20V12.9999H7.82843L13.1924 18.3638L11.7782 19.778L4 11.9999L11.7782 4.22168L13.1924 5.63589L7.82843 10.9999Z" fill="currentColor"></path>
  </symbol>
  <symbol fill="none" xmlns="http://www.w3.org/2000/svg" viewBox="0 0 24 24" id="arrow-right-line">
    <path d="M16.1716 10.9999L10.8076 5.63589L12.2218 4.22168L20 11.9999L12.2218 19.778L10.8076 18.3638L16.1716 12.9999H4V10.9999H16.1716Z" fill="currentColor"></path>
  </symbol>
  <symbol fill="none" xmlns="http://www.w3.org/2000/svg" viewBox="0 0 24 24" id="arrow-up-line">
    <path d="M13.0001 7.82843V20H11.0001V7.82843L5.63614 13.1924L4.22192 11.7782L12.0001 4L19.7783 11.7782L18.3641 13.1924L13.0001 7.82843Z" fill="currentColor"></path>
  </symbol>
  <symbol fill="none" xmlns="http://www.w3.org/2000/svg" viewBox="0 0 24 24" id="arrow-down">
    <path d="M11.9999 13.1714L16.9497 8.22168L18.3639 9.63589L11.9999 15.9999L5.63599 9.63589L7.0502 8.22168L11.9999 13.1714Z" fill="currentColor"></path>
  </symbol>
  <symbol fill="none" xmlns="http://www.w3.org/2000/svg" viewBox="0 0 24 24" id="arrow-left">
    <path d="M10.8284 12.0007L15.7782 16.9504L14.364 18.3646L8 12.0007L14.364 5.63672L15.7782 7.05093L10.8284 12.0007Z" fill="currentColor"></path>
  </symbol>
  <symbol fill="none" xmlns="http://www.w3.org/2000/svg" viewBox="0 0 24 24" id="arrow-right">
    <path d="M13.1717 12.0007L8.22192 7.05093L9.63614 5.63672L16.0001 12.0007L9.63614 18.3646L8.22192 16.9504L13.1717 12.0007Z" fill="currentColor"></path>
  </symbol>
  <symbol fill="none" xmlns="http://www.w3.org/2000/svg" viewBox="0 0 24 24" id="arrow-up">
    <path d="M11.9999 10.8284L7.0502 15.7782L5.63599 14.364L11.9999 8L18.3639 14.364L16.9497 15.7782L11.9999 10.8284Z" fill="currentColor"></path>
  </symbol>

  <symbol fill="none" xmlns="http://www.w3.org/2000/svg" viewBox="0 0 24 24" id="close-line">
    <path d="M11.9997 10.5865L16.9495 5.63672L18.3637 7.05093L13.4139 12.0007L18.3637 16.9504L16.9495 18.3646L11.9997 13.4149L7.04996 18.3646L5.63574 16.9504L10.5855 12.0007L5.63574 7.05093L7.04996 5.63672L11.9997 10.5865Z" fill="currentColor"></path>
  </symbol>

  <symbol fill="none" xmlns="http://www.w3.org/2000/svg" viewBox="0 0 24 24" id="menu-line">
    <path d="M3 4H21V6H3V4ZM3 11H21V13H3V11ZM3 18H21V20H3V18Z" fill="#3F3F46"></path>
  </symbol>
  <symbol fill="none" xmlns="http://www.w3.org/2000/svg" viewBox="0 0 16 17" id="add-line">
    <path d="M7.33334 8.78223H7.83334V8.28223V4.78223H8.16668V8.28223V8.78223H8.66668H12.1667V9.11556H8.66668H8.16668V9.61556V13.1156H7.83334V9.61556V9.11556H7.33334H3.83334V8.78223H7.33334Z" fill="currentColor" stroke="currentColor"></path>
  </symbol>
  <symbol fill="none" xmlns="http://www.w3.org/2000/svg" viewBox="0 0 12 12" id="subtract-line">
    <path d="M2.5 5.5V6.5H9.5V5.5H2.5Z" fill="currentColor"></path>
  </symbol>
  <symbol fill="none" xmlns="http://www.w3.org/2000/svg" viewBox="0 0 24 24" id="discount">
    <path d="M10.0544 2.0941C11.1756 1.13856 12.8248 1.13855 13.9461 2.09411L15.2941 3.24286C15.4542 3.37935 15.6533 3.46182 15.8631 3.47856L17.6286 3.61945C19.0971 3.73663 20.2633 4.9028 20.3805 6.37131L20.5214 8.13679C20.5381 8.34654 20.6205 8.54568 20.757 8.70585L21.9058 10.0539C22.8614 11.1751 22.8614 12.8243 21.9058 13.9456L20.757 15.2935C20.6206 15.4537 20.538 15.6529 20.5213 15.8627L20.3805 17.6281C20.2633 19.0967 19.0971 20.2628 17.6286 20.3799L15.8631 20.5208C15.6533 20.5376 15.4542 20.6201 15.2941 20.7566L13.9461 21.9053C12.8248 22.8609 11.1756 22.8608 10.0543 21.9053L8.70631 20.7566C8.54615 20.6201 8.34705 20.5376 8.1373 20.5209L6.37184 20.3799C4.9033 20.2627 3.73716 19.0966 3.61997 17.6281L3.47906 15.8627C3.46232 15.6529 3.37983 15.4538 3.24336 15.2936L2.0946 13.9455C1.13905 12.8243 1.13904 11.1752 2.09458 10.0539L3.24334 8.70589C3.37983 8.54573 3.46234 8.34654 3.47907 8.13678L3.61996 6.3713C3.73714 4.90278 4.90327 3.73665 6.3718 3.61946L8.13729 3.47857C8.34705 3.46183 8.54619 3.37935 8.70636 3.24286L10.0544 2.0941ZM12.6488 3.61632C12.2751 3.29782 11.7253 3.29781 11.3516 3.61632L10.0036 4.76509C9.5231 5.17456 8.92568 5.42201 8.29637 5.47223L6.5309 5.61312C6.04139 5.65219 5.65268 6.04089 5.61362 6.53041L5.47272 8.29593C5.4225 8.92521 5.17505 9.52259 4.76559 10.0031L3.61683 11.3511C3.29832 11.7248 3.29831 12.2746 3.61683 12.6483L4.76559 13.9963C5.17506 14.4768 5.4225 15.0743 5.47275 15.7035L5.61363 17.469C5.65268 17.9585 6.04139 18.3473 6.53092 18.3863L8.29636 18.5272C8.92563 18.5774 9.5231 18.8249 10.0036 19.2344L11.3516 20.3831C11.7254 20.7016 12.2751 20.7016 12.6488 20.3831L13.9969 19.2343C14.4773 18.8249 15.0747 18.5774 15.704 18.5272L17.4695 18.3863C17.959 18.3472 18.3478 17.9585 18.3868 17.469L18.5277 15.7035C18.5779 15.0742 18.8253 14.4768 19.2349 13.9964L20.3836 12.6483C20.7022 12.2746 20.7021 11.7249 20.3836 11.3511L19.2348 10.0031C18.8253 9.52259 18.5779 8.92519 18.5277 8.2959L18.3868 6.53041C18.3478 6.0409 17.959 5.65219 17.4695 5.61312L15.704 5.47224C15.0748 5.42203 14.4773 5.17455 13.9968 4.76508L12.6488 3.61632ZM14.8284 7.75718L16.2426 9.1714L9.17154 16.2425L7.75733 14.8282L14.8284 7.75718ZM10.2322 10.232C9.64641 10.8178 8.69667 10.8178 8.11088 10.232C7.52509 9.6463 7.52509 8.69652 8.11088 8.11073C8.69667 7.52494 9.64641 7.52494 10.2322 8.11073C10.818 8.69652 10.818 9.6463 10.2322 10.232ZM13.7677 15.8889C14.3535 16.4747 15.3032 16.4747 15.889 15.8889C16.4748 15.3031 16.4748 14.3534 15.889 13.7676C15.3032 13.1818 14.3535 13.1818 13.7677 13.7676C13.1819 14.3534 13.1819 15.3031 13.7677 15.8889Z" fill="#3F3F46"></path>
  </symbol>
  <symbol fill="none" xmlns="http://www.w3.org/2000/svg" viewBox="0 0 24 24" id="house">
    <path d="M19 19V9.79875L12 4.27675L5 9.79875V19H19ZM21 20C21 20.5523 20.5523 21 20 21H4C3.44772 21 3 20.5523 3 20V9.31391C3 9.00773 3.14027 8.71843 3.38065 8.52879L11.3807 2.21793C11.7438 1.93142 12.2562 1.93142 12.6193 2.21793L20.6193 8.52879C20.8597 8.71843 21 9.00773 21 9.31391V20ZM7 12H9C9 13.6569 10.3431 15 12 15C13.6569 15 15 13.6569 15 12H17C17 14.7614 14.7614 17 12 17C9.23858 17 7 14.7614 7 12Z" fill="#3F3F46"></path>
  </symbol>
  <symbol fill="none" xmlns="http://www.w3.org/2000/svg" viewBox="0 0 16 17" id="analytics">
    <path d="M8.72855 3.16066L8.16668 3.0906V3.65682V8.28223V8.78223H8.66668H13.2921H13.8583L13.7882 8.22036C13.4591 5.58078 11.3681 3.48981 8.72855 3.16066ZM13.2719 11.4489H13.639C12.6797 13.6094 10.5152 15.1156 8.00001 15.1156C4.59425 15.1156 1.83334 12.3546 1.83334 8.94889C1.83334 6.43367 3.33948 4.26914 5.50001 3.30987V3.67706C3.52995 4.61291 2.16668 6.62115 2.16668 8.94889C2.16668 12.1706 4.77835 14.7822 8.00001 14.7822C10.3278 14.7822 12.336 13.4189 13.2719 11.4489ZM8.00001 2.78223C11.4057 2.78223 14.1667 5.54314 14.1667 8.94889C14.1667 9.00464 14.1659 9.0602 14.1645 9.11556H7.83334V2.78443C7.88871 2.78296 7.94427 2.78223 8.00001 2.78223Z" fill="#3F3F46" stroke="#334155"></path>
  </symbol>
  <symbol fill="none" xmlns="http://www.w3.org/2000/svg" viewBox="0 0 16 17" id="terms">
    <path d="M12.6667 14.7822H13.1667V14.2822V3.61556V3.11556H12.6667H3.33333H2.83333V3.61556V14.2822V14.7822H3.33333H12.6667ZM13.3333 15.1156H2.66667C2.57462 15.1156 2.5 15.0409 2.5 14.9489V2.94889C2.5 2.85685 2.57462 2.78223 2.66667 2.78223H13.3333C13.4254 2.78223 13.5 2.85684 13.5 2.94889V14.9489C13.5 15.041 13.4254 15.1156 13.3333 15.1156ZM5.16667 5.44889H6.83333V7.11556H5.16667V5.44889ZM5.16667 9.44889H10.8333V9.78223H5.16667V9.44889ZM5.16667 12.1156H10.8333V12.4489H5.16667V12.1156ZM9.16667 6.11556H10.8333V6.44889H9.16667V6.11556Z" fill="#3F3F46" stroke="#334155"></path>
  </symbol>
  <symbol fill="none" xmlns="http://www.w3.org/2000/svg" viewBox="0 0 24 24" id="ads">
    <path d="M21 13.2422V20H22V22H2V20H3V13.2422C1.79401 12.435 1 11.0602 1 9.5C1 8.67286 1.22443 7.87621 1.63322 7.19746L4.3453 2.5C4.52393 2.1906 4.85406 2 5.21132 2H18.7887C19.1459 2 19.4761 2.1906 19.6547 2.5L22.3575 7.18172C22.7756 7.87621 23 8.67286 23 9.5C23 11.0602 22.206 12.435 21 13.2422ZM19 13.9725C18.8358 13.9907 18.669 14 18.5 14C17.2409 14 16.0789 13.478 15.25 12.6132C14.4211 13.478 13.2591 14 12 14C10.7409 14 9.5789 13.478 8.75 12.6132C7.9211 13.478 6.75911 14 5.5 14C5.331 14 5.16417 13.9907 5 13.9725V20H19V13.9725ZM5.78865 4L3.35598 8.21321C3.12409 8.59843 3 9.0389 3 9.5C3 10.8807 4.11929 12 5.5 12C6.53096 12 7.44467 11.3703 7.82179 10.4295C8.1574 9.59223 9.3426 9.59223 9.67821 10.4295C10.0553 11.3703 10.969 12 12 12C13.031 12 13.9447 11.3703 14.3218 10.4295C14.6574 9.59223 15.8426 9.59223 16.1782 10.4295C16.5553 11.3703 17.469 12 18.5 12C19.8807 12 21 10.8807 21 9.5C21 9.0389 20.8759 8.59843 20.6347 8.19746L18.2113 4H5.78865Z" fill="#3F3F46"></path>
  </symbol>
  <symbol fill="none" xmlns="http://www.w3.org/2000/svg" viewBox="0 0 24 24" id="support">
    <path d="M22 17.0022C21.999 19.8731 19.9816 22.2726 17.2872 22.8616L16.6492 20.9476C17.8532 20.7511 18.8765 20.0171 19.4649 19H17C15.8954 19 15 18.1046 15 17V13C15 11.8954 15.8954 11 17 11H19.9381C19.446 7.05369 16.0796 4 12 4C7.92038 4 4.55399 7.05369 4.06189 11H7C8.10457 11 9 11.8954 9 13V17C9 18.1046 8.10457 19 7 19H4C2.89543 19 2 18.1046 2 17V12C2 6.47715 6.47715 2 12 2C17.5228 2 22 6.47715 22 12V12.9987V13V17V17.0022ZM20 17V13H17V17H20ZM4 13V17H7V13H4Z" fill="#3F3F46"></path>
  </symbol>
  <symbol fill="none" xmlns="http://www.w3.org/2000/svg" viewBox="0 0 16 17" id="user">
    <path d="M5.50416 5.46913L5.50374 5.47637L5.50353 5.48362L5.50013 5.60113L5.49993 5.60834V5.61556V7.61556C5.49993 8.9963 6.61918 10.1156 7.99993 10.1156C9.3315 10.1156 10.4197 9.07481 10.4957 7.762L10.4961 7.75478L10.4963 7.74755L10.4997 7.63002L10.4999 7.62279V7.61556V5.61556C10.4999 4.23485 9.3806 3.11556 7.99993 3.11556C6.66834 3.11556 5.58022 4.15633 5.50416 5.46913ZM7.99993 12.7822C10.0416 12.7822 11.824 13.56 12.9374 14.7243L12.6288 14.8702C11.5485 13.7857 9.85955 13.1156 7.99993 13.1156C6.14037 13.1156 4.45155 13.7857 3.37118 14.8701L3.06279 14.724C4.1762 13.5598 5.95843 12.7822 7.99993 12.7822ZM8.00504 2.78223C9.56748 2.78499 10.8333 4.05246 10.8333 5.61556V7.61556C10.8333 9.13736 9.63335 10.3791 8.12833 10.4461L7.99484 10.4489C6.43237 10.4461 5.16659 9.17866 5.16659 7.61556V5.61556C5.16659 4.09379 6.36651 2.852 7.87153 2.78507L8.00504 2.78223Z" fill="#3F3F46" stroke="#334155"></path>
  </symbol>
  <symbol fill="none" xmlns="http://www.w3.org/2000/svg" viewBox="0 0 24 24" id="logout">
    <path d="M12 22C6.47715 22 2 17.5228 2 12C2 6.47715 6.47715 2 12 2C15.2713 2 18.1757 3.57078 20.0002 5.99923L17.2909 5.99931C15.8807 4.75499 14.0285 4 12 4C7.58172 4 4 7.58172 4 12C4 16.4183 7.58172 20 12 20C14.029 20 15.8816 19.2446 17.2919 17.9998H20.0009C18.1765 20.4288 15.2717 22 12 22ZM19 16V13H11V11H19V8L24 12L19 16Z" fill="#3F3F46"></path>
  </symbol>
  <symbol fill="none" xmlns="http://www.w3.org/2000/svg" viewBox="0 0 24 24" id="settings">
    <path d="M12 1L21.5 6.5V17.5L12 23L2.5 17.5V6.5L12 1ZM12 3.311L4.5 7.65311V16.3469L12 20.689L19.5 16.3469V7.65311L12 3.311ZM12 16C9.79086 16 8 14.2091 8 12C8 9.79086 9.79086 8 12 8C14.2091 8 16 9.79086 16 12C16 14.2091 14.2091 16 12 16ZM12 14C13.1046 14 14 13.1046 14 12C14 10.8954 13.1046 10 12 10C10.8954 10 10 10.8954 10 12C10 13.1046 10.8954 14 12 14Z" fill="#3F3F46"></path>
  </symbol>
  <symbol fill="none" xmlns="http://www.w3.org/2000/svg" viewBox="0 0 24 24" id="global-line">
    <path d="M12 22C6.47715 22 2 17.5228 2 12C2 6.47715 6.47715 2 12 2C17.5228 2 22 6.47715 22 12C22 17.5228 17.5228 22 12 22ZM9.71002 19.6674C8.74743 17.6259 8.15732 15.3742 8.02731 13H4.06189C4.458 16.1765 6.71639 18.7747 9.71002 19.6674ZM10.0307 13C10.1811 15.4388 10.8778 17.7297 12 19.752C13.1222 17.7297 13.8189 15.4388 13.9693 13H10.0307ZM19.9381 13H15.9727C15.8427 15.3742 15.2526 17.6259 14.29 19.6674C17.2836 18.7747 19.542 16.1765 19.9381 13ZM4.06189 11H8.02731C8.15732 8.62577 8.74743 6.37407 9.71002 4.33256C6.71639 5.22533 4.458 7.8235 4.06189 11ZM10.0307 11H13.9693C13.8189 8.56122 13.1222 6.27025 12 4.24799C10.8778 6.27025 10.1811 8.56122 10.0307 11ZM14.29 4.33256C15.2526 6.37407 15.8427 8.62577 15.9727 11H19.9381C19.542 7.8235 17.2836 5.22533 14.29 4.33256Z" fill="#3F3F46"></path>
  </symbol>
  <symbol fill="none" xmlns="http://www.w3.org/2000/svg" viewBox="0 0 24 24" id="notification-line">
    <path d="M5 18H19V11.0314C19 7.14806 15.866 4 12 4C8.13401 4 5 7.14806 5 11.0314V18ZM12 2C16.9706 2 21 6.04348 21 11.0314V20H3V11.0314C3 6.04348 7.02944 2 12 2ZM9.5 21H14.5C14.5 22.3807 13.3807 23.5 12 23.5C10.6193 23.5 9.5 22.3807 9.5 21Z" fill="#3F3F46"></path>
  </symbol>
  <symbol fill="none" xmlns="http://www.w3.org/2000/svg" viewBox="0 0 16 16" id="ad-mic">
    <path d="M6 11.3333C6 11.3333 10.6667 12 12.6667 14H13.3333C13.7015 14 14 13.7015 14 13.3333V9.29133C14.5751 9.14333 15 8.62127 15 8C15 7.37873 14.5751 6.85667 14 6.70867V2.66667C14 2.29848 13.7015 2 13.3333 2H12.6667C10.6667 4 6 4.66667 6 4.66667H3.33333C2.59695 4.66667 2 5.26362 2 6V10C2 10.7364 2.59695 11.3333 3.33333 11.3333H4L4.66667 14.6667H6V11.3333ZM7.33333 5.77413C7.78887 5.6764 8.35167 5.54129 8.95953 5.36249C10.0783 5.03343 11.5 4.51508 12.6667 3.71639V12.2836C11.5 11.4849 10.0783 10.9666 8.95953 10.6375C8.35167 10.4587 7.78887 10.3236 7.33333 10.2259V5.77413ZM3.33333 6H6V10H3.33333V6Z" fill="currentColor"></path>
  </symbol>
  <symbol fill="none" xmlns="http://www.w3.org/2000/svg" viewBox="0 0 24 24" id="alarm">
    <path d="M12 6.75V12H17.25" stroke="#191B1C" stroke-width="1.5" stroke-linecap="round" stroke-linejoin="round"></path>
    <path d="M12 20.25C16.5563 20.25 20.25 16.5563 20.25 12C20.25 7.44365 16.5563 3.75 12 3.75C7.44365 3.75 3.75 7.44365 3.75 12C3.75 16.5563 7.44365 20.25 12 20.25Z" stroke="#191B1C" stroke-width="1.5" stroke-miterlimit="10"></path>
    <path d="M18.364 2.4541L21.5459 5.63608" stroke="#191B1C" stroke-width="1.5" stroke-linecap="round" stroke-linejoin="round"></path>
    <path d="M2.4541 5.63608L5.63608 2.4541" stroke="#191B1C" stroke-width="1.5" stroke-linecap="round" stroke-linejoin="round"></path>
  </symbol>

  <symbol fill="none" xmlns="http://www.w3.org/2000/svg" viewBox="0 0 24 24" id="twitter-x">
    <path d="M8 2H1L9.26086 13.0145L1.44995 21.9999H4.09998L10.4883 14.651L16 22H23L14.3917 10.5223L21.8001 2H19.1501L13.1643 8.88578L8 2ZM17 20L5 4H7L19 20H17Z" fill="#52525B"></path>
  </symbol>
  <symbol fill="none" xmlns="http://www.w3.org/2000/svg" viewBox="0 0 24 24" id="linkedin">
    <path d="M18.3362 18.339H15.6707V14.1622C15.6707 13.1662 15.6505 11.8845 14.2817 11.8845C12.892 11.8845 12.6797 12.9683 12.6797 14.0887V18.339H10.0142V9.75H12.5747V10.9207H12.6092C12.967 10.2457 13.837 9.53325 15.1367 9.53325C17.8375 9.53325 18.337 11.3108 18.337 13.6245L18.3362 18.339ZM7.00373 8.57475C6.14573 8.57475 5.45648 7.88025 5.45648 7.026C5.45648 6.1725 6.14648 5.47875 7.00373 5.47875C7.85873 5.47875 8.55173 6.1725 8.55173 7.026C8.55173 7.88025 7.85798 8.57475 7.00373 8.57475ZM8.34023 18.339H5.66723V9.75H8.34023V18.339ZM19.6697 3H4.32923C3.59498 3 3.00098 3.5805 3.00098 4.29675V19.7033C3.00098 20.4202 3.59498 21 4.32923 21H19.6675C20.401 21 21.001 20.4202 21.001 19.7033V4.29675C21.001 3.5805 20.401 3 19.6675 3H19.6697Z" fill="#2563EB"></path>
  </symbol>
  <symbol fill="none" xmlns="http://www.w3.org/2000/svg" viewBox="0 0 24 24" id="tiktok">
    <path d="M16 8.24537V15.5C16 19.0899 13.0899 22 9.5 22C5.91015 22 3 19.0899 3 15.5C3 11.9101 5.91015 9 9.5 9C10.0163 9 10.5185 9.06019 11 9.17393V12.3368C10.5454 12.1208 10.0368 12 9.5 12C7.567 12 6 13.567 6 15.5C6 17.433 7.567 19 9.5 19C11.433 19 13 17.433 13 15.5V2H16C16 4.76142 18.2386 7 21 7V10C19.1081 10 17.3696 9.34328 16 8.24537Z" fill="#3F3F46"></path>
  </symbol>
  <symbol xmlns="http://www.w3.org/2000/svg" viewBox="0 0 24 24" id="whatsapp">
    <path d="M 12.011719 2 C 6.5057187 2 2.0234844 6.478375 2.0214844 11.984375 C 2.0204844 13.744375 2.4814687 15.462563 3.3554688 16.976562 L 2 22 L 7.2324219 20.763672 C 8.6914219 21.559672 10.333859 21.977516 12.005859 21.978516 L 12.009766 21.978516 C 17.514766 21.978516 21.995047 17.499141 21.998047 11.994141 C 22.000047 9.3251406 20.962172 6.8157344 19.076172 4.9277344 C 17.190172 3.0407344 14.683719 2.001 12.011719 2 z M 12.009766 4 C 14.145766 4.001 16.153109 4.8337969 17.662109 6.3417969 C 19.171109 7.8517969 20.000047 9.8581875 19.998047 11.992188 C 19.996047 16.396187 16.413812 19.978516 12.007812 19.978516 C 10.674812 19.977516 9.3544062 19.642812 8.1914062 19.007812 L 7.5175781 18.640625 L 6.7734375 18.816406 L 4.8046875 19.28125 L 5.2851562 17.496094 L 5.5019531 16.695312 L 5.0878906 15.976562 C 4.3898906 14.768562 4.0204844 13.387375 4.0214844 11.984375 C 4.0234844 7.582375 7.6067656 4 12.009766 4 z M 8.4765625 7.375 C 8.3095625 7.375 8.0395469 7.4375 7.8105469 7.6875 C 7.5815469 7.9365 6.9355469 8.5395781 6.9355469 9.7675781 C 6.9355469 10.995578 7.8300781 12.182609 7.9550781 12.349609 C 8.0790781 12.515609 9.68175 15.115234 12.21875 16.115234 C 14.32675 16.946234 14.754891 16.782234 15.212891 16.740234 C 15.670891 16.699234 16.690438 16.137687 16.898438 15.554688 C 17.106437 14.971687 17.106922 14.470187 17.044922 14.367188 C 16.982922 14.263188 16.816406 14.201172 16.566406 14.076172 C 16.317406 13.951172 15.090328 13.348625 14.861328 13.265625 C 14.632328 13.182625 14.464828 13.140625 14.298828 13.390625 C 14.132828 13.640625 13.655766 14.201187 13.509766 14.367188 C 13.363766 14.534188 13.21875 14.556641 12.96875 14.431641 C 12.71875 14.305641 11.914938 14.041406 10.960938 13.191406 C 10.218937 12.530406 9.7182656 11.714844 9.5722656 11.464844 C 9.4272656 11.215844 9.5585938 11.079078 9.6835938 10.955078 C 9.7955938 10.843078 9.9316406 10.663578 10.056641 10.517578 C 10.180641 10.371578 10.223641 10.267562 10.306641 10.101562 C 10.389641 9.9355625 10.347156 9.7890625 10.285156 9.6640625 C 10.223156 9.5390625 9.737625 8.3065 9.515625 7.8125 C 9.328625 7.3975 9.131125 7.3878594 8.953125 7.3808594 C 8.808125 7.3748594 8.6425625 7.375 8.4765625 7.375 z" fill="#40c351"></path>
  </symbol>
  <symbol fill="none" xmlns="http://www.w3.org/2000/svg" viewBox="0 0 24 24" id="facebook">
    <path d="M12.001 2C6.47813 2 2.00098 6.47715 2.00098 12C2.00098 16.9913 5.65783 21.1283 10.4385 21.8785V14.8906H7.89941V12H10.4385V9.79688C10.4385 7.29063 11.9314 5.90625 14.2156 5.90625C15.3097 5.90625 16.4541 6.10156 16.4541 6.10156V8.5625H15.1931C13.9509 8.5625 13.5635 9.33334 13.5635 10.1242V12H16.3369L15.8936 14.8906H13.5635V21.8785C18.3441 21.1283 22.001 16.9913 22.001 12C22.001 6.47715 17.5238 2 12.001 2Z" fill="#3B82F6"></path>
  </symbol>
  <symbol xmlns="http://www.w3.org/2000/svg" viewBox="0 0 48 48" id="messenger">
    <path fill="#448AFF" d="M24,4C13.5,4,5,12.1,5,22c0,5.2,2.3,9.8,6,13.1V44l7.8-4.7c1.6,0.4,3.4,0.7,5.2,0.7c10.5,0,19-8.1,19-18C43,12.1,34.5,4,24,4z"></path>
    <path fill="#FFF" d="M12 28L22 17 27 22 36 17 26 28 21 23z"></path>
  </symbol>
  <symbol fill="none" xmlns="http://www.w3.org/2000/svg" viewBox="0 0 24 24" id="instagram">
    <path d="M13.0281 2.00098C14.1535 2.00284 14.7238 2.0088 15.2166 2.02347L15.4107 2.02981C15.6349 2.03778 15.8561 2.04778 16.1228 2.06028C17.1869 2.10945 17.9128 2.27778 18.5503 2.52528C19.2094 2.77945 19.7661 3.12278 20.3219 3.67862C20.8769 4.23445 21.2203 4.79278 21.4753 5.45028C21.7219 6.08695 21.8903 6.81362 21.9403 7.87778C21.9522 8.14445 21.9618 8.36565 21.9697 8.58989L21.976 8.78398C21.9906 9.27672 21.9973 9.84711 21.9994 10.9725L22.0002 11.7181C22.0003 11.8092 22.0003 11.9032 22.0003 12.0002L22.0002 12.2823L21.9996 13.028C21.9977 14.1534 21.9918 14.7238 21.9771 15.2165L21.9707 15.4106C21.9628 15.6349 21.9528 15.8561 21.9403 16.1227C21.8911 17.1869 21.7219 17.9127 21.4753 18.5502C21.2211 19.2094 20.8769 19.7661 20.3219 20.3219C19.7661 20.8769 19.2069 21.2202 18.5503 21.4752C17.9128 21.7219 17.1869 21.8902 16.1228 21.9402C15.8561 21.9521 15.6349 21.9618 15.4107 21.9696L15.2166 21.9759C14.7238 21.9906 14.1535 21.9972 13.0281 21.9994L12.2824 22.0002C12.1913 22.0002 12.0973 22.0002 12.0003 22.0002H11.7182L10.9725 21.9995C9.8471 21.9977 9.27672 21.9917 8.78397 21.977L8.58989 21.9707C8.36564 21.9627 8.14444 21.9527 7.87778 21.9402C6.81361 21.8911 6.08861 21.7219 5.45028 21.4752C4.79194 21.2211 4.23444 20.8769 3.67861 20.3219C3.12278 19.7661 2.78028 19.2069 2.52528 18.5502C2.27778 17.9127 2.11028 17.1869 2.06028 16.1227C2.0484 15.8561 2.03871 15.6349 2.03086 15.4106L2.02457 15.2165C2.00994 14.7238 2.00327 14.1534 2.00111 13.028L2.00098 10.9725C2.00284 9.84711 2.00879 9.27672 2.02346 8.78398L2.02981 8.58989C2.03778 8.36565 2.04778 8.14445 2.06028 7.87778C2.10944 6.81278 2.27778 6.08778 2.52528 5.45028C2.77944 4.79195 3.12278 4.23445 3.67861 3.67862C4.23444 3.12278 4.79278 2.78028 5.45028 2.52528C6.08778 2.27778 6.81278 2.11028 7.87778 2.06028C8.14444 2.04841 8.36564 2.03872 8.58989 2.03087L8.78397 2.02458C9.27672 2.00994 9.8471 2.00327 10.9725 2.00111L13.0281 2.00098ZM12.0003 7.00028C9.23738 7.00028 7.00028 9.23981 7.00028 12.0002C7.00028 14.7631 9.23981 17.0002 12.0003 17.0002C14.7632 17.0002 17.0003 14.7607 17.0003 12.0002C17.0003 9.23738 14.7607 7.00028 12.0003 7.00028ZM12.0003 9.00028C13.6572 9.00028 15.0003 10.3429 15.0003 12.0002C15.0003 13.6571 13.6576 15.0002 12.0003 15.0002C10.3434 15.0002 9.00028 13.6576 9.00028 12.0002C9.00028 10.3433 10.3429 9.00028 12.0003 9.00028ZM17.2503 5.50028C16.561 5.50028 16.0003 6.06019 16.0003 6.74943C16.0003 7.43868 16.5602 7.99945 17.2503 7.99945C17.9395 7.99945 18.5003 7.43955 18.5003 6.74943C18.5003 6.06019 17.9386 5.49942 17.2503 5.50028Z" fill="#FB7185"></path>
  </symbol>
  <symbol fill="none" xmlns="http://www.w3.org/2000/svg" viewBox="0 0 24 24" id="snapchat">
    <path d="M11.872 21.7645C10.6817 21.7645 9.88811 21.2027 9.17926 20.7079C8.67548 20.3512 8.20292 20.0124 7.64564 19.9188C7.37369 19.8697 7.09729 19.8519 6.84317 19.8519C6.3706 19.8519 5.99612 19.9232 5.72863 19.9767C5.55922 20.0079 5.41655 20.0347 5.3051 20.0347C5.18919 20.0347 5.04207 20.0035 4.98411 19.8073C4.93507 19.6468 4.90386 19.4953 4.87266 19.3481C4.79241 18.9781 4.72554 18.7507 4.58733 18.7285C3.0983 18.5011 2.20667 18.1578 2.0328 17.7521C2.01942 17.7075 2.00159 17.6629 2.00159 17.6273C1.99267 17.5025 2.08184 17.3999 2.20667 17.3776C3.38808 17.1815 4.44913 16.5529 5.34522 15.5186C6.0407 14.7161 6.37952 13.9404 6.41073 13.8557C6.41073 13.8467 6.41964 13.8467 6.41964 13.8467C6.58906 13.4946 6.62472 13.1959 6.52218 12.9507C6.33048 12.4915 5.69742 12.2953 5.26498 12.1616C5.15352 12.1303 5.0599 12.0947 4.97965 12.0679C4.60962 11.9208 3.9944 11.6087 4.07464 11.1763C4.1326 10.8642 4.54721 10.6413 4.88603 10.6413C4.97965 10.6413 5.0599 10.6547 5.12677 10.6904C5.50572 10.8642 5.849 10.9534 6.14324 10.9534C6.50881 10.9534 6.68268 10.8152 6.72726 10.7706C6.71834 10.5744 6.70497 10.3694 6.69159 10.1777C6.60243 8.81346 6.49989 7.11936 6.93234 6.14747C8.22967 3.24074 10.9848 3.00892 11.8007 3.00892C11.823 3.00892 12.1573 3 12.1573 3C12.1707 3 12.1885 3 12.2064 3C13.0222 3 15.7774 3.22737 17.0747 6.13856C17.5116 7.11044 17.4046 8.80901 17.3154 10.1687L17.3065 10.2356C17.2976 10.4184 17.2842 10.5923 17.2753 10.7706C17.3199 10.8063 17.4804 10.94 17.8103 10.9445C18.0956 10.9356 18.4077 10.8419 18.7643 10.6814C18.8758 10.6324 18.9917 10.6146 19.0764 10.6146C19.2012 10.6146 19.3261 10.6458 19.4331 10.6814H19.442C19.7407 10.7929 19.9368 11.0024 19.9368 11.2209C19.9458 11.426 19.7853 11.738 19.0229 12.0456C18.9427 12.0768 18.849 12.1125 18.7376 12.1393C18.3141 12.2686 17.681 12.4736 17.4804 12.9284C17.3689 13.1691 17.4135 13.4767 17.5829 13.8245C17.5829 13.8334 17.5918 13.8334 17.5918 13.8334C17.6409 13.9582 18.9293 16.8828 21.7959 17.3598C21.9207 17.3821 22.001 17.4846 22.001 17.6094C22.001 17.654 21.9921 17.6986 21.9698 17.7387C21.7959 18.1489 20.9132 18.4833 19.4152 18.7151C19.277 18.7374 19.2102 18.9647 19.1299 19.3348C19.0987 19.4863 19.063 19.6335 19.0185 19.794C18.9739 19.9411 18.8803 20.0213 18.7198 20.0213H18.6975C18.5949 20.0213 18.4567 20.0079 18.2739 19.9723C17.953 19.9054 17.6008 19.8564 17.1594 19.8564C16.8964 19.8564 16.6244 19.8787 16.3569 19.9232C15.8041 20.0124 15.3271 20.3557 14.8233 20.7123C14.1055 21.2027 13.3075 21.7645 12.1261 21.7645C12.1261 21.7645 11.9077 21.7645 11.872 21.7645Z" fill="#FACC15"></path>
  </symbol>
  <symbol fill="none" xmlns="http://www.w3.org/2000/svg" viewBox="0 0 16 16" id="stop">
    <path d="M8.00004 14.6663C4.31814 14.6663 1.33337 11.6815 1.33337 7.99967C1.33337 4.31777 4.31814 1.33301 8.00004 1.33301C11.6819 1.33301 14.6667 4.31777 14.6667 7.99967C14.6667 11.6815 11.6819 14.6663 8.00004 14.6663ZM6.00004 5.99967V9.99967H10V5.99967H6.00004Z" fill="currentColor"></path>
  </symbol>
  <symbol fill="none" xmlns="http://www.w3.org/2000/svg" viewBox="0 0 25 25" id="stop-outline">
    <path d="M12.033 22.5C6.51011 22.5 2.03296 18.0228 2.03296 12.5C2.03296 6.97715 6.51011 2.5 12.033 2.5C17.5558 2.5 22.033 6.97715 22.033 12.5C22.033 18.0228 17.5558 22.5 12.033 22.5ZM12.033 20.5C16.4513 20.5 20.033 16.9183 20.033 12.5C20.033 8.08172 16.4513 4.5 12.033 4.5C7.61468 4.5 4.03296 8.08172 4.03296 12.5C4.03296 16.9183 7.61468 20.5 12.033 20.5ZM9.03296 9.5H15.033V15.5H9.03296V9.5Z" fill="#A1A1AA"></path>
  </symbol>
  <symbol fill="none" xmlns="http://www.w3.org/2000/svg" viewBox="0 0 16 16" id="copy">
    <path d="M4.66653 3.99967V1.99967C4.66653 1.63149 4.96501 1.33301 5.3332 1.33301H13.3332C13.7014 1.33301 13.9999 1.63149 13.9999 1.99967V11.333C13.9999 11.7012 13.7014 11.9997 13.3332 11.9997H11.3332V13.9991C11.3332 14.3676 11.0333 14.6663 10.662 14.6663H2.67111C2.30039 14.6663 2 14.3699 2 13.9991L2.00173 4.66692C2.0018 4.29841 2.30176 3.99967 2.67295 3.99967H4.66653ZM5.99987 3.99967H11.3332V10.6663H12.6665V2.66634H5.99987V3.99967Z" fill="currentColor"></path>
  </symbol>
  <symbol fill="none" xmlns="http://www.w3.org/2000/svg" viewBox="0 0 24 25" id="share-2-line">
    <path d="M12 2.91895L18.2071 9.12605L16.7929 10.5402L13 6.74737V16.3331H11V6.74737L7.20711 10.5402L5.79289 9.12605L12 2.91895ZM3 18.3331V14.3331H5V18.3331C5 18.8854 5.44772 19.3331 6 19.3331H18C18.5523 19.3331 19 18.8854 19 18.3331V14.3331H21V18.3331C21 19.99 19.6569 21.3331 18 21.3331H6C4.34315 21.3331 3 19.99 3 18.3331Z" fill="currentColor"></path>
  </symbol>
  <symbol fill="none" xmlns="http://www.w3.org/2000/svg" viewBox="0 0 24 24" id="email">
    <path d="M2.24283 6.85418L11.4895 1.30843C11.8062 1.11848 12.2019 1.11855 12.5185 1.30861L21.7573 6.85416C21.9079 6.94453 22 7.10726 22 7.28286V19.9998C22 20.5521 21.5523 20.9998 21 20.9998H3C2.44772 20.9998 2 20.5521 2 19.9998V7.28298C2 7.10731 2.09218 6.94454 2.24283 6.85418ZM18.3456 8.24366L12.0606 13.6827L5.64722 8.23752L4.35278 9.76213L12.0731 16.3169L19.6544 9.75598L18.3456 8.24366Z" fill="#A1A1AA"></path>
  </symbol>
  <symbol fill="none" xmlns="http://www.w3.org/2000/svg" viewBox="0 0 16 17" id="money">
    <path d="M2.16988 11.3804V11.7527L2.5266 11.8594C3.11676 12.036 3.58291 12.503 3.75815 13.0937L3.86429 13.4515H4.23749H11.7629H12.1361L12.2422 13.0937C12.418 12.5014 12.8862 12.0334 13.4785 11.858L13.8366 11.752V11.3786V6.52048V6.14708L13.4785 6.04106C12.8872 5.86594 12.4196 5.39928 12.2432 4.80845L12.1366 4.4515H11.7641H4.23633H3.8638L3.75723 4.80845C3.5813 5.39769 3.11573 5.86345 2.52661 6.03965L2.16988 6.14635V6.51868V11.3804ZM10.1669 8.94954C10.1669 10.1461 9.19682 11.1162 8.00023 11.1162C6.80359 11.1162 5.83354 10.1461 5.83354 8.94954C5.83354 7.75293 6.80359 6.78288 8.00023 6.78288C9.19682 6.78288 10.1669 7.75293 10.1669 8.94954ZM2.00321 4.11816H14.0032C14.0953 4.11816 14.1699 4.19278 14.1699 4.28483V13.6181C14.1699 13.7102 14.0953 13.7848 14.0032 13.7848H2.00321C1.91116 13.7848 1.83655 13.7102 1.83655 13.6181V4.28483C1.83655 4.19278 1.91117 4.11816 2.00321 4.11816Z" fill="#3F3F46" stroke="#334155"></path>
  </symbol>
  <symbol fill="none" xmlns="http://www.w3.org/2000/svg" viewBox="0 0 16 17" id="check_box_note">
    <path d="M4.66645 5.16634V2.49967C4.66645 2.13149 4.96492 1.83301 5.33311 1.83301H13.9998C14.368 1.83301 14.6665 2.13149 14.6665 2.49967V11.1663C14.6665 11.5345 14.368 11.833 13.9998 11.833H11.3333V14.4947C11.3333 14.8656 11.0339 15.1663 10.6616 15.1663H2.00477C1.63383 15.1663 1.33325 14.8671 1.33325 14.4947L1.33509 5.83799C1.33517 5.46705 1.63445 5.16634 2.00675 5.16634H4.66645ZM5.99978 5.16634H10.6617C11.0326 5.16634 11.3333 5.46562 11.3333 5.83799V10.4997H13.3331V3.16634H5.99978V5.16634ZM9.99992 6.49967H2.66829L2.66673 13.833H9.99992V6.49967ZM5.6682 12.4997L3.31118 10.1427L4.25399 9.19987L5.6682 10.6141L8.49665 7.78561L9.43945 8.72841L5.6682 12.4997Z" fill="currentColor"></path>
  </symbol>
  <symbol fill="none" xmlns="http://www.w3.org/2000/svg" viewBox="0 0 17 16" id="calendar-line">
    <path d="M6.24998 0.666992V2.00033H10.25V0.666992H11.5833V2.00033H14.25C14.6182 2.00033 14.9166 2.29881 14.9166 2.66699V13.3337C14.9166 13.7019 14.6182 14.0003 14.25 14.0003H2.24998C1.88179 14.0003 1.58331 13.7019 1.58331 13.3337V2.66699C1.58331 2.29881 1.88179 2.00033 2.24998 2.00033H4.91665V0.666992H6.24998ZM13.5833 7.33366H2.91665V12.667H13.5833V7.33366ZM4.91665 3.33366H2.91665V6.00033H13.5833V3.33366H11.5833V4.66699H10.25V3.33366H6.24998V4.66699H4.91665V3.33366Z" fill="#3F3F46"></path>
  </symbol>
  <symbol fill="none" xmlns="http://www.w3.org/2000/svg" viewBox="0 0 17 17" id="ticket">
    <path d="M1.83667 6.56576V2.89909C1.83667 2.5309 2.13515 2.23242 2.50334 2.23242H14.5033C14.8715 2.23242 15.17 2.5309 15.17 2.89909V6.56576C14.2495 6.56576 13.5033 7.31196 13.5033 8.23243C13.5033 9.1529 14.2495 9.8991 15.17 9.8991V13.5658C15.17 13.934 14.8715 14.2324 14.5033 14.2324H2.50334C2.13515 14.2324 1.83667 13.934 1.83667 13.5658V9.8991C2.75714 9.8991 3.50334 9.1529 3.50334 8.23243C3.50334 7.31196 2.75714 6.56576 1.83667 6.56576ZM9.83668 3.56576H3.17V5.54426C4.15782 6.03516 4.83667 7.0545 4.83667 8.23243C4.83667 9.4103 4.15782 10.4297 3.17 10.9206V12.8991H9.83668V3.56576ZM11.17 3.56576V12.8991H13.8367V10.9206C12.8489 10.4297 12.17 9.4103 12.17 8.23243C12.17 7.0545 12.8489 6.03516 13.8367 5.54426V3.56576H11.17Z" fill="currentColor"></path>
  </symbol>
  <symbol fill="none" xmlns="http://www.w3.org/2000/svg" viewBox="0 0 24 25" id="paypal">
    <path d="M8.49626 20.8991H10.0474L10.5852 17.5236C10.8012 16.1624 11.9747 15.1577 13.3545 15.1577H13.8545C16.5322 15.1577 17.915 14.1745 18.4055 11.6548C18.6134 10.5888 18.5222 9.92425 18.2339 9.55289C17.0272 12.6068 14.4449 13.7117 11.2725 13.7117H10.3878C10.004 13.7117 9.59454 13.9213 9.53611 14.2926L8.49626 20.8991ZM3.55247 20.6057C3.21381 20.6057 2.95514 20.3037 3.00781 19.9684L5.68247 3.00842C5.75314 2.56175 6.13847 2.23242 6.59047 2.23242H13.0138C15.2265 2.23242 16.9558 2.69975 17.9131 3.79042C18.783 4.78095 19.0364 5.87479 18.7846 7.48243C19.1438 7.67375 19.4518 7.90709 19.6998 8.18842C20.5185 9.12109 20.6785 10.4484 20.3685 12.0377C19.6278 15.8431 17.0925 17.1577 13.8545 17.1577H13.3545C12.9591 17.1577 12.6225 17.4464 12.5605 17.8371L11.8578 22.2204C11.7958 22.6111 11.4591 22.8991 11.0638 22.8991H6.72114C6.42447 22.8991 6.19781 22.6344 6.24381 22.3417L6.51781 20.6057H3.55247ZM10.3878 11.7117H11.2725C14.462 11.7117 16.1671 10.4991 16.7549 7.48252C16.7744 7.38098 16.7919 7.27969 16.8086 7.17343C16.9746 6.11429 16.8586 5.6205 16.4104 5.11015C15.9451 4.58005 14.8073 4.23242 13.0138 4.23242H7.51416L5.24742 18.6057H6.80845L7.53821 13.9776L7.54562 13.9787C7.84632 12.662 9.0169 11.7117 10.3878 11.7117Z" fill="currentColor"></path>
  </symbol>
  <symbol fill="none" xmlns="http://www.w3.org/2000/svg" viewBox="0 0 24 25" id="bank">
    <path d="M2 20.2324H22V22.2324H2V20.2324ZM4 12.2324H6V19.2324H4V12.2324ZM9 12.2324H11V19.2324H9V12.2324ZM13 12.2324H15V19.2324H13V12.2324ZM18 12.2324H20V19.2324H18V12.2324ZM2 7.23242L12 2.23242L22 7.23242V11.2324H2V7.23242ZM4 8.46849V9.23242H20V8.46849L12 4.46849L4 8.46849ZM12 8.23242C11.4477 8.23242 11 7.7847 11 7.23242C11 6.68014 11.4477 6.23242 12 6.23242C12.5523 6.23242 13 6.68014 13 7.23242C13 7.7847 12.5523 8.23242 12 8.23242Z" fill="currentColor"></path>
  </symbol>
  <symbol fill="none" xmlns="http://www.w3.org/2000/svg" viewBox="0 0 24 25" id="card">
    <path d="M22.0049 10.2324V20.2324C22.0049 20.7847 21.5572 21.2324 21.0049 21.2324H3.00488C2.4526 21.2324 2.00488 20.7847 2.00488 20.2324V10.2324H22.0049ZM22.0049 8.23242H2.00488V4.23242C2.00488 3.68014 2.4526 3.23242 3.00488 3.23242H21.0049C21.5572 3.23242 22.0049 3.68014 22.0049 4.23242V8.23242ZM15.0049 16.2324V18.2324H19.0049V16.2324H15.0049Z" fill="currentColor"></path>
  </symbol>
  <symbol fill="none" xmlns="http://www.w3.org/2000/svg" viewBox="0 0 24 24" id="edit-2-fill">
    <path d="M9.24264 18.9967H21V20.9967H3V16.754L12.8995 6.85454L17.1421 11.0972L9.24264 18.9967ZM14.3137 5.44033L16.435 3.31901C16.8256 2.92849 17.4587 2.92849 17.8492 3.31901L20.6777 6.14744C21.0682 6.53796 21.0682 7.17113 20.6777 7.56165L18.5563 9.68297L14.3137 5.44033Z" fill="currentColor"></path>
  </symbol>
  <symbol fill="none" xmlns="http://www.w3.org/2000/svg" viewBox="0 0 16 16" id="preset">
    <path d="M8.66683 12V13.3333H11.3335V14.6667H4.66683V13.3333H7.3335V12H2.00016C1.63198 12 1.3335 11.7015 1.3335 11.3333V2.66667C1.3335 2.29848 1.63198 2 2.00016 2H14.0002C14.3684 2 14.6668 2.29848 14.6668 2.66667V11.3333C14.6668 11.7015 14.3684 12 14.0002 12H8.66683ZM2.66683 3.33333V10.6667H13.3335V3.33333H2.66683ZM6.66683 5L10.0002 7L6.66683 9V5Z" fill="currentColor"></path>
  </symbol>
  <symbol fill="none" xmlns="http://www.w3.org/2000/svg" viewBox="0 0 18 18" id="info">
    <path d="M9 16.5C4.85786 16.5 1.5 13.1421 1.5 9C1.5 4.85786 4.85786 1.5 9 1.5C13.1421 1.5 16.5 4.85786 16.5 9C16.5 13.1421 13.1421 16.5 9 16.5ZM9 15C12.3137 15 15 12.3137 15 9C15 5.68629 12.3137 3 9 3C5.68629 3 3 5.68629 3 9C3 12.3137 5.68629 15 9 15ZM8.25 5.25H9.75V6.75H8.25V5.25ZM8.25 8.25H9.75V12.75H8.25V8.25Z" fill="currentColor"></path>
  </symbol>
  <symbol fill="none" xmlns="http://www.w3.org/2000/svg" viewBox="0 0 15 14" id="star">
    <path fill-rule="evenodd" clip-rule="evenodd" d="M7.53807 1.94254L6.06307 4.57254C5.83307 4.98354 5.43007 5.26254 4.97607 5.34554L2.00307 5.88654L4.06307 8.00554C4.39107 8.34254 4.55107 8.81154 4.48807 9.28554L4.09807 12.2095L6.87507 10.9275C7.29507 10.7335 7.78107 10.7335 8.20107 10.9275L10.9781 12.2095L10.5881 9.28454C10.5574 9.05293 10.5797 8.81738 10.6533 8.59565C10.7269 8.37392 10.8499 8.1718 11.0131 8.00454L13.0731 5.88654L10.1001 5.34554C9.87318 5.3046 9.65811 5.21409 9.47022 5.08047C9.28233 4.94686 9.12623 4.77342 9.01307 4.57254L7.53807 1.94254ZM8.03607 0.787543C7.98541 0.700368 7.91275 0.62802 7.82536 0.577732C7.73796 0.527444 7.6389 0.500977 7.53807 0.500977C7.43724 0.500977 7.33818 0.527444 7.25079 0.577732C7.1634 0.62802 7.09074 0.700368 7.04007 0.787543L5.19007 4.08354C5.14897 4.15587 5.09246 4.21828 5.02454 4.26632C4.95662 4.31436 4.87896 4.34687 4.79707 4.36154L1.00207 5.05154C0.902884 5.06716 0.809892 5.10973 0.733252 5.1746C0.656611 5.23948 0.599268 5.32416 0.567485 5.41941C0.535701 5.51466 0.530698 5.61681 0.553022 5.71471C0.575346 5.81261 0.624139 5.90249 0.694073 5.97454L3.34607 8.70254C3.46307 8.82254 3.51907 8.98854 3.49607 9.15254L3.00007 12.8755C2.94207 13.3085 3.40007 13.6325 3.80607 13.4455L7.29507 11.8355C7.3713 11.8005 7.45419 11.7824 7.53807 11.7824C7.62196 11.7824 7.70485 11.8005 7.78107 11.8355L11.2701 13.4455C11.6761 13.6325 12.1341 13.3085 12.0761 12.8755L11.5791 9.15254C11.5683 9.07107 11.5762 8.98822 11.6022 8.91026C11.6282 8.8323 11.6716 8.76127 11.7291 8.70254L14.3821 5.97454C14.4517 5.90246 14.5003 5.81266 14.5224 5.7149C14.5446 5.61714 14.5395 5.51518 14.5078 5.42011C14.476 5.32504 14.4188 5.2405 14.3423 5.17569C14.2658 5.11088 14.1731 5.06829 14.0741 5.05254L10.2791 4.36154C10.197 4.34701 10.1191 4.31456 10.051 4.26651C9.98295 4.21846 9.92628 4.15599 9.88507 4.08354L8.03607 0.787543Z" fill="currentColor"></path>
  </symbol>
  <symbol fill="none" xmlns="http://www.w3.org/2000/svg" viewBox="0 0 17 17" id="coin">
    <g clip-path="url(#clip0_2_3975)">
      <path d="M6.7 9.79225V5.97225H7.53V9.79225H6.7Z" fill="currentColor"></path>
      <path d="M8.355 9.79225V5.97225H9.2V9.79225H8.355Z" fill="currentColor"></path>
      <path d="M10.03 9.79225V5.97225H10.84V9.79225H10.03Z" fill="currentColor"></path>
      <path d="M8.75 13.5322C11.7876 13.5322 14.25 11.0698 14.25 8.03223C14.25 4.99466 11.7876 2.53223 8.75 2.53223C5.71243 2.53223 3.25 4.99466 3.25 8.03223C3.25 11.0698 5.71243 13.5322 8.75 13.5322ZM12.115 10.6022C12.17 10.7772 12.04 10.9522 11.865 10.9572H5.64C5.465 10.9572 5.335 10.7872 5.385 10.6172L5.56 9.99225C5.59 9.87725 5.695 9.79725 5.815 9.79725H5.87V5.91225C5.66 5.77225 5.62 5.42725 5.88 5.27225L8.58 3.64225C8.7 3.56725 8.85 3.56725 8.97 3.64225L11.665 5.27225C11.925 5.42725 11.885 5.77225 11.67 5.91225V9.79225H11.655C11.77 9.79225 11.875 9.86725 11.91 9.97725L12.115 10.6022Z" fill="currentColor"></path>
      <path d="M8.75 0.532227C4.60786 0.532227 1.25 3.89009 1.25 8.03223C1.25 12.1744 4.60786 15.5322 8.75 15.5322C12.8921 15.5322 16.25 12.1744 16.25 8.03223C16.25 3.89009 12.8921 0.532227 8.75 0.532227ZM2.25 8.03223C2.25 4.44238 5.16015 1.53223 8.75 1.53223C12.3399 1.53223 15.25 4.44238 15.25 8.03223C15.25 11.6221 12.3399 14.5322 8.75 14.5322C5.16015 14.5322 2.25 11.6221 2.25 8.03223Z" fill="currentColor"></path>
    </g>
    <defs>
      <clipPath id="clip0_2_3975">
        <rect width="16" height="16" fill="white" transform="translate(0.75 0.0322266)"></rect>
      </clipPath>
    </defs>
  </symbol>
  <symbol fill="none" xmlns="http://www.w3.org/2000/svg" viewBox="0 0 17 17" id="comments">
    <path d="M7.16659 2.5H9.83325C12.7788 2.5 15.1666 4.88781 15.1666 7.83333C15.1666 10.7789 12.7788 13.1667 9.83325 13.1667V15.5C6.49992 14.1667 1.83325 12.1667 1.83325 7.83333C1.83325 4.88781 4.22107 2.5 7.16659 2.5ZM8.49992 11.8333H9.83325C12.0424 11.8333 13.8333 10.0425 13.8333 7.83333C13.8333 5.62419 12.0424 3.83333 9.83325 3.83333H7.16659C4.95745 3.83333 3.16659 5.62419 3.16659 7.83333C3.16659 10.24 4.80797 11.8104 8.49992 13.4865V11.8333Z" fill="currentColor"></path>
  </symbol>
  <symbol fill="none" xmlns="http://www.w3.org/2000/svg" viewBox="0 0 16 17" id="raising-hands">
    <g clip-path="url(#clip0_2_9897)">
      <path d="M7.76587 4.87578L7.37662 3.83778C7.31533 3.67434 7.43615 3.5 7.6107 3.5H8.3892C8.56375 3.5 8.68457 3.67434 8.62328 3.83778L8.23403 4.87578C8.15292 5.09207 7.84698 5.09207 7.76587 4.87578Z" fill="currentColor"></path>
      <path d="M9.54591 5.14742L9.88847 4.09309C9.94241 3.92709 10.1456 3.86605 10.2821 3.97485L10.8908 4.46006C11.0273 4.56886 11.0132 4.7805 10.8634 4.87011L9.91202 5.43922C9.71378 5.55781 9.47453 5.36712 9.54591 5.14742Z" fill="currentColor"></path>
      <path d="M6.11142 4.09309L6.45399 5.14742C6.52537 5.36712 6.28612 5.55781 6.08788 5.43922L5.13653 4.87011C4.98673 4.7805 4.97255 4.56886 5.10905 4.46006L5.71784 3.97485C5.85434 3.86605 6.05749 3.92709 6.11142 4.09309Z" fill="currentColor"></path>
      <path d="M3.75644 16C2.00994 16 0.806438 14.54 0.515938 13.1L0.0104376 9.31601C-0.0132861 9.13826 -0.000719942 8.95753 0.0473766 8.78477C0.0954732 8.61201 0.178101 8.45079 0.290267 8.31086C0.402432 8.17094 0.541806 8.05521 0.699963 7.97067C0.858121 7.88613 1.03178 7.83454 1.21044 7.81901L1.25644 7.81451V7.75001C1.25722 7.58857 1.2899 7.42887 1.35258 7.28009C1.41527 7.13131 1.50674 6.99639 1.62174 6.88307C1.73673 6.76975 1.87298 6.68027 2.02266 6.61976C2.17234 6.55926 2.3325 6.52893 2.49394 6.53051C2.57377 6.52637 2.65382 6.53005 2.73294 6.54151C2.81734 6.26775 2.98981 6.02954 3.22354 5.8639C3.45727 5.69825 3.73918 5.61445 4.02544 5.62551C4.22721 5.63072 4.42462 5.68543 4.6003 5.78482C4.77598 5.88421 4.92455 6.02524 5.03294 6.19551C5.19917 6.1342 5.377 6.1108 5.55344 6.12701C5.87684 6.16316 6.17686 6.31309 6.39994 6.55001C6.52791 6.68036 6.62592 6.83704 6.68715 7.00914C6.74837 7.18125 6.77133 7.36463 6.75444 7.54651L6.64594 8.52751C6.76496 8.50694 6.88567 8.49774 7.00644 8.50001C7.2309 8.50962 7.44871 8.57902 7.63736 8.70103C7.78064 8.7937 7.90314 8.91417 7.99795 9.05473C8.09278 8.91417 8.21532 8.7937 8.35866 8.70103C8.54737 8.57902 8.76526 8.50962 8.9898 8.50001C9.11061 8.49774 9.23136 8.50694 9.35043 8.52751L9.24189 7.54651C9.22499 7.36463 9.24796 7.18125 9.30921 7.00914C9.37045 6.83704 9.4685 6.68036 9.59652 6.55001C9.81967 6.31309 10.1198 6.16316 10.4433 6.12701C10.6198 6.1108 10.7977 6.1342 10.964 6.19551C11.0724 6.02524 11.221 5.88421 11.3968 5.78482C11.5725 5.68543 11.77 5.63072 11.9719 5.62551C12.2582 5.61445 12.5402 5.69825 12.774 5.8639C13.0078 6.02954 13.1804 6.26775 13.2648 6.54151C13.344 6.53005 13.424 6.52637 13.5039 6.53051C13.6654 6.52893 13.8256 6.55926 13.9753 6.61976C14.1251 6.68027 14.2614 6.76975 14.3764 6.88307C14.4914 6.99639 14.5829 7.13131 14.6457 7.28009C14.7084 7.42887 14.7411 7.58857 14.7418 7.75001V7.81451L14.7879 7.81901C14.9666 7.83454 15.1403 7.88613 15.2985 7.97067C15.4567 8.05521 15.5961 8.17094 15.7083 8.31086C15.8206 8.45079 15.9032 8.61201 15.9513 8.78477C15.9994 8.95753 16.012 9.13826 15.9883 9.31601L15.4826 13.1C15.192 14.54 13.9881 16 12.241 16C11.6174 15.9832 11.0156 15.7675 10.5233 15.3845C10.0311 15.0015 9.67428 14.4712 9.50498 13.871C9.17992 12.7612 8.68234 11.7093 8.03046 10.754C8.01931 10.7384 8.00847 10.7227 7.99794 10.7067C7.98742 10.7227 7.97659 10.7384 7.96544 10.754C7.31379 11.7093 6.81639 12.7612 6.49144 13.871C6.3222 14.4712 5.96551 15.0015 5.47346 15.3845C4.9814 15.7675 4.37977 15.9832 3.75644 16ZM1.33494 8.80801C0.998438 8.85151 0.990438 9.09001 1.00294 9.19101L1.50294 12.934C1.70494 13.9445 2.54994 15 3.75644 15C4.15611 14.9816 4.5403 14.84 4.85624 14.5945C5.17218 14.349 5.40438 14.0118 5.52094 13.629C5.87273 12.4027 6.41956 11.2411 7.14044 10.1885C7.16722 10.1555 7.18941 10.1192 7.20659 10.0807C7.37633 9.84671 7.6044 9.13947 6.98882 9.13947C6.4172 9.13946 6.16309 9.71466 5.93599 10.2287L5.92988 10.2426C5.9197 10.241 5.90955 10.2391 5.89944 10.2369C5.77909 10.2105 5.67273 10.1406 5.60075 10.0406C5.52878 9.94057 5.49626 9.81751 5.50944 9.69501L5.75944 7.44501L5.75948 7.44411C5.76062 7.43594 5.76157 7.42726 5.7623 7.41802C5.77875 7.21073 5.54277 6.89645 5.19449 6.89777C5.12512 6.89803 5.0513 6.91081 4.97414 6.93945L4.98502 7.58601H4.9872C4.98634 7.76321 4.98948 7.99351 4.99366 8.24784L4.99538 8.35127C5.00226 8.76318 5.00965 9.20552 4.99981 9.50811C4.99533 9.64611 4.87982 9.75434 4.74182 9.74985C4.60382 9.74536 4.49559 9.62985 4.50008 9.49186C4.50949 9.20237 4.50233 8.77234 4.49538 8.35531L4.49373 8.25606C4.48851 7.93881 4.48374 7.62427 4.49007 7.40922C4.48996 7.11382 4.48179 6.56262 3.94323 6.61592C3.53419 6.6564 3.51552 7.19079 3.50233 7.56812C3.50155 7.59057 3.50077 7.61286 3.49994 7.63405V7.6627L3.50855 7.66667C3.50571 7.66962 3.50284 7.67254 3.49994 7.67542V9.75C3.49994 9.88807 3.38801 10 3.24994 10C3.11187 10 2.99994 9.88807 2.99994 9.75V7.63138L2.99827 7.62847C2.72904 7.20259 1.77491 7.44208 1.96898 8.35768C2.01298 8.40431 2.05267 8.45305 2.08749 8.50044C2.21492 8.67383 2.32088 8.8886 2.36347 9.08734C2.41255 9.31642 2.44617 9.67268 2.46754 9.9588C2.47843 10.1046 2.48646 10.2369 2.49176 10.3327C2.49441 10.3807 2.49639 10.4196 2.49771 10.4466L2.49919 10.4779L2.49957 10.4861L2.49969 10.4889C2.50569 10.6268 2.39874 10.7438 2.2608 10.7498C2.12287 10.7558 2.00618 10.6488 2.00018 10.5109L1.99972 10.5008L1.9983 10.471C1.99703 10.4449 1.99511 10.4071 1.99252 10.3604C1.98735 10.2668 1.97952 10.1378 1.96893 9.99604C1.94735 9.70705 1.91551 9.38317 1.87457 9.1921C1.86183 9.13267 1.83707 9.06394 1.80312 8.99362C1.6816 8.80487 1.50469 8.77812 1.33956 8.81097L1.33494 8.80801ZM14.6633 8.80801L14.6587 8.81097C14.4935 8.77812 14.3165 8.80487 14.195 8.99362C14.161 9.06394 14.1362 9.13267 14.1235 9.1921C14.0825 9.38317 14.0507 9.70705 14.0291 9.99604C14.0185 10.1378 14.0107 10.2668 14.0055 10.3604C14.0029 10.4071 14.001 10.4449 13.9997 10.471L13.9983 10.5008L13.9978 10.5109C13.9918 10.6488 13.8751 10.7558 13.7371 10.7498C13.5991 10.7438 13.4921 10.6268 13.4981 10.4889L13.4986 10.4779L13.5001 10.4466C13.5014 10.4196 13.5034 10.3807 13.5061 10.3327C13.5114 10.2369 13.5194 10.1046 13.5303 9.9588C13.5517 9.67268 13.5853 9.31642 13.6344 9.08734C13.677 8.8886 13.783 8.67383 13.9105 8.50044C13.9453 8.45305 13.985 8.40431 14.029 8.35768C14.2232 7.44208 13.2687 7.20259 12.9994 7.62847L12.9977 7.63138V9.75C12.9977 9.88807 12.8857 10 12.7476 10C12.6095 10 12.4975 9.88807 12.4975 9.75V7.67542C12.4946 7.67254 12.4918 7.66962 12.4889 7.66667L12.4975 7.6627V7.63405C12.4967 7.6128 12.4959 7.59063 12.4951 7.56812C12.482 7.19079 12.4633 6.6564 12.0541 6.61592C11.5153 6.56262 11.5072 7.11382 11.5071 7.40922C11.5134 7.62427 11.5086 7.93881 11.5034 8.25606L11.5018 8.35531C11.4948 8.77234 11.4876 9.20237 11.497 9.49186C11.5015 9.62985 11.3933 9.74536 11.2552 9.74985C11.1172 9.75434 11.0016 9.64611 10.9971 9.50811C10.9873 9.20554 10.9947 8.76316 11.0016 8.35127L11.0033 8.24784C11.0075 7.99351 11.0106 7.76321 11.0098 7.58601H11.0119L11.0228 6.93945C10.9456 6.91081 10.8718 6.89803 10.8024 6.89777C10.454 6.89645 10.2179 7.21073 10.2344 7.41802C10.2351 7.42726 10.2361 7.43594 10.2372 7.44411L10.2372 7.44501L10.4873 9.69501C10.5005 9.81751 10.468 9.94057 10.396 10.0406C10.324 10.1406 10.2176 10.2105 10.0972 10.2369C10.0871 10.2391 10.0769 10.241 10.0667 10.2426L10.0606 10.2287C9.83344 9.71466 9.57925 9.13946 9.00743 9.13947C8.39162 9.13947 8.61977 9.84671 8.78958 10.0807C8.80677 10.1192 8.82896 10.1555 8.85575 10.1885C9.57689 11.2411 10.1239 12.4027 10.4758 13.629C10.5924 14.0118 10.8247 14.349 11.1408 14.5945C11.4568 14.84 11.8411 14.9816 12.241 15C13.4479 15 14.2932 13.9445 14.4952 12.934L14.9954 9.19101C15.0079 9.09001 14.9999 8.85151 14.6633 8.80801Z" fill="currentColor"></path>
    </g>
    <defs>
      <clipPath id="clip0_2_9897">
        <rect width="16" height="16" fill="white" transform="translate(0 0.5)"></rect>
      </clipPath>
    </defs>
  </symbol>
  <symbol fill="none" xmlns="http://www.w3.org/2000/svg" viewBox="0 0 19 18" id="re-share">
    <path d="M9.53735 5.96227L13.2497 2.25L16.962 5.96227L15.9013 7.023L13.9991 5.121L13.9997 15H12.4997L12.4991 5.121L10.598 7.023L9.53735 5.96227ZM2.03735 12.0377L3.09802 10.977L4.9991 12.879L4.99967 3H6.49967L6.4991 12.879L8.40133 10.977L9.46198 12.0377L5.74967 15.75L2.03735 12.0377Z" fill="currentColor"></path>
  </symbol>
  <symbol fill="none" xmlns="http://www.w3.org/2000/svg" viewBox="0 0 19 19" id="wallet">
    <path d="M14.2539 5.73293H16.6289C17.0661 5.73293 17.4206 6.06767 17.4206 6.48061V15.4528C17.4206 15.8658 17.0661 16.2005 16.6289 16.2005H2.37889C1.94166 16.2005 1.58722 15.8658 1.58722 15.4528V3.48987C1.58722 3.07693 1.94166 2.74219 2.37889 2.74219H14.2539V5.73293ZM3.17055 7.2283V14.7052H15.8372V7.2283H3.17055ZM3.17055 4.23756V5.73293H12.6706V4.23756H3.17055ZM11.8789 10.219H14.2539V11.7144H11.8789V10.219Z" fill="currentColor"></path>
  </symbol>
  <symbol fill="none" xmlns="http://www.w3.org/2000/svg" viewBox="0 0 19 19" id="wallet-card">
    <path d="M2.37889 2.74219H16.6289C17.0661 2.74219 17.4206 3.07693 17.4206 3.48987V15.4528C17.4206 15.8658 17.0661 16.2005 16.6289 16.2005H2.37889C1.94166 16.2005 1.58722 15.8658 1.58722 15.4528V3.48987C1.58722 3.07693 1.94166 2.74219 2.37889 2.74219ZM15.8372 8.72368H3.17055V14.7052H15.8372V8.72368ZM15.8372 7.2283V4.23756H3.17055V7.2283H15.8372ZM11.0872 11.7144H14.2539V13.2098H11.0872V11.7144Z" fill="currentColor"></path>
  </symbol>
  <symbol fill="none" xmlns="http://www.w3.org/2000/svg" viewBox="0 0 19 19" id="cloud-add">
    <path d="M6.11142 15.0823H4.67841C2.48416 14.9256 1.49902 13.2389 1.49902 11.7387C1.49902 10.2386 2.48417 8.54437 4.6411 8.3951C4.9471 8.36525 5.21578 8.60407 5.23817 8.91754C5.26056 9.22354 5.02923 9.49223 4.71576 9.51462C3.26786 9.6191 2.61854 10.7088 2.61854 11.7462C2.61854 12.7836 3.26786 13.8733 4.71576 13.9777H6.11142C6.41742 13.9777 6.67118 14.2315 6.67118 14.5375C6.67118 14.8435 6.41742 15.0823 6.11142 15.0823Z" fill="#292D32"></path>
    <path d="M12.985 15.0815C12.9701 15.0815 12.9626 15.0815 12.9477 15.0815C12.6417 15.0815 12.3581 14.8278 12.3581 14.5218C12.3581 14.2008 12.5969 13.962 12.9104 13.962C13.8284 13.962 14.6493 13.6411 15.2912 13.0664C16.4555 12.0514 16.5301 10.5885 16.2167 9.55858C15.9032 8.53608 15.03 7.36432 13.5074 7.17774C13.2611 7.14788 13.0671 6.9613 13.0223 6.71501C12.7238 4.92378 11.761 3.68485 10.2982 3.23704C8.79055 2.76685 7.02915 3.22958 5.93202 4.37895C4.86475 5.491 4.61847 7.05086 5.23793 8.76745C5.34242 9.05853 5.19319 9.37945 4.90211 9.48394C4.61104 9.58842 4.29009 9.43916 4.18561 9.14808C3.4318 7.04339 3.77512 5.02827 5.12601 3.61022C6.50674 2.16231 8.72338 1.58762 10.6266 2.16977C12.373 2.70713 13.6044 4.14758 14.0522 6.14778C15.5748 6.4911 16.7988 7.64794 17.2839 9.24511C17.8138 10.9841 17.3362 12.7753 16.0301 13.9098C15.2016 14.6561 14.1194 15.0815 12.985 15.0815Z" fill="#292D32"></path>
    <path d="M9.49948 17.2763C7.99933 17.2763 6.59622 16.4777 5.82749 15.1865C5.74539 15.0597 5.66329 14.9104 5.59612 14.7462C5.34236 14.2163 5.20801 13.6118 5.20801 12.9848C5.20801 10.6189 7.13357 8.69336 9.49948 8.69336C11.8654 8.69336 13.791 10.6189 13.791 12.9848C13.791 13.6192 13.6566 14.2163 13.388 14.7686C13.3282 14.9104 13.2461 15.0597 13.1566 15.2015C12.4028 16.4777 10.9996 17.2763 9.49948 17.2763ZM9.49948 9.81287C7.75304 9.81287 6.32752 11.2384 6.32752 12.9848C6.32752 13.4476 6.42455 13.8804 6.61114 14.276C6.67085 14.4029 6.72307 14.5074 6.78278 14.6044C7.35 15.5672 8.38742 16.1568 9.49201 16.1568C10.5966 16.1568 11.634 15.5672 12.1938 14.6193C12.2609 14.5074 12.3207 14.4029 12.3655 14.2984C12.567 13.8879 12.664 13.455 12.664 12.9923C12.6714 11.2384 11.2459 9.81287 9.49948 9.81287Z" fill="#292D32"></path>
    <path d="M9.07413 14.2837C8.93233 14.2837 8.79054 14.2315 8.67859 14.1195L7.93967 13.3806C7.72323 13.1642 7.72323 12.8059 7.93967 12.5895C8.15611 12.3731 8.51436 12.3731 8.7308 12.5895L9.08907 12.9477L10.2832 11.8432C10.5146 11.6342 10.8654 11.6491 11.0743 11.873C11.2833 12.0969 11.2684 12.4552 11.0445 12.6641L9.45477 14.1344C9.34282 14.2315 9.20847 14.2837 9.07413 14.2837Z" fill="#292D32"></path>
  </symbol>
  <symbol fill="none" xmlns="http://www.w3.org/2000/svg" viewBox="0 0 49 48" id="chat">
    <path d="M13.1108 18.1602H29.3602V20.793H13.1108V18.1602Z" fill="#404040"></path>
    <path d="M13.1108 24.5391H29.3602V27.1717H13.1108V24.5391Z" fill="#404040"></path>
    <path d="M46.9775 12.3792C46.9775 7.6965 43.168 3.88672 38.4854 3.88672C35.0464 3.88672 32.0779 5.94144 30.7441 8.8877H7.22488C4.33163 8.8877 1.97754 11.2421 1.97754 14.135V30.9839C1.97754 33.8775 4.33163 36.2318 7.22488 36.2318H8.64487V43.7685L19.902 36.2318H34.558C37.4518 36.2318 39.8059 33.8775 39.8059 30.9839V20.7686C43.8632 20.1322 46.9775 16.6125 46.9775 12.3792ZM34.558 33.5987H19.1022L11.2775 38.8372V33.5987H7.22488C5.7832 33.5987 4.61014 32.4259 4.61014 30.9839V14.135C4.61014 12.6936 5.7832 11.5208 7.22488 11.5208H30.0363C30.0078 11.8029 29.993 12.0894 29.993 12.3792C29.993 16.6152 33.1111 20.1371 37.1728 20.77V30.9839C37.1728 32.4259 35.9997 33.5987 34.558 33.5987ZM38.4854 18.2384C35.2546 18.2384 32.6261 15.61 32.6261 12.3792C32.6261 9.14807 35.2546 6.51932 38.4854 6.51932C41.7162 6.51932 44.3449 9.14807 44.3449 12.3792C44.3449 15.61 41.7162 18.2384 38.4854 18.2384Z" fill="#404040"></path>
    <path d="M37.1689 9.26172H39.8018V15.4926H37.1689V9.26172Z" fill="#404040"></path>
  </symbol>
  <symbol fill="none" xmlns="http://www.w3.org/2000/svg" viewBox="0 0 16 16" id="entertainment">
    <path fill-rule="evenodd" clip-rule="evenodd" d="M1.99991 3.42773C1.52658 3.42773 1.14258 3.81107 1.14258 4.2844V5.7124C1.14258 6.0284 1.41458 6.27373 1.68924 6.42973C2.11458 6.67173 2.42858 7.2104 2.42858 7.9984C2.42858 8.78573 2.11458 9.32507 1.68858 9.56707C1.41458 9.72307 1.14258 9.9684 1.14258 10.2837V11.7131C1.14258 12.1864 1.52658 12.5704 1.99991 12.5704H13.9999C14.4726 12.5704 14.8572 12.1877 14.8572 11.7137V10.2844C14.8572 9.9684 14.5852 9.72307 14.3106 9.56707C13.8852 9.3244 13.5712 8.78573 13.5712 7.9984C13.5712 7.2104 13.8852 6.67173 14.3112 6.42973C14.5852 6.27373 14.8572 6.0284 14.8572 5.7124V4.2844C14.8572 3.81107 14.4732 3.42773 13.9999 3.42773H1.99991ZM12.4286 7.9984C12.4286 9.05373 12.8879 10.0651 13.7139 10.5524V11.4277H2.28658V10.5524C3.11324 10.0657 3.57191 9.05373 3.57191 7.9984C3.57191 6.94307 3.11258 5.93173 2.28658 5.4444V4.5704H13.7132V5.44373C12.8866 5.93173 12.4286 6.94307 12.4286 7.9984ZM8.57125 6.2844H7.42858V9.7124H8.57125V6.2844Z" fill="#0E0F0C"></path>
  </symbol>
  <symbol fill="none" xmlns="http://www.w3.org/2000/svg" viewBox="0 0 16 16" id="bills">
    <path fill-rule="evenodd" clip-rule="evenodd" d="M3.14258 1.71658C3.14258 1.39924 3.39991 1.14258 3.71724 1.14258H12.8532C13.1706 1.14258 13.4279 1.39991 13.4279 1.71658V14.2826C13.4279 14.358 13.413 14.4327 13.3842 14.5024C13.3553 14.5721 13.3129 14.6354 13.2596 14.6887C13.2062 14.742 13.1428 14.7843 13.0731 14.8131C13.0034 14.8419 12.9287 14.8567 12.8532 14.8566H3.71724C3.64181 14.8567 3.5671 14.8419 3.49738 14.8131C3.42766 14.7843 3.36431 14.742 3.31093 14.6887C3.25756 14.6354 3.21522 14.5721 3.18633 14.5024C3.15745 14.4327 3.14258 14.358 3.14258 14.2826V1.71658ZM4.28591 2.28524V13.7139H12.2859V2.28524H4.28591ZM5.71324 4.85658H10.8566V3.71391H5.71324V4.85658ZM10.8566 7.14258H5.71324V5.99991H10.8566V7.14258ZM10.8566 9.42858H5.71324V8.28524H10.8566V9.42858ZM9.14191 11.7139H10.8566V10.5712H9.14191V11.7139Z" fill="#0E0F0C"></path>
  </symbol>

  <symbol fill="none" xmlns="http://www.w3.org/2000/svg" viewBox="0 0 10 16" id="phone">
    <path d="M2 1C1.44687 1 1 1.44687 1 2V14C1 14.5531 1.44687 15 2 15H8C8.55313 15 9 14.5531 9 14V2C9 1.44687 8.55313 1 8 1H2ZM0 2C0 0.896875 0.896875 0 2 0H8C9.10312 0 10 0.896875 10 2V14C10 15.1031 9.10312 16 8 16H2C0.896875 16 0 15.1031 0 14V2ZM4 12.5H6C6.275 12.5 6.5 12.725 6.5 13C6.5 13.275 6.275 13.5 6 13.5H4C3.725 13.5 3.5 13.275 3.5 13C3.5 12.725 3.725 12.5 4 12.5Z" fill="#3F3F46"></path>
  </symbol>
  <symbol fill="none" xmlns="http://www.w3.org/2000/svg" viewBox="0 0 17 16" id="envelope">
    <g clip-path="url(#clip0_3030_15572)">
      <path d="M2.5 3C1.94687 3 1.5 3.44687 1.5 4V5.24687L7.6125 9.72812C8.14062 10.1156 8.85938 10.1156 9.3875 9.72812L15.5 5.24687V4C15.5 3.44687 15.0531 3 14.5 3H2.5ZM1.5 6.4875V12C1.5 12.5531 1.94687 13 2.5 13H14.5C15.0531 13 15.5 12.5531 15.5 12V6.4875L9.97812 10.5344C9.09687 11.1781 7.9 11.1781 7.02187 10.5344L1.5 6.4875ZM0.5 4C0.5 2.89688 1.39688 2 2.5 2H14.5C15.6031 2 16.5 2.89688 16.5 4V12C16.5 13.1031 15.6031 14 14.5 14H2.5C1.39688 14 0.5 13.1031 0.5 12V4Z" fill="#3F3F46"></path>
    </g>
    <defs>
      <clipPath id="clip0_3030_15572">
        <rect width="16" height="16" fill="white" transform="translate(0.5)"></rect>
      </clipPath>
    </defs>
  </symbol>
  <symbol fill="none" xmlns="http://www.w3.org/2000/svg" viewBox="0 0 16 16" id="search">
    <g opacity="0.5">
      <path d="M7.33333 12.6667C10.2789 12.6667 12.6667 10.2789 12.6667 7.33333C12.6667 4.38781 10.2789 2 7.33333 2C4.38781 2 2 4.38781 2 7.33333C2 10.2789 4.38781 12.6667 7.33333 12.6667Z" stroke="#0F172A" stroke-width="1.33333" stroke-linecap="round" stroke-linejoin="round"></path>
      <path d="M14 14.0006L11.1 11.1006" stroke="#0F172A" stroke-width="1.33333" stroke-linecap="round" stroke-linejoin="round"></path>
    </g>
  </symbol>
  <symbol fill="none" xmlns="http://www.w3.org/2000/svg" viewBox="0 0 25 24" id="sliders-horizontal-alt">
    <path d="M6.5 3.25C4.432 3.25 2.75 4.932 2.75 7C2.75 9.068 4.432 10.75 6.5 10.75C8.568 10.75 10.25 9.068 10.25 7C10.25 4.932 8.568 3.25 6.5 3.25ZM6.5 9.25C5.259 9.25 4.25 8.241 4.25 7C4.25 5.759 5.259 4.75 6.5 4.75C7.741 4.75 8.75 5.759 8.75 7C8.75 8.241 7.741 9.25 6.5 9.25ZM18.5 13.25C16.432 13.25 14.75 14.932 14.75 17C14.75 19.068 16.432 20.75 18.5 20.75C20.568 20.75 22.25 19.068 22.25 17C22.25 14.932 20.568 13.25 18.5 13.25ZM18.5 19.25C17.259 19.25 16.25 18.241 16.25 17C16.25 15.759 17.259 14.75 18.5 14.75C19.741 14.75 20.75 15.759 20.75 17C20.75 18.241 19.741 19.25 18.5 19.25ZM15.5 7.75H21.5C21.914 7.75 22.25 7.414 22.25 7C22.25 6.586 21.914 6.25 21.5 6.25H15.5C15.086 6.25 14.75 6.586 14.75 7C14.75 7.414 15.086 7.75 15.5 7.75ZM9.5 16.25H3.5C3.086 16.25 2.75 16.586 2.75 17C2.75 17.414 3.086 17.75 3.5 17.75H9.5C9.914 17.75 10.25 17.414 10.25 17C10.25 16.586 9.914 16.25 9.5 16.25Z" fill="#253746"></path>
  </symbol>
  <symbol fill="none" xmlns="http://www.w3.org/2000/svg" viewBox="0 0 16 16" id="waiting">
    <path d="M8 14.6663C4.3181 14.6663 1.33333 11.6815 1.33333 7.99967C1.33333 4.31777 4.3181 1.33301 8 1.33301C11.6819 1.33301 14.6667 4.31777 14.6667 7.99967C14.6667 11.6815 11.6819 14.6663 8 14.6663ZM8 13.333C10.9455 13.333 13.3333 10.9452 13.3333 7.99967C13.3333 5.05415 10.9455 2.66634 8 2.66634C5.05448 2.66634 2.66667 5.05415 2.66667 7.99967C2.66667 10.9452 5.05448 13.333 8 13.333ZM8.66667 7.99967H11.3333V9.33301H7.33333V4.66634H8.66667V7.99967Z" fill="#F97316"></path>
  </symbol>
  <symbol fill="none" xmlns="http://www.w3.org/2000/svg" viewBox="0 0 16 17" id="check_box_filled">
    <path d="M8 15.4661C4.3181 15.4661 1.33333 12.4813 1.33333 8.79948C1.33333 5.11758 4.3181 2.13281 8 2.13281C11.6819 2.13281 14.6667 5.11758 14.6667 8.79948C14.6667 12.4813 11.6819 15.4661 8 15.4661ZM8 14.1328C10.9455 14.1328 13.3333 11.745 13.3333 8.79948C13.3333 5.85396 10.9455 3.46615 8 3.46615C5.05448 3.46615 2.66667 5.85396 2.66667 8.79948C2.66667 11.745 5.05448 14.1328 8 14.1328ZM7.33507 11.4661L4.50666 8.63775L5.44947 7.69488L7.33507 9.58055L11.1063 5.80929L12.0491 6.7521L7.33507 11.4661Z" fill="#16A34A"></path>
  </symbol>
</svg>