<svg width="15" height="14" viewBox="0 0 15 14" fill="none" xmlns="http://www.w3.org/2000/svg">
<path fill-rule="evenodd" clip-rule="evenodd" d="M7.53807 1.94254L6.06307 4.57254C5.83307 4.98354 5.43007 5.26254 4.97607 5.34554L2.00307 5.88654L4.06307 8.00554C4.39107 8.34254 4.55107 8.81154 4.48807 9.28554L4.09807 12.2095L6.87507 10.9275C7.29507 10.7335 7.78107 10.7335 8.20107 10.9275L10.9781 12.2095L10.5881 9.28454C10.5574 9.05293 10.5797 8.81738 10.6533 8.59565C10.7269 8.37392 10.8499 8.1718 11.0131 8.00454L13.0731 5.88654L10.1001 5.34554C9.87318 5.3046 9.65811 5.21409 9.47022 5.08047C9.28233 4.94686 9.12623 4.77342 9.01307 4.57254L7.53807 1.94254ZM8.03607 0.787543C7.98541 0.700368 7.91275 0.62802 7.82536 0.577732C7.73796 0.527444 7.6389 0.500977 7.53807 0.500977C7.43724 0.500977 7.33818 0.527444 7.25079 0.577732C7.1634 0.62802 7.09074 0.700368 7.04007 0.787543L5.19007 4.08354C5.14897 4.15587 5.09246 4.21828 5.02454 4.26632C4.95662 4.31436 4.87896 4.34687 4.79707 4.36154L1.00207 5.05154C0.902884 5.06716 0.809892 5.10973 0.733252 5.1746C0.656611 5.23948 0.599268 5.32416 0.567485 5.41941C0.535701 5.51466 0.530698 5.61681 0.553022 5.71471C0.575346 5.81261 0.624139 5.90249 0.694073 5.97454L3.34607 8.70254C3.46307 8.82254 3.51907 8.98854 3.49607 9.15254L3.00007 12.8755C2.94207 13.3085 3.40007 13.6325 3.80607 13.4455L7.29507 11.8355C7.3713 11.8005 7.45419 11.7824 7.53807 11.7824C7.62196 11.7824 7.70485 11.8005 7.78107 11.8355L11.2701 13.4455C11.6761 13.6325 12.1341 13.3085 12.0761 12.8755L11.5791 9.15254C11.5683 9.07107 11.5762 8.98822 11.6022 8.91026C11.6282 8.8323 11.6716 8.76127 11.7291 8.70254L14.3821 5.97454C14.4517 5.90246 14.5003 5.81266 14.5224 5.7149C14.5446 5.61714 14.5395 5.51518 14.5078 5.42011C14.476 5.32504 14.4188 5.2405 14.3423 5.17569C14.2658 5.11088 14.1731 5.06829 14.0741 5.05254L10.2791 4.36154C10.197 4.34701 10.1191 4.31456 10.051 4.26651C9.98295 4.21846 9.92628 4.15599 9.88507 4.08354L8.03607 0.787543Z" fill="white"/>
</svg>
