<svg width="25" height="25" viewBox="0 0 25 25" fill="none" xmlns="http://www.w3.org/2000/svg">
<path d="M12.033 22.5C6.51011 22.5 2.03296 18.0228 2.03296 12.5C2.03296 6.97715 6.51011 2.5 12.033 2.5C17.5558 2.5 22.033 6.97715 22.033 12.5C22.033 18.0228 17.5558 22.5 12.033 22.5ZM12.033 20.5C16.4513 20.5 20.033 16.9183 20.033 12.5C20.033 8.08172 16.4513 4.5 12.033 4.5C7.61468 4.5 4.03296 8.08172 4.03296 12.5C4.03296 16.9183 7.61468 20.5 12.033 20.5ZM9.03296 9.5H15.033V15.5H9.03296V9.5Z" fill="#A1A1AA"/>
</svg>
