<svg width="16" height="17" viewBox="0 0 16 17" fill="none" xmlns="http://www.w3.org/2000/svg">
<path d="M12.6667 14.7822H13.1667V14.2822V3.61556V3.11556H12.6667H3.33333H2.83333V3.61556V14.2822V14.7822H3.33333H12.6667ZM13.3333 15.1156H2.66667C2.57462 15.1156 2.5 15.0409 2.5 14.9489V2.94889C2.5 2.85685 2.57462 2.78223 2.66667 2.78223H13.3333C13.4254 2.78223 13.5 2.85684 13.5 2.94889V14.9489C13.5 15.041 13.4254 15.1156 13.3333 15.1156ZM5.16667 5.44889H6.83333V7.11556H5.16667V5.44889ZM5.16667 9.44889H10.8333V9.78223H5.16667V9.44889ZM5.16667 12.1156H10.8333V12.4489H5.16667V12.1156ZM9.16667 6.11556H10.8333V6.44889H9.16667V6.11556Z" fill="#3F3F46" stroke="#334155"/>
</svg>
