<svg width="17" height="17" viewBox="0 0 17 17" fill="none" xmlns="http://www.w3.org/2000/svg">
<path d="M1.83667 6.56576V2.89909C1.83667 2.5309 2.13515 2.23242 2.50334 2.23242H14.5033C14.8715 2.23242 15.17 2.5309 15.17 2.89909V6.56576C14.2495 6.56576 13.5033 7.31196 13.5033 8.23243C13.5033 9.1529 14.2495 9.8991 15.17 9.8991V13.5658C15.17 13.934 14.8715 14.2324 14.5033 14.2324H2.50334C2.13515 14.2324 1.83667 13.934 1.83667 13.5658V9.8991C2.75714 9.8991 3.50334 9.1529 3.50334 8.23243C3.50334 7.31196 2.75714 6.56576 1.83667 6.56576ZM9.83668 3.56576H3.17V5.54426C4.15782 6.03516 4.83667 7.0545 4.83667 8.23243C4.83667 9.4103 4.15782 10.4297 3.17 10.9206V12.8991H9.83668V3.56576ZM11.17 3.56576V12.8991H13.8367V10.9206C12.8489 10.4297 12.17 9.4103 12.17 8.23243C12.17 7.0545 12.8489 6.03516 13.8367 5.54426V3.56576H11.17Z" fill="#3F3F46"/>
</svg>
