<svg width="16" height="17" viewBox="0 0 16 17" fill="none" xmlns="http://www.w3.org/2000/svg">
<path d="M5.50416 5.46913L5.50374 5.47637L5.50353 5.48362L5.50013 5.60113L5.49993 5.60834V5.61556V7.61556C5.49993 8.9963 6.61918 10.1156 7.99993 10.1156C9.3315 10.1156 10.4197 9.07481 10.4957 7.762L10.4961 7.75478L10.4963 7.74755L10.4997 7.63002L10.4999 7.62279V7.61556V5.61556C10.4999 4.23485 9.3806 3.11556 7.99993 3.11556C6.66834 3.11556 5.58022 4.15633 5.50416 5.46913ZM7.99993 12.7822C10.0416 12.7822 11.824 13.56 12.9374 14.7243L12.6288 14.8702C11.5485 13.7857 9.85955 13.1156 7.99993 13.1156C6.14037 13.1156 4.45155 13.7857 3.37118 14.8701L3.06279 14.724C4.1762 13.5598 5.95843 12.7822 7.99993 12.7822ZM8.00504 2.78223C9.56748 2.78499 10.8333 4.05246 10.8333 5.61556V7.61556C10.8333 9.13736 9.63335 10.3791 8.12833 10.4461L7.99484 10.4489C6.43237 10.4461 5.16659 9.17866 5.16659 7.61556V5.61556C5.16659 4.09379 6.36651 2.852 7.87153 2.78507L8.00504 2.78223Z" fill="#3F3F46" stroke="#334155"/>
</svg>
