<svg width="16" height="16" viewBox="0 0 16 16" fill="none" xmlns="http://www.w3.org/2000/svg">
<path d="M8 14.6663C4.3181 14.6663 1.33333 11.6815 1.33333 7.99967C1.33333 4.31777 4.3181 1.33301 8 1.33301C11.6819 1.33301 14.6667 4.31777 14.6667 7.99967C14.6667 11.6815 11.6819 14.6663 8 14.6663ZM8 13.333C10.9455 13.333 13.3333 10.9452 13.3333 7.99967C13.3333 5.05415 10.9455 2.66634 8 2.66634C5.05448 2.66634 2.66667 5.05415 2.66667 7.99967C2.66667 10.9452 5.05448 13.333 8 13.333ZM8.66667 7.99967H11.3333V9.33301H7.33333V4.66634H8.66667V7.99967Z" fill="#F97316"/>
</svg>
