<svg width="177" height="176" viewBox="0 0 177 176" fill="none" xmlns="http://www.w3.org/2000/svg">
<path d="M89.4733 176C137.676 176 176.752 136.601 176.752 88C176.752 39.3989 137.676 0 89.4733 0C41.2706 0 2.19458 39.3989 2.19458 88C2.19458 136.601 41.2706 176 89.4733 176Z" fill="url(#paint0_linear_3030_16171)" fill-opacity="0.2"/>
<path d="M80.89 23.4616L31.543 63.172V126.647C31.543 134.932 38.2587 141.647 46.543 141.647H133.715C141.999 141.647 148.715 134.932 148.715 126.647V63.172L99.7363 23.4925C94.2457 19.0444 86.3952 19.0316 80.89 23.4616Z" fill="#DD6438"/>
<rect x="48.4504" y="34.2319" width="83.7505" height="104.256" rx="18" fill="url(#paint1_linear_3030_16171)"/>
<path d="M55.6566 64.0165C55.6566 62.8214 56.6254 61.8525 57.8206 61.8525H120.822C122.017 61.8525 122.986 62.8214 122.986 64.0165C122.986 65.2116 122.017 66.1804 120.822 66.1804H57.8206C56.6254 66.1804 55.6566 65.2116 55.6566 64.0165Z" fill="#D5D5D5"/>
<path d="M55.6566 78.0819C55.6566 76.8868 56.6254 75.918 57.8206 75.918H120.822C122.017 75.918 122.986 76.8868 122.986 78.0819C122.986 79.277 122.017 80.2458 120.822 80.2458H57.8206C56.6254 80.2458 55.6566 79.277 55.6566 78.0819Z" fill="#D5D5D5"/>
<path d="M55.6566 92.1473C55.6566 90.9522 56.6254 89.9834 57.8206 89.9834H120.822C122.017 89.9834 122.986 90.9522 122.986 92.1473C122.986 93.3424 122.017 94.3113 120.822 94.3113H57.8206C56.6254 94.3113 55.6566 93.3424 55.6566 92.1473Z" fill="#D5D5D5"/>
<path fill-rule="evenodd" clip-rule="evenodd" d="M31.543 63.0605V126.648C31.543 134.932 38.2587 141.648 46.543 141.648H94.8055C109.4 141.648 115.399 122.918 103.52 114.439L31.543 63.0605Z" fill="url(#paint2_linear_3030_16171)"/>
<path fill-rule="evenodd" clip-rule="evenodd" d="M148.715 63.0605V126.648C148.715 134.932 142 141.648 133.715 141.648H41.6521L148.715 63.0605Z" fill="#E4E4E7"/>
<path fill-rule="evenodd" clip-rule="evenodd" d="M148.937 64.0789L45.6918 141.647H41.3827L147.667 62.3306L148.937 64.0789Z" fill="#011625"/>
<path d="M8.92115 111.74L8.921 111.74C8.44811 111.435 8.30986 110.802 8.61458 110.326C8.9175 109.849 9.55101 109.71 10.0254 110.017C12.9163 111.883 14.8101 114.473 15.7673 117.772C15.926 118.315 15.6129 118.884 15.0739 119.042L15.0734 119.043C14.5302 119.202 13.9619 118.888 13.8066 118.344L14.1672 118.241L13.8071 118.346C12.9894 115.526 11.3852 113.33 8.92115 111.74Z" fill="#011625" stroke="#011625" stroke-width="0.75"/>
<path d="M44.5532 119.392L44.5534 119.392C45.2362 119.043 45.4761 118.376 45.4151 117.68C45.3616 117.046 45.0296 116.346 44.8517 116.029L44.5532 119.392ZM44.5532 119.392C43.781 119.786 43.1122 119.764 42.5745 119.495L44.5532 119.392ZM41.474 118.163L41.4741 118.163C41.6955 118.754 42.0631 119.239 42.5743 119.494L41.474 118.163ZM41.474 118.163C41.263 117.599 41.1799 116.91 41.1713 116.263C41.1637 115.702 41.212 115.149 41.2941 114.703C40.8131 114.22 40.2908 113.779 39.7346 113.382C35.2554 110.19 28.5962 111.32 23.3971 116.229C22.5415 117.037 21.8821 118.318 21.3791 119.921C20.8781 121.518 20.5438 123.396 20.3139 125.361C19.6907 130.683 19.9183 136.547 20.026 139.322C20.0422 139.739 20.0556 140.086 20.0631 140.351L20.0631 140.352C20.0699 140.614 20.0612 140.827 20.0465 140.986C20.0392 141.066 20.0301 141.135 20.02 141.191C20.0122 141.235 19.9989 141.301 19.9742 141.359M41.474 118.163L19.9742 141.359M17.4769 137.878C17.5072 137.967 17.5375 138.055 17.5678 138.144C17.7757 138.75 17.9831 139.355 18.1589 139.972M17.4769 137.878L18.1538 140.405C18.1553 140.359 18.1592 140.311 18.1631 140.264C18.172 140.155 18.1806 140.049 18.1589 139.972M17.4769 137.878C16.6838 135.54 15.6582 133.349 14.5189 131.16L17.4769 137.878ZM18.1589 139.972L17.7983 140.075C17.7977 140.073 17.7971 140.071 17.7965 140.068M18.1589 139.972L17.7979 140.073C17.796 140.067 17.796 140.065 17.7965 140.068M17.7965 140.068C17.6239 139.464 17.4208 138.871 17.2134 138.266C17.183 138.178 17.1525 138.089 17.1221 138L17.1218 137.999C16.3373 135.686 15.3211 133.513 14.1863 131.333L14.1863 131.333C13.8815 130.747 13.5778 130.16 13.2738 129.571C9.95535 123.148 6.59369 116.64 1.21539 111.838L1.21529 111.838C0.796562 111.464 0.754681 110.817 1.12957 110.393C1.50331 109.968 2.14922 109.932 2.5715 110.306L2.57256 110.307C8.21486 115.344 11.7398 122.159 15.1415 128.736C15.4268 129.287 15.7113 129.837 15.996 130.384L15.996 130.384C16.6599 131.66 17.288 132.94 17.8571 134.251C17.8394 131.072 17.9516 127.218 18.47 123.728C18.7514 121.833 19.1614 120.037 19.7328 118.493C20.3028 116.953 21.0426 115.639 21.9986 114.736L21.9987 114.736C27.8656 109.197 35.6054 107.924 40.9166 111.712L40.9167 111.712C41.3496 112.021 41.7671 112.353 42.1644 112.709C45.0282 107.979 50.789 106.131 55.8929 108.474C56.4082 108.71 56.6299 109.318 56.3988 109.83L56.3988 109.83L56.3978 109.832C56.1626 110.344 55.5591 110.574 55.0434 110.338L55.0429 110.338C50.7365 108.36 45.8651 110.057 43.6386 114.252C44.0901 114.807 44.4983 115.4 44.8516 116.029L17.7965 140.068ZM17.7965 140.068C17.7967 140.07 17.797 140.074 17.7972 140.08C17.7979 140.096 17.7975 140.118 17.7956 140.15C17.7945 140.168 17.7931 140.186 17.7915 140.206C17.7902 140.222 17.7888 140.239 17.7873 140.258C17.7841 140.298 17.7806 140.345 17.779 140.392L17.7788 140.396C17.7735 140.626 17.7823 140.877 17.8346 141.079L17.8353 141.082C17.9341 141.452 18.1557 141.714 18.4382 141.863L18.4402 141.864C18.6469 141.972 18.9039 142.031 19.2095 141.976L19.2135 141.975C19.4317 141.934 19.7858 141.808 19.9742 141.359M17.7965 140.068L19.9742 141.359M19.9742 141.359C19.9744 141.359 19.9746 141.358 19.9748 141.358L19.6289 141.213L19.9724 141.364C19.973 141.362 19.9736 141.361 19.9742 141.359Z" fill="#011625" stroke="#011625" stroke-width="0.75"/>
<path fill-rule="evenodd" clip-rule="evenodd" d="M143.784 38.0186C144.439 35.3622 144.396 32.804 144.475 30.1095C144.49 29.5833 144.075 29.1458 143.549 29.1299C143.023 29.1141 142.583 29.5294 142.568 30.0556C142.493 32.6106 142.553 35.042 141.932 37.5653C141.806 38.0757 142.119 38.5924 142.63 38.716C143.141 38.8428 143.658 38.529 143.784 38.0186Z" fill="#011625"/>
<path fill-rule="evenodd" clip-rule="evenodd" d="M149.351 43.1665C153.796 39.1152 157.985 33.9038 160.912 28.6416C161.168 28.1819 161.001 27.6018 160.541 27.3482C160.081 27.0946 159.499 27.2595 159.244 27.7191C156.413 32.8069 152.362 37.8472 148.064 41.7622C147.675 42.1172 147.648 42.7195 148.004 43.1063C148.359 43.493 148.962 43.5215 149.351 43.1665Z" fill="#011625"/>
<path fill-rule="evenodd" clip-rule="evenodd" d="M150.477 47.5923C154.543 48.2612 158.734 47.12 162.431 45.5065C162.913 45.2941 163.133 44.733 162.922 44.2543C162.711 43.7725 162.148 43.5537 161.666 43.763C158.299 45.2338 154.491 46.3243 150.788 45.7157C150.268 45.6301 149.777 45.982 149.691 46.4987C149.606 47.0154 149.958 47.5067 150.477 47.5923Z" fill="#011625"/>
<path fill-rule="evenodd" clip-rule="evenodd" d="M33.0441 28.6445C33.6234 28.4381 34.233 28.1638 34.703 27.7666C35.2613 27.2949 35.4884 26.6873 35.6409 26.0478C35.8366 25.2261 35.9148 24.3509 36.1522 23.5279C36.2401 23.2223 36.4092 23.1068 36.4818 23.0555C36.6652 22.926 36.8507 22.8914 37.0251 22.9044C37.2318 22.9194 37.5158 22.9976 37.7026 23.3442C37.7292 23.3938 37.7638 23.4694 37.7871 23.5729C37.8041 23.6488 37.8151 23.8862 37.8331 23.984C37.878 24.2251 37.9156 24.4661 37.9509 24.7085C38.0685 25.5151 38.136 26.2002 38.5072 26.9413C39.0109 27.9474 39.5156 28.5629 40.2001 28.8356C40.8619 29.0992 41.6533 29.0496 42.6643 28.8429C42.7605 28.8196 42.8557 28.7996 42.95 28.7833C43.3957 28.7054 43.8219 28.998 43.9094 29.4421C43.997 29.8859 43.7137 30.3184 43.2719 30.4159C43.1797 30.4362 43.0888 30.4555 42.9989 30.4732C41.6326 30.8114 40.0509 32.0186 39.1318 33.0756C38.8485 33.4015 38.4337 34.3127 38.0105 34.8939C37.6983 35.3227 37.3474 35.6054 37.0527 35.7052C36.8553 35.7725 36.6889 35.7622 36.5514 35.7282C36.3516 35.6789 36.1858 35.5707 36.0587 35.3986C35.9894 35.3044 35.9252 35.1782 35.8945 35.0171C35.8799 34.9395 35.8782 34.7425 35.8786 34.6532C35.7923 34.3566 35.6868 34.067 35.6099 33.7677C35.4265 33.0536 35.0666 32.6015 34.6391 32.0042C34.2393 31.4453 33.8098 31.0941 33.1803 30.8137C33.0984 30.7938 32.4376 30.632 32.2042 30.5391C31.8633 30.4029 31.7008 30.1749 31.6419 30.052C31.5417 29.8436 31.5314 29.6615 31.5514 29.5097C31.581 29.2857 31.6815 29.0939 31.86 28.9391C31.9705 28.8429 32.1356 28.7494 32.3567 28.7037C32.5275 28.6681 32.9805 28.6475 33.0441 28.6445ZM36.9209 27.4806C36.9515 27.5489 36.9842 27.6174 37.0188 27.6867C37.7565 29.1602 38.5815 29.9828 39.5842 30.382L39.6178 30.3949C38.947 30.893 38.3398 31.4496 37.8757 31.9833C37.6846 32.203 37.4316 32.6594 37.1583 33.1275C36.9099 32.3202 36.5038 31.7496 35.9931 31.0355C35.6029 30.4905 35.1941 30.0804 34.6917 29.7461C35.0816 29.546 35.4534 29.3116 35.7773 29.038C36.3167 28.5822 36.6732 28.0542 36.9209 27.4806Z" fill="#417BA4"/>
<circle cx="89.5978" cy="49.5794" r="14.2346" fill="#1B998B" fill-opacity="0.05"/>
<ellipse cx="89.5981" cy="49.5794" rx="10.2806" ry="10.2806" fill="#1B998B" fill-opacity="0.1"/>
<g clip-path="url(#clip0_3030_16171)">
<path d="M89.4363 50.2935L90.0092 50.8664L93.4439 47.4316L94.0178 48.0054L90.0092 52.014L87.4271 49.4319L88.0009 48.8581L88.863 49.7202L89.4363 50.2935ZM89.437 49.1462L91.4464 47.1367L92.0186 47.7089L90.0092 49.7184L89.437 49.1462ZM88.2901 51.4407L87.7167 52.014L85.1346 49.4319L85.7084 48.8581L86.2818 49.4315L86.2813 49.4319L88.2901 51.4407Z" fill="#16A34A"/>
</g>
<defs>
<linearGradient id="paint0_linear_3030_16171" x1="131.557" y1="-41.8361" x2="9.97374" y2="248.206" gradientUnits="userSpaceOnUse">
<stop stop-color="white" stop-opacity="0"/>
<stop offset="1" stop-color="#DD6438"/>
</linearGradient>
<linearGradient id="paint1_linear_3030_16171" x1="90.3257" y1="34.2319" x2="90.3257" y2="138.488" gradientUnits="userSpaceOnUse">
<stop stop-color="white"/>
<stop offset="0.71875" stop-color="#EAEAEA"/>
</linearGradient>
<linearGradient id="paint2_linear_3030_16171" x1="31.543" y1="62.9344" x2="112.15" y2="153.279" gradientUnits="userSpaceOnUse">
<stop stop-color="#E1DCEB"/>
<stop offset="1" stop-color="#B3AFBA"/>
</linearGradient>
<clipPath id="clip0_3030_16171">
<rect width="9.73771" height="9.73771" fill="white" transform="translate(84.7289 44.7104)"/>
</clipPath>
</defs>
</svg>
