<svg width="60" height="60" viewBox="0 0 60 60" fill="none" xmlns="http://www.w3.org/2000/svg">
<circle cx="30" cy="30" r="30" fill="#E2E8F0"/>
<path d="M29.9999 37.5C35.4935 37.5 40.2974 39.8626 42.9105 43.387L40.1475 44.694C38.021 42.1735 34.271 40.5 29.9999 40.5C25.7287 40.5 21.9788 42.1735 19.8522 44.694L17.0903 43.3857C19.7036 39.862 24.5069 37.5 29.9999 37.5ZM29.9999 15C34.142 15 37.4999 18.3579 37.4999 22.5V27C37.4999 31.0332 34.3164 34.3227 30.3252 34.4931L29.9999 34.5C25.8577 34.5 22.4999 31.1421 22.4999 27V22.5C22.4999 18.4669 25.6833 15.1773 29.6745 15.0069L29.9999 15ZM29.9999 18C27.6033 18 25.6444 19.8734 25.5075 22.2356L25.4999 22.5V27C25.4999 29.4854 27.5145 31.5 29.9999 31.5C32.3964 31.5 34.3554 29.6267 34.4922 27.2645L34.4999 27V22.5C34.4999 20.0147 32.4851 18 29.9999 18Z" fill="#404040"/>
</svg>
