<svg width="325" height="210" viewBox="0 0 325 210" fill="none" xmlns="http://www.w3.org/2000/svg">
<g style="mix-blend-mode:luminosity">
<mask id="mask0_3111_9061" style="mask-type:alpha" maskUnits="userSpaceOnUse" x="0" y="0" width="325" height="210">
<rect width="325" height="210" rx="16" fill="white"/>
</mask>
<g mask="url(#mask0_3111_9061)">
<g opacity="0.5">
<path d="M218.23 -148V-32.6149C218.23 -27.9225 214.144 -24.1217 209.1 -24.1217C206.73 -24.1217 204.611 -24.9194 202.997 -26.2802C202.846 -26.374 202.745 -26.5148 202.594 -26.6087C202.543 -26.6556 202.493 -26.7025 202.442 -26.7494L171.625 -54.8097L171.322 -55.0913C169.002 -57.1559 166.026 -58.2352 163.05 -58.2352C160.075 -58.2352 157.048 -57.1559 154.728 -55.0913L154.426 -54.8097L123.81 -26.8902C123.81 -26.8902 123.759 -26.8433 123.709 -26.8433L123.356 -26.5148L122.801 -25.9986C121.187 -24.7786 119.169 -24.0748 117.001 -24.0748C112.007 -24.0748 107.922 -27.7817 107.871 -32.4272V-148H51.9357C21.0677 -148 -4 -124.679 -4 -95.9617V199H-2.83993C47.0432 199 89.2093 168.312 103.029 126.175C106.156 116.649 107.871 106.514 107.871 96.0027V91.1696H96.2706C91.2773 91.1696 87.2422 87.4157 87.2422 82.7703C87.2422 80.9872 87.8475 79.3448 88.8562 77.9841C89.1589 77.5617 89.4615 77.1863 89.865 76.8579C89.865 76.8579 89.865 76.811 89.9659 76.764L102.777 65.0801L107.821 60.4815L154.526 17.9688L154.728 17.7811C157.048 15.6695 160.024 14.6372 163.05 14.6372C166.077 14.6372 169.053 15.6695 171.322 17.7811L171.474 17.9688L218.179 60.4815L223.273 65.0801L236.185 76.8579C236.185 76.8579 236.286 76.9048 236.286 76.9517C236.639 77.2802 236.892 77.6087 237.194 77.9371C238.253 79.2979 238.808 80.9402 238.808 82.7233C238.808 87.3688 234.773 91.1227 229.78 91.1227H218.179V95.9558C218.179 106.373 219.844 116.414 222.92 125.893C222.92 125.987 222.971 126.034 222.971 126.128C233.714 158.833 261.505 184.641 296.66 194.542C306.799 197.405 317.643 198.953 328.789 198.953H330V-95.9617C330 -124.679 304.932 -148 274.064 -148H218.129H218.23Z" fill="url(#paint0_linear_3111_9061)" fill-opacity="0.2" style="mix-blend-mode:soft-light"/>
</g>
</g>
</g>
<defs>
<linearGradient id="paint0_linear_3111_9061" x1="163" y1="3.28066" x2="163" y2="199" gradientUnits="userSpaceOnUse">
<stop stop-color="#C75C35" stop-opacity="0"/>
<stop offset="1" stop-color="#C75C35"/>
</linearGradient>
</defs>
</svg>
