<svg width="325" height="209" viewBox="0 0 325 209" fill="none" xmlns="http://www.w3.org/2000/svg">
<g style="mix-blend-mode:color-dodge">
<mask id="mask0_3111_8919" style="mask-type:alpha" maskUnits="userSpaceOnUse" x="0" y="0" width="325" height="209">
<rect width="325" height="209" rx="16" fill="white"/>
</mask>
<g mask="url(#mask0_3111_8919)">
<g opacity="0.7">
<path d="M218.23 -144V-30.2775C218.23 -25.6527 214.144 -21.9067 209.1 -21.9067C206.73 -21.9067 204.611 -22.6929 202.997 -24.0341C202.846 -24.1266 202.745 -24.2653 202.594 -24.3578C202.543 -24.4041 202.493 -24.4503 202.442 -24.4966L171.625 -52.1525L171.322 -52.43C169.002 -54.4649 166.026 -55.5286 163.05 -55.5286C160.075 -55.5286 157.048 -54.4649 154.728 -52.43L154.426 -52.1525L123.81 -24.6353C123.81 -24.6353 123.759 -24.5891 123.709 -24.5891L123.356 -24.2653L122.801 -23.7566C121.187 -22.5542 119.169 -21.8604 117.001 -21.8604C112.007 -21.8604 107.922 -25.514 107.871 -30.0925V-144H51.9357C21.0677 -144 -4 -121.015 -4 -92.7116V198H-2.83993C47.0432 198 89.2093 167.754 103.029 126.224C106.156 116.836 107.871 106.846 107.871 96.4868V91.7233H96.2706C91.2773 91.7233 87.2422 88.0235 87.2422 83.445C87.2422 81.6876 87.8475 80.069 88.8562 78.7278C89.1589 78.3116 89.4615 77.9416 89.865 77.6178C89.865 77.6178 89.865 77.5716 89.9659 77.5254L102.777 66.0097L107.821 61.4775L154.526 19.5773L154.728 19.3923C157.048 17.3112 160.024 16.2937 163.05 16.2937C166.077 16.2937 169.053 17.3112 171.322 19.3923L171.474 19.5773L218.179 61.4775L223.273 66.0097L236.185 77.6178C236.185 77.6178 236.286 77.6641 236.286 77.7103C236.639 78.0341 236.892 78.3578 237.194 78.6815C238.253 80.0227 238.808 81.6414 238.808 83.3988C238.808 87.9773 234.773 91.6771 229.78 91.6771H218.179V96.4406C218.179 106.708 219.844 116.604 222.92 125.946C222.92 126.039 222.971 126.085 222.971 126.178C233.714 158.412 261.505 183.848 296.66 193.607C306.799 196.428 317.643 197.954 328.789 197.954H330V-92.7116C330 -121.015 304.932 -144 274.064 -144H218.129H218.23Z" fill="url(#paint0_linear_3111_8919)" fill-opacity="0.5" style="mix-blend-mode:soft-light"/>
</g>
</g>
</g>
<defs>
<linearGradient id="paint0_linear_3111_8919" x1="163" y1="5.10082" x2="163" y2="198" gradientUnits="userSpaceOnUse">
<stop stop-color="#E5B20E" stop-opacity="0"/>
<stop offset="1" stop-color="#E5B20E"/>
</linearGradient>
</defs>
</svg>
