<svg width="383" height="240" viewBox="0 0 383 240" fill="none" xmlns="http://www.w3.org/2000/svg">
<g style="mix-blend-mode:darken">
<mask id="mask0_3024_13853" style="mask-type:alpha" maskUnits="userSpaceOnUse" x="0" y="0" width="383" height="240">
<rect width="383" height="240" rx="16" fill="white"/>
</mask>
<g mask="url(#mask0_3024_13853)">
<path d="M254.832 -181V-41.0082C254.832 -35.3152 250.147 -30.7039 244.363 -30.7039C241.645 -30.7039 239.216 -31.6717 237.365 -33.3226C237.192 -33.4365 237.076 -33.6073 236.902 -33.7212C236.845 -33.7781 236.787 -33.835 236.729 -33.892L201.39 -67.9363L201.043 -68.2779C198.383 -70.7828 194.97 -72.0922 191.558 -72.0922C188.145 -72.0922 184.675 -70.7828 182.015 -68.2779L181.668 -67.9363L146.56 -34.0628C146.56 -34.0628 146.502 -34.0058 146.445 -34.0058L146.04 -33.6073L145.403 -32.9811C143.553 -31.5009 141.239 -30.6469 138.752 -30.6469C133.026 -30.6469 128.341 -35.1444 128.284 -40.7805V-181H64.1418C28.7452 -181 0 -152.706 0 -117.864V240H1.33026C58.5316 240 106.884 202.768 122.731 151.644C126.317 140.087 128.284 127.79 128.284 115.038V109.174H114.981C109.255 109.174 104.628 104.62 104.628 98.9835C104.628 96.8202 105.322 94.8276 106.479 93.1766C106.826 92.6642 107.173 92.2088 107.636 91.8103C107.636 91.8103 107.636 91.7534 107.751 91.6964L122.442 77.5208L128.226 71.9416L181.783 20.3627L182.015 20.135C184.675 17.5731 188.088 16.3206 191.558 16.3206C195.028 16.3206 198.44 17.5731 201.043 20.135L201.217 20.3627L254.774 71.9416L260.616 77.5208L275.422 91.8103C275.422 91.8103 275.538 91.8672 275.538 91.9241C275.943 92.3226 276.232 92.7212 276.579 93.1197C277.794 94.7707 278.43 96.7632 278.43 98.9265C278.43 104.563 273.803 109.117 268.077 109.117H254.774V114.981C254.774 127.62 256.683 139.803 260.211 151.302C260.211 151.416 260.269 151.473 260.269 151.587C272.588 191.268 304.457 222.579 344.769 234.592C356.395 238.064 368.83 239.943 381.612 239.943H383V-117.864C383 -152.706 354.255 -181 318.858 -181H254.716H254.832Z" fill="url(#paint0_linear_3024_13853)" style="mix-blend-mode:soft-light"/>
</g>
</g>
<defs>
<linearGradient id="paint0_linear_3024_13853" x1="191.5" y1="2.54224" x2="191.5" y2="240" gradientUnits="userSpaceOnUse">
<stop stop-color="#FAF2E5" stop-opacity="0"/>
<stop offset="1" stop-color="#E3CCA0"/>
</linearGradient>
</defs>
</svg>
