<svg width="250" height="187" viewBox="0 0 250 187" fill="none" xmlns="http://www.w3.org/2000/svg">
<path d="M250 163.7H0V163.825H250V163.7Z" fill="#EBEBEB"/>
<path d="M224.95 171.745H208.39V171.87H224.95V171.745Z" fill="#EBEBEB"/>
<path d="M165.61 173.105H161.265V173.23H165.61V173.105Z" fill="#EBEBEB"/>
<path d="M207.89 167.104H198.295V167.229H207.89V167.104Z" fill="#EBEBEB"/>
<path d="M47.825 167.945H26.23V168.07H47.825V167.945Z" fill="#EBEBEB"/>
<path d="M55.445 167.945H52.28V168.07H55.445V167.945Z" fill="#EBEBEB"/>
<path d="M112.575 170.055H65.735V170.18H112.575V170.055Z" fill="#EBEBEB"/>
<path d="M118.5 141.4H21.955C21.1987 141.399 20.4738 141.097 19.9394 140.562C19.4051 140.027 19.105 139.301 19.105 138.545V2.83C19.1116 2.07801 19.4146 1.35899 19.9482 0.829109C20.4818 0.299229 21.203 0.00128819 21.955 0H118.5C119.257 0 119.983 0.300794 120.519 0.83621C121.054 1.37163 121.355 2.09781 121.355 2.855V138.545C121.355 139.302 121.054 140.028 120.519 140.564C119.983 141.099 119.257 141.4 118.5 141.4ZM21.955 0.1C21.2318 0.101325 20.5387 0.389533 20.0278 0.901363C19.5169 1.41319 19.23 2.10682 19.23 2.83V138.545C19.23 139.268 19.5169 139.962 20.0278 140.474C20.5387 140.985 21.2318 141.274 21.955 141.275H118.5C119.224 141.274 119.917 140.986 120.429 140.474C120.941 139.962 121.229 139.269 121.23 138.545V2.83C121.229 2.10636 120.941 1.41275 120.429 0.901058C119.917 0.38937 119.224 0.101322 118.5 0.1H21.955Z" fill="#EBEBEB"/>
<path d="M226.655 141.4H130.105C129.348 141.399 128.623 141.097 128.088 140.562C127.553 140.027 127.251 139.302 127.25 138.545V2.83C127.258 2.07756 127.562 1.35854 128.096 0.828796C128.631 0.299054 129.353 0.00127414 130.105 0H226.655C227.406 0.00260225 228.126 0.301125 228.659 0.830864C229.191 1.3606 229.493 2.07888 229.5 2.83V138.545C229.5 139.3 229.201 140.025 228.667 140.56C228.134 141.095 227.41 141.397 226.655 141.4ZM130.105 0.1C129.381 0.101322 128.688 0.38937 128.176 0.901058C127.664 1.41275 127.376 2.10636 127.375 2.83V138.545C127.376 139.269 127.664 139.962 128.176 140.474C128.688 140.986 129.381 141.274 130.105 141.275H226.655C227.379 141.274 228.072 140.986 228.584 140.474C229.096 139.962 229.384 139.269 229.385 138.545V2.83C229.384 2.10636 229.096 1.41275 228.584 0.901058C228.072 0.38937 227.379 0.101322 226.655 0.1H130.105Z" fill="#EBEBEB"/>
<path d="M196.54 10.5801H50.645V78.8401H196.54V10.5801Z" fill="#E6E6E6"/>
<path d="M198.735 10.5801H51.67V78.8401H198.735V10.5801Z" fill="#F0F0F0"/>
<path d="M196.54 78.8398H50.645V82.3198H196.54V78.8398Z" fill="#E6E6E6"/>
<path d="M202.395 78.8398H55.33V82.3198H202.395V78.8398Z" fill="#F0F0F0"/>
<path d="M195.66 75.7652V13.6602L54.7499 13.6602V75.7652H195.66Z" fill="#FAFAFA"/>
<path d="M69.865 75.7652L78.43 13.6602H91.795L83.23 75.7652H69.865Z" fill="white"/>
<path d="M56.1699 72.7004C56.1116 72.7004 56.0556 72.6773 56.0144 72.636C55.9731 72.5947 55.95 72.5388 55.95 72.4804V15.6604C55.95 15.6021 55.9731 15.5461 56.0144 15.5049C56.0556 15.4636 56.1116 15.4404 56.1699 15.4404C56.1988 15.4404 56.2274 15.4461 56.2541 15.4572C56.2808 15.4682 56.3051 15.4844 56.3255 15.5049C56.3459 15.5253 56.3621 15.5495 56.3732 15.5762C56.3843 15.6029 56.3899 15.6315 56.3899 15.6604V72.5004C56.3861 72.5557 56.3611 72.6073 56.3201 72.6446C56.2791 72.6818 56.2253 72.7019 56.1699 72.7004Z" fill="#F0F0F0"/>
<path d="M86.1 75.7652L94.665 13.6602H99.875L91.31 75.7652H86.1Z" fill="white"/>
<path d="M195.66 75.7652V13.6602H195.27V75.7652H195.66Z" fill="#E6E6E6"/>
<path opacity="0.6" d="M199.46 18.2995H53.57L53.285 14.8545H199.18L199.46 18.2995Z" fill="#EBEBEB"/>
<path opacity="0.6" d="M199.46 23.945H53.57L53.285 20.5H199.18L199.46 23.945Z" fill="#EBEBEB"/>
<path opacity="0.6" d="M199.46 29.5954H53.57L53.285 26.1504H199.18L199.46 29.5954Z" fill="#EBEBEB"/>
<path opacity="0.6" d="M199.46 35.2399H53.57L53.285 31.7949H199.18L199.46 35.2399Z" fill="#EBEBEB"/>
<path opacity="0.6" d="M199.46 40.8903H53.57L53.285 37.4453H199.18L199.46 40.8903Z" fill="#EBEBEB"/>
<path opacity="0.6" d="M199.46 46.5349H53.57L53.285 43.0898H199.18L199.46 46.5349Z" fill="#EBEBEB"/>
<path d="M219.5 96H197.235V163.7H219.5V96Z" fill="#E6E6E6"/>
<path d="M213.555 163.7H219.5V154.355H207.32L213.555 163.7Z" fill="#FAFAFA"/>
<path d="M158.795 96H136.53V163.7H158.795V96Z" fill="#E6E6E6"/>
<path d="M219.5 96H153.605V160.485H219.5V96Z" fill="#FAFAFA"/>
<path d="M159.55 163.7H153.605V154.355H165.785L159.55 163.7Z" fill="#FAFAFA"/>
<path d="M214.885 120.03H158.215V136.165H214.885V120.03Z" fill="#F0F0F0"/>
<path d="M214.885 139.615H158.215V155.75H214.885V139.615Z" fill="#F0F0F0"/>
<path d="M167.12 118.63H206V119.415C206 120.034 205.754 120.628 205.316 121.066C204.878 121.504 204.284 121.75 203.665 121.75H169.46C168.841 121.75 168.247 121.504 167.809 121.066C167.371 120.628 167.125 120.034 167.125 119.415V118.63H167.12Z" fill="#FAFAFA"/>
<path d="M214.885 100.44H158.215V116.575H214.885V100.44Z" fill="#F0F0F0"/>
<path d="M167.12 99.0449H206V99.8299C206 100.449 205.754 101.043 205.316 101.481C204.878 101.919 204.284 102.165 203.665 102.165H169.46C168.841 102.165 168.247 101.919 167.809 101.481C167.371 101.043 167.125 100.449 167.125 99.8299V99.0449H167.12Z" fill="#FAFAFA"/>
<path d="M167.12 138.215H206V139C206 139.619 205.754 140.213 205.316 140.651C204.878 141.089 204.284 141.335 203.665 141.335H169.46C168.841 141.335 168.247 141.089 167.809 140.651C167.371 140.213 167.125 139.619 167.125 139V138.215H167.12Z" fill="#FAFAFA"/>
<path d="M26.71 110.435C27.95 106.87 37.71 111.715 41.71 117.615C44.355 121.545 45.97 125.74 46.71 131.375C46.62 124.945 46.52 118.04 46.42 111.52C45.615 109.895 43.78 106.145 42.465 103.175C38.065 93.2653 27.605 89.5752 23.965 83.3202C19.23 75.1202 19.26 62.8202 23.29 58.3902C26.79 54.5302 38.39 80.6052 39.7 83.5202C44.2 93.5202 45.5 100.975 46.34 108.18C46.245 102.055 46.155 96.4353 46.08 92.0953C45.835 77.9453 45.525 73.3953 45.385 71.9953C44.885 71.3102 44.33 70.4952 43.995 70.0852C41.19 66.4702 34.96 62.1702 31.85 56.9152C27.305 49.2452 28.04 40.0652 31.225 36.6452C34.585 33.0702 40.5 41.5002 43.605 49.8902C46.71 58.2802 45.395 66.2702 46.275 73.2252C46.46 74.5852 46.645 79.7652 46.825 86.9502C47.775 79.2202 49.665 74.0402 53.165 69.2152C57.475 63.2802 61.195 56.0552 64.745 56.9902C68.295 57.9252 66.385 67.4902 63.575 74.2002C61.075 80.1752 48.735 86.1403 46.915 90.9453C47.13 100.685 47.32 113.02 47.46 124.505C48.43 118.57 47.76 118.075 51.75 109.005C54.12 103.605 63.835 96.9503 64.995 100.66C66.155 104.37 64.39 111.38 60.725 116.29C57.765 120.255 51.225 120.25 49.68 122.705C49.325 123.28 48.18 125.48 47.485 126.74C47.64 140.765 47.715 153.14 47.635 157.36L46.995 157.405C47.03 156.315 46.95 149.18 46.825 139.74C45.23 134.74 34.5 131.79 31.185 126.565C27.715 121.085 25.22 114.705 26.71 110.435Z" fill="#E6E6E6"/>
<path d="M36.8 163.7H57.4C57.9458 163.699 58.4747 163.51 58.8974 163.165C59.32 162.82 59.6106 162.339 59.72 161.805L61.18 154.595H33L34.5 161.805C34.6087 162.336 34.8963 162.814 35.3149 163.159C35.7335 163.504 36.2577 163.695 36.8 163.7Z" fill="#F0F0F0"/>
<path d="M32.43 157.39H61.77C62.1103 157.39 62.4385 157.264 62.6921 157.037C62.9457 156.81 63.107 156.498 63.145 156.16L63.745 150.83C63.7661 150.637 63.7462 150.441 63.6868 150.256C63.6273 150.071 63.5295 149.901 63.3998 149.756C63.2701 149.611 63.1114 149.495 62.934 149.416C62.7566 149.336 62.5644 149.295 62.37 149.295H31.83C31.6357 149.295 31.4435 149.336 31.2661 149.416C31.0887 149.495 30.93 149.611 30.8003 149.756C30.6706 149.901 30.5728 150.071 30.5133 150.256C30.4539 150.441 30.434 150.637 30.455 150.83L31.055 156.16C31.0931 156.498 31.2543 156.81 31.5079 157.037C31.7615 157.264 32.0898 157.39 32.43 157.39Z" fill="#F0F0F0"/>
<path d="M88.9199 131.31H71.3149V163.7H88.9199V131.31Z" fill="#E0E0E0"/>
<path d="M133.79 163.7H74.845L68.65 119.75H127.595L133.79 163.7Z" fill="#E6E6E6"/>
<path d="M142.39 163.7H77.185L70.995 119.75H136.195L142.39 163.7Z" fill="#F0F0F0"/>
<path d="M83.565 156.83L78.35 126.62H129.815L135.03 156.83H83.565Z" fill="white"/>
<path d="M105.68 156.83L88.1899 126.62H93.6749L111.17 156.83H105.68Z" fill="#FAFAFA"/>
<path d="M113.495 156.83L96 126.62H105.36L122.85 156.83H113.495Z" fill="#FAFAFA"/>
<path d="M125 186.28C178.541 186.28 221.945 183.746 221.945 180.62C221.945 177.494 178.541 174.96 125 174.96C71.4588 174.96 28.0551 177.494 28.0551 180.62C28.0551 183.746 71.4588 186.28 125 186.28Z" fill="#F5F5F5"/>
<path d="M38.635 83.2656C38.5813 83.2658 38.5294 83.2459 38.4896 83.2098C38.4498 83.1738 38.425 83.1241 38.42 83.0706L37.31 69.7206C37.3072 69.6665 37.3254 69.6134 37.3608 69.5724C37.3962 69.5314 37.446 69.5057 37.5 69.5006C37.5562 69.4964 37.6119 69.5145 37.6549 69.551C37.6979 69.5875 37.7249 69.6394 37.73 69.6956L38.84 83.0456C38.8441 83.1018 38.826 83.1575 38.7896 83.2005C38.7531 83.2435 38.7012 83.2705 38.645 83.2756L38.635 83.2656Z" fill="#FE632F"/>
<path d="M39.295 91.1955C39.2413 91.1957 39.1894 91.1758 39.1496 91.1397C39.1099 91.1037 39.085 91.054 39.08 91.0005L38.745 86.9605C38.7423 86.9325 38.7452 86.9042 38.7536 86.8774C38.762 86.8506 38.7757 86.8257 38.7938 86.8042C38.812 86.7828 38.8343 86.7652 38.8594 86.7525C38.8846 86.7399 38.912 86.7324 38.94 86.7305C38.968 86.7278 38.9963 86.7307 39.0231 86.739C39.05 86.7474 39.0748 86.7611 39.0963 86.7793C39.1177 86.7975 39.1353 86.8198 39.148 86.8449C39.1607 86.87 39.1681 86.8974 39.17 86.9255L39.505 90.9655C39.5092 91.0217 39.4911 91.0774 39.4546 91.1204C39.4181 91.1634 39.3662 91.1904 39.31 91.1955H39.295Z" fill="#FE632F"/>
<path d="M151.78 129.185H48.5401C47.2393 129.16 45.9931 128.658 45.0375 127.775C44.0819 126.893 43.4833 125.69 43.3551 124.395L37.5401 54.5004C37.4779 53.8899 37.5457 53.2732 37.7388 52.6907C37.932 52.1083 38.2462 51.5733 38.6608 51.1209C39.0754 50.6685 39.5811 50.3089 40.1445 50.0658C40.708 49.8227 41.3165 49.7016 41.9301 49.7104H145.165C146.466 49.7358 147.713 50.2372 148.67 51.12C149.626 52.0027 150.226 53.2054 150.355 54.5004L156.17 124.385C156.233 124.997 156.166 125.614 155.973 126.197C155.78 126.781 155.466 127.317 155.052 127.77C154.637 128.223 154.131 128.584 153.567 128.828C153.003 129.072 152.394 129.194 151.78 129.185Z" fill="white"/>
<path d="M151.78 129.385H48.5401C47.1886 129.363 45.8926 128.844 44.8993 127.928C43.906 127.011 43.2851 125.76 43.1551 124.415L37.3401 54.5251C37.2813 53.8874 37.3564 53.2445 37.5605 52.6375C37.7645 52.0305 38.0931 51.4728 38.5251 51.0001C38.9549 50.5243 39.4804 50.1446 40.0672 49.8861C40.654 49.6276 41.2888 49.4961 41.9301 49.5001H145.165C146.522 49.5216 147.823 50.0442 148.818 50.9672C149.813 51.8902 150.432 53.1485 150.555 54.5001L156.365 124.385C156.429 125.022 156.358 125.666 156.156 126.274C155.954 126.882 155.626 127.44 155.193 127.912C154.76 128.384 154.232 128.76 153.644 129.014C153.056 129.267 152.421 129.394 151.78 129.385ZM41.9301 49.9201C41.3432 49.9106 40.7609 50.0256 40.2218 50.2577C39.6826 50.4898 39.1988 50.8336 38.8024 51.2665C38.4059 51.6993 38.1058 52.2114 37.9218 52.7688C37.7378 53.3262 37.6742 53.9163 37.7351 54.5001L43.5501 124.38C43.6737 125.627 44.2514 126.785 45.1733 127.635C46.0952 128.484 47.2969 128.964 48.5501 128.985H151.78C152.366 128.994 152.946 128.878 153.484 128.647C154.022 128.415 154.505 128.072 154.9 127.64C155.296 127.208 155.596 126.698 155.78 126.142C155.965 125.586 156.029 124.998 155.97 124.415L150.155 54.5251C150.032 53.2775 149.455 52.1187 148.533 51.2694C147.611 50.4201 146.409 49.9399 145.155 49.9201H41.9301Z" fill="#FE632F"/>
<path d="M145.165 49.7202H41.93C41.3174 49.7115 40.7098 49.8324 40.1471 50.0749C39.5844 50.3174 39.0793 50.676 38.6648 51.1273C38.2504 51.5786 37.9359 52.1123 37.7421 52.6936C37.5483 53.2748 37.4794 53.8904 37.54 54.5002H150.355C150.223 53.2069 149.623 52.0066 148.666 51.126C147.71 50.2453 146.465 49.7452 145.165 49.7202Z" fill="#FE632F"/>
<path d="M44.345 52.1151C44.3592 52.2469 44.3452 52.3802 44.3039 52.5061C44.2627 52.6321 44.1952 52.7478 44.1058 52.8457C44.0165 52.9436 43.9073 53.0213 43.7856 53.0738C43.6639 53.1263 43.5325 53.1523 43.4 53.1501C43.1191 53.1442 42.8501 53.0357 42.6437 52.845C42.4374 52.6543 42.308 52.3947 42.28 52.1151C42.2666 51.9835 42.2811 51.8506 42.3227 51.725C42.3642 51.5994 42.4318 51.484 42.521 51.3863C42.6102 51.2886 42.719 51.2108 42.8403 51.1581C42.9616 51.1053 43.0927 51.0787 43.225 51.0801C43.5065 51.0839 43.7767 51.1917 43.9835 51.3828C44.1903 51.5739 44.3191 51.8347 44.345 52.1151Z" fill="white"/>
<path d="M48.5451 52.1151C48.5592 52.2469 48.5453 52.3802 48.504 52.5061C48.4628 52.6321 48.3953 52.7478 48.3059 52.8457C48.2166 52.9436 48.1074 53.0213 47.9857 53.0738C47.864 53.1263 47.7326 53.1523 47.6001 53.1501C47.3227 53.1394 47.0585 53.0288 46.8563 52.8385C46.6542 52.6483 46.5276 52.3914 46.5001 52.1151C46.4867 51.9835 46.5012 51.8506 46.5428 51.725C46.5843 51.5994 46.6519 51.484 46.7411 51.3863C46.8303 51.2886 46.9391 51.2108 47.0604 51.1581C47.1817 51.1053 47.3128 51.0787 47.4451 51.0801C47.7231 51.0887 47.9884 51.1987 48.1911 51.3893C48.3937 51.58 48.5196 51.8381 48.5451 52.1151Z" fill="white"/>
<path d="M52.745 52.1151C52.7592 52.2469 52.7452 52.3802 52.704 52.5061C52.6627 52.6321 52.5952 52.7478 52.5058 52.8457C52.4165 52.9436 52.3073 53.0213 52.1857 53.0738C52.064 53.1263 51.9325 53.1523 51.8 53.1501C51.5191 53.1442 51.2501 53.0357 51.0438 52.845C50.8374 52.6543 50.708 52.3947 50.68 52.1151C50.6666 51.9835 50.6812 51.8506 50.7227 51.725C50.7642 51.5994 50.8318 51.484 50.921 51.3863C51.0102 51.2886 51.119 51.2108 51.2403 51.1581C51.3616 51.1053 51.4927 51.0787 51.625 51.0801C51.9065 51.0839 52.1767 51.1917 52.3835 51.3828C52.5903 51.5739 52.7191 51.8347 52.745 52.1151Z" fill="white"/>
<path d="M142.82 120.025H56C54.9659 120.005 53.9748 119.607 53.2145 118.906C52.4542 118.205 51.9776 117.249 51.875 116.22L47.795 67.4998C47.7462 67.0139 47.8009 66.5232 47.9554 66.0599C48.1098 65.5967 48.3606 65.1713 48.6912 64.8119C49.0218 64.4525 49.4247 64.1672 49.8735 63.9746C50.3223 63.7821 50.8067 63.6867 51.295 63.6948H138.13C139.164 63.7142 140.155 64.1122 140.915 64.8135C141.676 65.5148 142.152 66.4706 142.255 67.4998L146.31 116.245C146.355 116.728 146.298 117.215 146.142 117.675C145.987 118.134 145.736 118.556 145.407 118.912C145.078 119.269 144.678 119.552 144.232 119.744C143.786 119.935 143.305 120.031 142.82 120.025Z" fill="#F0F0F0"/>
<path opacity="0.1" d="M115.96 72.2047L89.0601 104.595C88.2146 105.612 87.6455 106.83 87.4078 108.131C87.1701 109.432 87.2717 110.772 87.7029 112.022C88.1341 113.273 88.8803 114.391 89.8694 115.269C90.8586 116.147 92.0574 116.755 93.3501 117.035L137 126.47C138.365 126.766 139.785 126.685 141.108 126.235C142.431 125.785 143.606 124.984 144.508 123.917C145.41 122.851 146.004 121.558 146.227 120.179C146.451 118.8 146.294 117.387 145.775 116.09L129.04 74.2597C128.546 73.0185 127.737 71.9274 126.693 71.0938C125.649 70.2602 124.405 69.7127 123.086 69.5054C121.766 69.298 120.415 69.4379 119.165 69.9112C117.916 70.3845 116.811 71.1749 115.96 72.2047Z" fill="#263238"/>
<path opacity="0.1" d="M56.08 76.7455L46.71 102C46.4294 102.772 46.3486 103.601 46.4751 104.412C46.6016 105.223 46.9313 105.988 47.4334 106.637C47.9356 107.286 48.5939 107.797 49.3469 108.123C50.1 108.449 50.9233 108.579 51.74 108.5L79.105 105.815C79.9759 105.73 80.8075 105.412 81.5124 104.893C82.2172 104.375 82.769 103.676 83.1095 102.87C83.45 102.064 83.5666 101.181 83.447 100.314C83.3274 99.4475 82.9761 98.6291 82.43 97.9455L64.43 75.3955C63.8923 74.7243 63.1861 74.2078 62.3834 73.8988C61.5808 73.5898 60.7106 73.4993 59.8615 73.6365C59.0125 73.7738 58.2151 74.1339 57.5508 74.6801C56.8864 75.2263 56.3789 75.939 56.08 76.7455Z" fill="#263238"/>
<path d="M125.24 64.0503L100.09 100.55C99.3045 101.69 98.8247 103.013 98.6966 104.392C98.5685 105.77 98.7962 107.158 99.3582 108.424C99.9201 109.689 100.797 110.789 101.906 111.618C103.015 112.448 104.318 112.979 105.69 113.16L151.92 119.315C153.374 119.509 154.853 119.304 156.199 118.721C157.546 118.139 158.708 117.202 159.563 116.01C160.418 114.818 160.932 113.416 161.051 111.954C161.171 110.492 160.89 109.025 160.24 107.71L139.16 65.0403C138.534 63.7762 137.589 62.6977 136.418 61.9117C135.247 61.1257 133.89 60.6595 132.484 60.5594C131.077 60.4594 129.668 60.7289 128.397 61.3412C127.127 61.9536 126.038 62.8875 125.24 64.0503Z" fill="#FE632F"/>
<path d="M106.785 109.9C105.95 109.786 105.156 109.468 104.474 108.974C103.792 108.479 103.242 107.823 102.875 107.065C102.496 106.348 102.318 105.542 102.359 104.733C102.401 103.923 102.66 103.139 103.11 102.465L128.325 65.855C128.781 65.202 129.411 64.6905 130.145 64.3792C130.878 64.068 131.684 63.9695 132.47 64.095C133.305 64.2077 134.1 64.5256 134.782 65.0203C135.464 65.515 136.013 66.1712 136.38 66.93L157.5 109.705C157.879 110.422 158.057 111.228 158.016 112.037C157.974 112.847 157.715 113.631 157.265 114.305C156.81 114.959 156.18 115.472 155.447 115.784C154.713 116.097 153.907 116.196 153.12 116.07L106.785 109.9Z" fill="white"/>
<path d="M130.325 77.0354L133.27 77.4254C134.191 77.5553 135.032 78.0195 135.632 78.7296C136.232 79.4397 136.55 80.3459 136.525 81.2754L136.325 85.1154C136.32 85.2547 136.305 85.3934 136.28 85.5304L134.185 97.1054C134.035 97.9032 133.58 98.6109 132.916 99.0778C132.252 99.5447 131.432 99.7341 130.63 99.6054C129.779 99.4845 128.995 99.0792 128.404 98.4555C127.813 97.8318 127.45 97.0264 127.375 96.1704L126.53 84.2104C126.52 84.0723 126.52 83.9336 126.53 83.7954L126.725 79.9504C126.746 79.5136 126.859 79.0862 127.057 78.6961C127.255 78.3061 127.533 77.9622 127.872 77.687C128.212 77.4118 128.607 77.2115 129.029 77.0992C129.452 76.9869 129.893 76.9652 130.325 77.0354ZM130.09 102.815L130.89 102.92C131.714 103.037 132.467 103.452 133.004 104.087C133.542 104.723 133.827 105.534 133.805 106.365C133.787 106.758 133.687 107.142 133.511 107.493C133.334 107.843 133.085 108.153 132.781 108.401C132.476 108.649 132.123 108.829 131.744 108.931C131.364 109.033 130.968 109.053 130.58 108.99L129.78 108.88C128.956 108.765 128.204 108.351 127.666 107.716C127.129 107.082 126.844 106.272 126.865 105.44C126.882 105.048 126.982 104.663 127.158 104.312C127.334 103.961 127.583 103.651 127.888 103.403C128.192 103.155 128.546 102.974 128.926 102.873C129.305 102.772 129.702 102.752 130.09 102.815Z" fill="#FE632F"/>
<path d="M65.75 69.63L58.845 95.815C58.6368 96.6107 58.6339 97.4462 58.8366 98.2433C59.0393 99.0404 59.441 99.773 60.004 100.373C60.5671 100.972 61.2731 101.419 62.0559 101.671C62.8388 101.923 63.6728 101.973 64.48 101.815L91.265 96.59C92.1148 96.4205 92.9039 96.0269 93.5504 95.4498C94.1969 94.8728 94.6774 94.1335 94.9421 93.3083C95.2068 92.4831 95.246 91.6022 95.0558 90.7568C94.8655 89.9114 94.4527 89.1322 93.86 88.5L74 67.525C73.4043 66.8921 72.65 66.4303 71.8154 66.1876C70.9809 65.9449 70.0965 65.9303 69.2544 66.1452C68.4122 66.36 67.643 66.7966 67.0267 67.4095C66.4104 68.0223 65.9696 68.7891 65.75 69.63Z" fill="#FE632F"/>
<path d="M64.425 99.705C63.9332 99.794 63.4269 99.7573 62.9531 99.5982C62.4793 99.4391 62.0534 99.1628 61.715 98.795C61.3659 98.4407 61.1135 98.0027 60.9822 97.5229C60.8509 97.0432 60.845 96.5377 60.965 96.055L67.885 69.8C68.005 69.3412 68.253 68.9261 68.6 68.6029C68.9471 68.2798 69.3788 68.062 69.845 67.975C70.3372 67.8871 70.8437 67.9248 71.3174 68.0848C71.7911 68.2447 72.2168 68.5217 72.555 68.89L92.485 89.89C92.8346 90.2441 93.0876 90.6819 93.2197 91.1616C93.3519 91.6413 93.3589 92.1468 93.24 92.63C93.1192 93.0878 92.8708 93.502 92.5239 93.8242C92.1769 94.1464 91.7455 94.3634 91.28 94.45L64.425 99.705Z" fill="white"/>
<path d="M71.145 75.9654L72.85 75.6304C73.4005 75.5416 73.9644 75.6594 74.4333 75.9612C74.9022 76.2631 75.2429 76.7276 75.39 77.2654L76 79.5504C76.0231 79.6343 76.0415 79.7195 76.055 79.8054L77.14 87.0004C77.2246 87.4848 77.1144 87.983 76.8335 88.3866C76.5526 88.7902 76.1236 89.0665 75.64 89.1554C75.1329 89.2396 74.6122 89.1476 74.1646 88.8947C73.717 88.6418 73.3696 88.2433 73.18 87.7654L70.41 80.9254C70.3764 80.8457 70.348 80.7639 70.325 80.6804L69.695 78.3904C69.6131 78.1359 69.5864 77.8668 69.6168 77.6011C69.6471 77.3354 69.7338 77.0792 69.8711 76.8497C70.0083 76.6202 70.1929 76.4226 70.4126 76.2701C70.6323 76.1176 70.882 76.0137 71.145 75.9654ZM75.97 91.1054L76.435 91.0154C76.9281 90.93 77.4353 91.0326 77.8565 91.3029C78.2777 91.5732 78.5822 91.9916 78.71 92.4754C78.7805 92.7008 78.8027 92.9384 78.7751 93.1729C78.7476 93.4074 78.6709 93.6334 78.5501 93.8363C78.4293 94.0391 78.2672 94.2143 78.0742 94.3502C77.8812 94.4862 77.6617 94.58 77.43 94.6254L76.965 94.7154C76.4726 94.801 75.9659 94.6992 75.5449 94.4299C75.1238 94.1606 74.8188 93.7434 74.69 93.2604C74.6195 93.0348 74.5973 92.7968 74.6248 92.5621C74.6523 92.3273 74.729 92.1009 74.8497 91.8976C74.9704 91.6944 75.1325 91.5188 75.3255 91.3823C75.5186 91.2458 75.7381 91.1515 75.97 91.1054Z" fill="#FE632F"/>
</svg>
