<svg width="225" height="180" viewBox="0 0 225 180" fill="none" xmlns="http://www.w3.org/2000/svg">
<g clip-path="url(#clip0_3024_15727)">
<path d="M113 179.25C162.706 179.25 203 138.956 203 89.25C203 39.5444 162.706 -0.75 113 -0.75C63.2944 -0.75 23 39.5444 23 89.25C23 138.956 63.2944 179.25 113 179.25Z" fill="url(#paint0_linear_3024_15727)"/>
<g filter="url(#filter0_d_3024_15727)">
<rect x="67.2501" y="25.167" width="93.4028" height="116.272" rx="12" fill="url(#paint1_linear_3024_15727)"/>
</g>
<rect x="75.5001" y="40.167" width="37.5" height="7.35" rx="3.675" fill="black"/>
<rect x="75.5001" y="61.0166" width="75" height="7.35" rx="3.675" fill="#D5D5D5"/>
<rect x="75.5001" y="81.8672" width="75" height="7.35" rx="3.675" fill="#D5D5D5"/>
<rect x="75.5001" y="102.717" width="75" height="7.35" rx="3.675" fill="#D5D5D5"/>
<rect x="75.5001" y="123.567" width="75" height="7.35" rx="3.675" fill="#D5D5D5"/>
<g filter="url(#filter1_d_3024_15727)">
<path d="M216.612 12.3174H171.552C169.452 12.3174 167.75 14.1088 167.75 16.3185V38.6079C167.75 40.8177 169.452 42.6091 171.552 42.6091H216.612C218.712 42.6091 220.414 40.8177 220.414 38.6079V16.3185C220.414 14.1088 218.712 12.3174 216.612 12.3174Z" fill="white"/>
</g>
<path d="M179 32.25C181.485 32.25 183.5 30.2353 183.5 27.75C183.5 25.2647 181.485 23.25 179 23.25C176.515 23.25 174.5 25.2647 174.5 27.75C174.5 30.2353 176.515 32.25 179 32.25Z" fill="#A1A1AA"/>
<rect x="189.5" y="23.25" width="24" height="9" rx="4.5" fill="#D5D5D5"/>
<path fill-rule="evenodd" clip-rule="evenodd" d="M139.332 146.672C148.992 146.672 157.97 143.75 165.429 138.741L195.953 167.88L207.024 155.036L177.569 126.918C183.009 119.263 186.207 109.903 186.207 99.7969C186.207 73.9085 165.221 52.9219 139.332 52.9219C113.444 52.9219 92.4572 73.9085 92.4572 99.7969C92.4572 125.685 113.444 146.672 139.332 146.672ZM179.314 99.7972C179.314 121.715 161.546 139.482 139.629 139.482C117.712 139.482 99.9441 121.715 99.9441 99.7972C99.9441 77.8799 117.712 60.1123 139.629 60.1123C161.546 60.1123 179.314 77.8799 179.314 99.7972Z" fill="#A1A1AA"/>
<g filter="url(#filter2_b_3024_15727)">
<path d="M139.625 140.25C162.2 140.25 180.5 122.118 180.5 99.75C180.5 77.3825 162.2 59.25 139.625 59.25C117.05 59.25 98.75 77.3825 98.75 99.75C98.75 122.118 117.05 140.25 139.625 140.25Z" fill="white" fill-opacity="0.3"/>
</g>
<path d="M146.692 99.75L156.584 89.8966C157.511 88.9218 158.019 87.6263 157.999 86.2853C157.98 84.9443 157.436 83.6636 156.482 82.7153C155.528 81.767 154.239 81.2259 152.89 81.2069C151.541 81.1879 150.237 81.6926 149.257 82.6136L139.343 92.467L129.451 82.6136C128.975 82.1129 128.403 81.7122 127.768 81.4351C127.134 81.1581 126.45 81.0103 125.757 81.0005C125.064 80.9908 124.376 81.1192 123.734 81.3783C123.092 81.6374 122.508 82.0219 122.018 82.509C121.528 82.996 121.141 83.5759 120.881 84.2141C120.62 84.8524 120.491 85.5361 120.501 86.2249C120.51 86.9136 120.659 87.5935 120.938 88.2241C121.217 88.8548 121.62 89.4235 122.123 89.8966L132.032 99.75L122.123 109.603C121.62 110.077 121.217 110.645 120.938 111.276C120.659 111.907 120.51 112.586 120.501 113.275C120.491 113.964 120.62 114.648 120.881 115.286C121.141 115.924 121.528 116.504 122.018 116.991C122.508 117.478 123.092 117.863 123.734 118.122C124.376 118.381 125.064 118.509 125.757 118.499C126.45 118.49 127.134 118.342 127.768 118.065C128.403 117.788 128.975 117.387 129.451 116.886L139.365 107.033L149.279 116.886C150.269 117.753 151.554 118.212 152.873 118.17C154.191 118.127 155.444 117.586 156.376 116.658C157.307 115.729 157.847 114.482 157.886 113.172C157.925 111.861 157.459 110.585 156.584 109.603L146.692 99.75Z" fill="black"/>
<path d="M195.951 167.882L207.021 155.038L208.689 156.63C210.306 158.174 211.275 160.331 211.381 162.627C211.488 164.923 210.723 167.169 209.256 168.872C207.788 170.575 205.738 171.594 203.556 171.706C201.375 171.818 199.24 171.013 197.623 169.469L195.955 167.877L195.951 167.882Z" fill="#E1DCEB"/>
<path fill-rule="evenodd" clip-rule="evenodd" d="M42.7358 45.8785C42.7217 44.8089 42.5876 43.7302 42.3192 42.6441C41.3782 38.8325 37.1798 36.3855 32.7113 35.8102C28.2445 35.2348 23.5995 36.5441 21.8092 39.8596C20.7852 41.7552 20.644 43.389 21.0624 44.7665C21.4791 46.1366 22.4677 47.2725 23.8095 48.1576C27.5506 50.6231 34.1025 51.1265 37.0915 50.0957C38.4739 49.6181 39.8245 49.0428 41.1398 48.3845C40.3877 52.6939 37.5858 56.7765 33.8465 60.4553C25.7198 68.4509 13.1088 74.5195 6.24092 76.7508C5.87193 76.8706 5.66711 77.28 5.78187 77.6654C5.89663 78.0508 6.28857 78.2665 6.65756 78.1467C13.6613 75.8712 26.5178 69.6735 34.8052 61.5193C39.0865 57.3076 42.1373 52.5667 42.6582 47.5823C52.3367 42.1812 60.285 32.3822 67.0805 24.1358C67.333 23.8315 67.2994 23.3687 67.0064 23.105C66.7133 22.8431 66.2719 22.8763 66.0194 23.1824C59.5011 31.0914 51.9359 40.4995 42.7358 45.8785ZM41.3288 46.6622C41.3817 45.4599 41.2687 44.2391 40.9632 43.0073C40.1493 39.7084 36.4082 37.7575 32.54 37.2596C30.1689 36.9553 27.7308 37.2061 25.8187 38.0986C24.6164 38.6592 23.6259 39.4724 23.0292 40.5788C22.2453 42.03 22.0758 43.271 22.3971 44.324C22.7184 45.3843 23.5165 46.2362 24.5564 46.9203C27.9656 49.1681 33.9312 49.6458 36.6519 48.7072C38.2567 48.154 39.814 47.4643 41.3288 46.6622Z" fill="black"/>
<circle cx="214.25" cy="115.5" r="4.5" fill="#E3E3E3"/>
<path fill-rule="evenodd" clip-rule="evenodd" d="M44.2883 146.545C45.0914 146.243 45.9365 145.843 46.5882 145.264C47.3622 144.575 47.6769 143.689 47.8883 142.756C48.1597 141.557 48.2681 140.28 48.5972 139.079C48.7191 138.634 48.9536 138.465 49.0542 138.39C49.3085 138.201 49.5655 138.151 49.8074 138.17C50.094 138.192 50.4877 138.306 50.7466 138.811C50.7836 138.884 50.8315 138.994 50.8638 139.145C50.8874 139.256 50.9026 139.602 50.9275 139.745C50.9898 140.097 51.042 140.448 51.0909 140.802C51.2538 141.979 51.3475 142.978 51.8622 144.06C52.5605 145.527 53.2602 146.426 54.2091 146.823C55.1266 147.208 56.2237 147.136 57.6254 146.834C57.7588 146.8 57.8908 146.771 58.0214 146.747C58.6394 146.633 59.2302 147.06 59.3515 147.708C59.4729 148.356 59.0802 148.987 58.4677 149.129C58.3399 149.159 58.2139 149.187 58.0892 149.213C56.1951 149.706 54.0023 151.467 52.728 153.01C52.3352 153.485 51.7602 154.815 51.1735 155.663C50.7406 156.288 50.2542 156.701 49.8457 156.846C49.572 156.944 49.3412 156.929 49.1506 156.88C48.8737 156.808 48.6439 156.65 48.4676 156.399C48.3716 156.261 48.2825 156.077 48.24 155.842C48.2197 155.729 48.2174 155.442 48.2179 155.311C48.0983 154.879 47.952 154.456 47.8454 154.019C47.5911 152.977 47.0922 152.318 46.4995 151.446C45.9452 150.631 45.3499 150.119 44.4771 149.71C44.3636 149.68 43.4474 149.444 43.1239 149.309C42.6512 149.11 42.426 148.777 42.3443 148.598C42.2054 148.294 42.1911 148.028 42.2188 147.807C42.2599 147.48 42.3992 147.2 42.6466 146.974C42.7999 146.834 43.0288 146.698 43.3353 146.631C43.572 146.579 44.2001 146.549 44.2883 146.545ZM49.6629 144.846C49.7054 144.946 49.7506 145.046 49.7986 145.147C50.8214 147.297 51.9651 148.497 53.3552 149.08L53.4019 149.099C52.4719 149.825 51.63 150.637 50.9866 151.416C50.7217 151.736 50.3709 152.402 49.992 153.085C49.6477 151.907 49.0846 151.075 48.3766 150.033C47.8357 149.238 47.2689 148.64 46.5725 148.152C47.1129 147.86 47.6285 147.518 48.0775 147.119C48.8252 146.454 49.3195 145.683 49.6629 144.846Z" fill="#A1A1AA"/>
</g>
<defs>
<filter id="filter0_d_3024_15727" x="37.2501" y="15.167" width="153.403" height="176.271" filterUnits="userSpaceOnUse" color-interpolation-filters="sRGB">
<feFlood flood-opacity="0" result="BackgroundImageFix"/>
<feColorMatrix in="SourceAlpha" type="matrix" values="0 0 0 0 0 0 0 0 0 0 0 0 0 0 0 0 0 0 127 0" result="hardAlpha"/>
<feOffset dy="20"/>
<feGaussianBlur stdDeviation="15"/>
<feComposite in2="hardAlpha" operator="out"/>
<feColorMatrix type="matrix" values="0 0 0 0 0.570833 0 0 0 0 0.570833 0 0 0 0 0.570833 0 0 0 0.19 0"/>
<feBlend mode="normal" in2="BackgroundImageFix" result="effect1_dropShadow_3024_15727"/>
<feBlend mode="normal" in="SourceGraphic" in2="effect1_dropShadow_3024_15727" result="shape"/>
</filter>
<filter id="filter1_d_3024_15727" x="162.5" y="5.56738" width="72.1642" height="49.792" filterUnits="userSpaceOnUse" color-interpolation-filters="sRGB">
<feFlood flood-opacity="0" result="BackgroundImageFix"/>
<feColorMatrix in="SourceAlpha" type="matrix" values="0 0 0 0 0 0 0 0 0 0 0 0 0 0 0 0 0 0 127 0" result="hardAlpha"/>
<feOffset dx="4.5" dy="3"/>
<feGaussianBlur stdDeviation="4.875"/>
<feComposite in2="hardAlpha" operator="out"/>
<feColorMatrix type="matrix" values="0 0 0 0 0.104618 0 0 0 0 0.465612 0 0 0 0 0.545833 0 0 0 0.09 0"/>
<feBlend mode="normal" in2="BackgroundImageFix" result="effect1_dropShadow_3024_15727"/>
<feBlend mode="normal" in="SourceGraphic" in2="effect1_dropShadow_3024_15727" result="shape"/>
</filter>
<filter id="filter2_b_3024_15727" x="90.75" y="51.25" width="97.75" height="97" filterUnits="userSpaceOnUse" color-interpolation-filters="sRGB">
<feFlood flood-opacity="0" result="BackgroundImageFix"/>
<feGaussianBlur in="BackgroundImageFix" stdDeviation="4"/>
<feComposite in2="SourceAlpha" operator="in" result="effect1_backgroundBlur_3024_15727"/>
<feBlend mode="normal" in="SourceGraphic" in2="effect1_backgroundBlur_3024_15727" result="shape"/>
</filter>
<linearGradient id="paint0_linear_3024_15727" x1="112.306" y1="-30.0562" x2="114.15" y2="286.01" gradientUnits="userSpaceOnUse">
<stop stop-color="#F2F2F2"/>
<stop offset="1" stop-color="#EFEFEF"/>
</linearGradient>
<linearGradient id="paint1_linear_3024_15727" x1="113.951" y1="25.167" x2="113.951" y2="141.439" gradientUnits="userSpaceOnUse">
<stop stop-color="white"/>
<stop offset="0.71875" stop-color="#FAFAFA"/>
</linearGradient>
<clipPath id="clip0_3024_15727">
<rect width="225" height="180" fill="white"/>
</clipPath>
</defs>
</svg>
