<svg width="326" height="209" viewBox="0 0 326 209" fill="none" xmlns="http://www.w3.org/2000/svg">
<g style="mix-blend-mode:multiply" opacity="0.5">
<mask id="mask0_3111_9010" style="mask-type:alpha" maskUnits="userSpaceOnUse" x="0" y="0" width="326" height="209">
<rect x="0.5" width="325" height="209" rx="16" fill="white"/>
</mask>
<g mask="url(#mask0_3111_9010)">
<g opacity="0.7">
<path d="M219.23 -144V-30.2775C219.23 -25.6527 215.144 -21.9067 210.1 -21.9067C207.73 -21.9067 205.611 -22.6929 203.997 -24.0341C203.846 -24.1266 203.745 -24.2653 203.594 -24.3578C203.543 -24.4041 203.493 -24.4503 203.442 -24.4966L172.625 -52.1525L172.322 -52.43C170.002 -54.4649 167.026 -55.5286 164.05 -55.5286C161.075 -55.5286 158.048 -54.4649 155.728 -52.43L155.426 -52.1525L124.81 -24.6353C124.81 -24.6353 124.759 -24.5891 124.709 -24.5891L124.356 -24.2653L123.801 -23.7566C122.187 -22.5542 120.169 -21.8604 118.001 -21.8604C113.007 -21.8604 108.922 -25.514 108.871 -30.0925V-144H52.9357C22.0677 -144 -3 -121.015 -3 -92.7116V198H-1.83993C48.0432 198 90.2093 167.754 104.029 126.224C107.156 116.836 108.871 106.846 108.871 96.4868V91.7233H97.2706C92.2773 91.7233 88.2422 88.0235 88.2422 83.445C88.2422 81.6876 88.8475 80.069 89.8562 78.7278C90.1589 78.3116 90.4615 77.9416 90.865 77.6178C90.865 77.6178 90.865 77.5716 90.9659 77.5254L103.777 66.0097L108.821 61.4775L155.526 19.5773L155.728 19.3923C158.048 17.3112 161.024 16.2937 164.05 16.2937C167.077 16.2937 170.053 17.3112 172.322 19.3923L172.474 19.5773L219.179 61.4775L224.273 66.0097L237.185 77.6178C237.185 77.6178 237.286 77.6641 237.286 77.7103C237.639 78.0341 237.892 78.3578 238.194 78.6815C239.253 80.0227 239.808 81.6414 239.808 83.3988C239.808 87.9773 235.773 91.6771 230.78 91.6771H219.179V96.4406C219.179 106.708 220.844 116.604 223.92 125.946C223.92 126.039 223.971 126.085 223.971 126.178C234.714 158.412 262.505 183.848 297.66 193.607C307.799 196.428 318.643 197.954 329.789 197.954H331V-92.7116C331 -121.015 305.932 -144 275.064 -144H219.129H219.23Z" fill="url(#paint0_linear_3111_9010)" style="mix-blend-mode:soft-light"/>
</g>
</g>
</g>
<defs>
<linearGradient id="paint0_linear_3111_9010" x1="164" y1="5.10082" x2="164" y2="198" gradientUnits="userSpaceOnUse">
<stop stop-color="white" stop-opacity="0"/>
<stop offset="1" stop-color="#D9DDE3"/>
</linearGradient>
</defs>
</svg>
