<svg width="466" height="282" viewBox="0 0 466 282" fill="none" xmlns="http://www.w3.org/2000/svg">
<path d="M279.412 0.680664H160.432C156.503 0.680664 153.317 3.86594 153.317 7.79517V95.3036C153.317 99.2328 156.503 102.418 160.432 102.418H279.412C283.341 102.418 286.526 99.2328 286.526 95.3036V7.79517C286.526 3.86594 283.341 0.680664 279.412 0.680664Z" fill="#F2F6FB"/>
<path d="M222.082 80.4666C236.986 71.8615 242.091 52.8 233.484 37.8916C224.876 22.9832 205.816 17.8734 190.912 26.4786C176.007 35.0837 170.902 54.1452 179.51 69.0536C188.117 83.962 207.177 89.0717 222.082 80.4666ZM214.456 67.2579C206.844 71.6524 197.11 69.0429 192.715 61.4295C188.319 53.8161 190.926 44.0818 198.538 39.6873C206.149 35.2928 215.883 37.9023 220.278 45.5157C224.674 53.1291 222.067 62.8634 214.456 67.2579Z" fill="#E1E5F0"/>
<path d="M187.058 19.9282C168.632 30.5664 162.321 54.1315 172.962 72.5621C183.603 90.9928 207.167 97.3099 225.593 86.6716C244.018 76.0334 250.329 52.4684 239.689 34.0377L226.572 41.6104C233.03 52.7953 229.2 67.0961 218.018 73.552C206.836 80.008 192.536 76.1744 186.078 64.9895C179.621 53.8046 183.451 39.5038 194.633 33.0478L187.058 19.9282Z" fill="white"/>
<mask id="mask0_839_9377" style="mask-type:luminance" maskUnits="userSpaceOnUse" x="167" y="19" width="78" height="73">
<path d="M187.058 19.9272C168.632 30.5655 162.321 54.1305 172.962 72.5612C183.603 90.9919 207.166 97.3089 225.592 86.6707C244.018 76.0324 250.329 52.4674 239.688 34.0367L226.572 41.6094C233.03 52.7943 229.2 67.0951 218.018 73.5511C206.836 80.007 192.536 76.1734 186.078 64.9885C179.621 53.8036 183.451 39.5028 194.633 33.0469L187.058 19.9272Z" fill="white"/>
</mask>
<g mask="url(#mask0_839_9377)">
<path d="M187.719 19.8429C167.299 26.7875 160.56 55.0495 171.201 73.4802C181.842 91.9108 214.239 98.342 226.253 86.5863L218.769 72.6263C207.537 79.111 193.107 76.141 186.649 64.9561C180.192 53.7712 184.062 39.4471 195.294 32.9625L187.719 19.8429Z" fill="#474BFF"/>
</g>
<path d="M264.878 35.958H256.618C256.225 35.958 255.906 36.2765 255.906 36.6695V44.8126C255.906 45.2056 256.225 45.5241 256.618 45.5241H264.878C265.271 45.5241 265.59 45.2056 265.59 44.8126V36.6695C265.59 36.2765 265.271 35.958 264.878 35.958Z" fill="#474BFF"/>
<path d="M264.878 49.9658H256.618C256.225 49.9658 255.906 50.2843 255.906 50.6773V58.8205C255.906 59.2134 256.225 59.5319 256.618 59.5319H264.878C265.271 59.5319 265.59 59.2134 265.59 58.8205V50.6773C265.59 50.2843 265.271 49.9658 264.878 49.9658Z" fill="white"/>
<path d="M264.878 63.9727H256.618C256.225 63.9727 255.906 64.2912 255.906 64.6841V72.8273C255.906 73.2202 256.225 73.5387 256.618 73.5387H264.878C265.271 73.5387 265.59 73.2202 265.59 72.8273V64.6841C265.59 64.2912 265.271 63.9727 264.878 63.9727Z" fill="#E1E5F0"/>
<path d="M153.317 6.43445C153.317 3.25672 155.894 0.680664 159.072 0.680664H280.248C283.426 0.680664 286.003 3.25602 286.003 6.43445V12.1882H153.317V6.43445Z" fill="#E1E5F0"/>
<path d="M463.866 143.668H329.046C327.867 143.668 326.912 144.624 326.912 145.802V246.117C326.912 247.296 327.867 248.251 329.046 248.251H463.866C465.045 248.251 466 247.296 466 246.117V145.802C466 144.624 465.045 143.668 463.866 143.668Z" fill="#F2F6FB"/>
<path d="M386.443 186.686H406.469V194.132C406.469 194.919 405.831 195.558 405.045 195.558H387.867C387.08 195.558 386.443 194.92 386.443 194.132V186.686Z" fill="#E1E5F0"/>
<path d="M354.345 225.938H374.372V233.384C374.372 234.171 373.734 234.81 372.948 234.81H355.769C354.983 234.81 354.345 234.172 354.345 233.384V225.938Z" fill="#E1E5F0"/>
<path d="M386.443 225.938H406.469V233.384C406.469 234.171 405.831 234.81 405.045 234.81H387.867C387.08 234.81 386.443 234.172 386.443 233.384V225.938Z" fill="#E1E5F0"/>
<path d="M418.814 225.938H438.841V233.384C438.841 234.171 438.203 234.81 437.417 234.81H420.238C419.452 234.81 418.814 234.172 418.814 233.384V225.938Z" fill="#E1E5F0"/>
<path d="M386.443 171.705C386.443 170.921 387.081 170.285 387.867 170.285H405.045C405.831 170.285 406.469 170.922 406.469 171.705V188.482H386.443V171.705ZM354.345 210.781C354.345 209.993 354.983 209.355 355.769 209.355H372.948C373.734 209.355 374.372 209.99 374.372 210.781V227.819H354.345V210.781ZM386.443 210.781C386.443 209.993 387.081 209.355 387.867 209.355H405.045C405.831 209.355 406.469 209.99 406.469 210.781V227.819H386.443V210.781ZM418.814 210.781C418.814 209.993 419.452 209.355 420.238 209.355H437.417C438.203 209.355 438.841 209.99 438.841 210.781V227.819H418.814V210.781Z" fill="#474BFF"/>
<path d="M428.416 209.537V208.426V204.064C428.416 203.674 428.099 203.354 427.707 203.354H366.027C365.636 203.354 365.319 203.673 365.319 204.066V209.537H363.398V203.252C363.398 202.269 364.197 201.472 365.18 201.472H428.554C429.539 201.472 430.336 202.265 430.336 203.251V205.373V209.537H428.416Z" fill="#E1E5F0"/>
<path d="M397.416 195.557H395.496V209.537H397.416V195.557Z" fill="#E1E5F0"/>
<path d="M326.912 149.584C326.912 146.317 329.558 143.669 332.827 143.669H460.085C463.352 143.669 466 146.316 466 149.584V155.498H326.912V149.584Z" fill="#E1E5F0"/>
<path d="M335.004 152.271C336.444 152.271 337.611 151.128 337.611 149.717C337.611 148.307 336.444 147.163 335.004 147.163C333.565 147.163 332.398 148.307 332.398 149.717C332.398 151.128 333.565 152.271 335.004 152.271Z" fill="#FF5645"/>
<path d="M343.509 152.271C344.948 152.271 346.115 151.128 346.115 149.717C346.115 148.307 344.948 147.163 343.509 147.163C342.07 147.163 340.903 148.307 340.903 149.717C340.903 151.128 342.07 152.271 343.509 152.271Z" fill="#FFCB3D"/>
<path d="M352.288 152.271C353.727 152.271 354.894 151.128 354.894 149.717C354.894 148.307 353.727 147.163 352.288 147.163C350.848 147.163 349.681 148.307 349.681 149.717C349.681 151.128 350.848 152.271 352.288 152.271Z" fill="#3ABF7C"/>
<path d="M114.188 82.4863H2.13435C0.955582 82.4863 0 83.4419 0 84.6207V169.639C0 170.818 0.955582 171.773 2.13435 171.773H114.188C115.367 171.773 116.322 170.818 116.322 169.639V84.6207C116.322 83.4419 115.367 82.4863 114.188 82.4863Z" fill="#F2F6FB"/>
<path d="M92.8915 130.458H96.6193C98.205 130.458 98.78 130.623 99.3597 130.933C99.9394 131.243 100.394 131.698 100.704 132.278C101.014 132.858 101.18 133.433 101.18 135.018V171.773H88.3313V135.018C88.3313 133.433 88.4964 132.858 88.8064 132.278C89.1165 131.698 89.5714 131.243 90.1511 130.933C90.7308 130.623 91.3058 130.458 92.8915 130.458Z" fill="#D8DEED"/>
<path d="M78.2079 140.328H82.1652C83.7508 140.328 84.3258 140.493 84.9055 140.803C85.4852 141.113 85.9402 141.568 86.2502 142.148C86.5602 142.728 86.7253 143.303 86.7253 144.888V171.774H73.6477V144.888C73.6477 143.303 73.8128 142.728 74.1228 142.148C74.4329 141.568 74.8878 141.113 75.4675 140.803C76.0472 140.493 76.6222 140.328 78.2079 140.328Z" fill="#D8DEED"/>
<path d="M63.7536 109.571H67.4814C69.067 109.571 69.6421 109.736 70.2218 110.046C70.8015 110.356 71.2564 110.811 71.5664 111.391C71.8765 111.971 72.0416 112.546 72.0416 114.131V171.774H59.1934V114.131C59.1934 112.546 59.3585 111.971 59.6685 111.391C59.9785 110.811 60.4335 110.356 61.0132 110.046C61.5929 109.736 62.1679 109.571 63.7536 109.571Z" fill="#E1E5F0"/>
<path d="M49.07 117.605H52.7978C54.3835 117.605 54.9585 117.771 55.5382 118.081C56.1179 118.391 56.5728 118.846 56.8828 119.425C57.1929 120.005 57.358 120.58 57.358 122.166V171.774H44.5098V122.166C44.5098 120.58 44.6749 120.005 44.9849 119.425C45.2949 118.846 45.7499 118.391 46.3296 118.081C46.9093 117.771 47.4843 117.605 49.07 117.605Z" fill="#D8DEED"/>
<path d="M34.6156 136.427H38.3434C39.9291 136.427 40.5041 136.592 41.0838 136.902C41.6635 137.212 42.1185 137.667 42.4285 138.247C42.7385 138.826 42.9036 139.401 42.9036 140.987V171.774H30.0554V140.987C30.0554 139.401 30.2205 138.826 30.5305 138.247C30.8406 137.667 31.2955 137.212 31.8752 136.902C32.4549 136.592 33.0299 136.427 34.6156 136.427Z" fill="#D8DEED"/>
<path d="M19.932 127.016H23.6598C25.2455 127.016 25.8205 127.181 26.4002 127.491C26.9799 127.801 27.4349 128.256 27.7449 128.835C28.0549 129.415 28.22 129.99 28.22 131.576V171.774H15.3718V131.576C15.3718 129.99 15.5369 129.415 15.847 128.835C16.157 128.256 16.6119 127.801 17.1916 127.491C17.7713 127.181 18.3463 127.016 19.932 127.016Z" fill="#D8DEED"/>
<path d="M260.035 246.829H108.141C104.211 246.829 101.026 250.014 101.026 253.944V274.22C101.026 278.149 104.211 281.334 108.141 281.334H260.035C263.965 281.334 267.15 278.149 267.15 274.22V253.944C267.15 250.014 263.965 246.829 260.035 246.829Z" fill="#D8DEED"/>
<path d="M229.443 259.279H250.786C251.923 259.279 252.934 259.533 253.777 259.997C254.62 260.462 255.296 261.137 255.76 261.98C256.224 262.823 256.478 263.834 256.478 264.971C256.478 266.107 256.224 267.119 255.76 267.962C255.296 268.805 254.62 269.48 253.777 269.945C252.934 270.409 251.923 270.663 250.786 270.663H229.443C228.306 270.663 227.295 270.409 226.452 269.945C225.609 269.48 224.934 268.805 224.469 267.962C224.005 267.119 223.751 266.107 223.751 264.971C223.751 263.834 224.005 262.823 224.469 261.98C224.934 261.137 225.609 260.462 226.452 259.997C227.295 259.533 228.306 259.279 229.443 259.279Z" fill="#474BFF"/>
<path d="M210.59 259.279H115.967C115.181 259.279 114.544 259.916 114.544 260.702V269.24C114.544 270.025 115.181 270.663 115.967 270.663H210.59C211.375 270.663 212.012 270.025 212.012 269.24V260.702C212.012 259.916 211.375 259.279 210.59 259.279Z" fill="white"/>
<path d="M294.54 123.396H166.479C162.55 123.396 159.364 126.582 159.364 130.511V222.288C159.364 226.217 162.55 229.403 166.479 229.403H294.54C298.469 229.403 301.654 226.217 301.654 222.288V130.511C301.654 126.582 298.469 123.396 294.54 123.396Z" fill="#F2F6FB"/>
<path d="M181.971 166.038C174.88 166.038 169.132 160.285 169.132 153.189C169.132 146.093 174.88 140.34 181.971 140.34C189.061 140.34 194.809 146.093 194.809 153.189C194.809 160.285 189.061 166.038 181.971 166.038ZM181.964 153.015C183.712 153.015 185.13 151.616 185.13 149.89C185.13 148.164 183.712 146.764 181.964 146.764C180.216 146.764 178.798 148.164 178.798 149.89C178.798 151.616 180.216 153.015 181.964 153.015ZM181.964 154.578C178.795 154.578 176.226 157.114 176.226 160.243H187.702C187.702 157.114 185.133 154.578 181.964 154.578ZM181.971 213.58C174.88 213.58 169.132 207.828 169.132 200.731C169.132 193.635 174.88 187.882 181.971 187.882C189.061 187.882 194.809 193.635 194.809 200.731C194.809 207.828 189.061 213.58 181.971 213.58ZM181.964 200.558C183.712 200.558 185.13 199.158 185.13 197.432C185.13 195.706 183.712 194.307 181.964 194.307C180.216 194.307 178.798 195.706 178.798 197.432C178.798 199.158 180.216 200.558 181.964 200.558ZM181.964 202.12C178.795 202.12 176.226 204.657 176.226 207.785H187.702C187.702 204.657 185.133 202.12 181.964 202.12ZM201.94 198.161H269.844C270.237 198.161 270.556 198.48 270.556 198.873V202.59C270.556 202.983 270.237 203.301 269.844 203.301H201.94C201.547 203.301 201.228 202.983 201.228 202.59V198.873C201.228 198.48 201.547 198.161 201.94 198.161ZM201.94 206.513H263.425C263.818 206.513 264.137 206.832 264.137 207.225V210.942C264.137 211.335 263.818 211.653 263.425 211.653H201.94C201.547 211.653 201.228 211.335 201.228 210.942V207.225C201.228 206.832 201.547 206.513 201.94 206.513Z" fill="#D8DEED"/>
<path d="M271.662 140.341H202.652C201.866 140.341 201.229 140.978 201.229 141.764V177.466C201.229 178.251 201.866 178.888 202.652 178.888H271.662C272.448 178.888 273.085 178.251 273.085 177.466V141.764C273.085 140.978 272.448 140.341 271.662 140.341Z" fill="#3ABF7C"/>
<path fill-rule="evenodd" clip-rule="evenodd" d="M237.734 166.007L237.06 166.016L237.065 166.007H228.235C227.84 166.007 227.688 165.739 227.896 165.404L234.031 155.545C234.239 155.212 234.583 155.21 234.799 155.536L239.296 162.415L240.913 159.811C241.12 159.478 241.467 159.467 241.693 159.795L245.441 165.243C245.665 165.568 245.53 165.841 245.133 165.853L242.01 165.95L241.495 165.957L241.524 166.007C241.524 166.007 241.206 166.007 240.811 166.007H237.734ZM241.436 156.856C240.61 156.856 239.939 156.179 239.939 155.344C239.939 154.51 240.61 153.833 241.436 153.833C242.263 153.833 242.934 154.51 242.934 155.344C242.934 156.179 242.263 156.856 241.436 156.856Z" fill="white"/>
<path d="M277.548 189.808H201.94C201.547 189.808 201.229 190.126 201.229 190.519V194.236C201.229 194.629 201.547 194.947 201.94 194.947H277.548C277.941 194.947 278.259 194.629 278.259 194.236V190.519C278.259 190.126 277.941 189.808 277.548 189.808Z" fill="#E1E5F0"/>
</svg>
