<svg width="379" height="253" viewBox="0 0 379 253" fill="none" xmlns="http://www.w3.org/2000/svg">
<path d="M376.945 245.449H348.848C348.19 245.449 347.614 244.975 347.614 244.406V244.026C347.614 243.457 348.163 242.982 348.848 242.982H376.945C377.603 242.982 378.179 243.457 378.179 244.026V244.406C378.179 244.975 377.63 245.449 376.945 245.449ZM307.456 242.982C308.137 242.982 308.69 243.535 308.69 244.216C308.69 244.897 308.137 245.449 307.456 245.449H262.775C262.094 245.449 261.542 244.897 261.542 244.216C261.542 243.535 262.094 242.982 262.775 242.982H307.456Z" fill="#FB923C"/>
<path d="M307.593 242.989C307.549 242.985 307.504 242.982 307.459 242.982H262.969C262.94 242.832 262.925 242.643 262.929 242.398C262.96 242.207 262.964 241.988 263.022 241.769C263.374 240.459 263.801 239.59 265.048 238.816C266.295 238.043 267.568 237.352 268.895 236.745C273.788 234.445 275.46 234.474 278.677 232.365C280.008 231.483 281.232 230.463 282.375 229.359C283.138 228.623 284.694 227.427 287.044 225.771L307.593 226.244V242.989ZM377.049 242.986C377.016 242.984 376.982 242.982 376.948 242.982H348.945L351.427 227.463L369.848 225.355L377.049 242.986Z" fill="#474961"/>
<path d="M315.96 74.5683C316.898 73.5107 317.946 72.5333 319.099 71.6544C322.449 70.3955 328.842 69.0645 333.404 70.5176C338.739 72.217 342.031 76.8641 342.031 76.8641C342.031 76.8641 342.813 76.0497 350.973 98.8394C356.413 114.033 361.691 134.621 366.808 160.604C367.298 163.513 370.126 179.923 375.29 209.834C375.294 209.858 375.298 209.883 375.302 209.908C375.519 211.406 374.48 212.796 372.982 213.013L344.41 217.15C343.035 217.349 341.728 216.487 341.369 215.145C337.806 201.819 335.879 194.535 335.589 193.292C334.965 190.811 334.351 188.001 333.715 184.782L328.716 160.613C328.667 160.378 328.572 159.618 328.431 158.332C326.099 149.779 324.105 142.465 322.448 136.391C321.117 141.503 319.676 146.984 318.126 152.834C317.373 185.639 316.811 204.294 316.439 208.799C316.381 209.496 316.198 212.061 315.89 216.495C315.787 217.984 314.512 219.116 313.022 219.043L283.567 217.601C282.165 217.532 281.041 216.416 280.964 215.014C279.662 191.377 280.524 169.141 283.55 148.309C288.248 115.974 295.347 102.762 299.581 90.3238C299.628 90.1756 302.987 84.8563 309.658 74.3658C311.977 74.3794 314.078 74.447 315.96 74.5683Z" fill="#FFCB3D"/>
<path opacity="0.2" d="M311.87 81.6035C310.316 85.8235 310.051 90.5097 311.284 95.0417C313.012 101.39 314.74 107.739 316.468 114.088C316.468 114.088 318.474 121.443 322.485 136.153C321.144 141.332 319.691 146.893 318.126 152.833C317.353 185.535 316.781 204.139 316.409 208.644C316.156 211.71 315.966 214.315 315.84 216.459C315.752 217.961 314.468 219.111 312.965 219.035L283.484 217.546C282.081 217.475 280.959 216.355 280.885 214.953C279.635 191.354 280.524 169.139 283.55 148.308C288.248 115.974 295.262 102.702 299.497 90.2646C299.535 90.1451 305.585 85.5619 311.87 81.6035Z" fill="#8C2A00"/>
<path d="M309.473 29.8007C310.065 29.5826 310.653 29.398 311.225 29.2415L311.112 27.1857C311.095 26.8864 311.322 26.6293 311.621 26.6085L324.481 25.7132C324.783 25.6925 325.045 25.9201 325.066 26.222L325.148 27.383C332.163 26.5259 336.258 26.3302 337.433 26.7958C348.335 31.115 350.138 49.8672 350.08 55.5718C350.065 57.1016 347.62 58.4748 342.746 59.6912C343.277 64.8765 343.59 67.806 343.771 69.3277C343.771 69.3277 343.768 69.5971 343.829 69.9957C343.984 71.1668 306.946 82.6315 306.946 82.6315C306.918 82.6071 306.892 82.6093 306.892 82.6093C306.892 82.6093 306.366 82.5205 305.716 82.2002C305.393 82.0668 305.065 81.8799 304.731 81.6129C302.254 79.6747 301.855 74.8364 301.803 73.6562C301.77 73.2822 301.744 72.9883 301.744 72.9883C301.642 71.2277 301.394 67.6632 300.902 61.0135C299.145 61.7706 297.231 62.5405 295.158 63.3232L295.234 35.9668C295.24 34.0107 296.4 32.2426 298.193 31.4593C302.183 29.7159 305.943 29.163 309.473 29.8007Z" fill="#FB923C"/>
<path d="M307.521 226.366L302.641 226.254L287.044 225.771L287.843 217.739L307.727 218.705L307.521 226.366ZM348.861 216.447L368.253 213.646L369.848 225.355L351.427 227.463L348.861 216.447ZM324.081 15.6412V25.774L313.464 26.4987L313.612 24.2894C312.095 24.676 312.183 24.6306 312.037 24.6626C310.274 24.9162 308.807 24.7086 308.54 24.6261C307.568 24.4427 306.618 23.5234 305.837 22.0475C304.778 20.0779 303.964 17.0948 303.728 13.5978C303.67 13.0997 303.695 12.61 303.719 12.1204L304.123 7.26837C304.21 6.18381 304.57 5.12768 305.219 4.21098C305.483 3.80103 305.738 3.47221 306.042 3.20316C309.321 -0.173392 314.444 0.907509 315.356 1.13936C315.463 1.17778 315.572 1.18914 315.678 1.22756C316.658 1.60315 317.603 1.78376 318.555 1.91029C318.991 1.95576 319.305 2.37132 319.259 2.804L318.498 9.72415C318.761 9.58748 322.895 7.94034 324.047 8.77136C324.998 9.46698 325.402 13.8112 324.081 15.6412ZM301.964 76.8385L302.245 76.5913C302.372 76.5913 302.445 76.5979 302.468 76.611L325.196 66.3535L325.664 62.2192C335.725 61.1302 342.684 59.8452 346.541 58.364C346.608 68.9963 345.824 75.1125 344.189 76.7127C340.48 80.3409 321.171 89.3068 301.841 91.7272C297.52 93.6423 290.374 95.0369 280.401 95.9111C277.556 94.0915 276.027 90.9132 275.816 86.3763L282.741 83.9945C282.461 83.8983 282.317 83.8265 282.317 83.8265C280.819 80.4035 299.802 77.3743 302.224 76.7212L301.964 76.8385ZM296.292 62.6641C286.959 66.9604 271.932 70.2273 267.916 65.5468C262.656 59.4181 261.964 42.7307 265.839 15.4845C257.381 13.6112 251.523 11.575 248.264 9.37573C247.382 8.78046 246.864 7.7793 246.889 6.71803C246.929 4.99449 248.364 3.62999 250.094 3.67034C258.376 3.86349 263.625 3.84759 265.839 3.62264C265.894 3.617 265.95 3.61175 266.005 3.60687C272.722 3.01688 278.648 7.96438 279.24 14.6574L281.78 43.366L295.228 36.8976L295.214 63.0751C295.578 62.9377 295.938 62.8007 296.292 62.6641Z" fill="#DB9E75"/>
<path opacity="0.176986" d="M309.265 29.7491C306.803 30.6831 304.293 32.2007 302.615 34.6662C302.133 35.3812 301.528 36.457 301.117 37.9736C301.059 38.1941 300.998 38.3878 300.939 38.6083C300.799 39.0782 300.498 40.0737 300.255 41.1448C299.998 42.3518 299.887 44.6231 299.93 47.7694L299.937 47.8496L300.001 49.1633C300.36 53.9205 300.652 57.8205 300.887 61.0064C299.143 61.7597 297.24 62.5254 295.179 63.3035L295.237 35.9568C295.241 34.0056 296.394 32.24 298.18 31.4526C302.093 29.7266 305.788 29.1588 309.265 29.7491Z" fill="#444444"/>
<path d="M313.616 24.3536L317.822 23.3046L313.464 26.5923L313.616 24.3536Z" fill="#482D1F"/>
<path d="M321.757 16.7712L321.782 16.7686C322.154 16.6429 323.241 16.2627 323.967 15.1313C324.693 13.9998 324.944 12.407 324.176 11.0644C323.433 9.75172 321.869 8.90203 320.514 9.19936C319.752 9.36661 319.201 9.88523 319.141 9.93381C318.308 10.7796 318.041 11.7396 318.041 11.7396L317.903 12.3989C317.752 12.1751 317.613 11.9537 317.49 11.7368C315.769 9.49865 314.052 7.23337 312.334 4.96809C311.212 5.15254 309.435 5.26852 307.464 4.62316C306.772 4.38614 306.185 3.94055 305.666 3.63923C305.822 3.4635 305.976 3.31491 306.105 3.13634C308.511 0.451865 312.94 0.531166 314.934 0.959395C315.177 1.01221 316.038 1.21206 317.283 1.42471C317.959 1.55031 318.504 1.60736 318.829 1.66873C322.873 2.25663 324.533 1.93639 326.463 3.236C326.825 3.46593 327.646 4.04576 328.309 5.07558C330.179 7.98794 329.294 11.4078 329.049 12.4249C328.232 15.4677 326.316 17.0024 325.687 17.7324C324.428 19.2197 322.792 17.7324 322.792 17.7324C322.792 17.7324 322.372 17.3626 321.757 16.7712Z" fill="#482D1F"/>
<path d="M286.488 87.4516C286.708 87.3972 286.931 87.5317 286.985 87.7521C287.04 87.9726 286.905 88.1955 286.685 88.25C285.301 88.592 284.217 88.8236 281.798 89.313C279.39 89.8001 278.314 90.03 276.945 90.3683C276.724 90.4228 276.502 90.2883 276.447 90.0678C276.393 89.8474 276.527 89.6245 276.748 89.57C278.131 89.228 279.215 88.9964 281.635 88.507C284.043 88.0199 285.119 87.7899 286.488 87.4516ZM289.65 91.5404C289.873 91.4996 290.087 91.6476 290.128 91.871C290.169 92.0944 290.021 92.3086 289.797 92.3494C288.268 92.6286 287.087 92.8717 284.462 93.4338C281.828 93.9977 280.642 94.242 279.102 94.5232C278.878 94.564 278.664 94.4159 278.623 94.1925C278.583 93.9691 278.731 93.755 278.954 93.7142C280.484 93.435 281.664 93.1919 284.29 92.6297C286.923 92.0659 288.109 91.8216 289.65 91.5404Z" fill="#482D1F"/>
<path d="M305.361 12.3433C305.361 12.8144 305.385 13.6223 305.13 13.9654C304.733 14.4777 303.916 13.115 304.164 12.1886C304.311 11.8265 304.502 11.6937 304.723 11.7047C305.056 11.7078 305.337 12.0066 305.361 12.3433ZM311.255 12.6534C311.283 13.1292 311.306 13.9371 311.024 14.2754C310.627 14.7877 309.811 13.4251 310.058 12.4986C310.206 12.1366 310.396 12.0037 310.617 12.0148C310.951 12.0179 311.232 12.3166 311.255 12.6534Z" fill="#482D1F"/>
<path d="M307.781 12.892L307.278 15.5749C307.276 15.584 307.31 15.6315 307.323 15.6338C307.471 15.6597 307.623 15.6766 307.863 15.6952C307.909 15.6988 307.958 15.7025 308.028 15.7076C308.117 15.714 308.165 15.7175 308.211 15.721C308.37 15.7327 308.501 15.7431 308.641 15.7554C308.792 15.7686 308.904 15.9016 308.89 16.0524C308.877 16.2032 308.744 16.3148 308.593 16.3015C308.456 16.2895 308.327 16.2793 308.171 16.2677C308.125 16.2643 308.077 16.2608 307.988 16.2544C307.917 16.2492 307.868 16.2455 307.82 16.2418C307.565 16.2219 307.397 16.2033 307.228 16.1737C306.917 16.1192 306.684 15.7873 306.739 15.4766L307.242 12.791C307.27 12.6422 307.413 12.5442 307.562 12.572C307.711 12.6 307.809 12.7432 307.781 12.892Z" fill="#482D1F"/>
<path d="M316.184 12.7083C316.207 13.0207 316.191 13.3409 316.134 13.6634C315.761 15.7722 313.742 17.1796 311.625 16.8081C309.845 16.4956 308.562 15.024 308.421 13.3095L307.524 13.2455C307.144 15.3474 305.129 16.7485 303.017 16.3777C300.9 16.006 299.486 13.9952 299.859 11.8858C300.233 9.77699 302.252 8.36958 304.368 8.74113C306.212 9.06486 307.523 10.6324 307.584 12.4254L308.441 12.4865C308.449 12.4298 308.458 12.3731 308.468 12.3162C308.841 10.2074 310.86 8.79998 312.976 9.17153C314.482 9.43591 315.633 10.5298 316.037 11.8987L317.875 11.6361C318.1 11.604 318.308 11.7602 318.34 11.985C318.372 12.2098 318.216 12.4181 317.991 12.4502L316.184 12.7083ZM306.76 12.6958C306.83 11.1851 305.763 9.82097 304.226 9.5511C302.556 9.25786 300.963 10.3679 300.669 12.0293C300.375 13.6901 301.489 15.2745 303.159 15.5677C304.83 15.8609 306.422 14.7509 306.716 13.0896C306.73 13.0127 306.74 12.936 306.748 12.8596C306.745 12.833 306.744 12.8057 306.746 12.7779C306.748 12.7496 306.753 12.7221 306.76 12.6958ZM315.324 13.5199C315.619 11.8591 314.504 10.2747 312.834 9.98149C311.164 9.68826 309.572 10.7983 309.277 12.4597C308.983 14.1205 310.098 15.7049 311.767 15.9981C313.438 16.2913 315.03 15.1813 315.324 13.5199Z" fill="#482D1F"/>
<path d="M308.838 17.9242C309.042 17.8768 309.539 17.7423 309.613 17.4783C309.623 17.4245 309.664 17.3487 309.615 17.3123C309.504 17.1542 309.156 17.2317 308.646 17.2808C307.744 17.3442 307.033 17.2747 307.033 17.2747C307.033 17.2747 307.227 17.7521 307.369 17.8881C307.641 18.2406 308.545 18.0112 308.838 17.9242Z" fill="#482D1F"/>
<path d="M326.246 62.1829C326.188 59.7691 326.143 57.6576 326.111 55.8485C326.079 54.039 326.034 51.067 325.977 46.9328C325.973 46.7057 325.787 46.5242 325.56 46.5274C325.333 46.5306 325.151 46.7172 325.154 46.9443C325.212 51.0795 325.257 54.0523 325.289 55.863C325.321 57.674 325.366 59.7872 325.424 62.2026C325.429 62.4297 325.618 62.6093 325.845 62.604C326.072 62.5984 326.251 62.41 326.246 62.1829Z" fill="#482D1F"/>
<path d="M150.175 250.987L150.178 251.151C150.16 251.782 149.619 252.285 148.954 252.297L102.856 252.224C102.191 252.208 101.661 251.697 101.65 251.066L101.647 250.902C101.665 250.271 102.206 249.768 102.871 249.757L148.94 249.83C149.634 249.818 150.163 250.329 150.175 250.987ZM27.5155 252.023L27.4483 252.037L0.481006 230.96C-0.012406 230.577 -0.122053 229.837 0.289123 229.371L0.371359 229.234C0.618065 228.932 1.00183 228.768 1.38559 228.795C1.60489 228.795 1.79677 228.877 1.98865 229.014L28.8303 249.764L43.5192 249.796C44.1496 249.785 44.652 250.297 44.6904 250.927L44.6933 251.092C44.6769 251.723 44.1647 252.225 43.5343 252.236L27.4678 252.187C27.4837 252.133 27.4996 252.078 27.5155 252.023Z" fill="#FF5645"/>
<path d="M149.817 250.161C149.597 249.95 149.289 249.824 148.94 249.83L102.871 249.757C102.798 249.758 102.726 249.765 102.656 249.778L104.505 232.727L125.56 232.667C128.093 234.322 129.74 235.518 130.502 236.254C131.646 237.358 132.87 238.379 134.201 239.26C137.418 241.37 139.09 241.341 143.983 243.64C145.309 244.248 146.583 244.938 147.83 245.712C149.077 246.485 149.503 247.355 149.855 248.665C149.914 248.883 149.918 249.102 149.948 249.294C149.956 249.726 149.904 249.984 149.817 250.161ZM1.98669 229.013L11.5589 215.895L28.0608 228.422L28.5542 230.066C30.4731 236.791 31.5147 240.337 31.6792 240.702C31.877 241.13 32.0821 241.525 32.2978 241.91C33.7881 242.517 35.4806 243.11 38.0661 244.403C39.3819 245.033 40.6428 245.746 41.8764 246.541C43.1099 247.336 43.5211 248.213 43.85 249.529C43.8776 249.639 43.8913 249.75 43.9016 249.857C43.7821 249.815 43.6536 249.794 43.5192 249.796L28.8303 249.764L1.98864 229.014C1.98799 229.014 1.98734 229.013 1.98669 229.013Z" fill="#474961"/>
<path d="M82.7565 96.5251C82.8383 96.5361 82.9203 96.5494 83.0024 96.5649C83.7957 96.7149 84.5364 97.0684 85.152 97.5907C108.878 117.725 122.911 134.378 127.25 147.55C129.711 155.02 131.883 174.24 133.767 205.21C134.116 210.953 129.744 215.891 124.002 216.24C123.881 216.247 123.76 216.253 123.639 216.256L106.361 216.703C100.699 216.849 95.9571 212.443 95.6875 206.785L93.3842 158.438C89.5972 154.434 86.2974 150.908 83.4848 147.858C82.8099 151.537 81.7686 155.422 80.0856 160.619C77.2811 169.279 65.8553 186.395 45.8082 211.966L45.0378 212.993C41.7726 217.343 35.7097 218.449 31.1191 215.531L18.2268 207.336C13.3718 204.25 11.9377 197.812 15.0238 192.957C15.1521 192.755 15.2874 192.558 15.4293 192.365L44.1408 153.406C44.8251 137.961 46.18 124.449 48.2054 112.869C51.2436 95.4998 73.9857 95.875 82.593 96.1608C82.6483 96.2798 82.7028 96.4013 82.7565 96.5251Z" fill="#F29370"/>
<path opacity="0.176986" d="M82.7391 96.5215C82.8269 96.533 82.9148 96.547 83.0028 96.5637C83.7961 96.7136 84.5368 97.0671 85.1524 97.5895C108.879 117.723 122.912 134.377 127.251 147.549C129.711 155.019 131.883 174.239 133.767 205.209C134.116 210.951 129.744 215.89 124.002 216.239C123.881 216.246 123.76 216.251 123.639 216.254L106.362 216.701C100.699 216.848 95.9574 212.442 95.6879 206.784L93.3846 158.437C89.5999 154.436 86.3018 150.911 83.4903 147.862C84.7332 141.067 84.7281 134.961 85.2105 122.561C85.6957 110.088 84.8719 101.408 82.7391 96.5215Z" fill="#444444"/>
<path d="M99.0814 32.1895L270.261 20.2194L277.967 130.42C278.178 133.44 275.901 136.06 272.88 136.271L112.639 147.476C109.618 147.688 106.999 145.41 106.787 142.39L99.0814 32.1895Z" fill="#F2F6FB"/>
<path d="M108.253 43.6805L113.384 43.3217C113.686 43.3006 113.948 43.5283 113.97 43.8304L114.111 45.8522C114.132 46.1543 113.904 46.4163 113.602 46.4374L108.471 46.7962C108.169 46.8173 107.907 46.5896 107.886 46.2875L107.745 44.2656C107.724 43.9636 107.951 43.7016 108.253 43.6805ZM240.529 34.4309L262.777 32.8751C263.08 32.854 263.342 33.0817 263.363 33.3838L263.504 35.4057C263.525 35.7077 263.297 35.9697 262.995 35.9908L240.746 37.5466C240.444 37.5677 240.182 37.34 240.161 37.0379L240.02 35.0161C239.999 34.714 240.227 34.452 240.529 34.4309ZM198.512 37.369L220.761 35.8132C221.063 35.7921 221.325 36.0198 221.346 36.3219L221.487 38.3438C221.508 38.6458 221.281 38.9078 220.979 38.9289L198.73 40.4847C198.428 40.5058 198.166 40.2781 198.145 39.976L198.003 37.9542C197.982 37.6521 198.21 37.3901 198.512 37.369ZM224.967 35.5191L236.322 34.725C236.625 34.7039 236.886 34.9317 236.908 35.2337L237.049 37.2556C237.07 37.5576 236.842 37.8196 236.54 37.8407L225.185 38.6348C224.883 38.6559 224.621 38.4282 224.6 38.1261L224.458 36.1043C224.437 35.8022 224.665 35.5402 224.967 35.5191Z" fill="#D8DEED"/>
<path d="M163.523 50.1306L126.291 52.7341C125.294 52.8038 124.542 53.6684 124.612 54.6651L129.788 128.683C129.858 129.679 130.722 130.431 131.719 130.361L168.951 127.758C169.947 127.688 170.699 126.823 170.629 125.827L165.453 51.8092C165.384 50.8125 164.519 50.0609 163.523 50.1306Z" fill="#D8DEED"/>
<path d="M211.493 46.5672L174.261 49.1707C173.265 49.2404 172.513 50.1049 172.583 51.1016L177.759 125.119C177.828 126.116 178.693 126.867 179.69 126.798L216.921 124.194C217.918 124.124 218.67 123.26 218.6 122.263L213.424 48.2457C213.354 47.249 212.49 46.4975 211.493 46.5672Z" fill="#D8DEED"/>
<path d="M259.464 43.0037L222.232 45.6072C221.235 45.6769 220.484 46.5414 220.553 47.5382L225.729 121.556C225.799 122.552 226.663 123.304 227.66 123.234L264.892 120.631C265.889 120.561 266.64 119.696 266.571 118.7L261.395 44.6823C261.325 43.6855 260.461 42.934 259.464 43.0037Z" fill="#D8DEED"/>
<path d="M185.872 116.412L209.974 114.727C211.435 114.625 212.016 114.687 212.593 114.841C213.171 114.995 213.634 115.247 213.961 115.587C214.288 115.927 214.474 116.283 214.54 117.217L214.619 118.357C214.685 119.291 214.549 119.669 214.273 120.052C213.996 120.434 213.573 120.748 213.023 120.981C212.472 121.213 211.906 121.356 210.445 121.458L186.343 123.144C184.882 123.246 184.302 123.183 183.724 123.029C183.146 122.876 182.683 122.623 182.356 122.283C182.029 121.943 181.843 121.588 181.778 120.653L181.698 119.514C181.633 118.579 181.768 118.201 182.044 117.819C182.321 117.437 182.744 117.122 183.294 116.89C183.845 116.657 184.412 116.514 185.872 116.412Z" fill="#A03813"/>
<path d="M138.176 119.976L162.278 118.29C163.738 118.188 164.319 118.251 164.897 118.405C165.475 118.558 165.937 118.811 166.264 119.15C166.591 119.49 166.778 119.846 166.843 120.781L166.923 121.92C166.988 122.855 166.853 123.233 166.576 123.615C166.3 123.997 165.877 124.311 165.326 124.544C164.775 124.777 164.209 124.919 162.748 125.022L138.646 126.707C137.186 126.809 136.605 126.746 136.027 126.593C135.449 126.439 134.987 126.187 134.66 125.847C134.333 125.507 134.146 125.151 134.081 124.217L134.001 123.077C133.936 122.143 134.071 121.764 134.348 121.382C134.624 121 135.047 120.686 135.598 120.453C136.149 120.221 136.715 120.078 138.176 119.976Z" fill="#BFC3CC"/>
<path d="M233.569 113.123L257.671 111.438C259.131 111.336 259.712 111.398 260.29 111.552C260.868 111.706 261.33 111.958 261.657 112.298C261.984 112.638 262.171 112.994 262.236 113.928L262.316 115.068C262.381 116.002 262.246 116.38 261.969 116.763C261.693 117.145 261.27 117.459 260.719 117.691C260.168 117.924 259.602 118.067 258.141 118.169L234.039 119.854C232.579 119.957 231.998 119.894 231.42 119.74C230.843 119.587 230.38 119.334 230.053 118.994C229.726 118.654 229.54 118.299 229.474 117.364L229.394 116.225C229.329 115.29 229.464 114.912 229.741 114.53C230.017 114.148 230.44 113.833 230.991 113.601C231.542 113.368 232.108 113.225 233.569 113.123Z" fill="#BFC3CC"/>
<path d="M98.5652 24.8061C98.354 21.7856 100.631 19.1657 103.654 18.9543L263.891 7.74948C266.913 7.53817 269.534 9.81667 269.745 12.8361L270.299 20.7659L99.1197 32.736L98.5652 24.8061Z" fill="#E1E5F0"/>
<path d="M107.758 28.5602C109.344 28.4493 110.54 27.074 110.429 25.4882C110.318 23.9025 108.942 22.7069 107.357 22.8178C105.771 22.9287 104.575 24.304 104.686 25.8898C104.797 27.4755 106.173 28.6711 107.758 28.5602Z" fill="#FF5645"/>
<path d="M117.329 27.8903C118.915 27.7794 120.11 26.404 119.999 24.8183C119.888 23.2326 118.513 22.037 116.927 22.1479C115.342 22.2587 114.146 23.6341 114.257 25.2199C114.368 26.8056 115.743 28.0012 117.329 27.8903Z" fill="#FFCB3D"/>
<path d="M127.173 27.2028C128.759 27.0919 129.954 25.7165 129.844 24.1308C129.733 22.5451 128.357 21.3495 126.772 21.4604C125.186 21.5712 123.99 22.9466 124.101 24.5324C124.212 26.1181 125.587 27.3137 127.173 27.2028Z" fill="#F29370"/>
<path d="M47.7096 74.5418L44.6777 75.1022C44.5642 75.1232 44.4489 75.1321 44.3336 75.129C43.4256 75.104 42.7097 74.3478 42.7346 73.4398C42.9772 64.6057 43.8677 58.8419 45.4062 56.1484C45.8565 55.36 46.4368 54.7245 47.1078 54.2325C49.8516 51.6284 54.5202 50.1606 60.088 49.2131L61.6267 48.9418C64.0066 48.5381 66.2991 48.5684 68.4276 48.9513C71.0836 49.0528 74.3529 49.6691 77.3261 51.6292C77.7977 51.9357 78.8044 52.5932 79.9142 53.6779C79.9142 53.6779 82.0925 55.7711 84.9355 62.8965C85.265 63.7413 85.7439 65.1446 86.372 67.1064C86.6028 67.8273 86.2055 68.5988 85.4846 68.8297C85.4354 68.8454 85.3853 68.8584 85.3346 68.8685L81.8874 69.5555L82.7956 80.754C82.821 81.0557 82.8416 81.3304 82.894 81.6273C83.1145 83.0359 83.1222 84.8159 82.2137 86.4513C80.9112 88.8521 78.8433 92.2785 68.0261 94.0746C57.9648 95.7373 55.0386 93.1915 53.0572 91.4254C51.6393 90.1724 51.0441 88.2175 50.7791 86.8725C50.7268 86.5756 50.6522 86.3104 50.5728 86.0182L47.7096 74.5418Z" fill="#FF5645"/>
<path opacity="0.176986" d="M68.3798 48.9466C73.7172 49.8931 78.0286 53.0556 80.1068 57.1543C80.7863 58.4819 81.1338 59.9793 81.2289 61.4656L81.885 69.5554L85.3209 68.8864C85.3718 68.8764 85.4221 68.8637 85.4716 68.848C86.1934 68.6202 86.5938 67.8502 86.3659 67.1284C85.7422 65.1527 85.2653 63.742 84.9355 62.8963C82.0925 55.7709 79.9142 53.6777 79.9142 53.6777C78.8043 52.593 77.7977 51.9355 77.3261 51.6289C74.3059 49.6379 71.0419 49.0334 68.3798 48.9466Z" fill="#444444"/>
<path d="M105.506 216.722C105.812 216.741 106.121 216.746 106.433 216.738L123.71 216.291C123.831 216.288 123.952 216.283 124.073 216.276C125.097 216.213 126.077 216.005 126.995 215.673L125.253 232.808H104.506L105.506 216.722ZM34.6033 216.965L28.0608 228.422L11.559 215.895L17.4466 206.769C17.7176 206.982 18.0015 207.183 18.2982 207.372L31.1905 215.566C32.2656 216.25 33.4215 216.713 34.6033 216.965ZM95.5384 89.6452L99.5218 90.0873C101.219 89.1934 116.679 81.1725 117.687 85.0625C117.687 85.0625 117.62 85.2042 117.463 85.4474L124.661 82.9831C128.63 88.5394 125.27 97.2248 125.217 97.2551C116.031 101.285 109.136 103.426 104.53 103.679C103.998 103.708 103.522 103.674 103.103 103.577C103.096 103.627 103.089 103.678 103.082 103.729C88.5499 105.472 73.3149 104.827 57.3772 101.793C53.5426 101.063 49.3006 92.1383 44.6511 75.0184C44.6961 75.0138 44.7409 75.0075 44.7854 74.9992L62.6755 71.6924C62.8355 71.6628 62.9857 71.6111 63.1237 71.5408L67.5313 86.5368L81.0779 88.0403C81.5218 87.4427 81.8444 86.8665 82.1302 86.3397C83.0388 84.7043 83.0311 82.9242 82.8106 81.5157C82.7582 81.2187 82.7376 80.944 82.7122 80.6423L81.7819 69.1715L85.2378 68.5621C85.3109 68.5492 85.3828 68.5304 85.4529 68.5059C85.5471 68.4729 85.6355 68.4306 85.7174 68.3804L89.4138 76.0185C92.4821 74.32 101.421 63.2149 101.421 63.2149C101.421 63.2149 101.896 69.519 102.846 82.127L95.5384 89.6452ZM66.3034 45.9309L66.6174 48.5368C72.18 48.7641 74.7083 50.9267 75.5602 51.8696C75.5602 51.8696 69.6912 52.9412 57.9532 55.0846C54.7878 52.5466 50.0763 51.9712 47.1494 54.1787C48.7745 52.6046 51.5815 51.2497 55.5704 50.1143C56.6139 49.8172 57.6074 49.5677 58.553 49.3609L57.5308 39.6408C57.4713 39.6072 57.4118 39.5715 57.3525 39.5337C56.2833 38.8269 55.4766 37.5106 55.6301 35.9654C55.7591 34.5403 56.8263 32.5794 58.1256 32.3448C58.8547 32.2062 60.8901 32.8249 60.7463 32.1824C60.6504 31.754 60.0891 29.4827 59.0624 25.3686C58.9754 24.9379 59.2274 24.5014 59.651 24.3879C60.6113 24.159 61.5612 24.1031 62.5035 23.5952C62.6094 23.5668 62.7082 23.512 62.8141 23.4836C63.686 23.1365 68.5394 21.1265 72.2457 24.0497C72.562 24.2771 72.8732 24.591 73.1914 24.9314C73.9428 25.7234 74.4384 26.7257 74.6692 27.799L75.7274 32.5953C75.8021 33.0861 75.9033 33.5698 75.9251 34.0747C76.328 40.2385 74.8187 44.9849 72.6371 45.7397C72.3795 45.8371 70.9568 46.2467 69.1681 46.2435C68.995 46.2332 69.1487 46.2771 66.6833 45.9728C66.5532 45.9589 66.4266 45.9449 66.3034 45.9309Z" fill="#F2A98A"/>
<path opacity="0.2" d="M95.3292 89.7941L102.845 82.1655C101.895 69.5317 101.421 63.2148 101.421 63.2148C101.421 63.2148 92.4821 74.3199 89.4137 76.0184L85.7898 68.6285C85.6916 68.6961 85.5829 68.7519 85.4649 68.7932C85.3949 68.8177 85.323 68.8365 85.2499 68.8494L81.794 69.4588L82.7243 80.9296C82.7497 81.2313 82.7703 81.506 82.8226 81.803C83.0432 83.2115 83.0509 84.9916 82.1423 86.627C81.8734 87.1228 81.5717 87.6624 81.1671 88.2223L95.3292 89.7941Z" fill="#8C2A00"/>
<path d="M116.475 89.8725C117.831 89.483 118.879 89.1454 121.21 88.366C123.552 87.5829 124.608 87.2429 125.979 86.8491C126.197 86.7864 126.425 86.9125 126.487 87.1307C126.55 87.349 126.424 87.5768 126.206 87.6395C124.85 88.029 123.802 88.3665 121.471 89.146C119.128 89.9291 118.073 90.269 116.702 90.6629C116.484 90.7256 116.256 90.5995 116.193 90.3812C116.131 90.163 116.257 89.9352 116.475 89.8725ZM115.758 95.5163C117.234 94.9913 118.385 94.6111 120.95 93.786C123.507 92.9634 124.652 92.585 126.118 92.0637C126.331 91.9876 126.567 92.0994 126.643 92.3133C126.719 92.5273 126.607 92.7624 126.393 92.8385C124.917 93.3635 123.766 93.7437 121.201 94.5688C118.644 95.3915 117.499 95.7698 116.033 96.2911C115.819 96.3672 115.584 96.2554 115.508 96.0415C115.432 95.8275 115.544 95.5924 115.758 95.5163Z" fill="#482D1F"/>
<path d="M49.496 32.4605C49.474 31.4016 49.6446 30.2458 50.1887 29.1078C50.7082 27.9753 51.4614 27.2911 51.7824 27.0064C53.5516 25.454 55.2557 25.5649 59.259 24.4071C60.0992 24.1536 61.3366 23.7937 62.7768 23.2375C62.8898 23.2356 62.9886 23.1807 63.0945 23.1524C63.9664 22.8052 68.7479 21.2686 72.2599 24.102C72.274 24.1549 72.8041 24.4386 72.7989 24.5251C72.7989 24.5251 69.1461 32.3995 61.512 34.0052C61.3077 33.785 60.7663 33.2635 59.9543 32.9331C59.8607 32.9014 59.1983 32.6532 58.4692 32.7918C57.1699 33.0264 56.1156 34.3873 55.9866 35.8125C55.8189 37.3047 56.6186 38.5945 57.6612 39.3084C58.7038 40.0223 59.8268 39.9768 60.1923 39.964L60.6211 39.8402C60.9915 40.5494 61.2494 41.3135 60.9503 41.8965C60.3725 43.0226 59.2969 43.6727 57.7235 43.8469C56.2682 45.6888 53.8885 46.9741 51.1275 47.1672C46.3703 47.4998 42.2827 44.4639 41.9975 40.3863C41.7245 36.4817 45.0373 33.0377 49.496 32.4605ZM76.0797 31.1455C75.5979 31.3597 74.7719 31.6662 73.9595 31.6C72.6952 31.5415 73.7164 30.5868 74.8162 30.3488C75.3528 30.2334 75.821 30.3918 76.116 30.5398C76.351 30.6754 76.3302 31.0216 76.0797 31.1455ZM70.943 32.5218C70.4347 32.7432 69.6087 33.0496 68.7699 32.9906C67.5127 32.9585 68.5268 31.9773 69.6266 31.7394C70.1897 31.6169 70.6578 31.7753 70.9529 31.9232C71.2143 32.0518 71.1936 32.3979 70.943 32.5218Z" fill="#482D1F"/>
<path d="M74.6401 33.7171C74.6079 33.3852 74.8088 33.076 75.1266 32.9908C75.3384 32.9341 75.5521 32.9903 75.7309 33.3397C76.1432 34.1373 75.6488 35.5753 75.1769 35.1909C74.8269 34.9441 74.7077 34.1814 74.6401 33.7171ZM69.8845 34.8211C69.8523 34.4892 70.0532 34.18 70.371 34.0948C70.5828 34.0381 70.7965 34.0943 70.9753 34.4437C71.3876 35.2413 70.8932 36.6792 70.4213 36.2949C70.0713 36.0481 69.9257 35.2925 69.8845 34.8211Z" fill="#482D1F"/>
<path d="M72.6415 39.814C72.442 39.8107 71.9493 39.7725 71.7918 39.5025C71.7776 39.4495 71.7299 39.3772 71.7422 39.3171C71.8055 39.1299 72.171 39.1171 72.6618 39.0423C73.5304 38.8947 74.1975 38.6309 74.1975 38.6309C74.1975 38.6309 74.1276 39.2172 74.0307 39.385C73.8794 39.8796 72.9541 39.8154 72.6415 39.814Z" fill="#482D1F"/>
<path d="M73.3177 34.2874L74.3873 37.0168L74.3969 37.0458C74.4743 37.3348 74.3484 37.6562 74.073 37.7814C74.0215 37.8007 73.9925 37.8107 73.9635 37.8206C73.6883 37.9138 73.488 37.9704 72.7666 38.1637C72.6204 38.2029 72.4701 38.1161 72.4309 37.9699C72.3917 37.8237 72.4785 37.6734 72.6248 37.6342C73.3334 37.4443 73.5281 37.3893 73.7875 37.3014C73.8145 37.2922 73.8415 37.2829 73.8685 37.2734C73.8625 37.275 73.8765 37.2383 73.8696 37.1983L72.8 34.4688L72.7882 34.4307L72.4226 32.8544C72.3884 32.7069 72.4802 32.5596 72.6276 32.5254C72.7751 32.4912 72.9224 32.583 72.9566 32.7305L73.3177 34.2874Z" fill="#482D1F"/>
<path d="M63.4818 71.4309C62.8153 68.8652 62.1037 66.1982 61.347 63.4298C61.2871 63.2108 61.061 63.0817 60.8419 63.1416C60.6229 63.2015 60.4938 63.4276 60.5537 63.6467C61.3096 66.4118 62.0203 69.0754 62.6859 71.6376C62.743 71.8574 62.9674 71.9893 63.1872 71.9322C63.407 71.8751 63.5389 71.6507 63.4818 71.4309Z" fill="#482D1F"/>
</svg>
