<svg width="466" height="329" viewBox="0 0 466 329" fill="none" xmlns="http://www.w3.org/2000/svg">
<path d="M419.945 288.949H391.848C391.19 288.949 390.615 288.475 390.615 287.906V287.526C390.615 286.957 391.163 286.482 391.848 286.482H419.945C420.603 286.482 421.179 286.957 421.179 287.526V287.906C421.179 288.475 420.63 288.949 419.945 288.949ZM350.456 286.482C351.138 286.482 351.69 287.035 351.69 287.716C351.69 288.397 351.138 288.949 350.456 288.949H305.775C305.094 288.949 304.542 288.397 304.542 287.716C304.542 287.035 305.094 286.482 305.775 286.482H350.456Z" fill="#DE3190"/>
<path d="M350.592 286.489C350.549 286.485 350.504 286.482 350.459 286.482H305.969C305.94 286.332 305.925 286.143 305.929 285.898C305.96 285.707 305.964 285.488 306.022 285.269C306.374 283.959 306.801 283.09 308.048 282.316C309.295 281.543 310.568 280.852 311.895 280.245C316.788 277.945 318.459 277.974 321.677 275.865C323.008 274.983 324.232 273.963 325.375 272.859C326.138 272.123 327.694 270.927 330.044 269.271L350.592 269.744V286.489ZM420.049 286.486C420.016 286.484 419.982 286.482 419.948 286.482H391.945L394.427 270.963L412.848 268.855L420.049 286.486Z" fill="#474961"/>
<path d="M358.96 118.068C359.898 117.011 360.946 116.033 362.099 115.154C365.449 113.896 371.842 112.564 376.404 114.018C381.739 115.717 385.031 120.364 385.031 120.364C385.031 120.364 385.813 119.55 393.973 142.339C399.413 157.533 404.691 178.121 409.808 204.104C410.298 207.013 413.125 223.423 418.29 253.334C418.294 253.358 418.298 253.383 418.302 253.408C418.519 254.906 417.48 256.296 415.982 256.513L387.41 260.65C386.035 260.849 384.728 259.987 384.369 258.645C380.806 245.319 378.879 238.035 378.589 236.792C377.965 234.311 377.351 231.501 376.715 228.282L371.716 204.113C371.667 203.878 371.572 203.118 371.431 201.832C369.099 193.279 367.105 185.965 365.448 179.891C364.117 185.003 362.676 190.484 361.126 196.334C360.373 229.139 359.811 247.794 359.439 252.299C359.381 252.996 359.198 255.561 358.89 259.995C358.787 261.484 357.512 262.616 356.022 262.543L326.567 261.101C325.165 261.032 324.041 259.916 323.964 258.514C322.661 234.877 323.524 212.641 326.55 191.809C331.248 159.474 338.347 146.262 342.581 133.824C342.628 133.676 345.987 128.356 352.658 117.866C354.977 117.879 357.078 117.947 358.96 118.068Z" fill="#FFCB3D"/>
<path opacity="0.2" d="M354.87 125.104C353.316 129.323 353.051 134.01 354.284 138.542C356.012 144.89 357.74 151.239 359.468 157.588C359.468 157.588 361.474 164.943 365.485 179.653C364.144 184.832 362.691 190.393 361.126 196.333C360.353 229.035 359.781 247.639 359.409 252.144C359.156 255.21 358.966 257.815 358.84 259.959C358.752 261.461 357.468 262.611 355.965 262.535L326.484 261.046C325.081 260.975 323.959 259.855 323.885 258.453C322.635 234.854 323.524 212.639 326.55 191.808C331.248 159.474 338.262 146.202 342.497 133.765C342.535 133.645 348.585 129.062 354.87 125.104Z" fill="#8C2A00"/>
<path d="M352.473 73.3007C353.065 73.0826 353.653 72.898 354.225 72.7415L354.111 70.6857C354.095 70.3864 354.322 70.1293 354.621 70.1085L367.481 69.2132C367.783 69.1925 368.044 69.4201 368.066 69.722L368.148 70.883C375.162 70.0259 379.258 69.8302 380.433 70.2958C391.335 74.615 393.138 93.3672 393.08 99.0718C393.065 100.602 390.62 101.975 385.746 103.191C386.277 108.377 386.59 111.306 386.77 112.828C386.77 112.828 386.768 113.097 386.829 113.496C386.984 114.667 349.946 126.132 349.946 126.132C349.917 126.107 349.892 126.109 349.892 126.109C349.892 126.109 349.366 126.021 348.715 125.7C348.393 125.567 348.065 125.38 347.731 125.113C345.254 123.175 344.855 118.336 344.803 117.156C344.77 116.782 344.744 116.488 344.744 116.488C344.642 114.728 344.393 111.163 343.902 104.514C342.145 105.271 340.231 106.041 338.158 106.823L338.234 79.4668C338.24 77.5107 339.4 75.7426 341.193 74.9593C345.183 73.2159 348.943 72.663 352.473 73.3007Z" fill="#DE3190"/>
<path d="M350.521 269.866L345.641 269.754L330.044 269.271L330.843 261.239L350.727 262.205L350.521 269.866ZM391.861 259.947L411.253 257.146L412.848 268.855L394.427 270.963L391.861 259.947ZM367.081 59.1412V69.274L356.464 69.9987L356.612 67.7894C355.095 68.176 355.183 68.1306 355.037 68.1626C353.274 68.4162 351.807 68.2086 351.54 68.1261C350.568 67.9427 349.618 67.0234 348.837 65.5475C347.778 63.5779 346.964 60.5948 346.728 57.0978C346.67 56.5997 346.695 56.11 346.719 55.6204L347.123 50.7684C347.21 49.6838 347.57 48.6277 348.219 47.711C348.483 47.301 348.738 46.9722 349.042 46.7032C352.321 43.3266 357.444 44.4075 358.356 44.6394C358.463 44.6778 358.572 44.6891 358.678 44.7276C359.658 45.1032 360.603 45.2838 361.555 45.4103C361.991 45.4558 362.305 45.8713 362.259 46.304L361.498 53.2242C361.761 53.0875 365.895 51.4403 367.047 52.2714C367.998 52.967 368.402 57.3112 367.081 59.1412ZM344.964 120.338L345.245 120.091C345.372 120.091 345.445 120.098 345.468 120.111L368.196 109.854L368.664 105.719C378.725 104.63 385.684 103.345 389.541 101.864C389.608 112.496 388.824 118.612 387.189 120.213C383.48 123.841 364.171 132.807 344.841 135.227C340.52 137.142 333.374 138.537 323.401 139.411C320.556 137.591 319.027 134.413 318.816 129.876L325.741 127.495C325.461 127.398 325.317 127.327 325.317 127.327C323.819 123.904 342.802 120.874 345.224 120.221L344.964 120.338ZM339.292 106.164C329.959 110.46 314.932 113.727 310.916 109.047C305.656 102.918 304.964 86.2307 308.839 58.9845C300.381 57.1112 294.523 55.075 291.264 52.8757C290.382 52.2805 289.864 51.2793 289.889 50.218C289.929 48.4945 291.364 47.13 293.094 47.1703C301.376 47.3635 306.625 47.3476 308.839 47.1226C308.894 47.117 308.95 47.1117 309.005 47.1069C315.722 46.5169 321.648 51.4644 322.24 58.1574L324.78 86.866L338.228 80.3976L338.214 106.575C338.578 106.438 338.938 106.301 339.292 106.164Z" fill="#DB9E75"/>
<path opacity="0.176986" d="M352.265 73.2491C349.803 74.1831 347.293 75.7007 345.614 78.1662C345.133 78.8812 344.528 79.957 344.117 81.4736C344.058 81.6941 343.998 81.8878 343.939 82.1083C343.799 82.5782 343.498 83.5737 343.255 84.6448C342.998 85.8518 342.887 88.1231 342.93 91.2694L342.937 91.3496L343.001 92.6633C343.36 97.4205 343.652 101.32 343.887 104.506C342.143 105.26 340.24 106.025 338.179 106.803L338.236 79.4568C338.241 77.5056 339.394 75.74 341.18 74.9526C345.093 73.2266 348.788 72.6588 352.265 73.2491Z" fill="#444444"/>
<path d="M356.616 67.8536L360.822 66.8046L356.464 70.0923L356.616 67.8536Z" fill="#482D1F"/>
<path d="M364.757 60.2712L364.782 60.2686C365.154 60.1429 366.242 59.7627 366.967 58.6313C367.693 57.4998 367.944 55.907 367.176 54.5644C366.433 53.2517 364.869 52.402 363.514 52.6994C362.752 52.8666 362.202 53.3852 362.141 53.4338C361.308 54.2796 361.041 55.2396 361.041 55.2396L360.903 55.8989C360.752 55.6751 360.614 55.4537 360.49 55.2368C358.769 52.9987 357.052 50.7334 355.334 48.4681C354.212 48.6525 352.436 48.7685 350.464 48.1232C349.772 47.8861 349.186 47.4406 348.666 47.1392C348.823 46.9635 348.976 46.8149 349.105 46.6363C351.511 43.9519 355.94 44.0312 357.935 44.4594C358.177 44.5122 359.038 44.7121 360.283 44.9247C360.959 45.0503 361.504 45.1074 361.829 45.1687C365.873 45.7566 367.533 45.4364 369.463 46.736C369.825 46.9659 370.646 47.5458 371.309 48.5756C373.179 51.4879 372.294 54.9078 372.049 55.9249C371.232 58.9677 369.316 60.5024 368.687 61.2324C367.428 62.7197 365.792 61.2324 365.792 61.2324C365.792 61.2324 365.372 60.8626 364.757 60.2712Z" fill="#482D1F"/>
<path d="M329.488 130.952C329.708 130.897 329.931 131.032 329.985 131.252C330.04 131.473 329.905 131.695 329.685 131.75C328.301 132.092 327.217 132.324 324.798 132.813C322.39 133.3 321.314 133.53 319.945 133.868C319.724 133.923 319.502 133.788 319.447 133.568C319.393 133.347 319.527 133.124 319.748 133.07C321.131 132.728 322.215 132.496 324.635 132.007C327.043 131.52 328.119 131.29 329.488 130.952ZM332.65 135.04C332.873 135 333.087 135.148 333.128 135.371C333.169 135.594 333.021 135.809 332.797 135.849C331.268 136.129 330.087 136.372 327.462 136.934C324.828 137.498 323.642 137.742 322.102 138.023C321.878 138.064 321.664 137.916 321.623 137.693C321.583 137.469 321.731 137.255 321.954 137.214C323.484 136.935 324.664 136.692 327.29 136.13C329.923 135.566 331.109 135.322 332.65 135.04Z" fill="#482D1F"/>
<path d="M348.361 55.8433C348.361 56.3144 348.385 57.1223 348.13 57.4654C347.733 57.9777 346.916 56.615 347.164 55.6886C347.312 55.3265 347.502 55.1937 347.723 55.2047C348.056 55.2078 348.337 55.5066 348.361 55.8433ZM354.256 56.1534C354.283 56.6292 354.307 57.4371 354.024 57.7754C353.627 58.2877 352.811 56.9251 353.058 55.9986C353.206 55.6366 353.396 55.5037 353.617 55.5148C353.951 55.5179 354.232 55.8166 354.256 56.1534Z" fill="#482D1F"/>
<path d="M350.781 56.392L350.278 59.0749C350.277 59.084 350.31 59.1315 350.323 59.1338C350.471 59.1597 350.623 59.1766 350.863 59.1952C350.909 59.1988 350.958 59.2025 351.028 59.2076C351.117 59.214 351.165 59.2175 351.211 59.221C351.37 59.2327 351.501 59.2431 351.641 59.2554C351.792 59.2686 351.904 59.4016 351.89 59.5524C351.877 59.7032 351.744 59.8148 351.593 59.8015C351.456 59.7895 351.327 59.7793 351.171 59.7677C351.125 59.7643 351.077 59.7608 350.988 59.7544C350.917 59.7492 350.868 59.7455 350.82 59.7418C350.565 59.7219 350.397 59.7033 350.228 59.6737C349.917 59.6192 349.684 59.2873 349.739 58.9766L350.242 56.291C350.27 56.1422 350.413 56.0442 350.562 56.072C350.711 56.1 350.809 56.2432 350.781 56.392Z" fill="#482D1F"/>
<path d="M359.184 56.2083C359.207 56.5207 359.191 56.8409 359.134 57.1634C358.761 59.2722 356.742 60.6796 354.625 60.3081C352.845 59.9956 351.562 58.524 351.421 56.8095L350.524 56.7455C350.144 58.8474 348.129 60.2485 346.017 59.8777C343.9 59.506 342.486 57.4952 342.859 55.3858C343.233 53.277 345.252 51.8696 347.368 52.2411C349.212 52.5649 350.523 54.1324 350.584 55.9254L351.441 55.9865C351.449 55.9298 351.458 55.8731 351.468 55.8162C351.841 53.7074 353.86 52.3 355.977 52.6715C357.483 52.9359 358.633 54.0298 359.037 55.3987L360.875 55.1361C361.1 55.104 361.308 55.2602 361.34 55.485C361.372 55.7098 361.216 55.9181 360.991 55.9502L359.184 56.2083ZM349.76 56.1958C349.83 54.6851 348.763 53.321 347.226 53.0511C345.556 52.7579 343.963 53.8679 343.669 55.5293C343.375 57.1901 344.489 58.7745 346.159 59.0677C347.83 59.3609 349.422 58.2509 349.716 56.5896C349.73 56.5127 349.74 56.436 349.748 56.3596C349.745 56.333 349.744 56.3057 349.746 56.2779C349.748 56.2496 349.753 56.2221 349.76 56.1958ZM358.324 57.0199C358.619 55.3591 357.504 53.7747 355.834 53.4815C354.164 53.1883 352.572 54.2983 352.277 55.9597C351.983 57.6205 353.098 59.2049 354.768 59.4981C356.438 59.7913 358.03 58.6813 358.324 57.0199Z" fill="#482D1F"/>
<path d="M351.838 61.4242C352.042 61.3768 352.539 61.2423 352.613 60.9783C352.623 60.9245 352.664 60.8487 352.615 60.8123C352.504 60.6542 352.156 60.7317 351.646 60.7808C350.744 60.8442 350.033 60.7747 350.033 60.7747C350.033 60.7747 350.227 61.2521 350.369 61.3881C350.641 61.7406 351.545 61.5112 351.838 61.4242Z" fill="#482D1F"/>
<path d="M369.246 105.683C369.188 103.269 369.143 101.158 369.111 99.3485C369.079 97.539 369.035 94.567 368.977 90.4328C368.974 90.2057 368.787 90.0242 368.56 90.0274C368.333 90.0306 368.151 90.2172 368.154 90.4443C368.212 94.5795 368.257 97.5523 368.289 99.363C368.321 101.174 368.366 103.287 368.424 105.703C368.429 105.93 368.618 106.109 368.845 106.104C369.072 106.098 369.251 105.91 369.246 105.683Z" fill="#482D1F"/>
<path d="M193.175 294.487L193.178 294.651C193.16 295.282 192.619 295.785 191.954 295.797L145.856 295.724C145.191 295.708 144.661 295.197 144.65 294.566L144.647 294.402C144.665 293.771 145.206 293.268 145.871 293.257L191.94 293.33C192.634 293.318 193.163 293.829 193.175 294.487ZM70.5155 295.523L70.4483 295.537L43.481 274.46C42.9876 274.077 42.8779 273.337 43.2891 272.871L43.3714 272.734C43.6181 272.432 44.0018 272.268 44.3856 272.295C44.6049 272.295 44.7968 272.377 44.9887 272.514L71.8303 293.264L86.5192 293.296C87.1496 293.285 87.652 293.797 87.6904 294.427L87.6933 294.592C87.6769 295.223 87.1647 295.725 86.5343 295.736L70.4678 295.687C70.4837 295.633 70.4996 295.578 70.5155 295.523Z" fill="#FF5645"/>
<path d="M192.817 293.661C192.597 293.45 192.289 293.324 191.94 293.33L145.871 293.257C145.798 293.258 145.726 293.265 145.656 293.278L147.505 276.227L168.56 276.167C171.093 277.822 172.74 279.018 173.502 279.754C174.646 280.858 175.87 281.879 177.201 282.76C180.418 284.87 182.09 284.841 186.983 287.14C188.309 287.748 189.583 288.438 190.83 289.212C192.077 289.985 192.503 290.855 192.855 292.165C192.914 292.383 192.918 292.602 192.948 292.794C192.956 293.226 192.904 293.484 192.817 293.661ZM44.9867 272.513L54.5589 259.395L71.0608 271.922L71.5542 273.566C73.4731 280.291 74.5147 283.837 74.6792 284.202C74.877 284.63 75.0821 285.025 75.2978 285.41C76.7881 286.017 78.4806 286.61 81.0661 287.903C82.3819 288.533 83.6428 289.246 84.8764 290.041C86.1099 290.836 86.5211 291.713 86.85 293.029C86.8776 293.139 86.8913 293.25 86.9016 293.357C86.7821 293.315 86.6536 293.294 86.5192 293.296L71.8303 293.264L44.9886 272.514C44.988 272.514 44.9873 272.513 44.9867 272.513Z" fill="#474961"/>
<path d="M125.756 140.025C125.838 140.036 125.92 140.049 126.002 140.065C126.796 140.215 127.536 140.568 128.152 141.091C151.878 161.225 165.911 177.878 170.25 191.05C172.711 198.52 174.883 217.74 176.767 248.71C177.116 254.453 172.744 259.391 167.002 259.74C166.881 259.747 166.76 259.753 166.639 259.756L149.361 260.203C143.699 260.349 138.957 255.943 138.688 250.285L136.384 201.938C132.597 197.934 129.297 194.408 126.485 191.358C125.81 195.037 124.769 198.922 123.086 204.119C120.281 212.779 108.855 229.895 88.8082 255.466L88.0378 256.493C84.7726 260.843 78.7097 261.949 74.1191 259.031L61.2268 250.836C56.3718 247.75 54.9377 241.312 58.0238 236.457C58.1521 236.255 58.2874 236.058 58.4293 235.865L87.1408 196.906C87.8251 181.461 89.18 167.949 91.2054 156.369C94.2436 139 116.986 139.375 125.593 139.661C125.648 139.78 125.703 139.901 125.756 140.025Z" fill="#3ABF7C"/>
<path opacity="0.176986" d="M125.739 140.021C125.827 140.033 125.915 140.047 126.003 140.064C126.796 140.214 127.537 140.567 128.152 141.089C151.879 161.223 165.912 177.877 170.251 191.049C172.711 198.519 174.883 217.739 176.767 248.709C177.116 254.451 172.744 259.39 167.002 259.739C166.881 259.746 166.76 259.751 166.639 259.754L149.362 260.201C143.699 260.348 138.957 255.942 138.688 250.284L136.385 201.937C132.6 197.936 129.302 194.411 126.49 191.362C127.733 184.567 127.728 178.461 128.21 166.061C128.696 153.588 127.872 144.908 125.739 140.021Z" fill="#444444"/>
<path d="M142.082 75.6895L313.261 63.7194L320.967 173.92C321.178 176.94 318.901 179.56 315.881 179.771L155.639 190.976C152.618 191.188 149.999 188.91 149.787 185.89L142.082 75.6895Z" fill="#F2F6FB"/>
<path d="M151.254 87.1805L156.384 86.8217C156.687 86.8006 156.949 87.0283 156.97 87.3304L157.111 89.3522C157.132 89.6543 156.904 89.9163 156.602 89.9374L151.471 90.2962C151.169 90.3173 150.907 90.0896 150.886 89.7875L150.745 87.7656C150.724 87.4636 150.952 87.2016 151.254 87.1805ZM283.529 77.9309L305.778 76.3751C306.08 76.354 306.342 76.5817 306.363 76.8838L306.504 78.9057C306.525 79.2077 306.298 79.4697 305.995 79.4908L283.747 81.0466C283.445 81.0677 283.183 80.84 283.161 80.5379L283.02 78.5161C282.999 78.214 283.227 77.952 283.529 77.9309ZM241.512 80.869L263.761 79.3132C264.063 79.2921 264.325 79.5198 264.346 79.8219L264.487 81.8438C264.508 82.1458 264.281 82.4078 263.979 82.4289L241.73 83.9847C241.428 84.0058 241.166 83.7781 241.145 83.476L241.003 81.4542C240.982 81.1521 241.21 80.8901 241.512 80.869ZM267.967 79.0191L279.323 78.225C279.625 78.2039 279.887 78.4317 279.908 78.7337L280.049 80.7556C280.07 81.0576 279.843 81.3196 279.54 81.3407L268.185 82.1348C267.883 82.1559 267.621 81.9282 267.6 81.6261L267.458 79.6043C267.437 79.3022 267.665 79.0402 267.967 79.0191Z" fill="#D8DEED"/>
<path d="M206.523 93.6306L169.291 96.2341C168.294 96.3038 167.542 97.1684 167.612 98.1651L172.788 172.183C172.858 173.179 173.722 173.931 174.719 173.861L211.951 171.258C212.948 171.188 213.699 170.323 213.629 169.327L208.454 95.3092C208.384 94.3125 207.519 93.5609 206.523 93.6306Z" fill="#D8DEED"/>
<path d="M254.493 90.0672L217.262 92.6707C216.265 92.7404 215.513 93.6049 215.583 94.6016L220.759 168.619C220.828 169.616 221.693 170.367 222.69 170.298L259.922 167.694C260.918 167.624 261.67 166.76 261.6 165.763L256.424 91.7457C256.355 90.749 255.49 89.9975 254.493 90.0672Z" fill="#D8DEED"/>
<path d="M302.464 86.5037L265.232 89.1072C264.235 89.1769 263.484 90.0414 263.554 91.0382L268.729 165.056C268.799 166.052 269.664 166.804 270.66 166.734L307.892 164.131C308.889 164.061 309.641 163.196 309.571 162.2L304.395 88.1823C304.325 87.1855 303.461 86.434 302.464 86.5037Z" fill="#D8DEED"/>
<path d="M228.872 159.912L252.974 158.227C254.435 158.125 255.016 158.187 255.593 158.341C256.171 158.495 256.634 158.747 256.961 159.087C257.288 159.427 257.474 159.783 257.54 160.717L257.619 161.857C257.685 162.791 257.55 163.169 257.273 163.552C256.996 163.934 256.573 164.248 256.023 164.481C255.472 164.713 254.906 164.856 253.445 164.958L229.343 166.644C227.882 166.746 227.302 166.683 226.724 166.529C226.146 166.376 225.683 166.123 225.356 165.783C225.029 165.443 224.843 165.088 224.778 164.153L224.698 163.014C224.633 162.079 224.768 161.701 225.044 161.319C225.321 160.937 225.744 160.622 226.295 160.39C226.845 160.157 227.412 160.014 228.872 159.912Z" fill="#474BFF"/>
<path d="M181.176 163.476L205.278 161.79C206.738 161.688 207.319 161.751 207.897 161.905C208.475 162.058 208.937 162.311 209.264 162.65C209.591 162.99 209.778 163.346 209.843 164.281L209.923 165.42C209.988 166.355 209.853 166.733 209.577 167.115C209.3 167.497 208.877 167.811 208.326 168.044C207.775 168.277 207.209 168.419 205.749 168.522L181.647 170.207C180.186 170.309 179.605 170.246 179.027 170.093C178.45 169.939 177.987 169.687 177.66 169.347C177.333 169.007 177.147 168.651 177.081 167.717L177.002 166.577C176.936 165.643 177.071 165.264 177.348 164.882C177.624 164.5 178.047 164.186 178.598 163.953C179.149 163.721 179.715 163.578 181.176 163.476Z" fill="#BFC3CC"/>
<path d="M276.569 156.623L300.671 154.938C302.131 154.836 302.712 154.898 303.29 155.052C303.868 155.206 304.33 155.458 304.657 155.798C304.984 156.138 305.171 156.494 305.236 157.428L305.316 158.568C305.381 159.502 305.246 159.88 304.969 160.263C304.693 160.645 304.27 160.959 303.719 161.191C303.168 161.424 302.602 161.567 301.141 161.669L277.039 163.354C275.579 163.457 274.998 163.394 274.42 163.24C273.843 163.087 273.38 162.834 273.053 162.494C272.726 162.154 272.54 161.799 272.474 160.864L272.394 159.725C272.329 158.79 272.464 158.412 272.741 158.03C273.017 157.648 273.44 157.333 273.991 157.101C274.542 156.868 275.108 156.725 276.569 156.623Z" fill="#BFC3CC"/>
<path d="M141.565 68.3061C141.354 65.2856 143.631 62.6657 146.654 62.4543L306.891 51.2495C309.913 51.0382 312.534 53.3167 312.745 56.3361L313.299 64.2659L142.12 76.236L141.565 68.3061Z" fill="#E1E5F0"/>
<path d="M150.758 72.0602C152.344 71.9493 153.54 70.574 153.429 68.9882C153.318 67.4025 151.942 66.2069 150.357 66.3178C148.771 66.4287 147.575 67.804 147.686 69.3898C147.797 70.9755 149.173 72.1711 150.758 72.0602Z" fill="#FF5645"/>
<path d="M160.329 71.3903C161.915 71.2794 163.11 69.904 162.999 68.3183C162.889 66.7326 161.513 65.537 159.927 65.6479C158.342 65.7587 157.146 67.1341 157.257 68.7199C157.368 70.3056 158.743 71.5012 160.329 71.3903Z" fill="#FFCB3D"/>
<path d="M170.173 70.7028C171.759 70.5919 172.955 69.2165 172.844 67.6308C172.733 66.0451 171.357 64.8495 169.772 64.9604C168.186 65.0712 166.99 66.4466 167.101 68.0324C167.212 69.6181 168.587 70.8137 170.173 70.7028Z" fill="#3ABF7C"/>
<path d="M90.7096 118.042L87.6777 118.602C87.5642 118.623 87.4489 118.632 87.3336 118.629C86.4256 118.604 85.7097 117.848 85.7346 116.94C85.9772 108.106 86.8677 102.342 88.4062 99.6484C88.8565 98.86 89.4368 98.2245 90.1078 97.7325C92.8516 95.1284 97.5202 93.6606 103.088 92.7131L104.627 92.4418C107.007 92.0381 109.299 92.0684 111.428 92.4513C114.084 92.5528 117.353 93.1691 120.326 95.1292C120.798 95.4357 121.804 96.0932 122.914 97.1779C122.914 97.1779 125.092 99.2711 127.935 106.397C128.265 107.241 128.744 108.645 129.372 110.606C129.603 111.327 129.206 112.099 128.485 112.33C128.435 112.345 128.385 112.358 128.335 112.368L124.887 113.055L125.796 124.254C125.821 124.556 125.842 124.83 125.894 125.127C126.114 126.536 126.122 128.316 125.214 129.951C123.911 132.352 121.843 135.779 111.026 137.575C100.965 139.237 98.0386 136.691 96.0572 134.925C94.6393 133.672 94.0441 131.718 93.7791 130.373C93.7268 130.076 93.6522 129.81 93.5728 129.518L90.7096 118.042Z" fill="#FF5645"/>
<path opacity="0.176986" d="M111.38 92.4466C116.717 93.3931 121.029 96.5556 123.107 100.654C123.786 101.982 124.134 103.479 124.229 104.966L124.885 113.055L128.321 112.386C128.372 112.376 128.422 112.364 128.472 112.348C129.193 112.12 129.594 111.35 129.366 110.628C128.742 108.653 128.265 107.242 127.935 106.396C125.092 99.2709 122.914 97.1777 122.914 97.1777C121.804 96.093 120.798 95.4355 120.326 95.1289C117.306 93.1379 114.042 92.5334 111.38 92.4466Z" fill="#444444"/>
<path d="M148.506 260.222C148.812 260.241 149.121 260.246 149.433 260.238L166.71 259.791C166.831 259.788 166.952 259.783 167.073 259.776C168.097 259.713 169.077 259.505 169.995 259.173L168.253 276.308H147.506L148.506 260.222ZM77.6033 260.465L71.0608 271.922L54.559 259.395L60.4466 250.269C60.7176 250.482 61.0015 250.683 61.2982 250.872L74.1905 259.066C75.2656 259.75 76.4215 260.213 77.6033 260.465ZM138.538 133.145L142.522 133.587C144.219 132.693 159.679 124.672 160.687 128.563C160.687 128.563 160.62 128.704 160.463 128.947L167.661 126.483C171.63 132.039 168.27 140.725 168.217 140.755C159.031 144.785 152.136 146.926 147.53 147.179C146.998 147.208 146.522 147.174 146.103 147.077C146.096 147.127 146.089 147.178 146.082 147.229C131.55 148.972 116.315 148.327 100.377 145.293C96.5426 144.563 92.3006 135.638 87.6511 118.518C87.6961 118.514 87.7409 118.507 87.7854 118.499L105.676 115.192C105.835 115.163 105.986 115.111 106.124 115.041L110.531 130.037L124.078 131.54C124.522 130.943 124.844 130.367 125.13 129.84C126.039 128.204 126.031 126.424 125.811 125.016C125.758 124.719 125.738 124.444 125.712 124.142L124.782 112.671L128.238 112.062C128.311 112.049 128.383 112.03 128.453 112.006C128.547 111.973 128.636 111.931 128.717 111.88L132.414 119.518C135.482 117.82 144.421 106.715 144.421 106.715C144.421 106.715 144.896 113.019 145.846 125.627L138.538 133.145ZM109.303 89.4309L109.617 92.0368C115.18 92.2641 117.708 94.4267 118.56 95.3696C118.56 95.3696 112.691 96.4412 100.953 98.5846C97.7878 96.0466 93.0763 95.4712 90.1494 97.6787C91.7745 96.1046 94.5815 94.7497 98.5704 93.6143C99.6139 93.3172 100.607 93.0677 101.553 92.8609L100.531 83.1408C100.471 83.1072 100.412 83.0715 100.352 83.0337C99.2833 82.3269 98.4766 81.0106 98.6301 79.4654C98.7591 78.0403 99.8263 76.0794 101.126 75.8448C101.855 75.7062 103.89 76.3249 103.746 75.6824C103.65 75.254 103.089 72.9827 102.062 68.8686C101.975 68.4379 102.227 68.0014 102.651 67.8879C103.611 67.659 104.561 67.6031 105.503 67.0952C105.609 67.0668 105.708 67.012 105.814 66.9836C106.686 66.6365 111.539 64.6265 115.246 67.5497C115.562 67.7771 115.873 68.091 116.191 68.4314C116.943 69.2234 117.438 70.2257 117.669 71.299L118.727 76.0953C118.802 76.5861 118.903 77.0698 118.925 77.5747C119.328 83.7385 117.819 88.4849 115.637 89.2397C115.379 89.3371 113.957 89.7467 112.168 89.7435C111.995 89.7332 112.149 89.7771 109.683 89.4728C109.553 89.4589 109.427 89.4449 109.303 89.4309Z" fill="#F2A98A"/>
<path opacity="0.2" d="M138.329 133.294L145.845 125.666C144.895 113.032 144.421 106.715 144.421 106.715C144.421 106.715 135.482 117.82 132.414 119.518L128.79 112.129C128.692 112.196 128.583 112.252 128.465 112.293C128.395 112.318 128.323 112.337 128.25 112.349L124.794 112.959L125.724 124.43C125.75 124.731 125.77 125.006 125.823 125.303C126.043 126.712 126.051 128.492 125.142 130.127C124.873 130.623 124.572 131.162 124.167 131.722L138.329 133.294Z" fill="#8C2A00"/>
<path d="M159.475 133.373C160.831 132.983 161.879 132.645 164.21 131.866C166.552 131.083 167.608 130.743 168.979 130.349C169.197 130.286 169.425 130.412 169.487 130.631C169.55 130.849 169.424 131.077 169.206 131.139C167.85 131.529 166.802 131.867 164.471 132.646C162.128 133.429 161.073 133.769 159.702 134.163C159.484 134.226 159.256 134.099 159.193 133.881C159.131 133.663 159.257 133.435 159.475 133.373ZM158.758 139.016C160.234 138.491 161.385 138.111 163.95 137.286C166.507 136.463 167.652 136.085 169.118 135.564C169.331 135.488 169.567 135.599 169.643 135.813C169.719 136.027 169.607 136.262 169.393 136.339C167.917 136.864 166.766 137.244 164.201 138.069C161.644 138.891 160.499 139.27 159.033 139.791C158.819 139.867 158.584 139.755 158.508 139.541C158.432 139.328 158.544 139.092 158.758 139.016Z" fill="#482D1F"/>
<path d="M92.496 75.9605C92.474 74.9016 92.6446 73.7458 93.1887 72.6078C93.7082 71.4753 94.4614 70.7911 94.7824 70.5064C96.5516 68.954 98.2557 69.0649 102.259 67.9071C103.099 67.6536 104.337 67.2937 105.777 66.7375C105.89 66.7356 105.989 66.6807 106.094 66.6524C106.966 66.3052 111.748 64.7686 115.26 67.602C115.274 67.6549 115.804 67.9386 115.799 68.0251C115.799 68.0251 112.146 75.8995 104.512 77.5052C104.308 77.285 103.766 76.7635 102.954 76.4331C102.861 76.4014 102.198 76.1532 101.469 76.2918C100.17 76.5264 99.1156 77.8873 98.9866 79.3125C98.8189 80.8047 99.6186 82.0945 100.661 82.8084C101.704 83.5223 102.827 83.4768 103.192 83.464L103.621 83.3402C103.992 84.0494 104.249 84.8135 103.95 85.3965C103.372 86.5226 102.297 87.1727 100.723 87.3469C99.2682 89.1888 96.8885 90.4741 94.1275 90.6672C89.3703 90.9998 85.2827 87.9639 84.9975 83.8863C84.7245 79.9817 88.0373 76.5377 92.496 75.9605ZM119.08 74.6455C118.598 74.8597 117.772 75.1662 116.96 75.1C115.695 75.0415 116.716 74.0868 117.816 73.8488C118.353 73.7334 118.821 73.8918 119.116 74.0398C119.351 74.1754 119.33 74.5216 119.08 74.6455ZM113.943 76.0218C113.435 76.2432 112.609 76.5496 111.77 76.4906C110.513 76.4585 111.527 75.4773 112.627 75.2394C113.19 75.1169 113.658 75.2753 113.953 75.4232C114.214 75.5518 114.194 75.8979 113.943 76.0218Z" fill="#482D1F"/>
<path d="M117.64 77.2171C117.608 76.8852 117.809 76.576 118.127 76.4908C118.338 76.4341 118.552 76.4903 118.731 76.8397C119.143 77.6373 118.649 79.0753 118.177 78.6909C117.827 78.4441 117.708 77.6814 117.64 77.2171ZM112.884 78.3211C112.852 77.9892 113.053 77.68 113.371 77.5948C113.583 77.5381 113.796 77.5943 113.975 77.9437C114.388 78.7413 113.893 80.1792 113.421 79.7949C113.071 79.5481 112.926 78.7925 112.884 78.3211Z" fill="#482D1F"/>
<path d="M115.642 83.314C115.442 83.3107 114.949 83.2725 114.792 83.0025C114.778 82.9495 114.73 82.8772 114.742 82.8171C114.806 82.6299 115.171 82.6171 115.662 82.5423C116.53 82.3947 117.197 82.1309 117.197 82.1309C117.197 82.1309 117.128 82.7172 117.031 82.885C116.879 83.3796 115.954 83.3154 115.642 83.314Z" fill="#482D1F"/>
<path d="M116.318 77.7874L117.387 80.5168L117.397 80.5458C117.474 80.8348 117.348 81.1562 117.073 81.2814C117.022 81.3007 116.993 81.3107 116.963 81.3206C116.688 81.4138 116.488 81.4704 115.767 81.6637C115.62 81.7029 115.47 81.6161 115.431 81.4699C115.392 81.3237 115.479 81.1734 115.625 81.1342C116.333 80.9443 116.528 80.8893 116.787 80.8014C116.815 80.7922 116.841 80.7829 116.868 80.7734C116.863 80.775 116.876 80.7383 116.87 80.6983L115.8 77.9688L115.788 77.9307L115.423 76.3544C115.388 76.2069 115.48 76.0596 115.628 76.0254C115.775 75.9912 115.922 76.083 115.957 76.2305L116.318 77.7874Z" fill="#482D1F"/>
<path d="M106.482 114.931C105.815 112.365 105.104 109.698 104.347 106.93C104.287 106.711 104.061 106.582 103.842 106.642C103.623 106.701 103.494 106.928 103.554 107.147C104.31 109.912 105.02 112.575 105.686 115.138C105.743 115.357 105.967 115.489 106.187 115.432C106.407 115.375 106.539 115.151 106.482 114.931Z" fill="#482D1F"/>
</svg>
