<svg width="466" height="386" viewBox="0 0 466 386" fill="none" xmlns="http://www.w3.org/2000/svg">
<path d="M457.386 31.6445H332.488C327.731 31.6445 323.874 35.501 323.874 40.2582V131.994C323.874 136.751 327.731 140.608 332.488 140.608H457.386C462.143 140.608 466 136.751 466 131.994V40.2582C466 35.501 462.143 31.6445 457.386 31.6445Z" fill="#E1E5F0"/>
<path d="M404.518 110.521V114.681C404.518 115.11 404.473 115.265 404.389 115.422C404.305 115.579 404.182 115.702 404.025 115.786C403.869 115.87 403.713 115.914 403.284 115.914L355.169 115.914V109.287L403.284 109.287C403.713 109.287 403.869 109.332 404.025 109.416C404.182 109.5 404.305 109.623 404.389 109.779C404.473 109.936 404.518 110.092 404.518 110.521Z" fill="#D8DEED"/>
<path d="M453.487 97.267V101.427C453.487 101.856 453.443 102.011 453.359 102.168C453.275 102.325 453.152 102.448 452.995 102.532C452.838 102.616 452.683 102.66 452.254 102.66L355.169 102.66V96.0332L452.254 96.0332C452.683 96.0332 452.838 96.0779 452.995 96.1617C453.152 96.2456 453.275 96.3687 453.359 96.5256C453.443 96.6824 453.487 96.838 453.487 97.267Z" fill="#F2F6FB"/>
<path d="M440.581 84.0121V88.1717C440.581 88.6008 440.536 88.7563 440.452 88.9132C440.368 89.07 440.245 89.1931 440.088 89.277C439.931 89.3608 439.776 89.4055 439.347 89.4055L355.169 89.4055V82.7783L439.347 82.7783C439.776 82.7783 439.931 82.823 440.088 82.9069C440.245 82.9907 440.368 83.1138 440.452 83.2707C440.536 83.4275 440.581 83.5831 440.581 84.0121Z" fill="#D8DEED"/>
<path d="M411.351 70.7572V74.9169C411.351 75.3459 411.306 75.5014 411.222 75.6583C411.138 75.8151 411.015 75.9382 410.858 76.0221C410.702 76.106 410.546 76.1506 410.117 76.1506L355.169 76.1506V69.5234L410.117 69.5234C410.546 69.5234 410.702 69.5681 410.858 69.652C411.015 69.7359 411.138 69.859 411.222 70.0158C411.306 70.1726 411.351 70.3282 411.351 70.7572Z" fill="#D8DEED"/>
<path d="M425.776 57.5033V61.663C425.776 62.092 425.731 62.2475 425.647 62.4044C425.564 62.5612 425.44 62.6843 425.284 62.7682C425.127 62.8521 424.971 62.8967 424.542 62.8967L355.169 62.8967V56.2695L424.542 56.2695C424.971 56.2695 425.127 56.3142 425.284 56.3981C425.44 56.482 425.564 56.605 425.647 56.7619C425.731 56.9187 425.776 57.0743 425.776 57.5033Z" fill="#D8DEED"/>
<path d="M330.592 308.956H364.66C365.694 308.956 366.598 308.249 366.598 307.4V307.223C366.598 306.374 365.694 305.667 364.574 305.667H333.005C313.882 305.667 294.76 305.667 275.681 305.667H246.394C245.361 305.667 244.456 306.374 244.456 307.223V307.4C244.456 308.249 245.318 308.956 246.394 308.956H287.956L276.499 326.212C268.359 338.518 260.219 350.789 252.036 363.095L238.556 383.393C238.082 384.1 238.47 385.019 239.374 385.444L239.546 385.514C240.451 385.903 241.614 385.691 242.044 385.019L292.477 308.956H326.071L376.504 385.019C376.935 385.691 378.097 385.939 379.002 385.514L379.174 385.444C380.079 385.019 380.466 384.1 379.992 383.393L366.512 363.095C358.372 350.789 350.232 338.518 342.049 326.212L330.592 308.956ZM366.469 295.098V274.538C366.469 258.857 366.469 243.211 366.469 227.566V208.881C366.469 205.952 363.577 203.577 360.009 203.577H289.721C286.153 203.577 283.261 205.952 283.261 208.881V295.159C283.261 298.089 286.153 300.463 289.721 300.463C289.723 300.463 289.726 300.463 289.728 300.463L360.015 300.403C363.581 300.399 366.469 298.026 366.469 295.098Z" fill="#D8DEED"/>
<path d="M277.709 385.48C277.383 385.681 276.98 385.798 276.542 385.798H252.639C251.562 385.798 250.658 385.055 250.658 384.171C250.658 383.287 251.562 382.544 252.639 382.544H275.928L318.706 356.377C319.567 355.846 320.816 355.988 321.463 356.695C322.109 357.402 321.936 358.428 321.075 358.958L277.834 385.409C277.793 385.434 277.751 385.458 277.709 385.48ZM134.158 385.76C133.124 385.76 132.22 385.052 132.22 384.168C132.22 383.284 133.081 382.577 134.158 382.577H202.594C203.67 382.577 204.532 383.284 204.532 384.168C204.532 385.052 203.67 385.76 202.594 385.76H134.158Z" fill="#FFCB3D"/>
<path d="M318.92 356.262C318.846 356.296 318.775 356.334 318.706 356.376L275.928 382.544H252.639C252.568 382.544 252.497 382.547 252.427 382.553C252.404 382.44 252.387 382.329 252.381 382.223C252.424 381.975 252.424 381.693 252.51 381.41C252.725 380.773 253.07 380.172 253.457 379.642C254.706 378.015 256.946 376.883 256.946 376.883C259.53 375.504 261.899 374.585 264.698 373.595C266.163 373.064 268.23 372.357 270.642 371.579C271.417 369.528 272.192 367.477 272.967 365.391C274.432 361.395 275.896 357.434 277.317 353.474L303.245 338.021L318.92 356.262ZM203.428 382.729C203.176 382.631 202.893 382.577 202.594 382.577H134.158C133.959 382.577 133.767 382.601 133.587 382.646C133.516 382.52 133.462 382.387 133.426 382.246V382.211C133.426 382.034 133.383 381.857 133.426 381.681C133.469 381.468 133.469 381.292 133.555 381.079C134.115 379.488 135.622 378.144 136.613 377.402C136.742 377.296 136.828 377.26 136.957 377.19C138.852 376.235 140.791 375.351 142.815 374.608C146.777 373.123 155.563 370.082 158.19 368.986C161.593 367.571 166.287 365.167 171.197 360.852C171.455 360.746 177.791 354.641 177.791 354.641C194.987 359.568 203.584 362.043 203.584 362.067V382.07C203.584 382.304 203.529 382.526 203.428 382.729Z" fill="#474961"/>
<path d="M234.405 326.332C228.412 335.613 221.413 347.038 213.41 360.608C211.969 363.051 208.514 364.207 205.404 363.286L173.33 353.789C173.142 353.733 172.956 353.67 172.775 353.6C169.546 352.355 168.158 349.195 169.675 346.544L200.641 292.42C200.015 291.721 199.399 291.027 198.796 290.339C198.759 290.276 198.701 290.26 198.663 290.196C191.921 282.471 193.773 271.973 202.837 267.006C205.838 265.371 208.84 263.737 211.842 262.102C215.706 260.009 220.237 259.26 224.644 259.752C226.847 258.621 229.392 257.69 232.283 257.182C235.21 256.677 237.948 256.702 240.465 257.027L341.079 256.605C344.352 286.11 338.533 301.741 323.621 303.497C313.044 304.743 297.495 305.082 276.974 304.514C286.317 314.013 295.648 323.723 304.737 333.477C305.383 334.163 306.788 335.803 306.783 337.89C306.759 341.716 301.85 343.524 291.006 349.361C278.264 356.274 273.467 360.043 268.543 358.2C266.914 357.632 265.943 356.723 265.544 356.293C260.187 350.352 247.901 339.115 234.405 326.332Z" fill="#A339FF"/>
<path opacity="0.176986" d="M234.49 326.591C238.374 320.572 241.837 315.449 244.881 311.223C246.871 308.46 248.756 305.854 250.473 303.496C260.031 303.998 268.83 304.362 276.87 304.588C286.242 314.115 295.602 323.855 304.718 333.638C305.365 334.324 306.77 335.964 306.765 338.051C306.74 341.877 301.831 343.685 290.988 349.522C278.246 356.435 273.449 360.204 268.525 358.361C266.895 357.794 265.924 356.884 265.525 356.454C260.183 350.528 247.946 339.334 234.49 326.591ZM200.728 292.698C200.065 291.96 199.415 291.227 198.778 290.501C198.74 290.437 198.683 290.421 198.645 290.357C191.902 282.632 193.755 272.134 202.818 267.167C205.82 265.532 208.822 263.898 211.823 262.263C215.703 260.161 220.255 259.415 224.68 259.919C218.235 263.281 214.75 268.338 214.054 269.407L200.728 292.698Z" fill="#444444"/>
<path d="M263.81 235.174C259.929 234.836 254.392 234.377 247.196 233.798C245.476 233.623 243.843 232.146 243.954 230.609C243.604 226.877 246.632 219.494 247.291 217.931C248.798 214.43 251.511 207.676 252.502 204.564C255.258 195.759 258.661 192.47 259.824 191.515C261.159 190.384 262.451 189.606 263.312 189.111C269.126 185.822 275.285 185.327 278.429 185.256C278.515 185.221 278.601 185.221 278.688 185.221L285.73 185.14C289.393 184.439 292.993 184.214 295.93 184.032C300.227 183.787 304.664 183.527 309.041 183.986L321.024 184.125C321.11 184.125 321.196 184.125 321.282 184.16C324.426 184.231 330.585 184.726 336.399 188.015C337.261 188.51 338.553 189.288 339.888 190.419C341.051 191.374 344.453 194.663 347.209 203.468C348.2 206.58 350.913 213.334 352.421 216.835C352.888 217.943 353.888 221.523 355.42 227.573C355.548 227.735 355.638 227.912 355.682 228.1C355.713 228.261 355.709 228.419 355.672 228.573C355.754 228.899 355.838 229.232 355.923 229.571C355.57 229.577 355.219 229.583 354.869 229.589C354.38 229.911 353.71 230.137 352.946 230.2L341.263 231.216C343.148 240.79 343.37 248.819 342.314 253.839C342.314 253.951 342.266 254.099 342.218 254.21C341.979 255.359 267.621 256.73 267.095 256.322C262.313 252.802 263.365 244.391 263.365 244.391C263.515 241.096 263.663 238.029 263.81 235.174Z" fill="#FFCB3D"/>
<path d="M292.384 193.014L299.477 189.535L304.306 193.711L304.3 193.748C304.178 194.582 303.481 195.245 302.574 195.502L301.921 231.864C301.92 231.965 301.866 232.06 301.774 232.126L295.023 236.964C294.846 237.092 294.577 237.078 294.42 236.935L288.303 231.354C288.219 231.277 288.18 231.174 288.196 231.071L294.009 194.772C293.114 194.483 292.482 193.803 292.384 193.014Z" fill="#DE3190"/>
<path opacity="0.2" d="M300.24 183.52C297.78 183.879 288.707 183.963 288.449 186.391C288.276 188.009 288.369 190.815 288.727 194.808L299.477 189.535L307.378 196.368C312.003 190.304 312.741 186.518 309.595 185.01C304.875 182.748 302.7 183.161 300.24 183.52Z" fill="#8C2A00"/>
<path d="M308.636 175.908L306.522 186.805C306.464 187.048 306.28 187.271 306.002 187.334C304.771 187.714 303.059 188.089 301.032 188.126C297.367 188.226 294.48 187.261 292.888 186.574C292.566 186.451 292.378 186.133 292.444 185.855L293.721 179.744C291.332 180.069 291.473 180.021 291.241 180.046C288.446 180.176 286.18 179.742 285.773 179.605C284.276 179.258 282.916 177.96 281.898 175.961C280.512 173.29 279.649 169.334 279.763 164.777C279.742 164.125 279.847 163.493 279.953 162.862L281.255 156.621C281.541 155.226 282.285 153.94 283.392 152.784C283.862 152.282 284.307 151.885 284.82 151.571C288.008 149.29 291.931 148.948 294.977 149.152C296.603 149.238 298.047 149.477 299.064 149.735C299.437 149.83 300.757 150.185 302.677 150.6C303.717 150.838 304.563 150.973 305.062 151.088C311.312 152.302 313.954 152.075 316.796 153.97C317.331 154.307 318.536 155.148 319.432 156.552C321.958 160.521 320.103 164.836 319.579 166.122C317.881 169.957 314.516 171.942 313.432 172.814C312.135 173.874 310.082 175.095 308.636 175.908ZM246.301 248.191L248.685 233.904L259.443 234.755L263.997 235.168L263.722 243.295C265.485 243.075 267.075 242.999 268.49 243.067C278.88 241.05 309.07 235.295 326.185 233.146L326.093 232.439L353.247 230.077C354.01 230.014 354.681 229.788 355.17 229.466C355.321 229.463 355.472 229.461 355.624 229.458C357.28 240.043 355.949 253.285 340.515 256.99H270.952C270.958 257.007 270.964 257.024 270.971 257.04H239.056C238.88 253.591 241.295 250.641 246.301 248.191Z" fill="#DB9E75"/>
<path opacity="0.2" d="M246.292 248.241L248.685 233.903L263.997 235.115L263.7 243.274C259.028 243.908 255.657 244.52 253.588 245.111C251.518 245.701 249.087 246.744 246.292 248.241Z" fill="#8C2A00"/>
<path d="M327.124 232.514C327.197 232.801 326.973 233.082 326.624 233.142C326.275 233.202 325.932 233.019 325.859 232.732C325.18 230.073 322.515 221.215 320.01 213.075C319.923 212.791 320.132 212.502 320.478 212.43C320.824 212.359 321.175 212.531 321.263 212.815C323.775 220.979 326.439 229.834 327.124 232.514ZM264.506 234.754C264.449 235.044 264.117 235.24 263.765 235.194C263.413 235.147 263.174 234.875 263.23 234.585C263.757 231.903 265.135 222.85 266.35 214.513C266.392 214.222 266.713 214.014 267.068 214.049C267.422 214.084 267.675 214.348 267.632 214.639C266.414 223 265.037 232.05 264.506 234.754Z" fill="#482D1F"/>
<path d="M293.626 179.773L300.183 178.553L293.032 182.883L293.626 179.773Z" fill="#482D1F"/>
<path d="M284.462 164.156C284.28 164.74 283.924 165.691 283.419 165.971C282.577 166.377 282.057 164.493 282.862 163.505C283.18 163.087 283.492 163.065 283.822 163.154C284.313 163.304 284.561 163.74 284.462 164.156ZM292.055 165.26C291.957 165.857 291.727 166.829 291.206 167.178C290.432 167.667 289.643 165.812 290.328 164.768C290.604 164.344 290.925 164.287 291.263 164.341C291.77 164.422 292.111 164.837 292.055 165.26Z" fill="#482D1F"/>
<path d="M286.895 171.857C287.208 171.835 287.967 171.776 288.185 171.414C288.201 171.345 288.268 171.247 288.242 171.171C288.13 170.901 287.59 170.959 286.821 170.872C285.452 170.726 284.377 170.446 284.377 170.446C284.377 170.446 284.509 171.188 284.671 171.43C285.013 172.025 286.448 171.894 286.895 171.857Z" fill="#482D1F"/>
<path d="M285.672 164.421L285.688 164.374L285.678 164.397L285.672 164.421ZM284.174 167.987C284.002 168.365 284.28 168.809 284.747 168.952C284.85 168.977 284.85 168.977 284.918 168.992C285.62 169.151 286.062 169.239 286.828 169.361C287.061 169.398 287.288 169.273 287.333 169.081C287.378 168.89 287.226 168.704 286.992 168.667C286.251 168.548 285.829 168.464 285.146 168.31L285.012 168.28C285.011 168.278 284.982 168.232 284.985 168.225L286.502 164.604L286.518 164.556L287.002 162.508C287.048 162.316 286.895 162.131 286.662 162.094C286.428 162.056 286.202 162.182 286.157 162.373L285.678 164.397L284.174 167.987Z" fill="#482D1F"/>
<path d="M312.635 165.825C312.587 166.873 312.102 167.945 311.329 168.746C310.38 169.759 309.273 170.217 307.919 170.49C307.688 170.536 307.547 170.728 307.603 170.918C307.66 171.107 307.893 171.223 308.124 171.177C308.72 171.057 309.201 170.926 309.778 170.687C310.629 170.335 311.388 169.843 312.008 169.181C312.891 168.267 313.441 167.051 313.495 165.852C313.504 165.656 313.319 165.492 313.081 165.485C312.843 165.478 312.644 165.63 312.635 165.825Z" fill="#482D1F"/>
<path d="M312.658 165.705C312.656 165.063 312.499 164.411 312.148 163.783C311.165 162.005 308.834 160.732 306.673 160.964C305.457 161.094 304.524 161.702 304.423 161.758C304.02 162.041 303.687 162.341 303.417 162.625L281.004 157.654C281.498 153.66 283.963 151.013 288.398 149.711C289.596 149.36 292.825 148.842 295.638 149.141C299.979 149.604 304.151 150.584 305.324 150.844C306.28 151.069 307.91 151.203 308.351 151.31C313.139 151.685 316.767 153.428 318.01 154.339C318.476 154.666 319.562 155.488 320.322 156.87C322.705 161.069 320.859 165.421 320.239 166.403C319.804 167.09 319.203 167.498 319.203 167.498C317.412 167.136 315.23 166.538 312.658 165.705ZM281.748 161.165C281.342 161.028 281.322 160.556 281.675 160.361C282.122 160.144 282.864 159.974 283.709 160.109C285.443 160.386 287.081 161.62 285.038 161.726C283.831 161.821 282.511 161.467 281.748 161.165ZM290.4 162.798C289.994 162.661 289.974 162.189 290.369 162C290.816 161.783 291.558 161.614 292.446 161.755C294.179 162.032 295.809 163.301 293.774 163.372C292.474 163.489 291.213 163.072 290.4 162.798Z" fill="#482D1F"/>
<path d="M96.9039 256.69V383.109C96.9039 384.476 95.5541 385.584 93.8891 385.584C92.2241 385.584 90.8743 384.476 90.8743 383.109L90.8743 254.391C90.8743 253.2 91.899 252.206 93.2642 251.969C93.6504 251.822 94.081 251.739 94.5351 251.739H350.792C352.457 251.739 353.807 252.848 353.807 254.215C353.807 255.582 352.457 256.69 350.792 256.69H96.9039Z" fill="#D8DEED"/>
<path d="M200.053 241.836H130.713C127.264 241.836 124.468 244.132 124.468 246.963C124.468 249.795 127.264 252.091 130.713 252.091H200.053C203.502 252.091 206.298 249.795 206.298 246.963C206.298 244.132 203.502 241.836 200.053 241.836Z" fill="#474961"/>
<path d="M196.177 221.326H126.836C123.387 221.326 120.592 223.622 120.592 226.454C120.592 229.285 123.387 231.581 126.836 231.581H196.177C199.626 231.581 202.421 229.285 202.421 226.454C202.421 223.622 199.626 221.326 196.177 221.326Z" fill="#474961"/>
<path d="M209.097 231.581H139.757C136.308 231.581 133.512 233.877 133.512 236.709C133.512 239.54 136.308 241.836 139.757 241.836H209.097C212.546 241.836 215.342 239.54 215.342 236.709C215.342 233.877 212.546 231.581 209.097 231.581Z" fill="#DE3190"/>
<path d="M202.637 211.071H133.297C129.848 211.071 127.052 213.367 127.052 216.199C127.052 219.031 129.848 221.326 133.297 221.326H202.637C206.086 221.326 208.882 219.031 208.882 216.199C208.882 213.367 206.086 211.071 202.637 211.071Z" fill="#DE3190"/>
<path d="M316.108 0.203125H116.715C111.958 0.203125 108.102 4.0596 108.102 8.8168V153.527C108.102 158.284 111.958 162.14 116.715 162.14H316.108C320.865 162.14 324.722 158.284 324.722 153.527V8.8168C324.722 4.0596 320.865 0.203125 316.108 0.203125Z" fill="#F2F6FB"/>
<path d="M118.809 31.6904H124.964C125.439 31.6904 125.825 32.0761 125.825 32.5518V34.7649C125.825 35.2406 125.439 35.6263 124.964 35.6263H118.809C118.334 35.6263 117.948 35.2406 117.948 34.7649V32.5518C117.948 32.0761 118.334 31.6904 118.809 31.6904ZM286.197 31.6904H314.014C314.49 31.6904 314.875 32.0761 314.875 32.5518V34.7649C314.875 35.2406 314.49 35.6263 314.014 35.6263H286.197C285.722 35.6263 285.336 35.2406 285.336 34.7649V32.5518C285.336 32.0761 285.722 31.6904 286.197 31.6904ZM233.027 31.6904H260.844C261.319 31.6904 261.705 32.0761 261.705 32.5518V34.7649C261.705 35.2406 261.319 35.6263 260.844 35.6263H233.027C232.551 35.6263 232.166 35.2406 232.166 34.7649V32.5518C232.166 32.0761 232.551 31.6904 233.027 31.6904ZM266.505 31.6904H280.536C281.012 31.6904 281.398 32.0761 281.398 32.5518V34.7649C281.398 35.2406 281.012 35.6263 280.536 35.6263H266.505C266.029 35.6263 265.643 35.2406 265.643 34.7649V32.5518C265.643 32.0761 266.029 31.6904 266.505 31.6904Z" fill="#E1E5F0"/>
<path d="M313.152 47.4316H119.671C118.719 47.4316 117.948 48.2029 117.948 49.1544V148.041C117.948 148.992 118.719 149.764 119.671 149.764H313.152C314.104 149.764 314.875 148.992 314.875 148.041V49.1544C314.875 48.2029 314.104 47.4316 313.152 47.4316Z" fill="#E1E5F0"/>
<path d="M264.782 92.6943H168.041C167.565 92.6943 167.18 93.08 167.18 93.5557V99.7047C167.18 100.18 167.565 100.566 168.041 100.566H264.782C265.258 100.566 265.643 100.18 265.643 99.7047V93.5557C265.643 93.08 265.258 92.6943 264.782 92.6943Z" fill="#F2F6FB"/>
<path d="M185.189 115.326H247.634C250.371 115.326 251.439 115.626 252.492 116.189C253.545 116.752 254.371 117.578 254.934 118.631C255.497 119.684 255.797 120.752 255.797 123.489V126.843C255.797 129.58 255.497 130.648 254.934 131.7C254.371 132.753 253.545 133.579 252.492 134.143C251.439 134.706 250.371 135.005 247.634 135.005H185.189C182.452 135.005 181.384 134.706 180.331 134.143C179.278 133.579 178.452 132.753 177.889 131.7C177.326 130.648 177.026 129.58 177.026 126.843V123.489C177.026 120.752 177.326 119.684 177.889 118.631C178.452 117.578 179.278 116.752 180.331 116.189C181.384 115.626 182.452 115.326 185.189 115.326Z" fill="#474BFF"/>
<path d="M224.421 68.7427C225.828 68.7427 226.968 67.6016 226.968 66.1941C226.968 64.7865 225.828 63.6455 224.421 63.6455C223.015 63.6455 221.875 64.7865 221.875 66.1941C221.875 67.6016 223.015 68.7427 224.421 68.7427Z" fill="#F2F6FB"/>
<path d="M224.571 84.1758C224.571 84.1758 224.187 84.1758 223.709 84.1758H201.615C201.139 84.1758 200.956 83.8519 201.212 83.4443L212.006 66.2472C212.259 65.8432 212.678 65.8363 212.94 66.2305L222.415 80.6024" fill="#F2F6FB"/>
<path d="M216.977 84.1916C216.977 84.1916 217.181 83.8664 217.433 83.4646L223.714 73.4363C223.966 73.0348 224.389 73.0256 224.66 73.4166L231.43 83.1732C231.701 83.5638 231.535 83.8923 231.06 83.9069L225.051 84.0916" fill="#F2F6FB"/>
<path d="M108.102 8.81847C108.102 4.06035 111.958 0.203125 116.719 0.203125H315.688C320.447 0.203125 324.305 4.05968 324.305 8.81847V18.5199H108.102V8.81847Z" fill="#E1E5F0"/>
<path d="M120.391 13.5248C122.576 13.5248 124.348 11.7542 124.348 9.57C124.348 7.38584 122.576 5.61523 120.391 5.61523C118.205 5.61523 116.433 7.38584 116.433 9.57C116.433 11.7542 118.205 13.5248 120.391 13.5248Z" fill="#FF5645"/>
<path d="M133.305 13.5248C135.49 13.5248 137.262 11.7542 137.262 9.57C137.262 7.38584 135.49 5.61523 133.305 5.61523C131.119 5.61523 129.347 7.38584 129.347 9.57C129.347 11.7542 131.119 13.5248 133.305 13.5248Z" fill="#FFCB3D"/>
<path d="M146.635 13.5248C148.821 13.5248 150.592 11.7542 150.592 9.57C150.592 7.38584 148.821 5.61523 146.635 5.61523C144.449 5.61523 142.678 7.38584 142.678 9.57C142.678 11.7542 144.449 13.5248 146.635 13.5248Z" fill="#3ABF7C"/>
<path d="M215.917 175.192L187.634 156.972C187.257 157.235 187.257 157.235 186.917 157.535L197.49 189.355C197.49 189.355 201.643 188.791 204.853 186.988L209.648 193.149C211.545 192.095 212.885 191.266 213.668 190.664C214.452 190.062 215.44 189.099 216.634 187.777L211.839 181.578C213.198 179.437 214.557 177.296 215.917 175.192Z" fill="#D8DEED"/>
<path d="M149.447 60.9297H8.61371C3.85651 60.9297 3.05176e-05 64.7862 3.05176e-05 69.5434V194.011C3.05176e-05 198.768 3.85651 202.625 8.61371 202.625H149.447C154.205 202.625 158.061 198.768 158.061 194.011V69.5434C158.061 64.7862 154.205 60.9297 149.447 60.9297Z" fill="#F2F6FB"/>
<path d="M3.05176e-05 68.7612C3.05176e-05 64.436 3.50425 60.9297 7.83155 60.9297H150.23C154.555 60.9297 158.061 64.435 158.061 68.7612V76.5926H3.05176e-05V68.7612Z" fill="#E1E5F0"/>
<path d="M9.8333 72.9501C11.8447 72.9501 13.4753 71.3193 13.4753 69.3076C13.4753 67.2959 11.8447 65.665 9.8333 65.665C7.82191 65.665 6.19135 67.2959 6.19135 69.3076C6.19135 71.3193 7.82191 72.9501 9.8333 72.9501Z" fill="#FF5645"/>
<path d="M21.3055 72.9501C23.4174 72.9501 25.1295 71.3193 25.1295 69.3076C25.1295 67.2959 23.4174 65.665 21.3055 65.665C19.1935 65.665 17.4814 67.2959 17.4814 69.3076C17.4814 71.3193 19.1935 72.9501 21.3055 72.9501Z" fill="#FFCB3D"/>
<path d="M32.7777 72.9501C34.7891 72.9501 36.4196 71.3193 36.4196 69.3076C36.4196 67.2959 34.7891 65.665 32.7777 65.665C30.7663 65.665 29.1357 67.2959 29.1357 69.3076C29.1357 71.3193 30.7663 72.9501 32.7777 72.9501Z" fill="#3ABF7C"/>
<path d="M33.6886 165.834H85.4035C86.9123 165.834 88.1354 167.057 88.1354 168.566C88.1354 170.075 86.9123 171.298 85.4035 171.298H33.6886C32.1798 171.298 30.9567 170.075 30.9567 168.566C30.9567 167.057 32.1798 165.834 33.6886 165.834ZM95.9661 165.834H124.737C126.245 165.834 127.469 167.057 127.469 168.566C127.469 170.075 126.245 171.298 124.737 171.298H95.9661C94.4573 171.298 93.2342 170.075 93.2342 168.566C93.2342 167.057 94.4573 165.834 95.9661 165.834ZM79.3947 154.178C61.091 154.178 46.2529 139.338 46.2529 121.031C46.2529 102.724 61.091 87.8838 79.3947 87.8838C97.6984 87.8838 112.537 102.724 112.537 121.031C112.537 139.338 97.6984 154.178 79.3947 154.178Z" fill="#F29370"/>
<path d="M124.669 181.133H33.7561C32.21 181.133 30.9567 182.386 30.9567 183.932V184.161C30.9567 185.708 32.21 186.961 33.7561 186.961H124.669C126.215 186.961 127.469 185.708 127.469 184.161V183.932C127.469 182.386 126.215 181.133 124.669 181.133Z" fill="#E1E5F0"/>
<path d="M80.8656 125.745H80.5736C80.6239 126.465 80.6119 125.482 79.8919 125.532L77.7385 124.671C77.0185 124.721 80.5736 125.745 73.8623 123.123L73.2166 123.413C73.2097 123.314 73.214 123.217 73.2283 123.123L73.1254 123.088L67.9863 122.232C66.191 121.934 64.816 120.473 64.6257 118.663L64.6252 118.658C64.4347 116.845 65.4622 115.123 67.1484 114.43L72.3333 112.299L83.6294 104.653C83.8215 104.523 84.0449 104.447 84.2764 104.432C84.9966 104.384 85.6187 104.93 85.6659 105.65L86.9952 125.935C87.0065 126.108 86.9834 126.281 86.9271 126.445C86.6928 127.128 85.9494 127.491 85.2667 127.257L80.8656 125.745Z" fill="#E1E5F0"/>
<path d="M69.9862 122.517C70.4294 121.777 67.923 114.119 67.923 114.119C67.923 114.119 66.5406 114.55 65.8946 115.196C62.7086 118.506 66.1368 122.287 67.923 122.086C69.1249 122.302 67.6175 122.087 69.9862 122.517Z" fill="#D8DEED"/>
</svg>
