<svg width="466" height="336" viewBox="0 0 466 336" fill="none" xmlns="http://www.w3.org/2000/svg">
<path d="M293.233 0.0107422H146.611C141.769 0.0107422 137.844 3.80505 137.844 8.48557V112.726C137.844 117.407 141.769 121.201 146.611 121.201H293.233C298.075 121.201 302 117.407 302 112.726V8.48557C302 3.80505 298.075 0.0107422 293.233 0.0107422Z" fill="#F2F6FB"/>
<path d="M222.583 95.0524C240.951 84.8019 247.241 62.0958 236.634 44.3369C226.027 26.5779 202.539 20.4911 184.172 30.7416C165.805 40.9921 159.514 63.6982 170.121 81.4572C180.728 99.2161 204.216 105.303 222.583 95.0524ZM213.186 79.3181C203.806 84.5528 191.811 81.4444 186.394 72.3753C180.977 63.3062 184.19 51.7106 193.57 46.4759C202.949 41.2412 214.944 44.3496 220.361 53.4187C225.778 62.4878 222.565 74.0834 213.186 79.3181Z" fill="#E1E5F0"/>
<path d="M179.423 22.9385C156.716 35.6109 148.939 63.6816 162.052 85.6363C175.165 107.591 204.203 115.116 226.91 102.444C249.616 89.7713 257.394 61.7006 244.28 39.7459L228.117 48.7664C236.075 62.09 231.355 79.1251 217.575 86.8155C203.795 94.5059 186.174 89.9393 178.216 76.6158C170.258 63.2922 174.977 46.2571 188.757 38.5667L179.423 22.9385Z" fill="white"/>
<mask id="mask0_839_9377" style="mask-type:luminance" maskUnits="userSpaceOnUse" x="155" y="22" width="96" height="87">
<path d="M179.423 22.9376C156.716 35.6099 148.939 63.6806 162.052 85.6354C175.165 107.59 204.203 115.115 226.91 102.443C249.616 89.7704 257.394 61.6996 244.28 39.7449L228.117 48.7655C236.075 62.089 231.355 79.1242 217.575 86.8145C203.795 94.5049 186.174 89.9383 178.216 76.6148C170.258 63.2912 174.977 46.2561 188.757 38.5657L179.423 22.9376Z" fill="white"/>
</mask>
<g mask="url(#mask0_839_9377)">
<path d="M180.238 22.8372C155.073 31.1097 146.77 64.7755 159.883 86.7302C172.996 108.685 212.92 116.346 227.725 102.342L218.502 85.7131C204.661 93.4377 186.878 89.8998 178.92 76.5763C170.962 63.2528 175.731 46.1899 189.572 38.4654L180.238 22.8372Z" fill="#A03813"/>
</g>
<path d="M275.323 42.0342H265.144C264.659 42.0342 264.267 42.4136 264.267 42.8817V52.5819C264.267 53.0499 264.659 53.4293 265.144 53.4293H275.323C275.807 53.4293 276.2 53.0499 276.2 52.5819V42.8817C276.2 42.4136 275.807 42.0342 275.323 42.0342Z" fill="#A03813"/>
<path d="M275.323 58.7207H265.144C264.659 58.7207 264.267 59.1001 264.267 59.5682V69.2684C264.267 69.7364 264.659 70.1159 265.144 70.1159H275.323C275.807 70.1159 276.2 69.7364 276.2 69.2684V59.5682C276.2 59.1001 275.807 58.7207 275.323 58.7207Z" fill="white"/>
<path d="M275.323 75.4053H265.144C264.659 75.4053 264.267 75.7847 264.267 76.2528V85.953C264.267 86.421 264.659 86.8004 265.144 86.8004H275.323C275.807 86.8004 276.2 86.421 276.2 85.953V76.2528C276.2 75.7847 275.807 75.4053 275.323 75.4053Z" fill="#E1E5F0"/>
<path d="M137.844 6.86468C137.844 3.07936 141.018 0.0107422 144.935 0.0107422H294.264C298.18 0.0107422 301.355 3.07852 301.355 6.86468V13.7186H137.844V6.86468Z" fill="#E1E5F0"/>
<path d="M463.866 172.019H329.046C327.867 172.019 326.912 173.157 326.912 174.561V294.056C326.912 295.46 327.867 296.599 329.046 296.599H463.866C465.045 296.599 466 295.46 466 294.056V174.561C466 173.157 465.045 172.019 463.866 172.019Z" fill="#F2F6FB"/>
<path d="M386.443 223.262H406.469V232.132C406.469 233.07 405.831 233.83 405.045 233.83H387.867C387.08 233.83 386.443 233.07 386.443 232.132V223.262Z" fill="#E1E5F0"/>
<path d="M354.345 270.019H374.372V278.889C374.372 279.827 373.734 280.587 372.948 280.587H355.769C354.983 280.587 354.345 279.827 354.345 278.889V270.019Z" fill="#E1E5F0"/>
<path d="M386.443 270.019H406.469V278.889C406.469 279.827 405.831 280.587 405.045 280.587H387.867C387.08 280.587 386.443 279.827 386.443 278.889V270.019Z" fill="#E1E5F0"/>
<path d="M418.814 270.019H438.841V278.889C438.841 279.827 438.203 280.587 437.417 280.587H420.239C419.452 280.587 418.814 279.827 418.814 278.889V270.019Z" fill="#E1E5F0"/>
<path d="M386.443 205.417C386.443 204.483 387.081 203.726 387.867 203.726H405.045C405.831 203.726 406.469 204.484 406.469 205.417V225.402H386.443V205.417ZM354.345 251.964C354.345 251.026 354.983 250.266 355.769 250.266H372.948C373.734 250.266 374.372 251.023 374.372 251.964V272.261H354.345V251.964ZM386.443 251.964C386.443 251.026 387.081 250.266 387.867 250.266H405.045C405.831 250.266 406.469 251.023 406.469 251.964V272.261H386.443V251.964ZM418.814 251.964C418.814 251.026 419.452 250.266 420.238 250.266H437.417C438.203 250.266 438.841 251.023 438.841 251.964V272.261H418.814V251.964Z" fill="#A03813"/>
<path d="M428.416 250.482V249.158V243.962C428.416 243.498 428.099 243.116 427.707 243.116H366.027C365.636 243.116 365.319 243.496 365.319 243.964V250.482H363.398V242.994C363.398 241.823 364.197 240.874 365.18 240.874H428.554C429.539 240.874 430.336 241.819 430.336 242.993V245.522V250.482H428.416Z" fill="#E1E5F0"/>
<path d="M397.416 233.828H395.496V250.481H397.416V233.828Z" fill="#E1E5F0"/>
<path d="M326.912 179.065C326.912 175.174 329.558 172.02 332.827 172.02H460.085C463.352 172.02 466 175.173 466 179.065V186.111H326.912V179.065Z" fill="#E1E5F0"/>
<path d="M335.004 182.267C336.444 182.267 337.611 180.904 337.611 179.224C337.611 177.544 336.444 176.182 335.004 176.182C333.565 176.182 332.398 177.544 332.398 179.224C332.398 180.904 333.565 182.267 335.004 182.267Z" fill="#FF5645"/>
<path d="M343.509 182.267C344.948 182.267 346.115 180.904 346.115 179.224C346.115 177.544 344.948 176.182 343.509 176.182C342.07 176.182 340.903 177.544 340.903 179.224C340.903 180.904 342.07 182.267 343.509 182.267Z" fill="#FFCB3D"/>
<path d="M352.288 182.267C353.727 182.267 354.894 180.904 354.894 179.224C354.894 177.544 353.727 176.182 352.288 176.182C350.848 176.182 349.682 177.544 349.682 179.224C349.682 180.904 350.848 182.267 352.288 182.267Z" fill="#F29370"/>
<path d="M114.188 99.1387H2.13435C0.955582 99.1387 0 100.277 0 101.681V202.955C0 204.36 0.955582 205.498 2.13435 205.498H114.188C115.367 205.498 116.322 204.36 116.322 202.955V101.681C116.322 100.277 115.367 99.1387 114.188 99.1387Z" fill="#F2F6FB"/>
<path d="M92.8917 156.283H96.6196C98.2052 156.283 98.7802 156.48 99.3599 156.849C99.9396 157.218 100.395 157.76 100.705 158.451C101.015 159.142 101.18 159.826 101.18 161.715V205.498H88.3315V161.715C88.3315 159.826 88.4966 159.142 88.8067 158.451C89.1167 157.76 89.5717 157.218 90.1514 156.849C90.7311 156.48 91.3061 156.283 92.8917 156.283Z" fill="#D8DEED"/>
<path d="M78.2081 168.04H82.1654C83.7511 168.04 84.3261 168.237 84.9058 168.606C85.4855 168.975 85.9404 169.517 86.2505 170.208C86.5605 170.898 86.7256 171.583 86.7256 173.472V205.498H73.6479V173.472C73.6479 171.583 73.8131 170.898 74.1231 170.208C74.4331 169.517 74.8881 168.975 75.4678 168.606C76.0475 168.237 76.6225 168.04 78.2081 168.04Z" fill="#D8DEED"/>
<path d="M63.7538 131.402H67.4816C69.0673 131.402 69.6423 131.599 70.222 131.968C70.8017 132.338 71.2567 132.88 71.5667 133.57C71.8767 134.261 72.0418 134.946 72.0418 136.834V205.498H59.1936V136.834C59.1936 134.946 59.3587 134.261 59.6687 133.57C59.9788 132.88 60.4337 132.338 61.0134 131.968C61.5931 131.599 62.1681 131.402 63.7538 131.402Z" fill="#E1E5F0"/>
<path d="M49.0702 140.973H52.798C54.3837 140.973 54.9587 141.169 55.5384 141.539C56.1181 141.908 56.5731 142.45 56.8831 143.14C57.1931 143.831 57.3582 144.516 57.3582 146.405V205.499H44.51V146.405C44.51 144.516 44.6751 143.831 44.9851 143.14C45.2952 142.45 45.7501 141.908 46.3298 141.539C46.9095 141.169 47.4845 140.973 49.0702 140.973Z" fill="#D8DEED"/>
<path d="M34.6159 163.393H38.3437C39.9294 163.393 40.5044 163.589 41.0841 163.959C41.6638 164.328 42.1187 164.87 42.4287 165.56C42.7388 166.251 42.9039 166.936 42.9039 168.825V205.499H30.0557V168.825C30.0557 166.936 30.2208 166.251 30.5308 165.56C30.8408 164.87 31.2958 164.328 31.8755 163.959C32.4552 163.589 33.0302 163.393 34.6159 163.393Z" fill="#D8DEED"/>
<path d="M19.9323 152.183H23.6601C25.2458 152.183 25.8208 152.379 26.4005 152.749C26.9802 153.118 27.4351 153.66 27.7451 154.35C28.0552 155.041 28.2203 155.726 28.2203 157.615V205.499H15.3721V157.615C15.3721 155.726 15.5372 155.041 15.8472 154.35C16.1572 153.66 16.6122 153.118 17.1919 152.749C17.7716 152.379 18.3466 152.183 19.9323 152.183Z" fill="#D8DEED"/>
<path d="M260.035 294.905H108.141C104.211 294.905 101.026 298.7 101.026 303.38V327.533C101.026 332.214 104.211 336.008 108.141 336.008H260.035C263.965 336.008 267.15 332.214 267.15 327.533V303.38C267.15 298.7 263.965 294.905 260.035 294.905Z" fill="#D8DEED"/>
<path d="M229.443 309.736H250.787C251.923 309.736 252.934 310.038 253.777 310.592C254.621 311.145 255.296 311.949 255.76 312.953C256.225 313.958 256.478 315.162 256.478 316.516C256.478 317.87 256.225 319.075 255.76 320.079C255.296 321.083 254.621 321.888 253.777 322.441C252.934 322.994 251.923 323.296 250.787 323.296H229.443C228.307 323.296 227.295 322.994 226.452 322.441C225.609 321.888 224.934 321.083 224.469 320.079C224.005 319.075 223.751 317.87 223.751 316.516C223.751 315.162 224.005 313.958 224.469 312.953C224.934 311.949 225.609 311.145 226.452 310.592C227.295 310.038 228.307 309.736 229.443 309.736Z" fill="#A03813"/>
<path d="M210.59 309.736H115.967C115.181 309.736 114.544 310.495 114.544 311.431V321.601C114.544 322.537 115.181 323.296 115.967 323.296H210.59C211.375 323.296 212.012 322.537 212.012 321.601V311.431C212.012 310.495 211.375 309.736 210.59 309.736Z" fill="white"/>
<path d="M294.54 147.871H166.479C162.55 147.871 159.364 151.665 159.364 156.346V265.671C159.364 270.352 162.55 274.146 166.479 274.146H294.54C298.469 274.146 301.654 270.352 301.654 265.671V156.346C301.654 151.665 298.469 147.871 294.54 147.871Z" fill="#F2F6FB"/>
<path d="M181.971 198.667C174.88 198.667 169.132 191.814 169.132 183.361C169.132 174.907 174.88 168.055 181.971 168.055C189.061 168.055 194.809 174.907 194.809 183.361C194.809 191.814 189.061 198.667 181.971 198.667ZM181.964 183.154C183.712 183.154 185.13 181.487 185.13 179.431C185.13 177.375 183.712 175.708 181.964 175.708C180.216 175.708 178.798 177.375 178.798 179.431C178.798 181.487 180.216 183.154 181.964 183.154ZM181.964 185.015C178.795 185.015 176.226 188.037 176.226 191.764H187.702C187.702 188.037 185.133 185.015 181.964 185.015ZM181.971 255.299C174.88 255.299 169.132 248.446 169.132 239.993C169.132 231.54 174.88 224.687 181.971 224.687C189.061 224.687 194.809 231.54 194.809 239.993C194.809 248.446 189.061 255.299 181.971 255.299ZM181.964 239.786C183.712 239.786 185.13 238.119 185.13 236.063C185.13 234.007 183.712 232.34 181.964 232.34C180.216 232.34 178.798 234.007 178.798 236.063C178.798 238.119 180.216 239.786 181.964 239.786ZM181.964 241.648C178.795 241.648 176.226 244.669 176.226 248.396H187.702C187.702 244.669 185.133 241.648 181.964 241.648ZM201.94 236.932H269.844C270.237 236.932 270.556 237.311 270.556 237.779V242.207C270.556 242.675 270.237 243.054 269.844 243.054H201.94C201.547 243.054 201.228 242.675 201.228 242.207V237.779C201.228 237.311 201.547 236.932 201.94 236.932ZM201.94 246.881H263.425C263.818 246.881 264.137 247.26 264.137 247.728V252.156C264.137 252.624 263.818 253.003 263.425 253.003H201.94C201.547 253.003 201.228 252.624 201.228 252.156V247.728C201.228 247.26 201.547 246.881 201.94 246.881Z" fill="#D8DEED"/>
<path d="M271.662 168.055H202.652C201.866 168.055 201.229 168.814 201.229 169.75V212.278C201.229 213.214 201.866 213.973 202.652 213.973H271.662C272.448 213.973 273.085 213.214 273.085 212.278V169.75C273.085 168.814 272.448 168.055 271.662 168.055Z" fill="#F29370"/>
<path fill-rule="evenodd" clip-rule="evenodd" d="M237.734 198.628L237.06 198.639L237.065 198.628H228.235C227.84 198.628 227.688 198.309 227.896 197.91L234.031 186.166C234.239 185.769 234.583 185.767 234.799 186.156L239.296 194.35L240.913 191.248C241.12 190.851 241.467 190.838 241.693 191.229L245.441 197.719C245.665 198.106 245.53 198.431 245.133 198.446L242.01 198.561L241.495 198.569L241.524 198.628C241.524 198.628 241.206 198.628 240.811 198.628H237.734ZM241.436 187.727C240.61 187.727 239.939 186.921 239.939 185.927C239.939 184.933 240.61 184.127 241.436 184.127C242.263 184.127 242.934 184.933 242.934 185.927C242.934 186.921 242.263 187.727 241.436 187.727Z" fill="white"/>
<path d="M277.548 226.98H201.94C201.547 226.98 201.229 227.36 201.229 227.828V232.255C201.229 232.723 201.547 233.103 201.94 233.103H277.548C277.941 233.103 278.259 232.723 278.259 232.255V227.828C278.259 227.36 277.941 226.98 277.548 226.98Z" fill="#E1E5F0"/>
</svg>
