<svg width="426" height="300" viewBox="0 0 426 300" fill="none" xmlns="http://www.w3.org/2000/svg">
<path d="M141.111 211.438H72.0786C71.8025 211.438 71.5786 211.662 71.5786 211.938V218.25C71.5786 218.526 71.8025 218.75 72.0786 218.75H141.111C141.387 218.75 141.611 218.526 141.611 218.25V211.938C141.611 211.662 141.387 211.438 141.111 211.438Z" fill="#E1E5F0"/>
<path d="M155.422 169.946H72.5786C72.0263 169.946 71.5786 170.394 71.5786 170.946V205.869C71.5786 206.422 72.0263 206.869 72.5786 206.869H155.422C155.974 206.869 156.422 206.422 156.422 205.869V170.946C156.422 170.394 155.974 169.946 155.422 169.946Z" fill="#F2F6FB"/>
<path d="M121.853 189.093L106.984 196.534C106.861 196.596 106.711 196.546 106.649 196.423C106.632 196.388 106.622 196.349 106.622 196.311V181.428C106.622 181.29 106.734 181.178 106.872 181.178C106.911 181.178 106.95 181.187 106.984 181.204L121.853 188.646C121.977 188.707 122.027 188.858 121.965 188.981C121.941 189.029 121.902 189.069 121.853 189.093Z" fill="#E1E5F0"/>
<path d="M382.233 148.25H271C268.239 148.25 266 150.489 266 153.25V234C266 236.761 268.239 239 271 239H382.233C384.995 239 387.233 236.761 387.233 234V153.25C387.233 150.489 384.995 148.25 382.233 148.25Z" fill="#F2F6FB"/>
<mask id="mask0_838_8372" style="mask-type:luminance" maskUnits="userSpaceOnUse" x="266" y="148" width="122" height="91">
<path d="M382.233 148.25H271C268.239 148.25 266 150.489 266 153.25V234C266 236.761 268.239 239 271 239H382.233C384.995 239 387.233 236.761 387.233 234V153.25C387.233 150.489 384.995 148.25 382.233 148.25Z" fill="white"/>
</mask>
<g mask="url(#mask0_838_8372)">
<path d="M367.099 181.872H329.117C327.736 181.872 326.617 182.991 326.617 184.372V262.318C326.617 263.698 327.736 264.818 329.117 264.818H367.099C368.48 264.818 369.599 263.698 369.599 262.318V184.372C369.599 182.991 368.48 181.872 367.099 181.872Z" fill="#E1E5F0"/>
<path d="M350.59 186.816H346.177C345.721 186.816 345.353 187.185 345.353 187.64C345.353 188.095 345.721 188.464 346.177 188.464H350.59C351.045 188.464 351.414 188.095 351.414 187.64C351.414 187.185 351.045 186.816 350.59 186.816Z" fill="#F2F6FB"/>
<path d="M366.293 191.211H329.923V254.931H366.293V191.211Z" fill="#F2F6FB"/>
<path d="M348.734 228.467L348.136 228.475L348.141 228.467H340.477C340.202 228.467 340.096 228.28 340.243 228.045L345.603 219.491C345.749 219.258 345.992 219.257 346.144 219.485L350.048 225.418L351.487 223.117C351.634 222.882 351.88 222.876 352.036 223.101L355.367 227.909C355.524 228.135 355.429 228.325 355.149 228.334L352.264 228.423L351.93 228.427L351.955 228.467C351.955 228.467 351.732 228.467 351.456 228.467H348.734ZM351.88 220.694C351.172 220.694 350.599 220.12 350.599 219.411C350.599 218.702 351.172 218.127 351.88 218.127C352.587 218.127 353.16 218.702 353.16 219.411C353.16 220.12 352.587 220.694 351.88 220.694Z" fill="#E1E5F0"/>
</g>
<mask id="mask1_838_8372" style="mask-type:luminance" maskUnits="userSpaceOnUse" x="266" y="148" width="122" height="91">
<path d="M382.233 148.25H271C268.239 148.25 266 150.489 266 153.25V234C266 236.761 268.239 239 271 239H382.233C384.995 239 387.233 236.761 387.233 234V153.25C387.233 150.489 384.995 148.25 382.233 148.25Z" fill="white"/>
</mask>
<g mask="url(#mask1_838_8372)">
<path d="M272.033 169.846H275.442C275.718 169.846 275.942 170.07 275.942 170.346V171.543C275.942 171.819 275.718 172.043 275.442 172.043H272.033C271.757 172.043 271.533 171.819 271.533 171.543V170.346C271.533 170.07 271.757 169.846 272.033 169.846ZM365.714 169.846H381.245C381.522 169.846 381.745 170.07 381.745 170.346V171.543C381.745 171.819 381.522 172.043 381.245 172.043H365.714C365.437 172.043 365.214 171.819 365.214 171.543V170.346C365.214 170.07 365.437 169.846 365.714 169.846ZM335.956 169.846H351.488C351.764 169.846 351.988 170.07 351.988 170.346V171.543C351.988 171.819 351.764 172.043 351.488 172.043H335.956C335.68 172.043 335.456 171.819 335.456 171.543V170.346C335.456 170.07 335.68 169.846 335.956 169.846ZM354.692 169.846H362.509C362.786 169.846 363.009 170.07 363.009 170.346V171.543C363.009 171.819 362.786 172.043 362.509 172.043H354.692C354.416 172.043 354.192 171.819 354.192 171.543V170.346C354.192 170.07 354.416 169.846 354.692 169.846Z" fill="#E1E5F0"/>
</g>
<path d="M278.623 184.877H310.729C311.005 184.877 311.229 185.101 311.229 185.377V188.785C311.229 189.061 311.005 189.285 310.729 189.285H278.623C278.347 189.285 278.123 189.061 278.123 188.785V185.377C278.123 185.101 278.347 184.877 278.623 184.877ZM278.623 192.039H305.212C305.488 192.039 305.712 192.263 305.712 192.539V195.947C305.712 196.223 305.488 196.447 305.212 196.447H278.623C278.347 196.447 278.123 196.223 278.123 195.947V192.539C278.123 192.263 278.347 192.039 278.623 192.039ZM278.623 206.364H294.176C294.452 206.364 294.676 206.588 294.676 206.864V210.272C294.676 210.548 294.452 210.772 294.176 210.772H278.623C278.347 210.772 278.123 210.548 278.123 210.272V206.864C278.123 206.588 278.347 206.364 278.623 206.364ZM278.623 199.202H310.729C311.005 199.202 311.229 199.426 311.229 199.702V203.11C311.229 203.386 311.005 203.61 310.729 203.61H278.623C278.347 203.61 278.123 203.386 278.123 203.11V199.702C278.123 199.426 278.347 199.202 278.623 199.202Z" fill="#E1E5F0"/>
<path d="M282.502 216.138H303.586C304.744 216.138 305.436 216.312 306.047 216.639C306.658 216.965 307.138 217.445 307.464 218.056C307.791 218.667 307.965 219.359 307.965 220.517V221.323C307.965 222.481 307.791 223.173 307.464 223.784C307.138 224.395 306.658 224.875 306.047 225.202C305.436 225.529 304.744 225.703 303.586 225.703H282.502C281.345 225.703 280.653 225.529 280.042 225.202C279.431 224.875 278.951 224.395 278.624 223.784C278.297 223.173 278.123 222.481 278.123 221.323V220.517C278.123 219.359 278.297 218.667 278.624 218.056C278.951 217.445 279.431 216.965 280.042 216.639C280.653 216.312 281.345 216.138 282.502 216.138Z" fill="#474BFF"/>
<path d="M266 153.251C266 150.489 268.236 148.25 271.002 148.25H381.998C384.76 148.25 387 150.49 387 153.251V158.515H266V153.251Z" fill="#E1E5F0"/>
<path d="M272.878 155.716C274.101 155.716 275.093 154.723 275.093 153.499C275.093 152.275 274.101 151.283 272.878 151.283C271.654 151.283 270.663 152.275 270.663 153.499C270.663 154.723 271.654 155.716 272.878 155.716Z" fill="#FF5645"/>
<path d="M280.105 155.716C281.328 155.716 282.32 154.723 282.32 153.499C282.32 152.275 281.328 151.283 280.105 151.283C278.882 151.283 277.89 152.275 277.89 153.499C277.89 154.723 278.882 155.716 280.105 155.716Z" fill="#FFCB3D"/>
<path d="M287.566 155.716C288.789 155.716 289.78 154.723 289.78 153.499C289.78 152.275 288.789 151.283 287.566 151.283C286.342 151.283 285.351 152.275 285.351 153.499C285.351 154.723 286.342 155.716 287.566 155.716Z" fill="#3ABF7C"/>
<path d="M171.992 54.25H56.25C53.4886 54.25 51.25 56.4886 51.25 59.25V143.25C51.25 146.011 53.4886 148.25 56.25 148.25H171.992C174.753 148.25 176.992 146.011 176.992 143.25V59.25C176.992 56.4886 174.753 54.25 171.992 54.25Z" fill="#F2F6FB"/>
<path d="M57.4656 72.5273H61.038C61.3141 72.5273 61.538 72.7512 61.538 73.0273V74.312C61.538 74.5881 61.3141 74.812 61.038 74.812H57.4656C57.1894 74.812 56.9656 74.5881 56.9656 74.312V73.0273C56.9656 72.7512 57.1894 72.5273 57.4656 72.5273ZM154.63 72.5273H170.776C171.052 72.5273 171.276 72.7512 171.276 73.0273V74.312C171.276 74.5881 171.052 74.812 170.776 74.812H154.63C154.354 74.812 154.13 74.5881 154.13 74.312V73.0273C154.13 72.7512 154.354 72.5273 154.63 72.5273ZM123.766 72.5273H139.912C140.189 72.5273 140.412 72.7512 140.412 73.0273V74.312C140.412 74.5881 140.189 74.812 139.912 74.812H123.766C123.49 74.812 123.266 74.5881 123.266 74.312V73.0273C123.266 72.7512 123.49 72.5273 123.766 72.5273ZM143.199 72.5273H151.343C151.62 72.5273 151.843 72.7512 151.843 73.0273V74.312C151.843 74.5881 151.62 74.812 151.343 74.812H143.199C142.922 74.812 142.699 74.5881 142.699 74.312V73.0273C142.699 72.7512 142.922 72.5273 143.199 72.5273Z" fill="#E1E5F0"/>
<path d="M170.276 81.666H57.9656C57.4133 81.666 56.9656 82.1137 56.9656 82.666V140.067C56.9656 140.619 57.4133 141.067 57.9656 141.067H170.276C170.829 141.067 171.276 140.619 171.276 140.067V82.666C171.276 82.1137 170.829 81.666 170.276 81.666Z" fill="#E1E5F0"/>
<path d="M142.199 107.939H86.0432C85.7671 107.939 85.5432 108.163 85.5432 108.439V112.009C85.5432 112.285 85.7671 112.509 86.0432 112.509H142.199C142.475 112.509 142.699 112.285 142.699 112.009V108.439C142.699 108.163 142.475 107.939 142.199 107.939Z" fill="#F2F6FB"/>
<path d="M95.997 121.076H132.245C133.834 121.076 134.454 121.25 135.065 121.577C135.676 121.904 136.155 122.383 136.482 122.995C136.809 123.606 136.983 124.226 136.983 125.814V127.761C136.983 129.35 136.809 129.97 136.482 130.581C136.155 131.192 135.676 131.672 135.065 131.999C134.454 132.325 133.834 132.499 132.245 132.499H95.997C94.4083 132.499 93.7883 132.325 93.1772 131.999C92.5661 131.672 92.0865 131.192 91.7597 130.581C91.4328 129.97 91.2588 129.35 91.2588 127.761V125.814C91.2588 124.226 91.4328 123.606 91.7597 122.995C92.0865 122.383 92.5661 121.904 93.1772 121.577C93.7883 121.25 94.4083 121.076 95.997 121.076Z" fill="#474BFF"/>
<path d="M118.77 94.0349C119.587 94.0349 120.248 93.3726 120.248 92.5555C120.248 91.7385 119.587 91.0762 118.77 91.0762C117.954 91.0762 117.292 91.7385 117.292 92.5555C117.292 93.3726 117.954 94.0349 118.77 94.0349Z" fill="#F2F6FB"/>
<path d="M118.857 102.994C118.857 102.994 118.635 102.994 118.357 102.994H105.532C105.256 102.994 105.15 102.806 105.298 102.57L111.563 92.5871C111.711 92.3526 111.954 92.3486 112.106 92.5774L117.606 100.92" fill="#F2F6FB"/>
<path d="M114.449 103.003C114.449 103.003 114.568 102.814 114.714 102.581L118.36 96.7597C118.506 96.5266 118.751 96.5213 118.909 96.7482L122.839 102.412C122.996 102.638 122.9 102.829 122.624 102.838L119.136 102.945" fill="#F2F6FB"/>
<path d="M51.25 59.251C51.25 56.489 53.4883 54.25 56.2521 54.25H171.748C174.511 54.25 176.75 56.4886 176.75 59.251V64.8824H51.25V59.251Z" fill="#E1E5F0"/>
<path d="M58.3834 61.9829C59.6521 61.9829 60.6806 60.9551 60.6806 59.6872C60.6806 58.4194 59.6521 57.3916 58.3834 57.3916C57.1147 57.3916 56.0862 58.4194 56.0862 59.6872C56.0862 60.9551 57.1147 61.9829 58.3834 61.9829Z" fill="#FF5645"/>
<path d="M65.8797 61.9829C67.1484 61.9829 68.1769 60.9551 68.1769 59.6872C68.1769 58.4194 67.1484 57.3916 65.8797 57.3916C64.611 57.3916 63.5825 58.4194 63.5825 59.6872C63.5825 60.9551 64.611 61.9829 65.8797 61.9829Z" fill="#FFCB3D"/>
<path d="M73.6175 61.9829C74.8862 61.9829 75.9147 60.9551 75.9147 59.6872C75.9147 58.4194 74.8862 57.3916 73.6175 57.3916C72.3488 57.3916 71.3203 58.4194 71.3203 59.6872C71.3203 60.9551 72.3488 61.9829 73.6175 61.9829Z" fill="#3ABF7C"/>
<path d="M160.875 269.5C160.25 269.5 159.75 269.067 159.75 268.548V268.202C159.75 267.683 160.275 267.25 160.875 267.25H186.5C187.125 267.25 187.625 267.683 187.625 268.202V268.548C187.625 269.067 187.1 269.5 186.5 269.5H160.875ZM229.625 267.25H272.125C272.746 267.25 273.25 267.754 273.25 268.375C273.25 268.996 272.746 269.5 272.125 269.5H229.625C229.004 269.5 228.5 268.996 228.5 268.375C228.5 267.754 229.004 267.25 229.625 267.25Z" fill="#FF5645"/>
<path d="M272.258 267.258C272.215 267.253 272.17 267.25 272.125 267.25H229.625C229.554 267.25 229.484 267.257 229.416 267.269L231.425 251.25H250.225C252.033 252.537 253.524 253.637 254.7 254.55C255.046 254.819 255.387 255.089 255.723 255.36C257.384 256.698 259.208 257.819 261.153 258.695C263.085 259.565 265.018 260.466 266.95 261.4C268.15 261.975 269.3 262.6 270.45 263.325C271 263.825 271.975 264.825 272.275 266.025C272.325 266.225 272.325 266.425 272.35 266.6C272.35 266.835 272.315 267.055 272.258 267.258ZM186.911 267.316C186.784 267.273 186.645 267.25 186.5 267.25H161.197C162.209 265.054 164.469 259.725 167.975 251.263H187.799L186.911 267.316Z" fill="#474961"/>
<path d="M214.476 171.737L195.088 241.328C194.184 244.572 191.23 246.815 187.863 246.815H172.041C167.899 246.815 164.541 243.458 164.541 239.315C164.541 238.679 164.622 238.045 164.782 237.429L185.633 157.198C188.68 140.528 191.241 129.712 193.318 124.75C196.595 116.917 203.055 113.008 205.854 112.81C219.052 111.874 225.859 112.267 226.275 113.987C229.849 115.038 239.006 129.854 246.8 166.114C251.617 188.52 254.213 213.135 254.589 239.957C254.648 244.099 251.337 247.503 247.195 247.561C247.159 247.562 247.123 247.562 247.087 247.562L232.367 247.556C228.401 247.554 225.122 244.466 224.883 240.508L221.525 184.876L214.476 171.737Z" fill="#A339FF"/>
<path d="M259.484 74.7731L260.716 92.3994C260.784 93.3636 260.057 94.1998 259.092 94.2672L252.608 94.7207C251.644 94.7881 250.808 94.0611 250.74 93.097L249.241 71.6494C249.231 71.5171 249.237 71.3872 249.256 71.2614L249.118 71.2141L242.237 70.0687C239.833 69.6686 237.991 67.7129 237.737 65.2891L237.736 65.2828C237.481 62.8547 238.857 60.5491 241.115 59.6209L248.058 56.7668L263.185 46.5284C263.442 46.3542 263.741 46.2517 264.051 46.2313C265.015 46.1682 265.848 46.8987 265.912 47.8632L267.692 75.0271C267.707 75.2585 267.676 75.4906 267.601 75.7099C267.287 76.624 266.291 77.1106 265.377 76.7967L259.484 74.7731Z" fill="#474961"/>
<path opacity="0.176986" d="M257.448 69.3669L250.964 69.8203C250 69.8877 249.273 70.724 249.34 71.6881L250.84 93.1357C250.907 94.0999 251.744 94.8268 252.708 94.7594L259.192 94.306C260.156 94.2386 260.883 93.4023 260.815 92.4382L259.316 70.9906C259.248 70.0264 258.412 69.2995 257.448 69.3669Z" fill="#444444"/>
<path d="M266.95 46.8294C266.873 45.7275 265.917 44.8967 264.815 44.9738C263.713 45.0508 262.883 46.0065 262.96 47.1084L264.965 75.7884C265.042 76.8903 265.998 77.721 267.1 77.644C268.202 77.5669 269.032 76.6112 268.955 75.5094L266.95 46.8294Z" fill="#474BFF"/>
<path d="M222.945 73.6343C226.973 75.4124 229.885 78.7887 230.97 82.6066C231.344 83.9066 231.415 85.3066 231.274 86.6566L229.73 104.232C229.706 104.507 229.683 104.757 229.683 105.032C229.659 106.332 229.402 107.932 228.396 109.257C226.945 111.207 224.698 113.957 215.338 113.857C206.632 113.757 204.549 111.007 203.145 109.107C202.139 107.757 201.928 105.907 201.905 104.657C201.905 104.382 201.881 104.132 201.858 103.857L201.19 95.2724C200.554 95.7946 199.962 96.1966 199.424 96.435C197.368 97.3459 195.986 95.5358 195.276 91.0047C193.017 88.0915 186.336 83.8453 197.24 75.5505C201.327 72.4416 205.125 72.3478 208.023 73.6539C209.893 72.8781 212.023 72.4151 214.322 72.3231L214.369 71.658C214.417 70.9693 215.014 70.4501 215.703 70.4982L221.938 70.9342C222.626 70.9823 223.145 71.5797 223.097 72.2683L223.028 73.2659C223.018 73.3956 222.99 73.5193 222.945 73.6343Z" fill="#FF5645"/>
<path d="M167.975 251.263L169.638 246.438L188.187 246.815L187.799 251.263H167.975ZM245.032 158.198C237.64 127.524 229.53 114.831 226.26 113.974C226.257 113.958 226.254 113.942 226.25 113.926C228.582 112.269 231.354 109.926 234.568 106.896C242.4 119.789 246.594 132.394 247.148 144.711C247.468 151.823 246.763 156.318 245.032 158.198ZM247.317 78.3784C247.459 78.3096 247.613 78.259 247.777 78.2302L258.856 76.2766C259.807 76.1088 260.715 76.7444 260.883 77.6962L261.013 78.4348C261.091 78.874 260.997 79.3038 260.78 79.6559C261.087 79.9113 261.308 80.2724 261.383 80.6962L261.513 81.4348C261.625 82.0705 261.379 82.6866 260.919 83.0756C261.529 83.2618 262.015 83.7754 262.133 84.4462L262.263 85.1848C262.431 86.1366 261.795 87.0442 260.844 87.2121L251.832 88.8011C237.614 104.742 227.748 113.906 222.232 116.293C217.234 118.456 209.657 111.778 199.5 96.2607C202.591 94.7167 207.341 88.1673 212.065 84.2913C212.124 84.2426 212.182 84.1925 212.237 84.141L221.931 96.5669C238.846 84.42 247.303 78.3465 247.303 78.3465L247.317 78.3784ZM222.712 68.4803L222.559 71.234C218.164 71.1006 215.721 70.895 215.231 70.6172L215.378 66.0433L215.231 64.2993L215.358 62.887L217.389 63.0998L217.491 62.8657C217.464 62.8425 217.462 62.8176 217.462 62.8176C217.37 62.5734 217.132 62.3896 216.932 62.4035C216.474 62.3102 215.784 62.1079 215.17 61.5744C214.314 60.8073 213.748 59.5186 214.056 58.1939C214.343 56.9208 214.438 54.9089 215.636 54.8501C216.311 54.828 217.384 54.8055 217.462 54.8501C217.541 54.8948 219.19 55.9804 219.123 55.3836C219.078 54.9858 218.846 52.8635 218.427 49.0167C218.399 48.6176 218.674 48.2476 219.071 48.1947C219.793 48.1192 220.484 47.9706 221.195 47.7455C221.961 47.5917 222.505 47.4785 222.677 47.4413C223.887 47.1813 226.087 47.1027 228.088 47.7647C228.939 48.1062 229.777 48.624 230.506 49.3749C230.695 49.5622 230.887 49.7994 231.079 50.0366C231.134 50.1079 231.189 50.1793 231.246 50.2755C231.804 51.0886 232.146 52.042 232.216 53.0396L232.603 57.4984C232.61 57.9491 232.641 58.398 232.597 58.8521C232.238 64.4659 230.296 68.5864 228.245 69.0055C227.999 69.0728 226.661 69.2917 225.041 69.0541C224.888 69.0147 225.016 69.0559 222.822 68.5075C222.785 68.4984 222.749 68.4894 222.712 68.4803ZM231.333 252.684L231.877 247.562L248.683 247.367L250.313 251.466L231.333 252.684Z" fill="#F2A98A"/>
<path opacity="0.176986" d="M214.408 171.576L226.202 114.122C226.204 114.067 226.201 114.013 226.191 113.961C229.689 114.751 238.948 129.5 246.819 166.115C251.648 188.576 254.24 213.201 254.596 239.988C254.649 244.01 251.432 247.314 247.41 247.367C247.378 247.368 247.346 247.368 247.314 247.368C245.096 247.368 240.144 247.406 232.458 247.481C228.463 247.521 225.139 244.421 224.898 240.434L221.545 184.877L214.408 171.576Z" fill="#444444"/>
<path opacity="0.2" d="M245.032 158.199C237.64 127.525 229.53 114.832 226.26 113.974C226.257 113.958 226.254 113.942 226.25 113.927C228.582 112.27 231.354 109.927 234.567 106.896C242.4 119.79 246.594 132.395 247.148 144.712C247.468 151.823 246.763 156.319 245.032 158.199Z" fill="#8C2A00"/>
<path d="M222.585 70.925L219.995 67.7105L222.794 68.5003L222.585 70.925Z" fill="#482D1F"/>
<path d="M219.906 57.6461L219.619 57.1036C219.619 57.1036 219.164 56.3334 218.251 55.8208C218.173 55.7762 217.601 55.4904 216.926 55.5125C215.727 55.5713 214.602 56.6775 214.315 57.9506C213.982 59.2771 214.548 60.5657 215.402 61.308C216.257 62.0751 217.417 62.161 217.747 62.2132L217.754 62.2125C218.255 63.2506 218.302 64.3609 217.896 65.5432C217.545 66.5669 216.567 67.5333 215.408 68.3177L213.2 68.1691L215.299 65.4083C214.501 64.7653 213.28 63.7297 212.553 62.8605C211.979 62.1738 210.141 60.6232 209.419 57.8168C209.342 57.4825 209.191 56.8697 209.109 56.0979C207.709 56.8689 206.02 57.1717 204.302 56.8377C200.507 56.1001 198.007 52.5355 198.718 48.8761C199.429 45.2167 203.082 42.8481 206.877 43.5858C209.799 44.1536 211.953 46.3967 212.465 49.0688C214.057 48.2783 215.615 48.4851 218.984 48.0257C219.281 47.9799 219.777 47.8951 220.422 47.7999C220.694 47.7558 220.917 47.7151 221.14 47.6745C221.906 47.5207 222.449 47.4075 222.622 47.3703C223.832 47.1103 226.032 47.0317 228.033 47.6937C228.884 48.0352 229.722 48.553 230.451 49.3039C230.64 49.4912 231.433 50.3538 231.625 50.591C231.862 51.4007 231.008 51.7183 230.42 51.9098C228.581 52.4895 226.001 51.2441 224.986 51.0645C223.351 53.1335 221.739 55.1759 220.13 57.2432C220.058 57.3678 219.983 57.5025 219.906 57.6461ZM233.162 56.4767C232.668 56.6027 231.899 56.7432 231.215 56.5788C230.074 56.3131 231.14 55.6314 232.164 55.5777C232.663 55.5516 233.049 55.7566 233.284 55.9446C233.492 56.0839 233.409 56.4137 233.162 56.4767ZM228.352 56.8503C227.868 57.0105 227.111 57.2042 226.364 57.0693C225.211 56.9086 226.224 56.1294 227.241 56.0045C227.762 55.9405 228.162 56.1181 228.409 56.2892C228.654 56.4355 228.594 56.7702 228.352 56.8503Z" fill="#482D1F"/>
<path d="M231.445 58.5064C231.444 58.2054 231.671 57.9345 231.97 57.9084C232.169 57.8909 232.352 57.9753 232.455 58.2925C232.749 59.0699 232.104 60.3058 231.718 59.9129C231.468 59.6337 231.432 58.9341 231.445 58.5064ZM226.989 58.9213C226.988 58.6203 227.215 58.3495 227.514 58.3233C227.713 58.3059 227.896 58.3902 227.999 58.7075C228.293 59.4848 227.648 60.7207 227.263 60.3278C227.012 60.0486 226.976 59.3491 226.989 58.9213ZM229.236 63.7431C229.059 63.7023 228.628 63.5997 228.539 63.329C228.536 63.2791 228.507 63.2055 228.53 63.1543C228.62 62.9743 228.925 63.0585 229.376 63.0599C230.176 63.043 230.821 62.934 230.821 62.934C230.821 62.934 230.673 63.4425 230.556 63.5989C230.327 64.0114 229.515 63.8036 229.236 63.7431ZM230.208 58.8801L230.207 58.8637L230.204 58.8476L230.208 58.8801ZM230.743 61.498C230.806 61.7793 230.602 62.0673 230.32 62.1296C230.288 62.1362 230.26 62.1418 230.231 62.1471C230.056 62.1794 229.892 62.1989 229.587 62.2269C229.54 62.2312 229.361 62.2473 229.359 62.2475C229.26 62.2565 229.179 62.264 229.095 62.2721C228.958 62.2853 228.836 62.1846 228.822 62.0471C228.809 61.9097 228.91 61.7876 229.047 61.7743C229.132 61.7662 229.214 61.7586 229.314 61.7496C229.316 61.7493 229.495 61.7332 229.541 61.729C229.832 61.7023 229.984 61.6842 230.14 61.6554C230.165 61.6507 230.19 61.6459 230.215 61.6407C230.234 61.6364 230.255 61.6066 230.254 61.6018L229.714 58.9473L229.709 58.9148L229.607 57.4431C229.598 57.3054 229.702 57.186 229.839 57.1764C229.977 57.1668 230.097 57.2707 230.106 57.4085L230.207 58.8637L230.743 61.498Z" fill="#482D1F"/>
<path d="M212.548 84.3583C212.383 81.272 211.592 78.3208 210.177 75.5078C210.084 75.3228 209.859 75.2483 209.674 75.3413C209.489 75.4344 209.414 75.6598 209.507 75.8449C210.876 78.5658 211.64 81.416 211.799 84.3985C211.811 84.6053 211.987 84.764 212.194 84.7529C212.401 84.7418 212.559 84.5651 212.548 84.3583Z" fill="#482D1F"/>
<path d="M361.25 64.75H282.5C281.672 64.75 281 65.4216 281 66.25V126C281 126.828 281.672 127.5 282.5 127.5H361.25C362.078 127.5 362.75 126.828 362.75 126V66.25C362.75 65.4216 362.078 64.75 361.25 64.75Z" fill="#F2F6FB"/>
<path d="M346.283 98.4648H348.903C350.017 98.4648 350.422 98.5809 350.829 98.7988C351.236 99.0166 351.556 99.3364 351.774 99.7438C351.992 100.151 352.108 100.555 352.108 101.67V127.501H343.078V101.67C343.078 100.555 343.194 100.151 343.412 99.7438C343.63 99.3364 343.95 99.0166 344.357 98.7988C344.765 98.5809 345.169 98.4648 346.283 98.4648Z" fill="#D8DEED"/>
<path d="M335.964 105.4H338.745C339.859 105.4 340.263 105.516 340.671 105.734C341.078 105.952 341.398 106.272 341.616 106.679C341.834 107.087 341.95 107.491 341.95 108.605V127.5H332.759V108.605C332.759 107.491 332.875 107.087 333.093 106.679C333.311 106.272 333.63 105.952 334.038 105.734C334.445 105.516 334.849 105.4 335.964 105.4Z" fill="#D8DEED"/>
<path d="M325.805 83.7852H328.425C329.54 83.7852 329.944 83.9012 330.351 84.1191C330.759 84.337 331.078 84.6567 331.296 85.0641C331.514 85.4715 331.63 85.8756 331.63 86.99V127.5H322.601V86.99C322.601 85.8756 322.717 85.4715 322.935 85.0641C323.152 84.6567 323.472 84.337 323.88 84.1191C324.287 83.9012 324.691 83.7852 325.805 83.7852Z" fill="#E1E5F0"/>
<path d="M315.486 89.4316H318.106C319.22 89.4316 319.624 89.5477 320.032 89.7656C320.439 89.9834 320.759 90.3032 320.977 90.7106C321.195 91.118 321.311 91.5221 321.311 92.6365V127.501H312.281V92.6365C312.281 91.5221 312.397 91.118 312.615 90.7106C312.833 90.3032 313.153 89.9834 313.56 89.7656C313.967 89.5477 314.371 89.4316 315.486 89.4316Z" fill="#D8DEED"/>
<path d="M305.328 102.658H307.948C309.062 102.658 309.466 102.774 309.873 102.992C310.281 103.21 310.601 103.53 310.818 103.937C311.036 104.345 311.152 104.749 311.152 105.863V127.5H302.123V105.863C302.123 104.749 302.239 104.345 302.457 103.937C302.675 103.53 302.994 103.21 303.402 102.992C303.809 102.774 304.213 102.658 305.328 102.658Z" fill="#D8DEED"/>
<path d="M295.008 96.0449H297.628C298.742 96.0449 299.146 96.161 299.554 96.3788C299.961 96.5967 300.281 96.9165 300.499 97.3239C300.717 97.7313 300.833 98.1354 300.833 99.2498V127.501H291.803V99.2498C291.803 98.1354 291.919 97.7313 292.137 97.3239C292.355 96.9165 292.675 96.5967 293.082 96.3788C293.49 96.161 293.894 96.0449 295.008 96.0449Z" fill="#D8DEED"/>
</svg>
