<svg width="426" height="301" viewBox="0 0 426 301" fill="none" xmlns="http://www.w3.org/2000/svg">
<path d="M141.111 211.938H72.0786C71.8025 211.938 71.5786 212.162 71.5786 212.438V218.75C71.5786 219.026 71.8025 219.25 72.0786 219.25H141.111C141.387 219.25 141.611 219.026 141.611 218.75V212.438C141.611 212.162 141.387 211.938 141.111 211.938Z" fill="#E1E5F0"/>
<path d="M155.422 170.446H72.5786C72.0263 170.446 71.5786 170.894 71.5786 171.446V206.369C71.5786 206.922 72.0263 207.369 72.5786 207.369H155.422C155.974 207.369 156.422 206.922 156.422 206.369V171.446C156.422 170.894 155.974 170.446 155.422 170.446Z" fill="#F2F6FB"/>
<path d="M121.853 189.593L106.984 197.034C106.861 197.096 106.711 197.046 106.649 196.923C106.632 196.888 106.622 196.849 106.622 196.811V181.928C106.622 181.79 106.734 181.678 106.872 181.678C106.911 181.678 106.95 181.687 106.984 181.704L121.853 189.146C121.977 189.207 122.027 189.358 121.965 189.481C121.941 189.529 121.902 189.569 121.853 189.593Z" fill="#E1E5F0"/>
<path d="M382.233 148.75H271C268.239 148.75 266 150.989 266 153.75V234.5C266 237.261 268.239 239.5 271 239.5H382.233C384.995 239.5 387.233 237.261 387.233 234.5V153.75C387.233 150.989 384.995 148.75 382.233 148.75Z" fill="#F2F6FB"/>
<mask id="mask0_838_8372" style="mask-type:luminance" maskUnits="userSpaceOnUse" x="266" y="148" width="122" height="92">
<path d="M382.233 148.75H271C268.239 148.75 266 150.989 266 153.75V234.5C266 237.261 268.239 239.5 271 239.5H382.233C384.995 239.5 387.233 237.261 387.233 234.5V153.75C387.233 150.989 384.995 148.75 382.233 148.75Z" fill="white"/>
</mask>
<g mask="url(#mask0_838_8372)">
<path d="M367.099 182.372H329.117C327.736 182.372 326.617 183.491 326.617 184.872V262.818C326.617 264.198 327.736 265.318 329.117 265.318H367.099C368.48 265.318 369.599 264.198 369.599 262.818V184.872C369.599 183.491 368.48 182.372 367.099 182.372Z" fill="#E1E5F0"/>
<path d="M350.59 187.316H346.177C345.721 187.316 345.353 187.685 345.353 188.14C345.353 188.595 345.721 188.964 346.177 188.964H350.59C351.045 188.964 351.414 188.595 351.414 188.14C351.414 187.685 351.045 187.316 350.59 187.316Z" fill="#F2F6FB"/>
<path d="M366.293 191.711H329.923V255.431H366.293V191.711Z" fill="#F2F6FB"/>
<path d="M348.734 228.967L348.137 228.975L348.141 228.967H340.478C340.202 228.967 340.096 228.78 340.243 228.545L345.603 219.991C345.749 219.758 345.993 219.757 346.144 219.985L350.049 225.918L351.487 223.617C351.634 223.382 351.881 223.376 352.037 223.601L355.367 228.409C355.524 228.635 355.429 228.825 355.149 228.834L352.264 228.923L351.931 228.927L351.955 228.967C351.955 228.967 351.732 228.967 351.456 228.967H348.734ZM351.88 221.194C351.173 221.194 350.599 220.62 350.599 219.911C350.599 219.202 351.173 218.627 351.88 218.627C352.587 218.627 353.16 219.202 353.16 219.911C353.16 220.62 352.587 221.194 351.88 221.194Z" fill="#E1E5F0"/>
</g>
<mask id="mask1_838_8372" style="mask-type:luminance" maskUnits="userSpaceOnUse" x="266" y="148" width="122" height="92">
<path d="M382.233 148.75H271C268.239 148.75 266 150.989 266 153.75V234.5C266 237.261 268.239 239.5 271 239.5H382.233C384.995 239.5 387.233 237.261 387.233 234.5V153.75C387.233 150.989 384.995 148.75 382.233 148.75Z" fill="white"/>
</mask>
<g mask="url(#mask1_838_8372)">
<path d="M272.033 170.346H275.442C275.718 170.346 275.942 170.57 275.942 170.846V172.043C275.942 172.319 275.718 172.543 275.442 172.543H272.033C271.757 172.543 271.533 172.319 271.533 172.043V170.846C271.533 170.57 271.757 170.346 272.033 170.346ZM365.714 170.346H381.245C381.522 170.346 381.745 170.57 381.745 170.846V172.043C381.745 172.319 381.522 172.543 381.245 172.543H365.714C365.437 172.543 365.214 172.319 365.214 172.043V170.846C365.214 170.57 365.437 170.346 365.714 170.346ZM335.956 170.346H351.488C351.764 170.346 351.988 170.57 351.988 170.846V172.043C351.988 172.319 351.764 172.543 351.488 172.543H335.956C335.68 172.543 335.456 172.319 335.456 172.043V170.846C335.456 170.57 335.68 170.346 335.956 170.346ZM354.692 170.346H362.509C362.786 170.346 363.009 170.57 363.009 170.846V172.043C363.009 172.319 362.786 172.543 362.509 172.543H354.692C354.416 172.543 354.192 172.319 354.192 172.043V170.846C354.192 170.57 354.416 170.346 354.692 170.346Z" fill="#E1E5F0"/>
</g>
<path d="M278.623 185.377H310.729C311.005 185.377 311.229 185.601 311.229 185.877V189.285C311.229 189.561 311.005 189.785 310.729 189.785H278.623C278.347 189.785 278.123 189.561 278.123 189.285V185.877C278.123 185.601 278.347 185.377 278.623 185.377ZM278.623 192.539H305.212C305.488 192.539 305.712 192.763 305.712 193.039V196.447C305.712 196.723 305.488 196.947 305.212 196.947H278.623C278.347 196.947 278.123 196.723 278.123 196.447V193.039C278.123 192.763 278.347 192.539 278.623 192.539ZM278.623 206.864H294.176C294.452 206.864 294.676 207.088 294.676 207.364V210.772C294.676 211.048 294.452 211.272 294.176 211.272H278.623C278.347 211.272 278.123 211.048 278.123 210.772V207.364C278.123 207.088 278.347 206.864 278.623 206.864ZM278.623 199.702H310.729C311.005 199.702 311.229 199.926 311.229 200.202V203.61C311.229 203.886 311.005 204.11 310.729 204.11H278.623C278.347 204.11 278.123 203.886 278.123 203.61V200.202C278.123 199.926 278.347 199.702 278.623 199.702Z" fill="#E1E5F0"/>
<path d="M282.502 216.638H303.586C304.744 216.638 305.436 216.812 306.047 217.139C306.658 217.465 307.138 217.945 307.464 218.556C307.791 219.167 307.965 219.859 307.965 221.017V221.823C307.965 222.981 307.791 223.673 307.464 224.284C307.138 224.895 306.658 225.375 306.047 225.702C305.436 226.029 304.744 226.203 303.586 226.203H282.502C281.345 226.203 280.653 226.029 280.042 225.702C279.431 225.375 278.951 224.895 278.624 224.284C278.297 223.673 278.123 222.981 278.123 221.823V221.017C278.123 219.859 278.297 219.167 278.624 218.556C278.951 217.945 279.431 217.465 280.042 217.139C280.653 216.812 281.345 216.638 282.502 216.638Z" fill="#A03813"/>
<path d="M266 153.751C266 150.989 268.236 148.75 271.002 148.75H381.998C384.76 148.75 387 150.99 387 153.751V159.015H266V153.751Z" fill="#E1E5F0"/>
<path d="M272.878 156.216C274.101 156.216 275.093 155.223 275.093 153.999C275.093 152.775 274.101 151.783 272.878 151.783C271.654 151.783 270.663 152.775 270.663 153.999C270.663 155.223 271.654 156.216 272.878 156.216Z" fill="#FF5645"/>
<path d="M280.105 156.216C281.328 156.216 282.32 155.223 282.32 153.999C282.32 152.775 281.328 151.783 280.105 151.783C278.882 151.783 277.89 152.775 277.89 153.999C277.89 155.223 278.882 156.216 280.105 156.216Z" fill="#FFCB3D"/>
<path d="M287.565 156.216C288.789 156.216 289.78 155.223 289.78 153.999C289.78 152.775 288.789 151.783 287.565 151.783C286.342 151.783 285.351 152.775 285.351 153.999C285.351 155.223 286.342 156.216 287.565 156.216Z" fill="#F29370"/>
<path d="M171.992 54.75H56.25C53.4886 54.75 51.25 56.9886 51.25 59.75V143.75C51.25 146.511 53.4886 148.75 56.25 148.75H171.992C174.753 148.75 176.992 146.511 176.992 143.75V59.75C176.992 56.9886 174.753 54.75 171.992 54.75Z" fill="#F2F6FB"/>
<path d="M57.4656 73.0273H61.038C61.3141 73.0273 61.538 73.2512 61.538 73.5273V74.812C61.538 75.0881 61.3141 75.312 61.038 75.312H57.4656C57.1894 75.312 56.9656 75.0881 56.9656 74.812V73.5273C56.9656 73.2512 57.1894 73.0273 57.4656 73.0273ZM154.63 73.0273H170.776C171.052 73.0273 171.276 73.2512 171.276 73.5273V74.812C171.276 75.0881 171.052 75.312 170.776 75.312H154.63C154.354 75.312 154.13 75.0881 154.13 74.812V73.5273C154.13 73.2512 154.354 73.0273 154.63 73.0273ZM123.766 73.0273H139.912C140.189 73.0273 140.412 73.2512 140.412 73.5273V74.812C140.412 75.0881 140.189 75.312 139.912 75.312H123.766C123.49 75.312 123.266 75.0881 123.266 74.812V73.5273C123.266 73.2512 123.49 73.0273 123.766 73.0273ZM143.199 73.0273H151.343C151.62 73.0273 151.843 73.2512 151.843 73.5273V74.812C151.843 75.0881 151.62 75.312 151.343 75.312H143.199C142.922 75.312 142.699 75.0881 142.699 74.812V73.5273C142.699 73.2512 142.922 73.0273 143.199 73.0273Z" fill="#E1E5F0"/>
<path d="M170.276 82.166H57.9656C57.4133 82.166 56.9656 82.6137 56.9656 83.166V140.567C56.9656 141.119 57.4133 141.567 57.9656 141.567H170.276C170.829 141.567 171.276 141.119 171.276 140.567V83.166C171.276 82.6137 170.829 82.166 170.276 82.166Z" fill="#E1E5F0"/>
<path d="M142.199 108.439H86.0432C85.7671 108.439 85.5432 108.663 85.5432 108.939V112.509C85.5432 112.785 85.7671 113.009 86.0432 113.009H142.199C142.475 113.009 142.699 112.785 142.699 112.509V108.939C142.699 108.663 142.475 108.439 142.199 108.439Z" fill="#F2F6FB"/>
<path d="M95.997 121.576H132.245C133.834 121.576 134.454 121.75 135.065 122.077C135.676 122.404 136.155 122.883 136.482 123.495C136.809 124.106 136.983 124.726 136.983 126.314V128.261C136.983 129.85 136.809 130.47 136.482 131.081C136.155 131.692 135.676 132.172 135.065 132.499C134.454 132.825 133.834 132.999 132.245 132.999H95.997C94.4083 132.999 93.7883 132.825 93.1772 132.499C92.5661 132.172 92.0865 131.692 91.7597 131.081C91.4328 130.47 91.2588 129.85 91.2588 128.261V126.314C91.2588 124.726 91.4328 124.106 91.7597 123.495C92.0865 122.883 92.5661 122.404 93.1772 122.077C93.7883 121.75 94.4083 121.576 95.997 121.576Z" fill="#A03813"/>
<path d="M118.77 94.5349C119.587 94.5349 120.248 93.8726 120.248 93.0555C120.248 92.2385 119.587 91.5762 118.77 91.5762C117.954 91.5762 117.292 92.2385 117.292 93.0555C117.292 93.8726 117.954 94.5349 118.77 94.5349Z" fill="#F2F6FB"/>
<path d="M118.857 103.494C118.857 103.494 118.635 103.494 118.357 103.494H105.532C105.256 103.494 105.15 103.306 105.298 103.07L111.563 93.0871C111.711 92.8526 111.954 92.8486 112.106 93.0774L117.606 101.42" fill="#F2F6FB"/>
<path d="M114.449 103.503C114.449 103.503 114.568 103.314 114.714 103.081L118.36 97.2597C118.506 97.0266 118.751 97.0213 118.909 97.2482L122.839 102.912C122.996 103.138 122.9 103.329 122.624 103.338L119.136 103.445" fill="#F2F6FB"/>
<path d="M51.25 59.751C51.25 56.989 53.4883 54.75 56.2521 54.75H171.748C174.511 54.75 176.75 56.9886 176.75 59.751V65.3824H51.25V59.751Z" fill="#E1E5F0"/>
<path d="M58.3834 62.4829C59.6521 62.4829 60.6806 61.4551 60.6806 60.1872C60.6806 58.9194 59.6521 57.8916 58.3834 57.8916C57.1147 57.8916 56.0862 58.9194 56.0862 60.1872C56.0862 61.4551 57.1147 62.4829 58.3834 62.4829Z" fill="#FF5645"/>
<path d="M65.8797 62.4829C67.1484 62.4829 68.1769 61.4551 68.1769 60.1872C68.1769 58.9194 67.1484 57.8916 65.8797 57.8916C64.611 57.8916 63.5825 58.9194 63.5825 60.1872C63.5825 61.4551 64.611 62.4829 65.8797 62.4829Z" fill="#FFCB3D"/>
<path d="M73.6175 62.4829C74.8862 62.4829 75.9147 61.4551 75.9147 60.1872C75.9147 58.9194 74.8862 57.8916 73.6175 57.8916C72.3488 57.8916 71.3203 58.9194 71.3203 60.1872C71.3203 61.4551 72.3488 62.4829 73.6175 62.4829Z" fill="#F29370"/>
<path d="M160.875 270C160.25 270 159.75 269.567 159.75 269.048V268.702C159.75 268.183 160.275 267.75 160.875 267.75H186.5C187.125 267.75 187.625 268.183 187.625 268.702V269.048C187.625 269.567 187.1 270 186.5 270H160.875ZM229.625 267.75H272.125C272.746 267.75 273.25 268.254 273.25 268.875C273.25 269.496 272.746 270 272.125 270H229.625C229.004 270 228.5 269.496 228.5 268.875C228.5 268.254 229.004 267.75 229.625 267.75Z" fill="#FF5645"/>
<path d="M272.258 267.758C272.215 267.753 272.17 267.75 272.125 267.75H229.625C229.554 267.75 229.484 267.757 229.416 267.769L231.425 251.75H250.225C252.033 253.037 253.524 254.137 254.7 255.05C255.046 255.319 255.387 255.589 255.723 255.86C257.384 257.198 259.208 258.319 261.153 259.195C263.085 260.065 265.018 260.966 266.95 261.9C268.15 262.475 269.3 263.1 270.45 263.825C271 264.325 271.975 265.325 272.275 266.525C272.325 266.725 272.325 266.925 272.35 267.1C272.35 267.335 272.315 267.555 272.258 267.758ZM186.911 267.816C186.784 267.773 186.645 267.75 186.5 267.75H161.197C162.209 265.554 164.469 260.225 167.975 251.763H187.799L186.911 267.816Z" fill="#474961"/>
<path d="M214.476 172.237L195.088 241.828C194.184 245.072 191.23 247.315 187.863 247.315H172.041C167.899 247.315 164.541 243.958 164.541 239.815C164.541 239.179 164.622 238.545 164.782 237.929L185.633 157.698C188.68 141.028 191.241 130.212 193.318 125.25C196.595 117.417 203.055 113.508 205.854 113.31C219.052 112.374 225.859 112.767 226.275 114.487C229.849 115.538 239.006 130.354 246.8 166.614C251.617 189.02 254.213 213.635 254.589 240.457C254.648 244.599 251.337 248.003 247.195 248.061C247.159 248.062 247.123 248.062 247.087 248.062L232.367 248.056C228.401 248.054 225.122 244.966 224.883 241.008L221.525 185.376L214.476 172.237Z" fill="#E97950"/>
<path d="M259.484 75.2731L260.716 92.8994C260.784 93.8636 260.057 94.6998 259.092 94.7672L252.608 95.2207C251.644 95.2881 250.808 94.5611 250.74 93.597L249.241 72.1494C249.231 72.0171 249.237 71.8872 249.256 71.7614L249.118 71.7141L242.237 70.5687C239.833 70.1686 237.991 68.2129 237.737 65.7891L237.736 65.7828C237.481 63.3547 238.857 61.0491 241.115 60.1209L248.058 57.2668L263.185 47.0284C263.442 46.8542 263.741 46.7517 264.051 46.7313C265.015 46.6682 265.848 47.3987 265.912 48.3632L267.692 75.5271C267.707 75.7585 267.676 75.9906 267.601 76.2099C267.287 77.124 266.291 77.6106 265.377 77.2967L259.484 75.2731Z" fill="#474961"/>
<path opacity="0.176986" d="M257.448 69.8669L250.964 70.3203C250 70.3877 249.273 71.224 249.34 72.1881L250.84 93.6357C250.907 94.5999 251.744 95.3268 252.708 95.2594L259.192 94.806C260.156 94.7386 260.883 93.9023 260.815 92.9382L259.316 71.4906C259.248 70.5264 258.412 69.7995 257.448 69.8669Z" fill="#444444"/>
<path d="M266.95 47.3294C266.873 46.2275 265.917 45.3967 264.815 45.4738C263.713 45.5508 262.883 46.5065 262.96 47.6084L264.965 76.2884C265.042 77.3903 265.998 78.221 267.1 78.144C268.202 78.0669 269.032 77.1112 268.955 76.0094L266.95 47.3294Z" fill="#A03813"/>
<path d="M222.945 74.1343C226.973 75.9124 229.885 79.2887 230.97 83.1066C231.344 84.4066 231.415 85.8066 231.274 87.1566L229.73 104.732C229.706 105.007 229.683 105.257 229.683 105.532C229.659 106.832 229.402 108.432 228.396 109.757C226.945 111.707 224.698 114.457 215.338 114.357C206.632 114.257 204.549 111.507 203.145 109.607C202.139 108.257 201.928 106.407 201.905 105.157C201.905 104.882 201.881 104.632 201.858 104.357L201.19 95.7724C200.554 96.2946 199.962 96.6966 199.424 96.935C197.368 97.8459 195.986 96.0358 195.276 91.5047C193.017 88.5915 186.336 84.3453 197.24 76.0505C201.327 72.9416 205.125 72.8478 208.023 74.1539C209.893 73.3781 212.023 72.9151 214.322 72.8231L214.369 72.158C214.417 71.4693 215.014 70.9501 215.703 70.9982L221.938 71.4342C222.626 71.4823 223.145 72.0797 223.097 72.7683L223.028 73.7659C223.018 73.8956 222.99 74.0193 222.945 74.1343Z" fill="#FF5645"/>
<path d="M167.975 251.763L169.638 246.938L188.187 247.315L187.799 251.763H167.975ZM245.032 158.698C237.64 128.024 229.53 115.331 226.26 114.474C226.257 114.458 226.254 114.442 226.25 114.426C228.582 112.769 231.354 110.426 234.568 107.396C242.4 120.289 246.594 132.894 247.148 145.211C247.468 152.323 246.763 156.818 245.032 158.698ZM247.317 78.8784C247.459 78.8096 247.613 78.759 247.777 78.7302L258.856 76.7766C259.807 76.6088 260.715 77.2444 260.883 78.1962L261.013 78.9348C261.091 79.374 260.997 79.8038 260.78 80.1559C261.087 80.4113 261.308 80.7724 261.383 81.1962L261.513 81.9348C261.625 82.5705 261.379 83.1866 260.919 83.5756C261.529 83.7618 262.015 84.2754 262.133 84.9462L262.263 85.6848C262.431 86.6366 261.795 87.5442 260.844 87.7121L251.832 89.3011C237.614 105.242 227.748 114.406 222.232 116.793C217.234 118.956 209.657 112.278 199.5 96.7607C202.591 95.2167 207.341 88.6673 212.065 84.7913C212.124 84.7426 212.182 84.6925 212.237 84.641L221.931 97.0669C238.846 84.92 247.303 78.8465 247.303 78.8465L247.317 78.8784ZM222.712 68.9803L222.559 71.734C218.164 71.6006 215.721 71.395 215.231 71.1172L215.378 66.5433L215.231 64.7993L215.358 63.387L217.389 63.5998L217.491 63.3657C217.464 63.3425 217.462 63.3176 217.462 63.3176C217.37 63.0734 217.132 62.8896 216.932 62.9035C216.474 62.8102 215.784 62.6079 215.17 62.0744C214.314 61.3073 213.748 60.0186 214.056 58.6939C214.343 57.4208 214.438 55.4089 215.636 55.3501C216.311 55.328 217.384 55.3055 217.462 55.3501C217.541 55.3948 219.19 56.4804 219.123 55.8836C219.078 55.4858 218.846 53.3635 218.427 49.5167C218.399 49.1176 218.674 48.7476 219.071 48.6947C219.793 48.6192 220.484 48.4706 221.195 48.2455C221.961 48.0917 222.505 47.9785 222.677 47.9413C223.887 47.6813 226.087 47.6027 228.088 48.2647C228.939 48.6062 229.777 49.124 230.506 49.8749C230.695 50.0622 230.887 50.2994 231.079 50.5366C231.134 50.6079 231.189 50.6793 231.246 50.7755C231.804 51.5886 232.146 52.542 232.216 53.5396L232.603 57.9984C232.61 58.4491 232.641 58.898 232.597 59.3521C232.238 64.9659 230.296 69.0864 228.245 69.5055C227.999 69.5728 226.661 69.7917 225.041 69.5541C224.888 69.5147 225.016 69.5559 222.822 69.0075C222.785 68.9984 222.749 68.9894 222.712 68.9803ZM231.333 253.184L231.877 248.062L248.683 247.867L250.313 251.966L231.333 253.184Z" fill="#F2A98A"/>
<path opacity="0.176986" d="M214.408 172.076L226.202 114.622C226.204 114.567 226.201 114.513 226.191 114.461C229.689 115.251 238.948 130 246.819 166.615C251.648 189.076 254.24 213.701 254.596 240.488C254.649 244.51 251.432 247.814 247.41 247.867C247.378 247.868 247.346 247.868 247.314 247.868C245.096 247.868 240.144 247.906 232.458 247.981C228.463 248.021 225.139 244.921 224.898 240.934L221.545 185.377L214.408 172.076Z" fill="#444444"/>
<path opacity="0.2" d="M245.032 158.699C237.64 128.025 229.53 115.332 226.26 114.474C226.257 114.458 226.254 114.442 226.25 114.427C228.582 112.77 231.354 110.427 234.567 107.396C242.4 120.29 246.594 132.895 247.148 145.212C247.468 152.323 246.763 156.819 245.032 158.699Z" fill="#8C2A00"/>
<path d="M222.585 71.425L219.995 68.2105L222.794 69.0003L222.585 71.425Z" fill="#482D1F"/>
<path d="M219.906 58.1461L219.619 57.6036C219.619 57.6036 219.164 56.8334 218.251 56.3208C218.173 56.2762 217.601 55.9904 216.926 56.0125C215.727 56.0713 214.602 57.1775 214.315 58.4506C213.982 59.7771 214.548 61.0657 215.402 61.808C216.257 62.5751 217.417 62.661 217.747 62.7132L217.754 62.7125C218.255 63.7506 218.302 64.8609 217.896 66.0432C217.545 67.0669 216.567 68.0333 215.408 68.8177L213.2 68.6691L215.299 65.9083C214.501 65.2653 213.28 64.2297 212.553 63.3605C211.979 62.6738 210.141 61.1232 209.419 58.3168C209.342 57.9825 209.191 57.3697 209.109 56.5979C207.709 57.3689 206.02 57.6717 204.302 57.3377C200.507 56.6001 198.007 53.0355 198.718 49.3761C199.429 45.7167 203.082 43.3481 206.877 44.0858C209.799 44.6536 211.953 46.8967 212.465 49.5688C214.057 48.7783 215.615 48.9851 218.984 48.5257C219.281 48.4799 219.777 48.3951 220.422 48.2999C220.694 48.2558 220.917 48.2151 221.14 48.1745C221.906 48.0207 222.449 47.9075 222.622 47.8703C223.832 47.6103 226.032 47.5317 228.033 48.1937C228.884 48.5352 229.722 49.053 230.451 49.8039C230.64 49.9912 231.433 50.8538 231.625 51.091C231.862 51.9007 231.008 52.2183 230.42 52.4098C228.581 52.9895 226.001 51.7441 224.986 51.5645C223.351 53.6335 221.739 55.6759 220.13 57.7432C220.058 57.8678 219.983 58.0025 219.906 58.1461ZM233.162 56.9767C232.668 57.1027 231.899 57.2432 231.215 57.0788C230.074 56.8131 231.14 56.1314 232.164 56.0777C232.663 56.0516 233.049 56.2566 233.284 56.4446C233.492 56.5839 233.409 56.9137 233.162 56.9767ZM228.352 57.3503C227.868 57.5105 227.111 57.7042 226.364 57.5693C225.211 57.4086 226.224 56.6294 227.241 56.5045C227.762 56.4405 228.162 56.6181 228.409 56.7892C228.654 56.9355 228.594 57.2702 228.352 57.3503Z" fill="#482D1F"/>
<path d="M231.445 59.0064C231.444 58.7054 231.671 58.4345 231.97 58.4084C232.169 58.3909 232.352 58.4753 232.455 58.7925C232.749 59.5699 232.104 60.8058 231.718 60.4129C231.468 60.1337 231.432 59.4341 231.445 59.0064ZM226.989 59.4213C226.988 59.1203 227.215 58.8495 227.514 58.8233C227.713 58.8059 227.896 58.8902 227.999 59.2075C228.293 59.9848 227.648 61.2207 227.263 60.8278C227.012 60.5486 226.976 59.8491 226.989 59.4213ZM229.236 64.2431C229.059 64.2023 228.628 64.0997 228.539 63.829C228.536 63.7791 228.507 63.7055 228.53 63.6543C228.62 63.4743 228.925 63.5585 229.376 63.5599C230.176 63.543 230.821 63.434 230.821 63.434C230.821 63.434 230.673 63.9425 230.556 64.0989C230.327 64.5114 229.515 64.3036 229.236 64.2431ZM230.208 59.3801L230.207 59.3637L230.204 59.3476L230.208 59.3801ZM230.743 61.998C230.806 62.2793 230.602 62.5673 230.32 62.6296C230.288 62.6362 230.26 62.6418 230.231 62.6471C230.056 62.6794 229.892 62.6989 229.587 62.7269C229.54 62.7312 229.361 62.7473 229.359 62.7475C229.26 62.7565 229.179 62.764 229.095 62.7721C228.958 62.7853 228.836 62.6846 228.822 62.5471C228.809 62.4097 228.91 62.2876 229.047 62.2743C229.132 62.2662 229.214 62.2586 229.314 62.2496C229.316 62.2493 229.495 62.2332 229.541 62.229C229.832 62.2023 229.984 62.1842 230.14 62.1554C230.165 62.1507 230.19 62.1459 230.215 62.1407C230.234 62.1364 230.255 62.1066 230.254 62.1018L229.714 59.4473L229.709 59.4148L229.607 57.9431C229.598 57.8054 229.702 57.686 229.839 57.6764C229.977 57.6668 230.097 57.7707 230.106 57.9085L230.207 59.3637L230.743 61.998Z" fill="#482D1F"/>
<path d="M212.548 84.8583C212.383 81.772 211.592 78.8208 210.177 76.0078C210.084 75.8228 209.859 75.7483 209.674 75.8413C209.489 75.9344 209.414 76.1598 209.507 76.3449C210.876 79.0658 211.64 81.916 211.799 84.8985C211.811 85.1053 211.987 85.264 212.194 85.2529C212.401 85.2418 212.559 85.0651 212.548 84.8583Z" fill="#482D1F"/>
<path d="M361.25 65.25H282.5C281.672 65.25 281 65.9216 281 66.75V126.5C281 127.328 281.672 128 282.5 128H361.25C362.078 128 362.75 127.328 362.75 126.5V66.75C362.75 65.9216 362.078 65.25 361.25 65.25Z" fill="#F2F6FB"/>
<path d="M346.283 98.9648H348.903C350.017 98.9648 350.422 99.0809 350.829 99.2988C351.236 99.5166 351.556 99.8364 351.774 100.244C351.992 100.651 352.108 101.055 352.108 102.17V128.001H343.078V102.17C343.078 101.055 343.194 100.651 343.412 100.244C343.63 99.8364 343.95 99.5166 344.357 99.2988C344.765 99.0809 345.169 98.9648 346.283 98.9648Z" fill="#D8DEED"/>
<path d="M335.964 105.9H338.745C339.859 105.9 340.263 106.016 340.671 106.234C341.078 106.452 341.398 106.772 341.616 107.179C341.834 107.587 341.95 107.991 341.95 109.105V128H332.759V109.105C332.759 107.991 332.875 107.587 333.093 107.179C333.311 106.772 333.63 106.452 334.038 106.234C334.445 106.016 334.849 105.9 335.964 105.9Z" fill="#D8DEED"/>
<path d="M325.805 84.2852H328.425C329.54 84.2852 329.944 84.4012 330.351 84.6191C330.759 84.837 331.078 85.1567 331.296 85.5641C331.514 85.9715 331.63 86.3756 331.63 87.49V128H322.601V87.49C322.601 86.3756 322.717 85.9715 322.935 85.5641C323.152 85.1567 323.472 84.837 323.88 84.6191C324.287 84.4012 324.691 84.2852 325.805 84.2852Z" fill="#E1E5F0"/>
<path d="M315.486 89.9316H318.106C319.22 89.9316 319.624 90.0477 320.032 90.2656C320.439 90.4834 320.759 90.8032 320.977 91.2106C321.195 91.618 321.311 92.0221 321.311 93.1365V128.001H312.281V93.1365C312.281 92.0221 312.397 91.618 312.615 91.2106C312.833 90.8032 313.153 90.4834 313.56 90.2656C313.967 90.0477 314.371 89.9316 315.486 89.9316Z" fill="#D8DEED"/>
<path d="M305.328 103.158H307.948C309.062 103.158 309.466 103.274 309.873 103.492C310.281 103.71 310.601 104.03 310.818 104.437C311.036 104.845 311.152 105.249 311.152 106.363V128H302.123V106.363C302.123 105.249 302.239 104.845 302.457 104.437C302.675 104.03 302.994 103.71 303.402 103.492C303.809 103.274 304.213 103.158 305.328 103.158Z" fill="#D8DEED"/>
<path d="M295.008 96.5449H297.628C298.742 96.5449 299.146 96.661 299.554 96.8788C299.961 97.0967 300.281 97.4165 300.499 97.8239C300.717 98.2313 300.833 98.6354 300.833 99.7498V128.001H291.803V99.7498C291.803 98.6354 291.919 98.2313 292.137 97.8239C292.355 97.4165 292.675 97.0967 293.082 96.8788C293.49 96.661 293.894 96.5449 295.008 96.5449Z" fill="#D8DEED"/>
</svg>
