<svg width="270" height="93" viewBox="0 0 270 93" fill="none" xmlns="http://www.w3.org/2000/svg">
<path d="M264.25 26.75H191.75C188.989 26.75 186.75 28.9886 186.75 31.75V85C186.75 87.7614 188.989 90 191.75 90H264.25C267.011 90 269.25 87.7614 269.25 85V31.75C269.25 28.9886 267.011 26.75 264.25 26.75Z" fill="#E1E5F0"/>
<path d="M233.561 72.5365V74.951C233.561 75.2001 233.535 75.2904 233.487 75.3814C233.438 75.4725 233.367 75.5439 233.276 75.5926C233.185 75.6413 233.094 75.6672 232.845 75.6672H204.915V71.8203H232.845C233.094 71.8203 233.185 71.8462 233.276 71.8949C233.367 71.9436 233.438 72.0151 233.487 72.1061C233.535 72.1972 233.561 72.2875 233.561 72.5365Z" fill="#D8DEED"/>
<path d="M261.987 64.8421V67.2567C261.987 67.5057 261.961 67.596 261.912 67.6871C261.864 67.7781 261.792 67.8496 261.701 67.8983C261.61 67.9469 261.52 67.9729 261.271 67.9729L204.916 67.9729V64.126L261.271 64.126C261.52 64.126 261.61 64.1519 261.701 64.2006C261.792 64.2493 261.864 64.3207 261.912 64.4118C261.961 64.5028 261.987 64.5931 261.987 64.8421Z" fill="#F2F6FB"/>
<path d="M254.495 57.1488V59.5634C254.495 59.8124 254.469 59.9027 254.42 59.9937C254.372 60.0848 254.3 60.1562 254.209 60.2049C254.118 60.2536 254.028 60.2795 253.779 60.2795L204.915 60.2795V56.4326L253.779 56.4326C254.028 56.4326 254.118 56.4585 254.209 56.5072C254.3 56.5559 254.372 56.6274 254.42 56.7184C254.469 56.8095 254.495 56.8998 254.495 57.1488Z" fill="#D8DEED"/>
<path d="M237.528 49.4545V51.869C237.528 52.118 237.502 52.2083 237.453 52.2994C237.404 52.3904 237.333 52.4619 237.242 52.5106C237.151 52.5593 237.061 52.5852 236.812 52.5852L204.916 52.5852V48.7383L236.812 48.7383C237.061 48.7383 237.151 48.7642 237.242 48.8129C237.333 48.8616 237.404 48.933 237.453 49.0241C237.502 49.1151 237.528 49.2054 237.528 49.4545Z" fill="#D8DEED"/>
<path d="M245.901 41.7611V44.1757C245.901 44.4247 245.875 44.515 245.826 44.606C245.778 44.6971 245.706 44.7685 245.615 44.8172C245.524 44.8659 245.434 44.8918 245.185 44.8918L204.915 44.8918V41.0449L245.185 41.0449C245.434 41.0449 245.524 41.0709 245.615 41.1195C245.706 41.1682 245.778 41.2397 245.826 41.3307C245.875 41.4218 245.901 41.5121 245.901 41.7611Z" fill="#D8DEED"/>
<path d="M88.6179 18.5H5C2.23858 18.5 0 20.7386 0 23.5V85C0 87.7614 2.23858 90 5 90H88.6179C91.3793 90 93.6179 87.7614 93.6179 85V23.5C93.6179 20.7386 91.3793 18.5 88.6179 18.5Z" fill="#F2F6FB"/>
<path d="M48.3268 74.5731C58.8016 68.5255 62.3892 55.1293 56.3401 44.6518C50.2909 34.1744 36.8956 30.5833 26.4208 36.6309C15.9461 42.6785 12.3584 56.0747 18.4076 66.5522C24.4568 77.0296 37.852 80.6207 48.3268 74.5731ZM42.9673 65.2902C37.618 68.3786 30.7773 66.5447 27.6882 61.194C24.599 55.8434 26.4311 49.0022 31.7804 45.9138C37.1296 42.8255 43.9703 44.6594 47.0595 50.01C50.1487 55.3606 48.3165 62.2018 42.9673 65.2902Z" fill="#E1E5F0"/>
<path d="M23.7127 32.0281C10.7631 39.5046 6.32785 56.0658 13.8062 69.0187C21.2846 81.9716 37.8447 86.4112 50.7942 78.9347C63.7438 71.4583 68.1791 54.8971 60.7007 41.9442L51.4828 47.2661C56.0211 55.1268 53.3295 65.1772 45.4709 69.7144C37.6123 74.2516 27.5625 71.5574 23.0242 63.6967C18.4858 55.8361 21.1774 45.7857 29.0361 41.2485L23.7127 32.0281Z" fill="white"/>
<mask id="mask0_767_7730" style="mask-type:luminance" maskUnits="userSpaceOnUse" x="10" y="32" width="55" height="51">
<path d="M23.7127 32.0281C10.7631 39.5046 6.32785 56.0658 13.8062 69.0187C21.2846 81.9716 37.8447 86.4112 50.7942 78.9347C63.7438 71.4583 68.1791 54.8971 60.7007 41.9442L51.4828 47.2661C56.0211 55.1268 53.3295 65.1772 45.4709 69.7144C37.6123 74.2516 27.5625 71.5574 23.0242 63.6967C18.4858 55.8361 21.1774 45.7857 29.0361 41.2485L23.7127 32.0281Z" fill="white"/>
</mask>
<g mask="url(#mask0_767_7730)">
<path d="M24.1773 31.9681C9.82606 36.8488 5.09035 56.711 12.5687 69.6639C20.0471 82.6168 42.8155 87.1365 51.2588 78.8747L45.999 69.0638C38.1054 73.6212 27.9639 71.5339 23.4255 63.6732C18.8872 55.8126 21.6071 45.7458 29.5007 41.1885L24.1773 31.9681Z" fill="#60A5FA"/>
</g>
<path d="M78.4038 43.293H72.5986C72.3225 43.293 72.0986 43.5168 72.0986 43.793V49.5159C72.0986 49.7921 72.3225 50.0159 72.5986 50.0159H78.4038C78.68 50.0159 78.9038 49.7921 78.9038 49.5159V43.793C78.9038 43.5168 78.68 43.293 78.4038 43.293Z" fill="#60A5FA"/>
<path d="M78.4038 53.1367H72.5986C72.3225 53.1367 72.0986 53.3606 72.0986 53.6367V59.3597C72.0986 59.6358 72.3225 59.8597 72.5986 59.8597H78.4038C78.68 59.8597 78.9038 59.6358 78.9038 59.3597V53.6367C78.9038 53.3606 78.68 53.1367 78.4038 53.1367Z" fill="white"/>
<path d="M78.4038 62.9814H72.5986C72.3225 62.9814 72.0986 63.2053 72.0986 63.4814V69.2044C72.0986 69.4805 72.3225 69.7044 72.5986 69.7044H78.4038C78.68 69.7044 78.9038 69.4805 78.9038 69.2044V63.4814C78.9038 63.2053 78.68 62.9814 78.4038 62.9814Z" fill="#E1E5F0"/>
<path d="M187.75 0H92.5C89.7386 0 87.5 2.23858 87.5 5V73.5476C87.5 76.309 89.7386 78.5476 92.5 78.5476H187.75C190.511 78.5476 192.75 76.309 192.75 73.5476V5C192.75 2.23858 190.511 0 187.75 0Z" fill="#F2F6FB"/>
<path d="M89.3251 13.3613H190.925V77.4711C190.925 78.0233 190.477 78.471 189.923 78.471H90.3266C89.7735 78.471 89.3251 78.0249 89.3251 77.4711V13.3613Z" fill="#F2F6FB"/>
<mask id="mask1_767_7730" style="mask-type:luminance" maskUnits="userSpaceOnUse" x="89" y="13" width="102" height="66">
<path d="M89.3252 13.3604H190.925V77.4701C190.925 78.0224 190.477 78.47 189.923 78.47H90.3266C89.7735 78.47 89.3252 78.0239 89.3252 77.4701V13.3604Z" fill="white"/>
</mask>
<g mask="url(#mask1_767_7730)">
<path d="M145.482 75.4235V80.9647H150.654V83.9201H129.596V80.9647H134.768V75.4235H110.646C110.093 75.4235 109.645 74.978 109.645 74.4232V68.0352H170.605V74.4232C170.605 74.9757 170.158 75.4235 169.604 75.4235H145.482Z" fill="#D8DEED"/>
<path fill-rule="evenodd" clip-rule="evenodd" d="M109.645 34.6792C109.645 34.1272 110.092 33.6797 110.646 33.6797H169.604C170.157 33.6797 170.605 34.1281 170.605 34.6792V69.1437H109.645V34.6792Z" fill="white"/>
<path d="M140.692 55.1896L140.295 55.1949L140.299 55.1896H135.119C134.897 55.1896 134.812 55.0376 134.929 54.8472L138.533 48.9919C138.65 48.8028 138.841 48.7984 138.963 48.9842L141.603 53.067L142.559 51.5101C142.674 51.3226 142.869 51.3192 142.993 51.5009L145.207 54.7554C145.332 54.9379 145.253 55.0915 145.032 55.0984L143.175 55.1566L142.888 55.1604L142.906 55.1896C142.906 55.1896 142.727 55.1896 142.505 55.1896H140.692ZM142.854 49.7806C142.371 49.7806 141.979 49.3807 141.979 48.8874C141.979 48.3941 142.371 47.9941 142.854 47.9941C143.338 47.9941 143.73 48.3941 143.73 48.8874C143.73 49.3807 143.338 49.7806 142.854 49.7806Z" fill="#D8DEED"/>
</g>
<path d="M151.282 25.4189H129.166C128.89 25.4189 128.666 25.6428 128.666 25.9189V28.6017C128.666 28.8778 128.89 29.1017 129.166 29.1017H151.282C151.558 29.1017 151.782 28.8778 151.782 28.6017V25.9189C151.782 25.6428 151.558 25.4189 151.282 25.4189Z" fill="#D8DEED"/>
<path d="M162.84 19.4346H117.608C117.332 19.4346 117.108 19.6584 117.108 19.9346V22.6173C117.108 22.8934 117.332 23.1173 117.608 23.1173H162.84C163.117 23.1173 163.34 22.8934 163.34 22.6173V19.9346C163.34 19.6584 163.117 19.4346 162.84 19.4346Z" fill="#D8DEED"/>
<path d="M87.5 4.45373C87.5 1.994 89.494 0 91.9552 0H188.295C190.755 0 192.75 1.99346 192.75 4.45373V8.90746H87.5V4.45373Z" fill="#E1E5F0"/>
<path d="M93.4824 6.47824C94.5464 6.47824 95.409 5.61719 95.409 4.55504C95.409 3.49288 94.5464 2.63184 93.4824 2.63184C92.4184 2.63184 91.5559 3.49288 91.5559 4.55504C91.5559 5.61719 92.4184 6.47824 93.4824 6.47824Z" fill="#FF5645"/>
<path d="M99.769 6.47824C100.833 6.47824 101.696 5.61719 101.696 4.55504C101.696 3.49288 100.833 2.63184 99.769 2.63184C98.705 2.63184 97.8425 3.49288 97.8425 4.55504C97.8425 5.61719 98.705 6.47824 99.769 6.47824Z" fill="#FFCB3D"/>
<path d="M106.258 6.47824C107.322 6.47824 108.185 5.61719 108.185 4.55504C108.185 3.49288 107.322 2.63184 106.258 2.63184C105.194 2.63184 104.332 3.49288 104.332 4.55504C104.332 5.61719 105.194 6.47824 106.258 6.47824Z" fill="#3ABF7C"/>
</svg>
