<svg width="268" height="267" viewBox="0 0 268 267" fill="none" xmlns="http://www.w3.org/2000/svg">
<circle cx="63.2376" cy="50.2496" r="16.65" fill="#DBEAFE"/>
<circle cx="63.2376" cy="91.8746" r="16.65" fill="#DBEAFE"/>
<circle cx="63.2376" cy="133.5" r="16.65" fill="#DBEAFE"/>
<circle cx="104.863" cy="50.2496" r="16.65" fill="#DBEAFE"/>
<circle cx="104.863" cy="91.8746" r="16.65" fill="#DBEAFE"/>
<circle cx="104.863" cy="133.5" r="16.65" fill="#DBEAFE"/>
<circle cx="146.488" cy="50.2496" r="16.65" fill="#DBEAFE"/>
<rect x="129.838" y="75.2246" width="33.3" height="91.575" rx="16.65" fill="url(#paint0_linear_2_3428)"/>
<path d="M199.911 149.244L140.438 132.348C135.122 130.838 129.838 134.831 129.838 140.356V168.36L110.799 147.709C107.647 144.29 103.208 142.345 98.5575 142.345H97.5546C91.3577 142.345 87.333 148.873 90.117 154.41L124.074 221.937C127.607 228.965 134.801 233.399 142.668 233.399H190.716C200.883 233.399 209.562 226.054 211.242 216.027L217.717 177.397C219.821 164.847 212.152 152.722 199.911 149.244Z" fill="url(#paint1_linear_2_3428)"/>
<defs>
<linearGradient id="paint0_linear_2_3428" x1="146.488" y1="75.2246" x2="146.488" y2="166.8" gradientUnits="userSpaceOnUse">
<stop stop-color="#3B82F6"/>
<stop offset="1" stop-color="#60A5FA"/>
</linearGradient>
<linearGradient id="paint1_linear_2_3428" x1="152.731" y1="129.337" x2="152.731" y2="233.399" gradientUnits="userSpaceOnUse">
<stop stop-color="#3B82F6"/>
<stop offset="1" stop-color="#60A5FA"/>
</linearGradient>
</defs>
</svg>
