<svg width="50" height="32" viewBox="0 0 50 32" fill="none" xmlns="http://www.w3.org/2000/svg">
<rect x="-0.000183105" y="0.5" width="49.6637" height="31" rx="4" fill="#FBFBFB"/>
<path d="M21.2475 21.2736H18.4394L20.1958 11.3877H23.0037L21.2475 21.2736Z" fill="#00579F"/>
<path d="M31.4261 11.6295C30.8722 11.4295 29.9937 11.2086 28.9075 11.2086C26.1344 11.2086 24.1816 12.5547 24.1696 14.4792C24.1466 15.8991 25.5677 16.6877 26.6307 17.1612C27.7171 17.645 28.0864 17.9607 28.0864 18.392C28.0753 19.0542 27.2085 19.3595 26.4 19.3595C25.2789 19.3595 24.6782 19.2021 23.7653 18.8337L23.3955 18.6757L23.0026 20.8949C23.6612 21.168 24.8746 21.4104 26.1344 21.421C29.0808 21.421 30.9991 20.0958 31.0218 18.0449C31.033 16.9195 30.2826 16.0572 28.6647 15.3526C27.6825 14.9002 27.081 14.5952 27.081 14.1324C27.0926 13.7117 27.5898 13.2807 28.6985 13.2807C29.6114 13.2596 30.2821 13.4594 30.7902 13.6592L31.0442 13.7642L31.4261 11.6295Z" fill="#00579F"/>
<path d="M35.1598 17.7714C35.391 17.2035 36.2809 15.0054 36.2809 15.0054C36.2692 15.0265 36.5117 14.427 36.6504 14.0589L36.8466 14.9108C36.8466 14.9108 37.3784 17.2771 37.4938 17.7714C37.055 17.7714 35.7144 17.7714 35.1598 17.7714ZM38.626 11.3877H36.454C35.7841 11.3877 35.2753 11.5664 34.9863 12.208L30.8152 21.2735H33.7616C33.7616 21.2735 34.2467 20.0533 34.351 19.7905C34.6742 19.7905 37.5405 19.7905 37.9564 19.7905C38.037 20.1376 38.2914 21.2735 38.2914 21.2735H40.8915L38.626 11.3877Z" fill="#00579F"/>
<path d="M16.0937 11.3877L13.3436 18.129L13.0431 16.7618C12.5347 15.1842 10.9401 13.4702 9.16071 12.6179L11.6797 21.2631H14.6491L19.063 11.3877H16.0937Z" fill="#00579F"/>
<path d="M10.7899 11.3877H6.27199L6.22577 11.5875C9.75006 12.408 12.0841 14.3857 13.0431 16.7628L12.0609 12.2188C11.8992 11.5873 11.4023 11.4085 10.7899 11.3877Z" fill="#FAA61A"/>
</svg>
