<svg width="104" height="20" viewBox="0 0 104 20" fill="none" xmlns="http://www.w3.org/2000/svg">
<path fill-rule="evenodd" clip-rule="evenodd" d="M13.2486 16.1676H9.64738L6.94693 5.9701C6.81875 5.50102 6.5466 5.08632 6.14628 4.89087C5.14721 4.39969 4.04632 4.00879 2.84534 3.81164V3.41904H8.64656C9.44721 3.41904 10.0477 4.00879 10.1478 4.69372L11.5489 12.0495L15.1484 3.41904H18.6495L13.2486 16.1676ZM20.6511 16.1676H17.25L20.0506 3.41904H23.4516L20.6511 16.1676ZM27.8517 6.95075C27.9518 6.26412 28.5523 5.87152 29.2528 5.87152C30.3537 5.77294 31.553 5.9701 32.5538 6.45957L33.1543 3.71475C32.1535 3.32215 31.0526 3.125 30.0535 3.125C26.7526 3.125 24.3506 4.89086 24.3506 7.34166C24.3506 9.20609 26.052 10.1851 27.253 10.7748C28.5523 11.3629 29.0527 11.7555 28.9526 12.3435C28.9526 13.2256 27.9518 13.6182 26.9527 13.6182C25.7517 13.6182 24.5508 13.3242 23.4516 12.833L22.8511 15.5795C24.0521 16.069 25.3514 16.2661 26.5524 16.2661C30.2537 16.363 32.5538 14.5989 32.5538 11.9509C32.5538 8.61634 27.8517 8.42089 27.8517 6.95075ZM44.4564 16.1676L41.756 3.41904H38.8554C38.2549 3.41904 37.6544 3.81164 37.4542 4.39969L32.4537 16.1676H35.9548L36.6536 14.3048H40.9553L41.3557 16.1676H44.4564ZM39.3558 6.85224L40.3549 11.6569H37.5543L39.3558 6.85224Z" fill="#172B85"/>
<path fill-rule="evenodd" clip-rule="evenodd" d="M77.4318 16.3675C75.9484 17.5933 74.0242 18.3333 71.9216 18.3333C67.23 18.3333 63.4268 14.649 63.4268 10.1042C63.4268 5.55932 67.23 1.875 71.9216 1.875C74.0242 1.875 75.9484 2.61502 77.4318 3.84086C78.9152 2.61502 80.8394 1.875 82.942 1.875C87.6335 1.875 91.4368 5.55932 91.4368 10.1042C91.4368 14.649 87.6335 18.3333 82.942 18.3333C80.8394 18.3333 78.9152 17.5933 77.4318 16.3675Z" fill="#ED0006"/>
<path fill-rule="evenodd" clip-rule="evenodd" d="M77.4318 16.3675C79.2583 14.8581 80.4164 12.6122 80.4164 10.1042C80.4164 7.59616 79.2583 5.35021 77.4318 3.84083C78.9151 2.615 80.8393 1.875 82.9419 1.875C87.6335 1.875 91.4368 5.55932 91.4368 10.1042C91.4368 14.649 87.6335 18.3333 82.9419 18.3333C80.8393 18.3333 78.9151 17.5933 77.4318 16.3675Z" fill="#F9A000"/>
<path fill-rule="evenodd" clip-rule="evenodd" d="M77.4318 16.3674C79.2583 14.8581 80.4164 12.6121 80.4164 10.1041C80.4164 7.59614 79.2583 5.3502 77.4318 3.84082C75.6053 5.3502 74.4471 7.59614 74.4471 10.1041C74.4471 12.6121 75.6053 14.8581 77.4318 16.3674Z" fill="#FF5E00"/>
</svg>
