<svg width="158" height="163" viewBox="0 0 158 163" fill="none" xmlns="http://www.w3.org/2000/svg">
<path fill-rule="evenodd" clip-rule="evenodd" d="M73.155 35.8028C58.405 39.1528 48.155 47.6128 42.075 53.0528C24.655 68.6028 6.44501 98.8828 14.305 122.963C16.915 130.963 20.685 135.533 29.005 137.243C33.825 138.243 38.585 136.243 43.255 135.243C49.135 134.043 57.015 133.873 62.805 135.633C70.205 137.883 76.185 144.183 81.685 149.303C89.125 156.213 97.685 162.363 108.185 162.743C111.05 162.795 113.895 162.261 116.545 161.173C130.915 155.603 144.215 138.783 146.935 123.633C147.935 117.983 148.265 111.713 145.415 106.493C141.665 99.6427 134.655 95.8428 128.735 91.1928C123.577 87.0637 119.058 82.1943 115.325 76.7428C111.781 71.3601 109.397 65.2979 108.325 58.9427C107.515 54.4027 107.515 49.4027 105.515 45.1527C100.005 32.9327 85.345 33.0328 73.155 35.8028Z" fill="url(#paint0_linear_1066_16841)"/>
<path d="M8.61499 24.7031C19.445 34.9031 31.105 44.2332 42.165 54.1732C48.945 60.2732 55.545 67.5032 63.085 72.6732" stroke="#D6E2EA" stroke-linejoin="round"/>
<path d="M18.655 18.1934C36.815 31.1934 51.975 49.0734 68.655 64.0034" stroke="#D6E2EA" stroke-linejoin="round"/>
<path d="M16.095 41.6229C23.225 34.0429 29.305 25.6229 36.345 17.9629" stroke="#D6E2EA" stroke-linejoin="round"/>
<path d="M15.515 50.7129C26.685 61.8529 38.815 72.2129 50.835 82.4129" stroke="#D6E2EA" stroke-linejoin="round"/>
<path d="M41.785 19.6729C53.3507 30.9684 65.5007 41.6497 78.185 51.6729" stroke="#D6E2EA" stroke-linejoin="round"/>
<path d="M13.715 64.6925C19.275 59.6925 23.395 53.3625 28.445 47.8925C37.825 37.7325 48.145 27.0425 55.575 15.3125" stroke="#D6E2EA" stroke-linejoin="round"/>
<path d="M20.345 80.3226C36.455 59.3226 55.105 40.0126 72.345 19.9326" stroke="#D6E2EA" stroke-linejoin="round"/>
<path d="M37.345 82.4025C42.745 77.2825 47.235 71.2825 52.265 65.8125C61.745 55.4925 71.265 45.2325 80.655 34.8125" stroke="#D6E2EA" stroke-linejoin="round"/>
<path d="M28.775 96.4027C26.265 88.6027 19.175 90.7927 12.855 90.5027C10.3981 90.4428 7.9992 89.7436 5.8949 88.474C3.79059 87.2044 2.05352 85.4083 0.85498 83.2627" stroke="#279FF2" stroke-linejoin="round"/>
<path d="M100.035 30.9429C91.725 20.4529 107.865 13.613 113.035 7.60297C114.865 5.50297 115.725 2.85293 116.545 0.25293" stroke="#279FF2" stroke-linejoin="round"/>
<path d="M103.145 30.5531C104.765 22.8131 111.505 18.7931 118.875 18.1631" stroke="#A14DF6" stroke-linejoin="round"/>
<path d="M140.755 88.2327C151.575 84.4827 152.525 81.8327 157.145 72.0527" stroke="#A14DF6" stroke-linejoin="round"/>
<path d="M33.335 96.8027C34.795 91.2727 32.465 88.3027 28.735 84.2227" stroke="#A14DF6" stroke-linejoin="round"/>
<path d="M142.355 92.1632C146.355 91.5332 149.685 93.0232 153.555 93.0132" stroke="#A14DF6" stroke-linejoin="round"/>
<path d="M63.865 3.40332C65.085 5.54332 66.145 7.77333 67.375 9.91333" stroke="#F56C2C" stroke-linejoin="round"/>
<path d="M67.925 3.90332C66.575 6.31332 64.865 8.40335 63.345 10.6833" stroke="#F56C2C" stroke-linejoin="round"/>
<path d="M13.015 127.183C17.3456 127.452 21.6238 128.275 25.745 129.633" stroke="#F56C2C" stroke-linejoin="round"/>
<path d="M18.625 120.863C19.375 126.293 20.175 131.753 20.735 137.203" stroke="#F56C2C" stroke-linejoin="round"/>
<path d="M23.305 132.133C20.795 129.133 17.955 126.253 15.225 123.443" stroke="#F56C2C" stroke-linejoin="round"/>
<path d="M15.115 132.403C18.255 129.213 21.495 126.313 24.445 122.993" stroke="#F56C2C" stroke-linejoin="round"/>
<path fill-rule="evenodd" clip-rule="evenodd" d="M133.885 68.0626C133.885 66.1159 133.112 64.249 131.735 62.8725C130.359 61.496 128.492 60.7227 126.545 60.7227H57.915V124.133H133.915L133.885 68.0626Z" fill="url(#paint1_linear_1066_16841)"/>
<path fill-rule="evenodd" clip-rule="evenodd" d="M104.365 82.9328C120.705 76.6428 118.785 67.0628 128.055 58.2728C137.325 49.4828 144.605 45.1028 154.055 39.4328C154.355 39.2428 120.575 28.4328 120.175 28.5428C102.905 34.4028 96.515 42.6528 89.715 51.2628C82.915 59.8728 81.715 68.9828 62.645 81.0228C62.645 81.0228 104.175 83.0128 104.365 82.9328Z" fill="url(#paint2_linear_1066_16841)"/>
<path fill-rule="evenodd" clip-rule="evenodd" d="M133.885 80.1426H40.405V143.553H124.035C126.647 143.553 129.153 142.515 131 140.668C132.847 138.82 133.885 136.315 133.885 133.703V80.1426Z" fill="url(#paint3_linear_1066_16841)"/>
<path fill-rule="evenodd" clip-rule="evenodd" d="M67.455 110.403C67.455 108.135 66.5541 105.96 64.9507 104.357C63.3473 102.753 61.1726 101.853 58.905 101.853H33.825V118.953H58.905C61.1726 118.953 63.3473 118.052 64.9507 116.448C66.5541 114.845 67.455 112.67 67.455 110.403Z" fill="#5E5E69"/>
<path d="M146.515 101.823C147.225 109.143 145.325 116.233 145.565 123.453" stroke="#F56C2C" stroke-linejoin="round"/>
<path d="M139.245 112.093C144.185 113.743 149.445 113.303 154.575 113.643" stroke="#F56C2C" stroke-linejoin="round"/>
<path d="M140.265 105.973C143.705 111.253 148.725 115.433 152.015 120.763" stroke="#F56C2C" stroke-linejoin="round"/>
<path d="M139.945 120.403C142.475 116.143 148.595 110.043 152.695 106.833" stroke="#F56C2C" stroke-linejoin="round"/>
<path d="M50.725 80.5234C66.045 80.5234 81.355 80.1134 96.675 80.1334C102.085 80.1334 107.475 80.0034 112.865 79.8734C116.195 79.7834 119.595 80.0634 122.865 79.4734C126.135 78.8834 129.505 77.1534 131.105 74.2734C133.745 69.4834 131.415 62.2734 125.595 61.2734" stroke="black" stroke-linejoin="round"/>
<path d="M58.405 71.1433C58.055 68.6333 58.295 66.1433 58.195 63.6033C58.195 63.2433 57.795 61.5133 58.035 61.2233C58.565 60.5933 60.575 60.9934 61.315 61.0534C64.315 61.2934 67.315 60.9033 70.315 60.9233" stroke="black" stroke-linejoin="round"/>
<path d="M68.845 76.8127C72.1754 74.6322 75.2019 72.0194 77.845 69.0427C81.845 64.2927 84.635 58.6427 88.245 53.5927C94.245 45.1727 100.995 38.3027 109.945 33.0727C113.225 31.1627 116.945 28.9627 120.735 28.2427C121.235 28.1527 122.935 29.4527 123.475 29.6827C126.135 30.7827 128.955 31.5027 131.645 32.5227" stroke="black" stroke-linejoin="round"/>
<path d="M84.205 143.742C87.785 143.572 91.3649 143.832 94.9449 143.742C101.595 143.532 108.245 143.292 114.945 143.272C119.945 143.272 126.025 143.932 130.015 140.142C135.185 135.242 134.625 126.142 133.665 119.732" stroke="black" stroke-linejoin="round"/>
<path d="M34.175 108.133C34.175 110.333 34.415 112.543 34.375 114.743C34.375 116.083 34.005 118.093 34.375 119.383C34.8973 119.361 35.4181 119.311 35.935 119.233C36.953 119.143 37.977 119.143 38.995 119.233C44.155 119.503 49.325 118.563 54.495 118.613" stroke="black" stroke-linejoin="round"/>
<defs>
<linearGradient id="paint0_linear_1066_16841" x1="80.0387" y1="34.2793" x2="80.0387" y2="162.746" gradientUnits="userSpaceOnUse">
<stop stop-color="#FC7565" stop-opacity="0.8084"/>
<stop offset="1" stop-color="#DD6438"/>
</linearGradient>
<linearGradient id="paint1_linear_1066_16841" x1="95.915" y1="60.7227" x2="95.915" y2="124.133" gradientUnits="userSpaceOnUse">
<stop stop-color="#A8A8B6"/>
<stop offset="1" stop-color="#4A4A50"/>
</linearGradient>
<linearGradient id="paint2_linear_1066_16841" x1="108.351" y1="28.542" x2="108.351" y2="82.9352" gradientUnits="userSpaceOnUse">
<stop stop-color="#3ABF7C"/>
<stop offset="1" stop-color="#2E6720"/>
</linearGradient>
<linearGradient id="paint3_linear_1066_16841" x1="87.145" y1="80.1426" x2="87.145" y2="143.553" gradientUnits="userSpaceOnUse">
<stop stop-color="#A8A8B6"/>
<stop offset="1" stop-color="#4A4A50"/>
</linearGradient>
</defs>
</svg>
